%TF.GenerationSoftware,KiCad,Pcbnew,10.0.0*%
%TF.CreationDate,2026-04-25T23:15:49-07:00*%
%TF.ProjectId,EE_201_FINAL_final_sensor,45455f32-3031-45f4-9649-4e414c5f6669,rev?*%
%TF.SameCoordinates,Original*%
%TF.FileFunction,Legend,Top*%
%TF.FilePolarity,Positive*%
%FSLAX46Y46*%
G04 Gerber Fmt 4.6, Leading zero omitted, Abs format (unit mm)*
G04 Created by KiCad (PCBNEW 10.0.0) date 2026-04-25 23:15:49*
%MOMM*%
%LPD*%
G01*
G04 APERTURE LIST*
%ADD10C,0.150000*%
%ADD11C,0.153000*%
%ADD12C,0.250000*%
%ADD13C,0.312500*%
%ADD14C,0.120000*%
G04 APERTURE END LIST*
D10*
X110214286Y-93954819D02*
X110833333Y-93954819D01*
X110833333Y-93954819D02*
X110500000Y-94335771D01*
X110500000Y-94335771D02*
X110642857Y-94335771D01*
X110642857Y-94335771D02*
X110738095Y-94383390D01*
X110738095Y-94383390D02*
X110785714Y-94431009D01*
X110785714Y-94431009D02*
X110833333Y-94526247D01*
X110833333Y-94526247D02*
X110833333Y-94764342D01*
X110833333Y-94764342D02*
X110785714Y-94859580D01*
X110785714Y-94859580D02*
X110738095Y-94907200D01*
X110738095Y-94907200D02*
X110642857Y-94954819D01*
X110642857Y-94954819D02*
X110357143Y-94954819D01*
X110357143Y-94954819D02*
X110261905Y-94907200D01*
X110261905Y-94907200D02*
X110214286Y-94859580D01*
X111166667Y-93954819D02*
X111785714Y-93954819D01*
X111785714Y-93954819D02*
X111452381Y-94335771D01*
X111452381Y-94335771D02*
X111595238Y-94335771D01*
X111595238Y-94335771D02*
X111690476Y-94383390D01*
X111690476Y-94383390D02*
X111738095Y-94431009D01*
X111738095Y-94431009D02*
X111785714Y-94526247D01*
X111785714Y-94526247D02*
X111785714Y-94764342D01*
X111785714Y-94764342D02*
X111738095Y-94859580D01*
X111738095Y-94859580D02*
X111690476Y-94907200D01*
X111690476Y-94907200D02*
X111595238Y-94954819D01*
X111595238Y-94954819D02*
X111309524Y-94954819D01*
X111309524Y-94954819D02*
X111214286Y-94907200D01*
X111214286Y-94907200D02*
X111166667Y-94859580D01*
X112404762Y-93954819D02*
X112500000Y-93954819D01*
X112500000Y-93954819D02*
X112595238Y-94002438D01*
X112595238Y-94002438D02*
X112642857Y-94050057D01*
X112642857Y-94050057D02*
X112690476Y-94145295D01*
X112690476Y-94145295D02*
X112738095Y-94335771D01*
X112738095Y-94335771D02*
X112738095Y-94573866D01*
X112738095Y-94573866D02*
X112690476Y-94764342D01*
X112690476Y-94764342D02*
X112642857Y-94859580D01*
X112642857Y-94859580D02*
X112595238Y-94907200D01*
X112595238Y-94907200D02*
X112500000Y-94954819D01*
X112500000Y-94954819D02*
X112404762Y-94954819D01*
X112404762Y-94954819D02*
X112309524Y-94907200D01*
X112309524Y-94907200D02*
X112261905Y-94859580D01*
X112261905Y-94859580D02*
X112214286Y-94764342D01*
X112214286Y-94764342D02*
X112166667Y-94573866D01*
X112166667Y-94573866D02*
X112166667Y-94335771D01*
X112166667Y-94335771D02*
X112214286Y-94145295D01*
X112214286Y-94145295D02*
X112261905Y-94050057D01*
X112261905Y-94050057D02*
X112309524Y-94002438D01*
X112309524Y-94002438D02*
X112404762Y-93954819D01*
X125285714Y-94954819D02*
X124714286Y-94954819D01*
X125000000Y-94954819D02*
X125000000Y-93954819D01*
X125000000Y-93954819D02*
X124904762Y-94097676D01*
X124904762Y-94097676D02*
X124809524Y-94192914D01*
X124809524Y-94192914D02*
X124714286Y-94240533D01*
X125714286Y-94954819D02*
X125714286Y-93954819D01*
X126285714Y-94954819D02*
X125857143Y-94383390D01*
X126285714Y-93954819D02*
X125714286Y-94526247D01*
X131238095Y-112002438D02*
X131142857Y-111954819D01*
X131142857Y-111954819D02*
X131000000Y-111954819D01*
X131000000Y-111954819D02*
X130857143Y-112002438D01*
X130857143Y-112002438D02*
X130761905Y-112097676D01*
X130761905Y-112097676D02*
X130714286Y-112192914D01*
X130714286Y-112192914D02*
X130666667Y-112383390D01*
X130666667Y-112383390D02*
X130666667Y-112526247D01*
X130666667Y-112526247D02*
X130714286Y-112716723D01*
X130714286Y-112716723D02*
X130761905Y-112811961D01*
X130761905Y-112811961D02*
X130857143Y-112907200D01*
X130857143Y-112907200D02*
X131000000Y-112954819D01*
X131000000Y-112954819D02*
X131095238Y-112954819D01*
X131095238Y-112954819D02*
X131238095Y-112907200D01*
X131238095Y-112907200D02*
X131285714Y-112859580D01*
X131285714Y-112859580D02*
X131285714Y-112526247D01*
X131285714Y-112526247D02*
X131095238Y-112526247D01*
X131714286Y-112954819D02*
X131714286Y-111954819D01*
X131714286Y-111954819D02*
X132285714Y-112954819D01*
X132285714Y-112954819D02*
X132285714Y-111954819D01*
X132761905Y-112954819D02*
X132761905Y-111954819D01*
X132761905Y-111954819D02*
X133000000Y-111954819D01*
X133000000Y-111954819D02*
X133142857Y-112002438D01*
X133142857Y-112002438D02*
X133238095Y-112097676D01*
X133238095Y-112097676D02*
X133285714Y-112192914D01*
X133285714Y-112192914D02*
X133333333Y-112383390D01*
X133333333Y-112383390D02*
X133333333Y-112526247D01*
X133333333Y-112526247D02*
X133285714Y-112716723D01*
X133285714Y-112716723D02*
X133238095Y-112811961D01*
X133238095Y-112811961D02*
X133142857Y-112907200D01*
X133142857Y-112907200D02*
X133000000Y-112954819D01*
X133000000Y-112954819D02*
X132761905Y-112954819D01*
X138785714Y-94954819D02*
X138214286Y-94954819D01*
X138500000Y-94954819D02*
X138500000Y-93954819D01*
X138500000Y-93954819D02*
X138404762Y-94097676D01*
X138404762Y-94097676D02*
X138309524Y-94192914D01*
X138309524Y-94192914D02*
X138214286Y-94240533D01*
X139214286Y-94954819D02*
X139214286Y-93954819D01*
X139785714Y-94954819D02*
X139357143Y-94383390D01*
X139785714Y-93954819D02*
X139214286Y-94526247D01*
X144738095Y-112002438D02*
X144642857Y-111954819D01*
X144642857Y-111954819D02*
X144500000Y-111954819D01*
X144500000Y-111954819D02*
X144357143Y-112002438D01*
X144357143Y-112002438D02*
X144261905Y-112097676D01*
X144261905Y-112097676D02*
X144214286Y-112192914D01*
X144214286Y-112192914D02*
X144166667Y-112383390D01*
X144166667Y-112383390D02*
X144166667Y-112526247D01*
X144166667Y-112526247D02*
X144214286Y-112716723D01*
X144214286Y-112716723D02*
X144261905Y-112811961D01*
X144261905Y-112811961D02*
X144357143Y-112907200D01*
X144357143Y-112907200D02*
X144500000Y-112954819D01*
X144500000Y-112954819D02*
X144595238Y-112954819D01*
X144595238Y-112954819D02*
X144738095Y-112907200D01*
X144738095Y-112907200D02*
X144785714Y-112859580D01*
X144785714Y-112859580D02*
X144785714Y-112526247D01*
X144785714Y-112526247D02*
X144595238Y-112526247D01*
X145214286Y-112954819D02*
X145214286Y-111954819D01*
X145214286Y-111954819D02*
X145785714Y-112954819D01*
X145785714Y-112954819D02*
X145785714Y-111954819D01*
X146261905Y-112954819D02*
X146261905Y-111954819D01*
X146261905Y-111954819D02*
X146500000Y-111954819D01*
X146500000Y-111954819D02*
X146642857Y-112002438D01*
X146642857Y-112002438D02*
X146738095Y-112097676D01*
X146738095Y-112097676D02*
X146785714Y-112192914D01*
X146785714Y-112192914D02*
X146833333Y-112383390D01*
X146833333Y-112383390D02*
X146833333Y-112526247D01*
X146833333Y-112526247D02*
X146785714Y-112716723D01*
X146785714Y-112716723D02*
X146738095Y-112811961D01*
X146738095Y-112811961D02*
X146642857Y-112907200D01*
X146642857Y-112907200D02*
X146500000Y-112954819D01*
X146500000Y-112954819D02*
X146261905Y-112954819D01*
X152285714Y-94954819D02*
X151714286Y-94954819D01*
X152000000Y-94954819D02*
X152000000Y-93954819D01*
X152000000Y-93954819D02*
X151904762Y-94097676D01*
X151904762Y-94097676D02*
X151809524Y-94192914D01*
X151809524Y-94192914D02*
X151714286Y-94240533D01*
X152714286Y-94954819D02*
X152714286Y-93954819D01*
X153285714Y-94954819D02*
X152857143Y-94383390D01*
X153285714Y-93954819D02*
X152714286Y-94526247D01*
X158738095Y-112002438D02*
X158642857Y-111954819D01*
X158642857Y-111954819D02*
X158500000Y-111954819D01*
X158500000Y-111954819D02*
X158357143Y-112002438D01*
X158357143Y-112002438D02*
X158261905Y-112097676D01*
X158261905Y-112097676D02*
X158214286Y-112192914D01*
X158214286Y-112192914D02*
X158166667Y-112383390D01*
X158166667Y-112383390D02*
X158166667Y-112526247D01*
X158166667Y-112526247D02*
X158214286Y-112716723D01*
X158214286Y-112716723D02*
X158261905Y-112811961D01*
X158261905Y-112811961D02*
X158357143Y-112907200D01*
X158357143Y-112907200D02*
X158500000Y-112954819D01*
X158500000Y-112954819D02*
X158595238Y-112954819D01*
X158595238Y-112954819D02*
X158738095Y-112907200D01*
X158738095Y-112907200D02*
X158785714Y-112859580D01*
X158785714Y-112859580D02*
X158785714Y-112526247D01*
X158785714Y-112526247D02*
X158595238Y-112526247D01*
X159214286Y-112954819D02*
X159214286Y-111954819D01*
X159214286Y-111954819D02*
X159785714Y-112954819D01*
X159785714Y-112954819D02*
X159785714Y-111954819D01*
X160261905Y-112954819D02*
X160261905Y-111954819D01*
X160261905Y-111954819D02*
X160500000Y-111954819D01*
X160500000Y-111954819D02*
X160642857Y-112002438D01*
X160642857Y-112002438D02*
X160738095Y-112097676D01*
X160738095Y-112097676D02*
X160785714Y-112192914D01*
X160785714Y-112192914D02*
X160833333Y-112383390D01*
X160833333Y-112383390D02*
X160833333Y-112526247D01*
X160833333Y-112526247D02*
X160785714Y-112716723D01*
X160785714Y-112716723D02*
X160738095Y-112811961D01*
X160738095Y-112811961D02*
X160642857Y-112907200D01*
X160642857Y-112907200D02*
X160500000Y-112954819D01*
X160500000Y-112954819D02*
X160261905Y-112954819D01*
X165785714Y-94954819D02*
X165214286Y-94954819D01*
X165500000Y-94954819D02*
X165500000Y-93954819D01*
X165500000Y-93954819D02*
X165404762Y-94097676D01*
X165404762Y-94097676D02*
X165309524Y-94192914D01*
X165309524Y-94192914D02*
X165214286Y-94240533D01*
X166214286Y-94954819D02*
X166214286Y-93954819D01*
X166785714Y-94954819D02*
X166357143Y-94383390D01*
X166785714Y-93954819D02*
X166214286Y-94526247D01*
X172238095Y-112002438D02*
X172142857Y-111954819D01*
X172142857Y-111954819D02*
X172000000Y-111954819D01*
X172000000Y-111954819D02*
X171857143Y-112002438D01*
X171857143Y-112002438D02*
X171761905Y-112097676D01*
X171761905Y-112097676D02*
X171714286Y-112192914D01*
X171714286Y-112192914D02*
X171666667Y-112383390D01*
X171666667Y-112383390D02*
X171666667Y-112526247D01*
X171666667Y-112526247D02*
X171714286Y-112716723D01*
X171714286Y-112716723D02*
X171761905Y-112811961D01*
X171761905Y-112811961D02*
X171857143Y-112907200D01*
X171857143Y-112907200D02*
X172000000Y-112954819D01*
X172000000Y-112954819D02*
X172095238Y-112954819D01*
X172095238Y-112954819D02*
X172238095Y-112907200D01*
X172238095Y-112907200D02*
X172285714Y-112859580D01*
X172285714Y-112859580D02*
X172285714Y-112526247D01*
X172285714Y-112526247D02*
X172095238Y-112526247D01*
X172714286Y-112954819D02*
X172714286Y-111954819D01*
X172714286Y-111954819D02*
X173285714Y-112954819D01*
X173285714Y-112954819D02*
X173285714Y-111954819D01*
X173761905Y-112954819D02*
X173761905Y-111954819D01*
X173761905Y-111954819D02*
X174000000Y-111954819D01*
X174000000Y-111954819D02*
X174142857Y-112002438D01*
X174142857Y-112002438D02*
X174238095Y-112097676D01*
X174238095Y-112097676D02*
X174285714Y-112192914D01*
X174285714Y-112192914D02*
X174333333Y-112383390D01*
X174333333Y-112383390D02*
X174333333Y-112526247D01*
X174333333Y-112526247D02*
X174285714Y-112716723D01*
X174285714Y-112716723D02*
X174238095Y-112811961D01*
X174238095Y-112811961D02*
X174142857Y-112907200D01*
X174142857Y-112907200D02*
X174000000Y-112954819D01*
X174000000Y-112954819D02*
X173761905Y-112954819D01*
X179285714Y-94954819D02*
X178714286Y-94954819D01*
X179000000Y-94954819D02*
X179000000Y-93954819D01*
X179000000Y-93954819D02*
X178904762Y-94097676D01*
X178904762Y-94097676D02*
X178809524Y-94192914D01*
X178809524Y-94192914D02*
X178714286Y-94240533D01*
X179714286Y-94954819D02*
X179714286Y-93954819D01*
X180285714Y-94954819D02*
X179857143Y-94383390D01*
X180285714Y-93954819D02*
X179714286Y-94526247D01*
X185738095Y-112002438D02*
X185642857Y-111954819D01*
X185642857Y-111954819D02*
X185500000Y-111954819D01*
X185500000Y-111954819D02*
X185357143Y-112002438D01*
X185357143Y-112002438D02*
X185261905Y-112097676D01*
X185261905Y-112097676D02*
X185214286Y-112192914D01*
X185214286Y-112192914D02*
X185166667Y-112383390D01*
X185166667Y-112383390D02*
X185166667Y-112526247D01*
X185166667Y-112526247D02*
X185214286Y-112716723D01*
X185214286Y-112716723D02*
X185261905Y-112811961D01*
X185261905Y-112811961D02*
X185357143Y-112907200D01*
X185357143Y-112907200D02*
X185500000Y-112954819D01*
X185500000Y-112954819D02*
X185595238Y-112954819D01*
X185595238Y-112954819D02*
X185738095Y-112907200D01*
X185738095Y-112907200D02*
X185785714Y-112859580D01*
X185785714Y-112859580D02*
X185785714Y-112526247D01*
X185785714Y-112526247D02*
X185595238Y-112526247D01*
X186214286Y-112954819D02*
X186214286Y-111954819D01*
X186214286Y-111954819D02*
X186785714Y-112954819D01*
X186785714Y-112954819D02*
X186785714Y-111954819D01*
X187261905Y-112954819D02*
X187261905Y-111954819D01*
X187261905Y-111954819D02*
X187500000Y-111954819D01*
X187500000Y-111954819D02*
X187642857Y-112002438D01*
X187642857Y-112002438D02*
X187738095Y-112097676D01*
X187738095Y-112097676D02*
X187785714Y-112192914D01*
X187785714Y-112192914D02*
X187833333Y-112383390D01*
X187833333Y-112383390D02*
X187833333Y-112526247D01*
X187833333Y-112526247D02*
X187785714Y-112716723D01*
X187785714Y-112716723D02*
X187738095Y-112811961D01*
X187738095Y-112811961D02*
X187642857Y-112907200D01*
X187642857Y-112907200D02*
X187500000Y-112954819D01*
X187500000Y-112954819D02*
X187261905Y-112954819D01*
X192785714Y-94954819D02*
X192214286Y-94954819D01*
X192500000Y-94954819D02*
X192500000Y-93954819D01*
X192500000Y-93954819D02*
X192404762Y-94097676D01*
X192404762Y-94097676D02*
X192309524Y-94192914D01*
X192309524Y-94192914D02*
X192214286Y-94240533D01*
X193214286Y-94954819D02*
X193214286Y-93954819D01*
X193785714Y-94954819D02*
X193357143Y-94383390D01*
X193785714Y-93954819D02*
X193214286Y-94526247D01*
X112669104Y-111214285D02*
X112669104Y-110738095D01*
X112954819Y-111309523D02*
X111954819Y-110976190D01*
X111954819Y-110976190D02*
X112954819Y-110642857D01*
X112383390Y-110166666D02*
X112335771Y-110261904D01*
X112335771Y-110261904D02*
X112288152Y-110309523D01*
X112288152Y-110309523D02*
X112192914Y-110357142D01*
X112192914Y-110357142D02*
X112145295Y-110357142D01*
X112145295Y-110357142D02*
X112050057Y-110309523D01*
X112050057Y-110309523D02*
X112002438Y-110261904D01*
X112002438Y-110261904D02*
X111954819Y-110166666D01*
X111954819Y-110166666D02*
X111954819Y-109976190D01*
X111954819Y-109976190D02*
X112002438Y-109880952D01*
X112002438Y-109880952D02*
X112050057Y-109833333D01*
X112050057Y-109833333D02*
X112145295Y-109785714D01*
X112145295Y-109785714D02*
X112192914Y-109785714D01*
X112192914Y-109785714D02*
X112288152Y-109833333D01*
X112288152Y-109833333D02*
X112335771Y-109880952D01*
X112335771Y-109880952D02*
X112383390Y-109976190D01*
X112383390Y-109976190D02*
X112383390Y-110166666D01*
X112383390Y-110166666D02*
X112431009Y-110261904D01*
X112431009Y-110261904D02*
X112478628Y-110309523D01*
X112478628Y-110309523D02*
X112573866Y-110357142D01*
X112573866Y-110357142D02*
X112764342Y-110357142D01*
X112764342Y-110357142D02*
X112859580Y-110309523D01*
X112859580Y-110309523D02*
X112907200Y-110261904D01*
X112907200Y-110261904D02*
X112954819Y-110166666D01*
X112954819Y-110166666D02*
X112954819Y-109976190D01*
X112954819Y-109976190D02*
X112907200Y-109880952D01*
X112907200Y-109880952D02*
X112859580Y-109833333D01*
X112859580Y-109833333D02*
X112764342Y-109785714D01*
X112764342Y-109785714D02*
X112573866Y-109785714D01*
X112573866Y-109785714D02*
X112478628Y-109833333D01*
X112478628Y-109833333D02*
X112431009Y-109880952D01*
X112431009Y-109880952D02*
X112383390Y-109976190D01*
X140669104Y-111690475D02*
X140669104Y-111214285D01*
X140954819Y-111785713D02*
X139954819Y-111452380D01*
X139954819Y-111452380D02*
X140954819Y-111119047D01*
X140954819Y-110261904D02*
X140954819Y-110833332D01*
X140954819Y-110547618D02*
X139954819Y-110547618D01*
X139954819Y-110547618D02*
X140097676Y-110642856D01*
X140097676Y-110642856D02*
X140192914Y-110738094D01*
X140192914Y-110738094D02*
X140240533Y-110833332D01*
X139954819Y-109642856D02*
X139954819Y-109547618D01*
X139954819Y-109547618D02*
X140002438Y-109452380D01*
X140002438Y-109452380D02*
X140050057Y-109404761D01*
X140050057Y-109404761D02*
X140145295Y-109357142D01*
X140145295Y-109357142D02*
X140335771Y-109309523D01*
X140335771Y-109309523D02*
X140573866Y-109309523D01*
X140573866Y-109309523D02*
X140764342Y-109357142D01*
X140764342Y-109357142D02*
X140859580Y-109404761D01*
X140859580Y-109404761D02*
X140907200Y-109452380D01*
X140907200Y-109452380D02*
X140954819Y-109547618D01*
X140954819Y-109547618D02*
X140954819Y-109642856D01*
X140954819Y-109642856D02*
X140907200Y-109738094D01*
X140907200Y-109738094D02*
X140859580Y-109785713D01*
X140859580Y-109785713D02*
X140764342Y-109833332D01*
X140764342Y-109833332D02*
X140573866Y-109880951D01*
X140573866Y-109880951D02*
X140335771Y-109880951D01*
X140335771Y-109880951D02*
X140145295Y-109833332D01*
X140145295Y-109833332D02*
X140050057Y-109785713D01*
X140050057Y-109785713D02*
X140002438Y-109738094D01*
X140002438Y-109738094D02*
X139954819Y-109642856D01*
X154169104Y-112190475D02*
X154169104Y-111714285D01*
X154454819Y-112285713D02*
X153454819Y-111952380D01*
X153454819Y-111952380D02*
X154454819Y-111619047D01*
X154454819Y-110761904D02*
X154454819Y-111333332D01*
X154454819Y-111047618D02*
X153454819Y-111047618D01*
X153454819Y-111047618D02*
X153597676Y-111142856D01*
X153597676Y-111142856D02*
X153692914Y-111238094D01*
X153692914Y-111238094D02*
X153740533Y-111333332D01*
X154454819Y-109809523D02*
X154454819Y-110380951D01*
X154454819Y-110095237D02*
X153454819Y-110095237D01*
X153454819Y-110095237D02*
X153597676Y-110190475D01*
X153597676Y-110190475D02*
X153692914Y-110285713D01*
X153692914Y-110285713D02*
X153740533Y-110380951D01*
X168169104Y-112190475D02*
X168169104Y-111714285D01*
X168454819Y-112285713D02*
X167454819Y-111952380D01*
X167454819Y-111952380D02*
X168454819Y-111619047D01*
X168454819Y-110761904D02*
X168454819Y-111333332D01*
X168454819Y-111047618D02*
X167454819Y-111047618D01*
X167454819Y-111047618D02*
X167597676Y-111142856D01*
X167597676Y-111142856D02*
X167692914Y-111238094D01*
X167692914Y-111238094D02*
X167740533Y-111333332D01*
X167550057Y-110380951D02*
X167502438Y-110333332D01*
X167502438Y-110333332D02*
X167454819Y-110238094D01*
X167454819Y-110238094D02*
X167454819Y-109999999D01*
X167454819Y-109999999D02*
X167502438Y-109904761D01*
X167502438Y-109904761D02*
X167550057Y-109857142D01*
X167550057Y-109857142D02*
X167645295Y-109809523D01*
X167645295Y-109809523D02*
X167740533Y-109809523D01*
X167740533Y-109809523D02*
X167883390Y-109857142D01*
X167883390Y-109857142D02*
X168454819Y-110428570D01*
X168454819Y-110428570D02*
X168454819Y-109809523D01*
X181669104Y-112190475D02*
X181669104Y-111714285D01*
X181954819Y-112285713D02*
X180954819Y-111952380D01*
X180954819Y-111952380D02*
X181954819Y-111619047D01*
X181954819Y-110761904D02*
X181954819Y-111333332D01*
X181954819Y-111047618D02*
X180954819Y-111047618D01*
X180954819Y-111047618D02*
X181097676Y-111142856D01*
X181097676Y-111142856D02*
X181192914Y-111238094D01*
X181192914Y-111238094D02*
X181240533Y-111333332D01*
X180954819Y-110428570D02*
X180954819Y-109809523D01*
X180954819Y-109809523D02*
X181335771Y-110142856D01*
X181335771Y-110142856D02*
X181335771Y-109999999D01*
X181335771Y-109999999D02*
X181383390Y-109904761D01*
X181383390Y-109904761D02*
X181431009Y-109857142D01*
X181431009Y-109857142D02*
X181526247Y-109809523D01*
X181526247Y-109809523D02*
X181764342Y-109809523D01*
X181764342Y-109809523D02*
X181859580Y-109857142D01*
X181859580Y-109857142D02*
X181907200Y-109904761D01*
X181907200Y-109904761D02*
X181954819Y-109999999D01*
X181954819Y-109999999D02*
X181954819Y-110285713D01*
X181954819Y-110285713D02*
X181907200Y-110380951D01*
X181907200Y-110380951D02*
X181859580Y-110428570D01*
X195169104Y-112190475D02*
X195169104Y-111714285D01*
X195454819Y-112285713D02*
X194454819Y-111952380D01*
X194454819Y-111952380D02*
X195454819Y-111619047D01*
X195454819Y-110761904D02*
X195454819Y-111333332D01*
X195454819Y-111047618D02*
X194454819Y-111047618D01*
X194454819Y-111047618D02*
X194597676Y-111142856D01*
X194597676Y-111142856D02*
X194692914Y-111238094D01*
X194692914Y-111238094D02*
X194740533Y-111333332D01*
X194788152Y-109904761D02*
X195454819Y-109904761D01*
X194407200Y-110142856D02*
X195121485Y-110380951D01*
X195121485Y-110380951D02*
X195121485Y-109761904D01*
D11*
X96872085Y-66045909D02*
X96538752Y-66045909D01*
X96538752Y-66569719D02*
X96538752Y-65569719D01*
X96538752Y-65569719D02*
X97014942Y-65569719D01*
X97395895Y-66569719D02*
X97395895Y-65903052D01*
X97395895Y-65569719D02*
X97348276Y-65617338D01*
X97348276Y-65617338D02*
X97395895Y-65664957D01*
X97395895Y-65664957D02*
X97443514Y-65617338D01*
X97443514Y-65617338D02*
X97395895Y-65569719D01*
X97395895Y-65569719D02*
X97395895Y-65664957D01*
X97872085Y-65903052D02*
X97872085Y-66569719D01*
X97872085Y-65998290D02*
X97919704Y-65950671D01*
X97919704Y-65950671D02*
X98014942Y-65903052D01*
X98014942Y-65903052D02*
X98157799Y-65903052D01*
X98157799Y-65903052D02*
X98253037Y-65950671D01*
X98253037Y-65950671D02*
X98300656Y-66045909D01*
X98300656Y-66045909D02*
X98300656Y-66569719D01*
X99205418Y-66569719D02*
X99205418Y-66045909D01*
X99205418Y-66045909D02*
X99157799Y-65950671D01*
X99157799Y-65950671D02*
X99062561Y-65903052D01*
X99062561Y-65903052D02*
X98872085Y-65903052D01*
X98872085Y-65903052D02*
X98776847Y-65950671D01*
X99205418Y-66522100D02*
X99110180Y-66569719D01*
X99110180Y-66569719D02*
X98872085Y-66569719D01*
X98872085Y-66569719D02*
X98776847Y-66522100D01*
X98776847Y-66522100D02*
X98729228Y-66426861D01*
X98729228Y-66426861D02*
X98729228Y-66331623D01*
X98729228Y-66331623D02*
X98776847Y-66236385D01*
X98776847Y-66236385D02*
X98872085Y-66188766D01*
X98872085Y-66188766D02*
X99110180Y-66188766D01*
X99110180Y-66188766D02*
X99205418Y-66141147D01*
X99824466Y-66569719D02*
X99729228Y-66522100D01*
X99729228Y-66522100D02*
X99681609Y-66426861D01*
X99681609Y-66426861D02*
X99681609Y-65569719D01*
X100967324Y-66569719D02*
X100967324Y-65569719D01*
X100967324Y-65569719D02*
X101348276Y-65569719D01*
X101348276Y-65569719D02*
X101443514Y-65617338D01*
X101443514Y-65617338D02*
X101491133Y-65664957D01*
X101491133Y-65664957D02*
X101538752Y-65760195D01*
X101538752Y-65760195D02*
X101538752Y-65903052D01*
X101538752Y-65903052D02*
X101491133Y-65998290D01*
X101491133Y-65998290D02*
X101443514Y-66045909D01*
X101443514Y-66045909D02*
X101348276Y-66093528D01*
X101348276Y-66093528D02*
X100967324Y-66093528D01*
X101967324Y-66569719D02*
X101967324Y-65903052D01*
X101967324Y-66093528D02*
X102014943Y-65998290D01*
X102014943Y-65998290D02*
X102062562Y-65950671D01*
X102062562Y-65950671D02*
X102157800Y-65903052D01*
X102157800Y-65903052D02*
X102253038Y-65903052D01*
X102729229Y-66569719D02*
X102633991Y-66522100D01*
X102633991Y-66522100D02*
X102586372Y-66474480D01*
X102586372Y-66474480D02*
X102538753Y-66379242D01*
X102538753Y-66379242D02*
X102538753Y-66093528D01*
X102538753Y-66093528D02*
X102586372Y-65998290D01*
X102586372Y-65998290D02*
X102633991Y-65950671D01*
X102633991Y-65950671D02*
X102729229Y-65903052D01*
X102729229Y-65903052D02*
X102872086Y-65903052D01*
X102872086Y-65903052D02*
X102967324Y-65950671D01*
X102967324Y-65950671D02*
X103014943Y-65998290D01*
X103014943Y-65998290D02*
X103062562Y-66093528D01*
X103062562Y-66093528D02*
X103062562Y-66379242D01*
X103062562Y-66379242D02*
X103014943Y-66474480D01*
X103014943Y-66474480D02*
X102967324Y-66522100D01*
X102967324Y-66522100D02*
X102872086Y-66569719D01*
X102872086Y-66569719D02*
X102729229Y-66569719D01*
X103491134Y-65903052D02*
X103491134Y-66760195D01*
X103491134Y-66760195D02*
X103443515Y-66855433D01*
X103443515Y-66855433D02*
X103348277Y-66903052D01*
X103348277Y-66903052D02*
X103300658Y-66903052D01*
X103491134Y-65569719D02*
X103443515Y-65617338D01*
X103443515Y-65617338D02*
X103491134Y-65664957D01*
X103491134Y-65664957D02*
X103538753Y-65617338D01*
X103538753Y-65617338D02*
X103491134Y-65569719D01*
X103491134Y-65569719D02*
X103491134Y-65664957D01*
X104348276Y-66522100D02*
X104253038Y-66569719D01*
X104253038Y-66569719D02*
X104062562Y-66569719D01*
X104062562Y-66569719D02*
X103967324Y-66522100D01*
X103967324Y-66522100D02*
X103919705Y-66426861D01*
X103919705Y-66426861D02*
X103919705Y-66045909D01*
X103919705Y-66045909D02*
X103967324Y-65950671D01*
X103967324Y-65950671D02*
X104062562Y-65903052D01*
X104062562Y-65903052D02*
X104253038Y-65903052D01*
X104253038Y-65903052D02*
X104348276Y-65950671D01*
X104348276Y-65950671D02*
X104395895Y-66045909D01*
X104395895Y-66045909D02*
X104395895Y-66141147D01*
X104395895Y-66141147D02*
X103919705Y-66236385D01*
X105253038Y-66522100D02*
X105157800Y-66569719D01*
X105157800Y-66569719D02*
X104967324Y-66569719D01*
X104967324Y-66569719D02*
X104872086Y-66522100D01*
X104872086Y-66522100D02*
X104824467Y-66474480D01*
X104824467Y-66474480D02*
X104776848Y-66379242D01*
X104776848Y-66379242D02*
X104776848Y-66093528D01*
X104776848Y-66093528D02*
X104824467Y-65998290D01*
X104824467Y-65998290D02*
X104872086Y-65950671D01*
X104872086Y-65950671D02*
X104967324Y-65903052D01*
X104967324Y-65903052D02*
X105157800Y-65903052D01*
X105157800Y-65903052D02*
X105253038Y-65950671D01*
X105538753Y-65903052D02*
X105919705Y-65903052D01*
X105681610Y-65569719D02*
X105681610Y-66426861D01*
X105681610Y-66426861D02*
X105729229Y-66522100D01*
X105729229Y-66522100D02*
X105824467Y-66569719D01*
X105824467Y-66569719D02*
X105919705Y-66569719D01*
X106967325Y-66522100D02*
X107110182Y-66569719D01*
X107110182Y-66569719D02*
X107348277Y-66569719D01*
X107348277Y-66569719D02*
X107443515Y-66522100D01*
X107443515Y-66522100D02*
X107491134Y-66474480D01*
X107491134Y-66474480D02*
X107538753Y-66379242D01*
X107538753Y-66379242D02*
X107538753Y-66284004D01*
X107538753Y-66284004D02*
X107491134Y-66188766D01*
X107491134Y-66188766D02*
X107443515Y-66141147D01*
X107443515Y-66141147D02*
X107348277Y-66093528D01*
X107348277Y-66093528D02*
X107157801Y-66045909D01*
X107157801Y-66045909D02*
X107062563Y-65998290D01*
X107062563Y-65998290D02*
X107014944Y-65950671D01*
X107014944Y-65950671D02*
X106967325Y-65855433D01*
X106967325Y-65855433D02*
X106967325Y-65760195D01*
X106967325Y-65760195D02*
X107014944Y-65664957D01*
X107014944Y-65664957D02*
X107062563Y-65617338D01*
X107062563Y-65617338D02*
X107157801Y-65569719D01*
X107157801Y-65569719D02*
X107395896Y-65569719D01*
X107395896Y-65569719D02*
X107538753Y-65617338D01*
X108348277Y-66522100D02*
X108253039Y-66569719D01*
X108253039Y-66569719D02*
X108062563Y-66569719D01*
X108062563Y-66569719D02*
X107967325Y-66522100D01*
X107967325Y-66522100D02*
X107919706Y-66426861D01*
X107919706Y-66426861D02*
X107919706Y-66045909D01*
X107919706Y-66045909D02*
X107967325Y-65950671D01*
X107967325Y-65950671D02*
X108062563Y-65903052D01*
X108062563Y-65903052D02*
X108253039Y-65903052D01*
X108253039Y-65903052D02*
X108348277Y-65950671D01*
X108348277Y-65950671D02*
X108395896Y-66045909D01*
X108395896Y-66045909D02*
X108395896Y-66141147D01*
X108395896Y-66141147D02*
X107919706Y-66236385D01*
X108824468Y-65903052D02*
X108824468Y-66569719D01*
X108824468Y-65998290D02*
X108872087Y-65950671D01*
X108872087Y-65950671D02*
X108967325Y-65903052D01*
X108967325Y-65903052D02*
X109110182Y-65903052D01*
X109110182Y-65903052D02*
X109205420Y-65950671D01*
X109205420Y-65950671D02*
X109253039Y-66045909D01*
X109253039Y-66045909D02*
X109253039Y-66569719D01*
X109681611Y-66522100D02*
X109776849Y-66569719D01*
X109776849Y-66569719D02*
X109967325Y-66569719D01*
X109967325Y-66569719D02*
X110062563Y-66522100D01*
X110062563Y-66522100D02*
X110110182Y-66426861D01*
X110110182Y-66426861D02*
X110110182Y-66379242D01*
X110110182Y-66379242D02*
X110062563Y-66284004D01*
X110062563Y-66284004D02*
X109967325Y-66236385D01*
X109967325Y-66236385D02*
X109824468Y-66236385D01*
X109824468Y-66236385D02*
X109729230Y-66188766D01*
X109729230Y-66188766D02*
X109681611Y-66093528D01*
X109681611Y-66093528D02*
X109681611Y-66045909D01*
X109681611Y-66045909D02*
X109729230Y-65950671D01*
X109729230Y-65950671D02*
X109824468Y-65903052D01*
X109824468Y-65903052D02*
X109967325Y-65903052D01*
X109967325Y-65903052D02*
X110062563Y-65950671D01*
X110681611Y-66569719D02*
X110586373Y-66522100D01*
X110586373Y-66522100D02*
X110538754Y-66474480D01*
X110538754Y-66474480D02*
X110491135Y-66379242D01*
X110491135Y-66379242D02*
X110491135Y-66093528D01*
X110491135Y-66093528D02*
X110538754Y-65998290D01*
X110538754Y-65998290D02*
X110586373Y-65950671D01*
X110586373Y-65950671D02*
X110681611Y-65903052D01*
X110681611Y-65903052D02*
X110824468Y-65903052D01*
X110824468Y-65903052D02*
X110919706Y-65950671D01*
X110919706Y-65950671D02*
X110967325Y-65998290D01*
X110967325Y-65998290D02*
X111014944Y-66093528D01*
X111014944Y-66093528D02*
X111014944Y-66379242D01*
X111014944Y-66379242D02*
X110967325Y-66474480D01*
X110967325Y-66474480D02*
X110919706Y-66522100D01*
X110919706Y-66522100D02*
X110824468Y-66569719D01*
X110824468Y-66569719D02*
X110681611Y-66569719D01*
X111443516Y-66569719D02*
X111443516Y-65903052D01*
X111443516Y-66093528D02*
X111491135Y-65998290D01*
X111491135Y-65998290D02*
X111538754Y-65950671D01*
X111538754Y-65950671D02*
X111633992Y-65903052D01*
X111633992Y-65903052D02*
X111729230Y-65903052D01*
X112776850Y-66284004D02*
X113253040Y-66284004D01*
X112681612Y-66569719D02*
X113014945Y-65569719D01*
X113014945Y-65569719D02*
X113348278Y-66569719D01*
X113681612Y-66569719D02*
X113681612Y-65903052D01*
X113681612Y-66093528D02*
X113729231Y-65998290D01*
X113729231Y-65998290D02*
X113776850Y-65950671D01*
X113776850Y-65950671D02*
X113872088Y-65903052D01*
X113872088Y-65903052D02*
X113967326Y-65903052D01*
X114300660Y-66569719D02*
X114300660Y-65903052D01*
X114300660Y-66093528D02*
X114348279Y-65998290D01*
X114348279Y-65998290D02*
X114395898Y-65950671D01*
X114395898Y-65950671D02*
X114491136Y-65903052D01*
X114491136Y-65903052D02*
X114586374Y-65903052D01*
X115348279Y-66569719D02*
X115348279Y-66045909D01*
X115348279Y-66045909D02*
X115300660Y-65950671D01*
X115300660Y-65950671D02*
X115205422Y-65903052D01*
X115205422Y-65903052D02*
X115014946Y-65903052D01*
X115014946Y-65903052D02*
X114919708Y-65950671D01*
X115348279Y-66522100D02*
X115253041Y-66569719D01*
X115253041Y-66569719D02*
X115014946Y-66569719D01*
X115014946Y-66569719D02*
X114919708Y-66522100D01*
X114919708Y-66522100D02*
X114872089Y-66426861D01*
X114872089Y-66426861D02*
X114872089Y-66331623D01*
X114872089Y-66331623D02*
X114919708Y-66236385D01*
X114919708Y-66236385D02*
X115014946Y-66188766D01*
X115014946Y-66188766D02*
X115253041Y-66188766D01*
X115253041Y-66188766D02*
X115348279Y-66141147D01*
X115729232Y-65903052D02*
X115967327Y-66569719D01*
X116205422Y-65903052D02*
X115967327Y-66569719D01*
X115967327Y-66569719D02*
X115872089Y-66807814D01*
X115872089Y-66807814D02*
X115824470Y-66855433D01*
X115824470Y-66855433D02*
X115729232Y-66903052D01*
X96491133Y-67893948D02*
X96967323Y-67893948D01*
X96395895Y-68179663D02*
X96729228Y-67179663D01*
X96729228Y-67179663D02*
X97062561Y-68179663D01*
X97824466Y-68179663D02*
X97824466Y-67655853D01*
X97824466Y-67655853D02*
X97776847Y-67560615D01*
X97776847Y-67560615D02*
X97681609Y-67512996D01*
X97681609Y-67512996D02*
X97491133Y-67512996D01*
X97491133Y-67512996D02*
X97395895Y-67560615D01*
X97824466Y-68132044D02*
X97729228Y-68179663D01*
X97729228Y-68179663D02*
X97491133Y-68179663D01*
X97491133Y-68179663D02*
X97395895Y-68132044D01*
X97395895Y-68132044D02*
X97348276Y-68036805D01*
X97348276Y-68036805D02*
X97348276Y-67941567D01*
X97348276Y-67941567D02*
X97395895Y-67846329D01*
X97395895Y-67846329D02*
X97491133Y-67798710D01*
X97491133Y-67798710D02*
X97729228Y-67798710D01*
X97729228Y-67798710D02*
X97824466Y-67751091D01*
X98300657Y-68179663D02*
X98300657Y-67512996D01*
X98300657Y-67703472D02*
X98348276Y-67608234D01*
X98348276Y-67608234D02*
X98395895Y-67560615D01*
X98395895Y-67560615D02*
X98491133Y-67512996D01*
X98491133Y-67512996D02*
X98586371Y-67512996D01*
X99348276Y-68179663D02*
X99348276Y-67655853D01*
X99348276Y-67655853D02*
X99300657Y-67560615D01*
X99300657Y-67560615D02*
X99205419Y-67512996D01*
X99205419Y-67512996D02*
X99014943Y-67512996D01*
X99014943Y-67512996D02*
X98919705Y-67560615D01*
X99348276Y-68132044D02*
X99253038Y-68179663D01*
X99253038Y-68179663D02*
X99014943Y-68179663D01*
X99014943Y-68179663D02*
X98919705Y-68132044D01*
X98919705Y-68132044D02*
X98872086Y-68036805D01*
X98872086Y-68036805D02*
X98872086Y-67941567D01*
X98872086Y-67941567D02*
X98919705Y-67846329D01*
X98919705Y-67846329D02*
X99014943Y-67798710D01*
X99014943Y-67798710D02*
X99253038Y-67798710D01*
X99253038Y-67798710D02*
X99348276Y-67751091D01*
X99729229Y-67512996D02*
X99967324Y-68179663D01*
X99967324Y-68179663D02*
X100205419Y-67512996D01*
X100633991Y-68132044D02*
X100633991Y-68179663D01*
X100633991Y-68179663D02*
X100586372Y-68274901D01*
X100586372Y-68274901D02*
X100538753Y-68322520D01*
X102157800Y-67655853D02*
X102300657Y-67703472D01*
X102300657Y-67703472D02*
X102348276Y-67751091D01*
X102348276Y-67751091D02*
X102395895Y-67846329D01*
X102395895Y-67846329D02*
X102395895Y-67989186D01*
X102395895Y-67989186D02*
X102348276Y-68084424D01*
X102348276Y-68084424D02*
X102300657Y-68132044D01*
X102300657Y-68132044D02*
X102205419Y-68179663D01*
X102205419Y-68179663D02*
X101824467Y-68179663D01*
X101824467Y-68179663D02*
X101824467Y-67179663D01*
X101824467Y-67179663D02*
X102157800Y-67179663D01*
X102157800Y-67179663D02*
X102253038Y-67227282D01*
X102253038Y-67227282D02*
X102300657Y-67274901D01*
X102300657Y-67274901D02*
X102348276Y-67370139D01*
X102348276Y-67370139D02*
X102348276Y-67465377D01*
X102348276Y-67465377D02*
X102300657Y-67560615D01*
X102300657Y-67560615D02*
X102253038Y-67608234D01*
X102253038Y-67608234D02*
X102157800Y-67655853D01*
X102157800Y-67655853D02*
X101824467Y-67655853D01*
X103253038Y-68179663D02*
X103253038Y-67655853D01*
X103253038Y-67655853D02*
X103205419Y-67560615D01*
X103205419Y-67560615D02*
X103110181Y-67512996D01*
X103110181Y-67512996D02*
X102919705Y-67512996D01*
X102919705Y-67512996D02*
X102824467Y-67560615D01*
X103253038Y-68132044D02*
X103157800Y-68179663D01*
X103157800Y-68179663D02*
X102919705Y-68179663D01*
X102919705Y-68179663D02*
X102824467Y-68132044D01*
X102824467Y-68132044D02*
X102776848Y-68036805D01*
X102776848Y-68036805D02*
X102776848Y-67941567D01*
X102776848Y-67941567D02*
X102824467Y-67846329D01*
X102824467Y-67846329D02*
X102919705Y-67798710D01*
X102919705Y-67798710D02*
X103157800Y-67798710D01*
X103157800Y-67798710D02*
X103253038Y-67751091D01*
X103681610Y-68132044D02*
X103776848Y-68179663D01*
X103776848Y-68179663D02*
X103967324Y-68179663D01*
X103967324Y-68179663D02*
X104062562Y-68132044D01*
X104062562Y-68132044D02*
X104110181Y-68036805D01*
X104110181Y-68036805D02*
X104110181Y-67989186D01*
X104110181Y-67989186D02*
X104062562Y-67893948D01*
X104062562Y-67893948D02*
X103967324Y-67846329D01*
X103967324Y-67846329D02*
X103824467Y-67846329D01*
X103824467Y-67846329D02*
X103729229Y-67798710D01*
X103729229Y-67798710D02*
X103681610Y-67703472D01*
X103681610Y-67703472D02*
X103681610Y-67655853D01*
X103681610Y-67655853D02*
X103729229Y-67560615D01*
X103729229Y-67560615D02*
X103824467Y-67512996D01*
X103824467Y-67512996D02*
X103967324Y-67512996D01*
X103967324Y-67512996D02*
X104062562Y-67560615D01*
X104491134Y-68132044D02*
X104586372Y-68179663D01*
X104586372Y-68179663D02*
X104776848Y-68179663D01*
X104776848Y-68179663D02*
X104872086Y-68132044D01*
X104872086Y-68132044D02*
X104919705Y-68036805D01*
X104919705Y-68036805D02*
X104919705Y-67989186D01*
X104919705Y-67989186D02*
X104872086Y-67893948D01*
X104872086Y-67893948D02*
X104776848Y-67846329D01*
X104776848Y-67846329D02*
X104633991Y-67846329D01*
X104633991Y-67846329D02*
X104538753Y-67798710D01*
X104538753Y-67798710D02*
X104491134Y-67703472D01*
X104491134Y-67703472D02*
X104491134Y-67655853D01*
X104491134Y-67655853D02*
X104538753Y-67560615D01*
X104538753Y-67560615D02*
X104633991Y-67512996D01*
X104633991Y-67512996D02*
X104776848Y-67512996D01*
X104776848Y-67512996D02*
X104872086Y-67560615D01*
X105776848Y-68179663D02*
X105776848Y-67655853D01*
X105776848Y-67655853D02*
X105729229Y-67560615D01*
X105729229Y-67560615D02*
X105633991Y-67512996D01*
X105633991Y-67512996D02*
X105443515Y-67512996D01*
X105443515Y-67512996D02*
X105348277Y-67560615D01*
X105776848Y-68132044D02*
X105681610Y-68179663D01*
X105681610Y-68179663D02*
X105443515Y-68179663D01*
X105443515Y-68179663D02*
X105348277Y-68132044D01*
X105348277Y-68132044D02*
X105300658Y-68036805D01*
X105300658Y-68036805D02*
X105300658Y-67941567D01*
X105300658Y-67941567D02*
X105348277Y-67846329D01*
X105348277Y-67846329D02*
X105443515Y-67798710D01*
X105443515Y-67798710D02*
X105681610Y-67798710D01*
X105681610Y-67798710D02*
X105776848Y-67751091D01*
X106253039Y-68179663D02*
X106253039Y-67512996D01*
X106253039Y-67608234D02*
X106300658Y-67560615D01*
X106300658Y-67560615D02*
X106395896Y-67512996D01*
X106395896Y-67512996D02*
X106538753Y-67512996D01*
X106538753Y-67512996D02*
X106633991Y-67560615D01*
X106633991Y-67560615D02*
X106681610Y-67655853D01*
X106681610Y-67655853D02*
X106681610Y-68179663D01*
X106681610Y-67655853D02*
X106729229Y-67560615D01*
X106729229Y-67560615D02*
X106824467Y-67512996D01*
X106824467Y-67512996D02*
X106967324Y-67512996D01*
X106967324Y-67512996D02*
X107062563Y-67560615D01*
X107062563Y-67560615D02*
X107110182Y-67655853D01*
X107110182Y-67655853D02*
X107110182Y-68179663D01*
X107633991Y-68132044D02*
X107633991Y-68179663D01*
X107633991Y-68179663D02*
X107586372Y-68274901D01*
X107586372Y-68274901D02*
X107538753Y-68322520D01*
X108824467Y-68179663D02*
X108824467Y-67179663D01*
X109395895Y-68179663D02*
X108967324Y-67608234D01*
X109395895Y-67179663D02*
X108824467Y-67751091D01*
X109824467Y-68179663D02*
X109824467Y-67179663D01*
X110253038Y-68179663D02*
X110253038Y-67655853D01*
X110253038Y-67655853D02*
X110205419Y-67560615D01*
X110205419Y-67560615D02*
X110110181Y-67512996D01*
X110110181Y-67512996D02*
X109967324Y-67512996D01*
X109967324Y-67512996D02*
X109872086Y-67560615D01*
X109872086Y-67560615D02*
X109824467Y-67608234D01*
X111157800Y-67512996D02*
X111157800Y-68179663D01*
X110729229Y-67512996D02*
X110729229Y-68036805D01*
X110729229Y-68036805D02*
X110776848Y-68132044D01*
X110776848Y-68132044D02*
X110872086Y-68179663D01*
X110872086Y-68179663D02*
X111014943Y-68179663D01*
X111014943Y-68179663D02*
X111110181Y-68132044D01*
X111110181Y-68132044D02*
X111157800Y-68084424D01*
X111538753Y-67512996D02*
X111776848Y-68179663D01*
X112014943Y-67512996D02*
X111776848Y-68179663D01*
X111776848Y-68179663D02*
X111681610Y-68417758D01*
X111681610Y-68417758D02*
X111633991Y-68465377D01*
X111633991Y-68465377D02*
X111538753Y-68512996D01*
X112776848Y-68132044D02*
X112681610Y-68179663D01*
X112681610Y-68179663D02*
X112491134Y-68179663D01*
X112491134Y-68179663D02*
X112395896Y-68132044D01*
X112395896Y-68132044D02*
X112348277Y-68036805D01*
X112348277Y-68036805D02*
X112348277Y-67655853D01*
X112348277Y-67655853D02*
X112395896Y-67560615D01*
X112395896Y-67560615D02*
X112491134Y-67512996D01*
X112491134Y-67512996D02*
X112681610Y-67512996D01*
X112681610Y-67512996D02*
X112776848Y-67560615D01*
X112776848Y-67560615D02*
X112824467Y-67655853D01*
X112824467Y-67655853D02*
X112824467Y-67751091D01*
X112824467Y-67751091D02*
X112348277Y-67846329D01*
X113253039Y-67512996D02*
X113253039Y-68179663D01*
X113253039Y-67608234D02*
X113300658Y-67560615D01*
X113300658Y-67560615D02*
X113395896Y-67512996D01*
X113395896Y-67512996D02*
X113538753Y-67512996D01*
X113538753Y-67512996D02*
X113633991Y-67560615D01*
X113633991Y-67560615D02*
X113681610Y-67655853D01*
X113681610Y-67655853D02*
X113681610Y-68179663D01*
X114919706Y-67798710D02*
X115681611Y-67798710D01*
X116776849Y-67179663D02*
X117110182Y-68179663D01*
X117110182Y-68179663D02*
X117443515Y-67179663D01*
X118300658Y-68179663D02*
X117729230Y-68179663D01*
X118014944Y-68179663D02*
X118014944Y-67179663D01*
X118014944Y-67179663D02*
X117919706Y-67322520D01*
X117919706Y-67322520D02*
X117824468Y-67417758D01*
X117824468Y-67417758D02*
X117729230Y-67465377D01*
D12*
X157713095Y-106372238D02*
X157617857Y-106324619D01*
X157617857Y-106324619D02*
X157475000Y-106324619D01*
X157475000Y-106324619D02*
X157332143Y-106372238D01*
X157332143Y-106372238D02*
X157236905Y-106467476D01*
X157236905Y-106467476D02*
X157189286Y-106562714D01*
X157189286Y-106562714D02*
X157141667Y-106753190D01*
X157141667Y-106753190D02*
X157141667Y-106896047D01*
X157141667Y-106896047D02*
X157189286Y-107086523D01*
X157189286Y-107086523D02*
X157236905Y-107181761D01*
X157236905Y-107181761D02*
X157332143Y-107277000D01*
X157332143Y-107277000D02*
X157475000Y-107324619D01*
X157475000Y-107324619D02*
X157570238Y-107324619D01*
X157570238Y-107324619D02*
X157713095Y-107277000D01*
X157713095Y-107277000D02*
X157760714Y-107229380D01*
X157760714Y-107229380D02*
X157760714Y-106896047D01*
X157760714Y-106896047D02*
X157570238Y-106896047D01*
X158189286Y-107324619D02*
X158189286Y-106324619D01*
X158189286Y-106324619D02*
X158760714Y-107324619D01*
X158760714Y-107324619D02*
X158760714Y-106324619D01*
X159236905Y-107324619D02*
X159236905Y-106324619D01*
X159236905Y-106324619D02*
X159475000Y-106324619D01*
X159475000Y-106324619D02*
X159617857Y-106372238D01*
X159617857Y-106372238D02*
X159713095Y-106467476D01*
X159713095Y-106467476D02*
X159760714Y-106562714D01*
X159760714Y-106562714D02*
X159808333Y-106753190D01*
X159808333Y-106753190D02*
X159808333Y-106896047D01*
X159808333Y-106896047D02*
X159760714Y-107086523D01*
X159760714Y-107086523D02*
X159713095Y-107181761D01*
X159713095Y-107181761D02*
X159617857Y-107277000D01*
X159617857Y-107277000D02*
X159475000Y-107324619D01*
X159475000Y-107324619D02*
X159236905Y-107324619D01*
X158663904Y-80145050D02*
X158663904Y-79668860D01*
X158949619Y-80240288D02*
X157949619Y-79906955D01*
X157949619Y-79906955D02*
X158949619Y-79573622D01*
X158949619Y-78716479D02*
X158949619Y-79287907D01*
X158949619Y-79002193D02*
X157949619Y-79002193D01*
X157949619Y-79002193D02*
X158092476Y-79097431D01*
X158092476Y-79097431D02*
X158187714Y-79192669D01*
X158187714Y-79192669D02*
X158235333Y-79287907D01*
X158044857Y-78335526D02*
X157997238Y-78287907D01*
X157997238Y-78287907D02*
X157949619Y-78192669D01*
X157949619Y-78192669D02*
X157949619Y-77954574D01*
X157949619Y-77954574D02*
X157997238Y-77859336D01*
X157997238Y-77859336D02*
X158044857Y-77811717D01*
X158044857Y-77811717D02*
X158140095Y-77764098D01*
X158140095Y-77764098D02*
X158235333Y-77764098D01*
X158235333Y-77764098D02*
X158378190Y-77811717D01*
X158378190Y-77811717D02*
X158949619Y-78383145D01*
X158949619Y-78383145D02*
X158949619Y-77764098D01*
X148663904Y-80214285D02*
X148663904Y-79738095D01*
X148949619Y-80309523D02*
X147949619Y-79976190D01*
X147949619Y-79976190D02*
X148949619Y-79642857D01*
X148378190Y-79166666D02*
X148330571Y-79261904D01*
X148330571Y-79261904D02*
X148282952Y-79309523D01*
X148282952Y-79309523D02*
X148187714Y-79357142D01*
X148187714Y-79357142D02*
X148140095Y-79357142D01*
X148140095Y-79357142D02*
X148044857Y-79309523D01*
X148044857Y-79309523D02*
X147997238Y-79261904D01*
X147997238Y-79261904D02*
X147949619Y-79166666D01*
X147949619Y-79166666D02*
X147949619Y-78976190D01*
X147949619Y-78976190D02*
X147997238Y-78880952D01*
X147997238Y-78880952D02*
X148044857Y-78833333D01*
X148044857Y-78833333D02*
X148140095Y-78785714D01*
X148140095Y-78785714D02*
X148187714Y-78785714D01*
X148187714Y-78785714D02*
X148282952Y-78833333D01*
X148282952Y-78833333D02*
X148330571Y-78880952D01*
X148330571Y-78880952D02*
X148378190Y-78976190D01*
X148378190Y-78976190D02*
X148378190Y-79166666D01*
X148378190Y-79166666D02*
X148425809Y-79261904D01*
X148425809Y-79261904D02*
X148473428Y-79309523D01*
X148473428Y-79309523D02*
X148568666Y-79357142D01*
X148568666Y-79357142D02*
X148759142Y-79357142D01*
X148759142Y-79357142D02*
X148854380Y-79309523D01*
X148854380Y-79309523D02*
X148902000Y-79261904D01*
X148902000Y-79261904D02*
X148949619Y-79166666D01*
X148949619Y-79166666D02*
X148949619Y-78976190D01*
X148949619Y-78976190D02*
X148902000Y-78880952D01*
X148902000Y-78880952D02*
X148854380Y-78833333D01*
X148854380Y-78833333D02*
X148759142Y-78785714D01*
X148759142Y-78785714D02*
X148568666Y-78785714D01*
X148568666Y-78785714D02*
X148473428Y-78833333D01*
X148473428Y-78833333D02*
X148425809Y-78880952D01*
X148425809Y-78880952D02*
X148378190Y-78976190D01*
X151163904Y-80214285D02*
X151163904Y-79738095D01*
X151449619Y-80309523D02*
X150449619Y-79976190D01*
X150449619Y-79976190D02*
X151449619Y-79642857D01*
X151449619Y-79261904D02*
X151449619Y-79071428D01*
X151449619Y-79071428D02*
X151402000Y-78976190D01*
X151402000Y-78976190D02*
X151354380Y-78928571D01*
X151354380Y-78928571D02*
X151211523Y-78833333D01*
X151211523Y-78833333D02*
X151021047Y-78785714D01*
X151021047Y-78785714D02*
X150640095Y-78785714D01*
X150640095Y-78785714D02*
X150544857Y-78833333D01*
X150544857Y-78833333D02*
X150497238Y-78880952D01*
X150497238Y-78880952D02*
X150449619Y-78976190D01*
X150449619Y-78976190D02*
X150449619Y-79166666D01*
X150449619Y-79166666D02*
X150497238Y-79261904D01*
X150497238Y-79261904D02*
X150544857Y-79309523D01*
X150544857Y-79309523D02*
X150640095Y-79357142D01*
X150640095Y-79357142D02*
X150878190Y-79357142D01*
X150878190Y-79357142D02*
X150973428Y-79309523D01*
X150973428Y-79309523D02*
X151021047Y-79261904D01*
X151021047Y-79261904D02*
X151068666Y-79166666D01*
X151068666Y-79166666D02*
X151068666Y-78976190D01*
X151068666Y-78976190D02*
X151021047Y-78880952D01*
X151021047Y-78880952D02*
X150973428Y-78833333D01*
X150973428Y-78833333D02*
X150878190Y-78785714D01*
X153663904Y-80190475D02*
X153663904Y-79714285D01*
X153949619Y-80285713D02*
X152949619Y-79952380D01*
X152949619Y-79952380D02*
X153949619Y-79619047D01*
X153949619Y-78761904D02*
X153949619Y-79333332D01*
X153949619Y-79047618D02*
X152949619Y-79047618D01*
X152949619Y-79047618D02*
X153092476Y-79142856D01*
X153092476Y-79142856D02*
X153187714Y-79238094D01*
X153187714Y-79238094D02*
X153235333Y-79333332D01*
X152949619Y-78142856D02*
X152949619Y-78047618D01*
X152949619Y-78047618D02*
X152997238Y-77952380D01*
X152997238Y-77952380D02*
X153044857Y-77904761D01*
X153044857Y-77904761D02*
X153140095Y-77857142D01*
X153140095Y-77857142D02*
X153330571Y-77809523D01*
X153330571Y-77809523D02*
X153568666Y-77809523D01*
X153568666Y-77809523D02*
X153759142Y-77857142D01*
X153759142Y-77857142D02*
X153854380Y-77904761D01*
X153854380Y-77904761D02*
X153902000Y-77952380D01*
X153902000Y-77952380D02*
X153949619Y-78047618D01*
X153949619Y-78047618D02*
X153949619Y-78142856D01*
X153949619Y-78142856D02*
X153902000Y-78238094D01*
X153902000Y-78238094D02*
X153854380Y-78285713D01*
X153854380Y-78285713D02*
X153759142Y-78333332D01*
X153759142Y-78333332D02*
X153568666Y-78380951D01*
X153568666Y-78380951D02*
X153330571Y-78380951D01*
X153330571Y-78380951D02*
X153140095Y-78333332D01*
X153140095Y-78333332D02*
X153044857Y-78285713D01*
X153044857Y-78285713D02*
X152997238Y-78238094D01*
X152997238Y-78238094D02*
X152949619Y-78142856D01*
X156163904Y-80190475D02*
X156163904Y-79714285D01*
X156449619Y-80285713D02*
X155449619Y-79952380D01*
X155449619Y-79952380D02*
X156449619Y-79619047D01*
X156449619Y-78761904D02*
X156449619Y-79333332D01*
X156449619Y-79047618D02*
X155449619Y-79047618D01*
X155449619Y-79047618D02*
X155592476Y-79142856D01*
X155592476Y-79142856D02*
X155687714Y-79238094D01*
X155687714Y-79238094D02*
X155735333Y-79333332D01*
X156449619Y-77809523D02*
X156449619Y-78380951D01*
X156449619Y-78095237D02*
X155449619Y-78095237D01*
X155449619Y-78095237D02*
X155592476Y-78190475D01*
X155592476Y-78190475D02*
X155687714Y-78285713D01*
X155687714Y-78285713D02*
X155735333Y-78380951D01*
X163663904Y-80190475D02*
X163663904Y-79714285D01*
X163949619Y-80285713D02*
X162949619Y-79952380D01*
X162949619Y-79952380D02*
X163949619Y-79619047D01*
X163949619Y-78761904D02*
X163949619Y-79333332D01*
X163949619Y-79047618D02*
X162949619Y-79047618D01*
X162949619Y-79047618D02*
X163092476Y-79142856D01*
X163092476Y-79142856D02*
X163187714Y-79238094D01*
X163187714Y-79238094D02*
X163235333Y-79333332D01*
X163282952Y-77904761D02*
X163949619Y-77904761D01*
X162902000Y-78142856D02*
X163616285Y-78380951D01*
X163616285Y-78380951D02*
X163616285Y-77761904D01*
X161163904Y-80235901D02*
X161163904Y-79759711D01*
X161449619Y-80331139D02*
X160449619Y-79997806D01*
X160449619Y-79997806D02*
X161449619Y-79664473D01*
X161449619Y-78807330D02*
X161449619Y-79378758D01*
X161449619Y-79093044D02*
X160449619Y-79093044D01*
X160449619Y-79093044D02*
X160592476Y-79188282D01*
X160592476Y-79188282D02*
X160687714Y-79283520D01*
X160687714Y-79283520D02*
X160735333Y-79378758D01*
X160449619Y-78473996D02*
X160449619Y-77854949D01*
X160449619Y-77854949D02*
X160830571Y-78188282D01*
X160830571Y-78188282D02*
X160830571Y-78045425D01*
X160830571Y-78045425D02*
X160878190Y-77950187D01*
X160878190Y-77950187D02*
X160925809Y-77902568D01*
X160925809Y-77902568D02*
X161021047Y-77854949D01*
X161021047Y-77854949D02*
X161259142Y-77854949D01*
X161259142Y-77854949D02*
X161354380Y-77902568D01*
X161354380Y-77902568D02*
X161402000Y-77950187D01*
X161402000Y-77950187D02*
X161449619Y-78045425D01*
X161449619Y-78045425D02*
X161449619Y-78331139D01*
X161449619Y-78331139D02*
X161402000Y-78426377D01*
X161402000Y-78426377D02*
X161354380Y-78473996D01*
D13*
G36*
X98155469Y-59057549D02*
G01*
X98140073Y-59251751D01*
X98096545Y-59416281D01*
X98024141Y-59563083D01*
X97928323Y-59682811D01*
X97808327Y-59777838D01*
X97661793Y-59848133D01*
X97498082Y-59889619D01*
X97304893Y-59904309D01*
X97127436Y-59890652D01*
X96971807Y-59851491D01*
X96831200Y-59785485D01*
X96713978Y-59695634D01*
X96619919Y-59581298D01*
X96548351Y-59437652D01*
X96505599Y-59275233D01*
X96490343Y-59079836D01*
X96490343Y-57711771D01*
X96497060Y-57687957D01*
X96521026Y-57671776D01*
X96565448Y-57661549D01*
X96637194Y-57657274D01*
X96707261Y-57661549D01*
X96752446Y-57671776D01*
X96775497Y-57687957D01*
X96782366Y-57711771D01*
X96782366Y-59043200D01*
X96792356Y-59190864D01*
X96819918Y-59310493D01*
X96866773Y-59416697D01*
X96928301Y-59500392D01*
X97006186Y-59566549D01*
X97099118Y-59614423D01*
X97203137Y-59642795D01*
X97323669Y-59652739D01*
X97447313Y-59642952D01*
X97551578Y-59615339D01*
X97644346Y-59568149D01*
X97720717Y-59502987D01*
X97780980Y-59420629D01*
X97826657Y-59317363D01*
X97853671Y-59201298D01*
X97863446Y-59058465D01*
X97863446Y-57711771D01*
X97870163Y-57687957D01*
X97894129Y-57671776D01*
X97939314Y-57661549D01*
X98010297Y-57657274D01*
X98079296Y-57661549D01*
X98123717Y-57671776D01*
X98147684Y-57687957D01*
X98155469Y-57711771D01*
X98155469Y-59057549D01*
G37*
G36*
X100029422Y-59831646D02*
G01*
X100022553Y-59854849D01*
X100000418Y-59871031D01*
X99957676Y-59881258D01*
X99889440Y-59884769D01*
X99819373Y-59881258D01*
X99776631Y-59871031D01*
X99754496Y-59854849D01*
X99747627Y-59831646D01*
X99747627Y-58929322D01*
X99741872Y-58803879D01*
X99727172Y-58716983D01*
X99701355Y-58640659D01*
X99667332Y-58578375D01*
X99622242Y-58526881D01*
X99565666Y-58489227D01*
X99499947Y-58466421D01*
X99421410Y-58458391D01*
X99318367Y-58476265D01*
X99209682Y-58533801D01*
X99106505Y-58621429D01*
X98987726Y-58754688D01*
X98987726Y-59831646D01*
X98980857Y-59854849D01*
X98958570Y-59871031D01*
X98915980Y-59881258D01*
X98845913Y-59884769D01*
X98777677Y-59881258D01*
X98734019Y-59871183D01*
X98711885Y-59855002D01*
X98705931Y-59831952D01*
X98705931Y-58296275D01*
X98710969Y-58273377D01*
X98731424Y-58256280D01*
X98770655Y-58246052D01*
X98834006Y-58243457D01*
X98896288Y-58246052D01*
X98934603Y-58256280D01*
X98954296Y-58273377D01*
X98960402Y-58296427D01*
X98960402Y-58499454D01*
X99094953Y-58367161D01*
X99218994Y-58282841D01*
X99350323Y-58230879D01*
X99479570Y-58214148D01*
X99625593Y-58228122D01*
X99738315Y-58266355D01*
X99834087Y-58327985D01*
X99908217Y-58405879D01*
X99963308Y-58499386D01*
X100001181Y-58610432D01*
X100021772Y-58733683D01*
X100029422Y-58891922D01*
X100029422Y-59831646D01*
G37*
G36*
X100824433Y-59831952D02*
G01*
X100817563Y-59855002D01*
X100795276Y-59871183D01*
X100752686Y-59881258D01*
X100682619Y-59884769D01*
X100614384Y-59881258D01*
X100570725Y-59871183D01*
X100548591Y-59855002D01*
X100542637Y-59831952D01*
X100542637Y-58296275D01*
X100548591Y-58274140D01*
X100570725Y-58257196D01*
X100614384Y-58246968D01*
X100682619Y-58243457D01*
X100752686Y-58246968D01*
X100795276Y-58257196D01*
X100817563Y-58274140D01*
X100824433Y-58296275D01*
X100824433Y-59831952D01*
G37*
G36*
X100856795Y-57780159D02*
G01*
X100845686Y-57868943D01*
X100819242Y-57914645D01*
X100771992Y-57939754D01*
X100680940Y-57950366D01*
X100591390Y-57940010D01*
X100545080Y-57915561D01*
X100519297Y-57870799D01*
X100508443Y-57783517D01*
X100519552Y-57694733D01*
X100545996Y-57649031D01*
X100593246Y-57623922D01*
X100684298Y-57613311D01*
X100773805Y-57623713D01*
X100820006Y-57648268D01*
X100845895Y-57692921D01*
X100856795Y-57780159D01*
G37*
G36*
X102604047Y-58292916D02*
G01*
X102603131Y-58307418D01*
X102600689Y-58323599D01*
X102596414Y-58342376D01*
X102590461Y-58364663D01*
X102066102Y-59823403D01*
X102048089Y-59854086D01*
X102014811Y-59872862D01*
X101958483Y-59882174D01*
X101873150Y-59884769D01*
X101787665Y-59881258D01*
X101732253Y-59871183D01*
X101698822Y-59852407D01*
X101680198Y-59823403D01*
X101157519Y-58364663D01*
X101146528Y-58328790D01*
X101141338Y-58305739D01*
X101140422Y-58292916D01*
X101147291Y-58269103D01*
X101170341Y-58252922D01*
X101212931Y-58245136D01*
X101278877Y-58243457D01*
X101358256Y-58246052D01*
X101404357Y-58255517D01*
X101428170Y-58272461D01*
X101442825Y-58298107D01*
X101876509Y-59564048D01*
X101883378Y-59584503D01*
X101888568Y-59564048D01*
X102317214Y-58298107D01*
X102329121Y-58272461D01*
X102353851Y-58255517D01*
X102398272Y-58246052D01*
X102472614Y-58243457D01*
X102537491Y-58245136D01*
X102577638Y-58253685D01*
X102598094Y-58270019D01*
X102604047Y-58292916D01*
G37*
G36*
X103697674Y-58229589D02*
G01*
X103833199Y-58272003D01*
X103950336Y-58340761D01*
X104042485Y-58427861D01*
X104113041Y-58533190D01*
X104162927Y-58657602D01*
X104191572Y-58792496D01*
X104201395Y-58939397D01*
X104201395Y-58990382D01*
X104192064Y-59049852D01*
X104167964Y-59084874D01*
X104132251Y-59105979D01*
X104092096Y-59112962D01*
X103084442Y-59112962D01*
X103091178Y-59238240D01*
X103110088Y-59344840D01*
X103144831Y-59441805D01*
X103195420Y-59521763D01*
X103263385Y-59586471D01*
X103350819Y-59635184D01*
X103452808Y-59664081D01*
X103584835Y-59674720D01*
X103691027Y-59669946D01*
X103779466Y-59656707D01*
X103927233Y-59616102D01*
X104029662Y-59575649D01*
X104090417Y-59557484D01*
X104111636Y-59563590D01*
X104126138Y-59581603D01*
X104133923Y-59614881D01*
X104136518Y-59667088D01*
X104134686Y-59705709D01*
X104130412Y-59734865D01*
X104121864Y-59758068D01*
X104106446Y-59777760D01*
X104051033Y-59808596D01*
X103931507Y-59850881D01*
X103761605Y-59887822D01*
X103555831Y-59904309D01*
X103373332Y-59890311D01*
X103223661Y-59851338D01*
X103091440Y-59784928D01*
X102983692Y-59694107D01*
X102899570Y-59578949D01*
X102836688Y-59432615D01*
X102800357Y-59268105D01*
X102787229Y-59066861D01*
X102798497Y-58905355D01*
X103084442Y-58905355D01*
X103917921Y-58905355D01*
X103907998Y-58761713D01*
X103874287Y-58648642D01*
X103819613Y-58559446D01*
X103742523Y-58491532D01*
X103642733Y-58449247D01*
X103513088Y-58433967D01*
X103413407Y-58444158D01*
X103330364Y-58473046D01*
X103257755Y-58518664D01*
X103198778Y-58576391D01*
X103152289Y-58645360D01*
X103116804Y-58726448D01*
X103094274Y-58813652D01*
X103084442Y-58905355D01*
X102798497Y-58905355D01*
X102800629Y-58874795D01*
X102838520Y-58710724D01*
X102902267Y-58562463D01*
X102986287Y-58442363D01*
X103092588Y-58345010D01*
X103219386Y-58273072D01*
X103361698Y-58229346D01*
X103524995Y-58214148D01*
X103697674Y-58229589D01*
G37*
G36*
X105529466Y-58391682D02*
G01*
X105527786Y-58454880D01*
X105520917Y-58495027D01*
X105508094Y-58517162D01*
X105486876Y-58524795D01*
X105453445Y-58517162D01*
X105409023Y-58501897D01*
X105353611Y-58487242D01*
X105287055Y-58480373D01*
X105203249Y-58497775D01*
X105117001Y-58554867D01*
X105022204Y-58660655D01*
X104913058Y-58821855D01*
X104913058Y-59831952D01*
X104906188Y-59855002D01*
X104883901Y-59871183D01*
X104841311Y-59881258D01*
X104771244Y-59884769D01*
X104703009Y-59881258D01*
X104659351Y-59871183D01*
X104637216Y-59855002D01*
X104631263Y-59831952D01*
X104631263Y-58296275D01*
X104636300Y-58273377D01*
X104656755Y-58256280D01*
X104695987Y-58246052D01*
X104759337Y-58243457D01*
X104821619Y-58246052D01*
X104859935Y-58256280D01*
X104879627Y-58273377D01*
X104885733Y-58296427D01*
X104885733Y-58519910D01*
X105004344Y-58367105D01*
X105109368Y-58274140D01*
X105207523Y-58227276D01*
X105305831Y-58214148D01*
X105356053Y-58216743D01*
X105414977Y-58226208D01*
X105470542Y-58241473D01*
X105505652Y-58258570D01*
X105519238Y-58274751D01*
X105525191Y-58294443D01*
X105528550Y-58329400D01*
X105529466Y-58391682D01*
G37*
G36*
X106756328Y-59410327D02*
G01*
X106745019Y-59523798D01*
X106712670Y-59620682D01*
X106659991Y-59705640D01*
X106588869Y-59776234D01*
X106502362Y-59831028D01*
X106397596Y-59871946D01*
X106283217Y-59895928D01*
X106153353Y-59904309D01*
X105997038Y-59891486D01*
X105863926Y-59859124D01*
X105763939Y-59818213D01*
X105704252Y-59779745D01*
X105676927Y-59732117D01*
X105668379Y-59648770D01*
X105671737Y-59594273D01*
X105680286Y-59558552D01*
X105694788Y-59539013D01*
X105716159Y-59533060D01*
X105771724Y-59556110D01*
X105862247Y-59606332D01*
X105989405Y-59656707D01*
X106066146Y-59673560D01*
X106158544Y-59679605D01*
X106288298Y-59664187D01*
X106343461Y-59644700D01*
X106389048Y-59618697D01*
X106426913Y-59584527D01*
X106454841Y-59542371D01*
X106471825Y-59493230D01*
X106477891Y-59432615D01*
X106469239Y-59371772D01*
X106444613Y-59323316D01*
X106406789Y-59282090D01*
X106356686Y-59244700D01*
X106233648Y-59184098D01*
X106092751Y-59128532D01*
X105951090Y-59062739D01*
X105885350Y-59021750D01*
X105827289Y-58972980D01*
X105778257Y-58915344D01*
X105739209Y-58846584D01*
X105714766Y-58768436D01*
X105705931Y-58670424D01*
X105714684Y-58581744D01*
X105740888Y-58497012D01*
X105784448Y-58419623D01*
X105845913Y-58351840D01*
X105922830Y-58296710D01*
X106021004Y-58251853D01*
X106131238Y-58224132D01*
X106266163Y-58214148D01*
X106389048Y-58224834D01*
X106500026Y-58251700D01*
X106584595Y-58286505D01*
X106637565Y-58319631D01*
X106661531Y-58344055D01*
X106669927Y-58367105D01*
X106675117Y-58398857D01*
X106677712Y-58444958D01*
X106675117Y-58495333D01*
X106666569Y-58530443D01*
X106652067Y-58550135D01*
X106633291Y-58556088D01*
X106588869Y-58536701D01*
X106513764Y-58495027D01*
X106405229Y-58453506D01*
X106340330Y-58439114D01*
X106262652Y-58433967D01*
X106193436Y-58438254D01*
X106136409Y-58450148D01*
X106085434Y-58470350D01*
X106046650Y-58496096D01*
X106015849Y-58528640D01*
X105993680Y-58566621D01*
X105975819Y-58655006D01*
X105984685Y-58717527D01*
X106009861Y-58767053D01*
X106048462Y-58808857D01*
X106098704Y-58846432D01*
X106223421Y-58907950D01*
X106365997Y-58964432D01*
X106509490Y-59029309D01*
X106576712Y-59069340D01*
X106634970Y-59116473D01*
X106683989Y-59172476D01*
X106722897Y-59239510D01*
X106747487Y-59315660D01*
X106756328Y-59410327D01*
G37*
G36*
X107440971Y-59831952D02*
G01*
X107434102Y-59855002D01*
X107411815Y-59871183D01*
X107369225Y-59881258D01*
X107299158Y-59884769D01*
X107230922Y-59881258D01*
X107187264Y-59871183D01*
X107165129Y-59855002D01*
X107159176Y-59831952D01*
X107159176Y-58296275D01*
X107165129Y-58274140D01*
X107187264Y-58257196D01*
X107230922Y-58246968D01*
X107299158Y-58243457D01*
X107369225Y-58246968D01*
X107411815Y-58257196D01*
X107434102Y-58274140D01*
X107440971Y-58296275D01*
X107440971Y-59831952D01*
G37*
G36*
X107473333Y-57780159D02*
G01*
X107462225Y-57868943D01*
X107435781Y-57914645D01*
X107388531Y-57939754D01*
X107297479Y-57950366D01*
X107207929Y-57940010D01*
X107161618Y-57915561D01*
X107135836Y-57870799D01*
X107124982Y-57783517D01*
X107136090Y-57694733D01*
X107162534Y-57649031D01*
X107209784Y-57623922D01*
X107300837Y-57613311D01*
X107390344Y-57623713D01*
X107436544Y-57648268D01*
X107462434Y-57692921D01*
X107473333Y-57780159D01*
G37*
G36*
X108759425Y-59719142D02*
G01*
X108752555Y-59798063D01*
X108732100Y-59840806D01*
X108691189Y-59866604D01*
X108628755Y-59886296D01*
X108554566Y-59899118D01*
X108475950Y-59904309D01*
X108361335Y-59895884D01*
X108270939Y-59872862D01*
X108192600Y-59832709D01*
X108130957Y-59777302D01*
X108084706Y-59706692D01*
X108051578Y-59615339D01*
X108033486Y-59512760D01*
X108026849Y-59384377D01*
X108026849Y-58487700D01*
X107811610Y-58487700D01*
X107789226Y-58481256D01*
X107770699Y-58460375D01*
X107759854Y-58428290D01*
X107755281Y-58371379D01*
X107759556Y-58316577D01*
X107770699Y-58279788D01*
X107788559Y-58259180D01*
X107813442Y-58253227D01*
X108026849Y-58253227D01*
X108026849Y-57887779D01*
X108032802Y-57865644D01*
X108054937Y-57847631D01*
X108098595Y-57836640D01*
X108166830Y-57833129D01*
X108236898Y-57836640D01*
X108279487Y-57847631D01*
X108301775Y-57865644D01*
X108308644Y-57887779D01*
X108308644Y-58253227D01*
X108703096Y-58253227D01*
X108727062Y-58259180D01*
X108744923Y-58279788D01*
X108756066Y-58316577D01*
X108759425Y-58371379D01*
X108754852Y-58428290D01*
X108744007Y-58460375D01*
X108725579Y-58481241D01*
X108703096Y-58487700D01*
X108308644Y-58487700D01*
X108308644Y-59342397D01*
X108322060Y-59489637D01*
X108355508Y-59581603D01*
X108393353Y-59625208D01*
X108447504Y-59652437D01*
X108523883Y-59662508D01*
X108593797Y-59654876D01*
X108648447Y-59638542D01*
X108689510Y-59622361D01*
X108720193Y-59614576D01*
X108736374Y-59618850D01*
X108748434Y-59635184D01*
X108756066Y-59667698D01*
X108759425Y-59719142D01*
G37*
G36*
X109832872Y-59875000D02*
G01*
X109627861Y-60443627D01*
X109611159Y-60466681D01*
X109575806Y-60485607D01*
X109528455Y-60495941D01*
X109448495Y-60500261D01*
X109376901Y-60495987D01*
X109334922Y-60481332D01*
X109318741Y-60453855D01*
X109327289Y-60412639D01*
X109539017Y-59875000D01*
X109510013Y-59852865D01*
X109491237Y-59820350D01*
X108943065Y-58352756D01*
X108929326Y-58296427D01*
X108942912Y-58263913D01*
X108987334Y-58247732D01*
X109069460Y-58243457D01*
X109149603Y-58246052D01*
X109195856Y-58255517D01*
X109220586Y-58275056D01*
X109236767Y-58310013D01*
X109675641Y-59542219D01*
X109680831Y-59542219D01*
X110104287Y-58303144D01*
X110129169Y-58261470D01*
X110172675Y-58247732D01*
X110256328Y-58243457D01*
X110334791Y-58247732D01*
X110380129Y-58263913D01*
X110394631Y-58296427D01*
X110384403Y-58347566D01*
X109832872Y-59875000D01*
G37*
G36*
X112362591Y-58229079D02*
G01*
X112510995Y-58270629D01*
X112641011Y-58340391D01*
X112745773Y-58434577D01*
X112826899Y-58551839D01*
X112886671Y-58696070D01*
X112921382Y-58855736D01*
X112933688Y-59043047D01*
X112920896Y-59226208D01*
X112884076Y-59389109D01*
X112821564Y-59537773D01*
X112736309Y-59661592D01*
X112626742Y-59762766D01*
X112490387Y-59840195D01*
X112335086Y-59887501D01*
X112147989Y-59904309D01*
X111966028Y-59889420D01*
X111817650Y-59847980D01*
X111687601Y-59778107D01*
X111582719Y-59683879D01*
X111501801Y-59566591D01*
X111442738Y-59422387D01*
X111408736Y-59262569D01*
X111396637Y-59073730D01*
X111397862Y-59055870D01*
X111692018Y-59055870D01*
X111697937Y-59180046D01*
X111715068Y-59293396D01*
X111746446Y-59399002D01*
X111791852Y-59487264D01*
X111854541Y-59561166D01*
X111936261Y-59618697D01*
X112033967Y-59654354D01*
X112161728Y-59667393D01*
X112279175Y-59655727D01*
X112375135Y-59622971D01*
X112457690Y-59569445D01*
X112523665Y-59498255D01*
X112573360Y-59411974D01*
X112609150Y-59306982D01*
X112629377Y-59192676D01*
X112636475Y-59062587D01*
X112630575Y-58939909D01*
X112613424Y-58826892D01*
X112582255Y-58721118D01*
X112537404Y-58632261D01*
X112475364Y-58557528D01*
X112393911Y-58499760D01*
X112296223Y-58464099D01*
X112168597Y-58451064D01*
X112049646Y-58462795D01*
X111954121Y-58495485D01*
X111872395Y-58549121D01*
X111806507Y-58621118D01*
X111756692Y-58708027D01*
X111720259Y-58813306D01*
X111699327Y-58927319D01*
X111692018Y-59055870D01*
X111397862Y-59055870D01*
X111409201Y-58890550D01*
X111445333Y-58727821D01*
X111507231Y-58579039D01*
X111592184Y-58455185D01*
X111701649Y-58354032D01*
X111837190Y-58277346D01*
X111991979Y-58230782D01*
X112180504Y-58214148D01*
X112362591Y-58229079D01*
G37*
G36*
X114190164Y-57661091D02*
G01*
X114186653Y-57713298D01*
X114179021Y-57745049D01*
X114167877Y-57761230D01*
X114150933Y-57765505D01*
X114121013Y-57757872D01*
X114077507Y-57740775D01*
X114016752Y-57723678D01*
X113935694Y-57715893D01*
X113875448Y-57721425D01*
X113828074Y-57736653D01*
X113788301Y-57762866D01*
X113756481Y-57801225D01*
X113733789Y-57849197D01*
X113717096Y-57914798D01*
X113705190Y-58084394D01*
X113705190Y-58253227D01*
X114048504Y-58253227D01*
X114071401Y-58259180D01*
X114088498Y-58279788D01*
X114100558Y-58316577D01*
X114104832Y-58371379D01*
X114100259Y-58428290D01*
X114089414Y-58460375D01*
X114070887Y-58481256D01*
X114048504Y-58487700D01*
X113705190Y-58487700D01*
X113705190Y-59831952D01*
X113698320Y-59855002D01*
X113675270Y-59871183D01*
X113631764Y-59881258D01*
X113563376Y-59884769D01*
X113495141Y-59881258D01*
X113451482Y-59871183D01*
X113428432Y-59855002D01*
X113421715Y-59831952D01*
X113421715Y-58487700D01*
X113204797Y-58487700D01*
X113181194Y-58481083D01*
X113163734Y-58460375D01*
X113154201Y-58428426D01*
X113150148Y-58371379D01*
X113153506Y-58316577D01*
X113163734Y-58279788D01*
X113180831Y-58259180D01*
X113204797Y-58253227D01*
X113421715Y-58253227D01*
X113421715Y-58093401D01*
X113429759Y-57937667D01*
X113451482Y-57815727D01*
X113490583Y-57707604D01*
X113542921Y-57625828D01*
X113611982Y-57561826D01*
X113697404Y-57516682D01*
X113795492Y-57490783D01*
X113916918Y-57481420D01*
X114033086Y-57492563D01*
X114120097Y-57516530D01*
X114161161Y-57539580D01*
X114178258Y-57566141D01*
X114187569Y-57605525D01*
X114190164Y-57661091D01*
G37*
G36*
X117352957Y-59809665D02*
G01*
X117332349Y-59848133D01*
X117294796Y-59870267D01*
X117235873Y-59881258D01*
X117149624Y-59884769D01*
X117059865Y-59881258D01*
X116999262Y-59870267D01*
X116963542Y-59848133D01*
X116944766Y-59809665D01*
X116481926Y-58143318D01*
X116478567Y-58143318D01*
X116051600Y-59809665D01*
X116034503Y-59848133D01*
X116000309Y-59870267D01*
X115943065Y-59881258D01*
X115853458Y-59884769D01*
X115759577Y-59881258D01*
X115698059Y-59870267D01*
X115661270Y-59848133D01*
X115643409Y-59809665D01*
X115059364Y-57771611D01*
X115048220Y-57710245D01*
X115061806Y-57676051D01*
X115108823Y-57660785D01*
X115195987Y-57657274D01*
X115279640Y-57659870D01*
X115326504Y-57669334D01*
X115348791Y-57687957D01*
X115358256Y-57718640D01*
X115855137Y-59567559D01*
X115856816Y-59567559D01*
X116328205Y-57722151D01*
X116341028Y-57690553D01*
X116365758Y-57671013D01*
X116414453Y-57660785D01*
X116497343Y-57657274D01*
X116573211Y-57660785D01*
X116618549Y-57671013D01*
X116643278Y-57690553D01*
X116656101Y-57722151D01*
X117163363Y-59567559D01*
X117166721Y-59567559D01*
X117653528Y-57720320D01*
X117663603Y-57690553D01*
X117684974Y-57671013D01*
X117731075Y-57660785D01*
X117810607Y-57657274D01*
X117891665Y-57661549D01*
X117935170Y-57677730D01*
X117947993Y-57711924D01*
X117938681Y-57773290D01*
X117352957Y-59809665D01*
G37*
G36*
X118906919Y-58224343D02*
G01*
X119029836Y-58251853D01*
X119136986Y-58299454D01*
X119217751Y-58362220D01*
X119279017Y-58442602D01*
X119321859Y-58542807D01*
X119345720Y-58655595D01*
X119354374Y-58794378D01*
X119354374Y-59833478D01*
X119340635Y-59864314D01*
X119303083Y-59879579D01*
X119233169Y-59884769D01*
X119162185Y-59879579D01*
X119123717Y-59864314D01*
X119111810Y-59833478D01*
X119111810Y-59679911D01*
X119004296Y-59775866D01*
X118887260Y-59845843D01*
X118759995Y-59889656D01*
X118625157Y-59904309D01*
X118507348Y-59896121D01*
X118405643Y-59872862D01*
X118313483Y-59833709D01*
X118238337Y-59781882D01*
X118177111Y-59715900D01*
X118130717Y-59635642D01*
X118102232Y-59544724D01*
X118092249Y-59438263D01*
X118093774Y-59424677D01*
X118380914Y-59424677D01*
X118389878Y-59500639D01*
X118415290Y-59562727D01*
X118456934Y-59614118D01*
X118511620Y-59651863D01*
X118581103Y-59675813D01*
X118669578Y-59684490D01*
X118776610Y-59670457D01*
X118875353Y-59628467D01*
X118967942Y-59561446D01*
X119074258Y-59456886D01*
X119074258Y-59132501D01*
X118833526Y-59132501D01*
X118721288Y-59137756D01*
X118631873Y-59152041D01*
X118551517Y-59177211D01*
X118490212Y-59209896D01*
X118440662Y-59252651D01*
X118407322Y-59301639D01*
X118387774Y-59357924D01*
X118380914Y-59424677D01*
X118093774Y-59424677D01*
X118106061Y-59315209D01*
X118145219Y-59213865D01*
X118209024Y-59127421D01*
X118297260Y-59055717D01*
X118403956Y-59001924D01*
X118539672Y-58961226D01*
X118687936Y-58938056D01*
X118862530Y-58929780D01*
X119074258Y-58929780D01*
X119074258Y-58809185D01*
X119069285Y-58722411D01*
X119055482Y-58650580D01*
X119030398Y-58586394D01*
X118994879Y-58535938D01*
X118947719Y-58496470D01*
X118886344Y-58467092D01*
X118815538Y-58450081D01*
X118722396Y-58443736D01*
X118621411Y-58450331D01*
X118535397Y-58468924D01*
X118390225Y-58524337D01*
X118286117Y-58579902D01*
X118223835Y-58604937D01*
X118199869Y-58598067D01*
X118181856Y-58577612D01*
X118170865Y-58542502D01*
X118167506Y-58495333D01*
X118173460Y-58427708D01*
X118202464Y-58380539D01*
X118281843Y-58327874D01*
X118411597Y-58272308D01*
X118572186Y-58230635D01*
X118748041Y-58214148D01*
X118906919Y-58224343D01*
G37*
G36*
X120836928Y-59410327D02*
G01*
X120825619Y-59523798D01*
X120793270Y-59620682D01*
X120740591Y-59705640D01*
X120669469Y-59776234D01*
X120582962Y-59831028D01*
X120478196Y-59871946D01*
X120363817Y-59895928D01*
X120233954Y-59904309D01*
X120077638Y-59891486D01*
X119944526Y-59859124D01*
X119844539Y-59818213D01*
X119784852Y-59779745D01*
X119757527Y-59732117D01*
X119748979Y-59648770D01*
X119752337Y-59594273D01*
X119760886Y-59558552D01*
X119775388Y-59539013D01*
X119796759Y-59533060D01*
X119852324Y-59556110D01*
X119942847Y-59606332D01*
X120070006Y-59656707D01*
X120146746Y-59673560D01*
X120239144Y-59679605D01*
X120368898Y-59664187D01*
X120424061Y-59644700D01*
X120469648Y-59618697D01*
X120507513Y-59584527D01*
X120535441Y-59542371D01*
X120552425Y-59493230D01*
X120558491Y-59432615D01*
X120549839Y-59371772D01*
X120525213Y-59323316D01*
X120487389Y-59282090D01*
X120437286Y-59244700D01*
X120314248Y-59184098D01*
X120173351Y-59128532D01*
X120031690Y-59062739D01*
X119965950Y-59021750D01*
X119907889Y-58972980D01*
X119858857Y-58915344D01*
X119819809Y-58846584D01*
X119795366Y-58768436D01*
X119786531Y-58670424D01*
X119795284Y-58581744D01*
X119821489Y-58497012D01*
X119865048Y-58419623D01*
X119926513Y-58351840D01*
X120003430Y-58296710D01*
X120101605Y-58251853D01*
X120211838Y-58224132D01*
X120346763Y-58214148D01*
X120469648Y-58224834D01*
X120580626Y-58251700D01*
X120665195Y-58286505D01*
X120718165Y-58319631D01*
X120742131Y-58344055D01*
X120750527Y-58367105D01*
X120755717Y-58398857D01*
X120758312Y-58444958D01*
X120755717Y-58495333D01*
X120747169Y-58530443D01*
X120732667Y-58550135D01*
X120713891Y-58556088D01*
X120669469Y-58536701D01*
X120594364Y-58495027D01*
X120485829Y-58453506D01*
X120420931Y-58439114D01*
X120343252Y-58433967D01*
X120274036Y-58438254D01*
X120217009Y-58450148D01*
X120166034Y-58470350D01*
X120127250Y-58496096D01*
X120096449Y-58528640D01*
X120074280Y-58566621D01*
X120056420Y-58655006D01*
X120065285Y-58717527D01*
X120090461Y-58767053D01*
X120129062Y-58808857D01*
X120179304Y-58846432D01*
X120304021Y-58907950D01*
X120446598Y-58964432D01*
X120590090Y-59029309D01*
X120657313Y-59069340D01*
X120715570Y-59116473D01*
X120764589Y-59172476D01*
X120803497Y-59239510D01*
X120828087Y-59315660D01*
X120836928Y-59410327D01*
G37*
G36*
X122563267Y-59831646D02*
G01*
X122556398Y-59854849D01*
X122534263Y-59871031D01*
X122491521Y-59881258D01*
X122423285Y-59884769D01*
X122353218Y-59881258D01*
X122310476Y-59871031D01*
X122288341Y-59854849D01*
X122281472Y-59831646D01*
X122281472Y-58929322D01*
X122275717Y-58803879D01*
X122261017Y-58716983D01*
X122235201Y-58640659D01*
X122201177Y-58578375D01*
X122156087Y-58526881D01*
X122099511Y-58489227D01*
X122033792Y-58466421D01*
X121955255Y-58458391D01*
X121852212Y-58476265D01*
X121743527Y-58533801D01*
X121640350Y-58621429D01*
X121521571Y-58754688D01*
X121521571Y-59831646D01*
X121514702Y-59854849D01*
X121492415Y-59871031D01*
X121449825Y-59881258D01*
X121379758Y-59884769D01*
X121311523Y-59881258D01*
X121267864Y-59871183D01*
X121245730Y-59854849D01*
X121239776Y-59831799D01*
X121239776Y-57545991D01*
X121245730Y-57522025D01*
X121267864Y-57504928D01*
X121311523Y-57494700D01*
X121379758Y-57491189D01*
X121449825Y-57494700D01*
X121492415Y-57504928D01*
X121514702Y-57522025D01*
X121521571Y-57545839D01*
X121521571Y-58467550D01*
X121647091Y-58352629D01*
X121765662Y-58276735D01*
X121890670Y-58229406D01*
X122013415Y-58214148D01*
X122159438Y-58228122D01*
X122272160Y-58266355D01*
X122367932Y-58327985D01*
X122442062Y-58405879D01*
X122497153Y-58499386D01*
X122535027Y-58610432D01*
X122555596Y-58733896D01*
X122563267Y-58893754D01*
X122563267Y-59831646D01*
G37*
G36*
X123358278Y-59831952D02*
G01*
X123351408Y-59855002D01*
X123329121Y-59871183D01*
X123286531Y-59881258D01*
X123216464Y-59884769D01*
X123148229Y-59881258D01*
X123104570Y-59871183D01*
X123082436Y-59855002D01*
X123076482Y-59831952D01*
X123076482Y-58296275D01*
X123082436Y-58274140D01*
X123104570Y-58257196D01*
X123148229Y-58246968D01*
X123216464Y-58243457D01*
X123286531Y-58246968D01*
X123329121Y-58257196D01*
X123351408Y-58274140D01*
X123358278Y-58296275D01*
X123358278Y-59831952D01*
G37*
G36*
X123390640Y-57780159D02*
G01*
X123379532Y-57868943D01*
X123353087Y-57914645D01*
X123305837Y-57939754D01*
X123214785Y-57950366D01*
X123125235Y-57940010D01*
X123078925Y-57915561D01*
X123053142Y-57870799D01*
X123042288Y-57783517D01*
X123053397Y-57694733D01*
X123079841Y-57649031D01*
X123127091Y-57623922D01*
X123218143Y-57613311D01*
X123307651Y-57623713D01*
X123353851Y-57648268D01*
X123379740Y-57692921D01*
X123390640Y-57780159D01*
G37*
G36*
X125201090Y-59831646D02*
G01*
X125194221Y-59854849D01*
X125172086Y-59871031D01*
X125129344Y-59881258D01*
X125061108Y-59884769D01*
X124991041Y-59881258D01*
X124948299Y-59871031D01*
X124926164Y-59854849D01*
X124919295Y-59831646D01*
X124919295Y-58929322D01*
X124913540Y-58803879D01*
X124898839Y-58716983D01*
X124873023Y-58640659D01*
X124839000Y-58578375D01*
X124793910Y-58526881D01*
X124737334Y-58489227D01*
X124671615Y-58466421D01*
X124593078Y-58458391D01*
X124490035Y-58476265D01*
X124381350Y-58533801D01*
X124278173Y-58621429D01*
X124159394Y-58754688D01*
X124159394Y-59831646D01*
X124152525Y-59854849D01*
X124130238Y-59871031D01*
X124087648Y-59881258D01*
X124017581Y-59884769D01*
X123949345Y-59881258D01*
X123905687Y-59871183D01*
X123883552Y-59855002D01*
X123877599Y-59831952D01*
X123877599Y-58296275D01*
X123882636Y-58273377D01*
X123903092Y-58256280D01*
X123942323Y-58246052D01*
X124005674Y-58243457D01*
X124067956Y-58246052D01*
X124106271Y-58256280D01*
X124125963Y-58273377D01*
X124132069Y-58296427D01*
X124132069Y-58499454D01*
X124266621Y-58367161D01*
X124390662Y-58282841D01*
X124521991Y-58230879D01*
X124651238Y-58214148D01*
X124797261Y-58228122D01*
X124909983Y-58266355D01*
X125005755Y-58327985D01*
X125079884Y-58405879D01*
X125134976Y-58499386D01*
X125172849Y-58610432D01*
X125193440Y-58733683D01*
X125201090Y-58891922D01*
X125201090Y-59831646D01*
G37*
G36*
X126362312Y-58231703D02*
G01*
X126475885Y-58253227D01*
X126940404Y-58253227D01*
X126965637Y-58260120D01*
X126984063Y-58281468D01*
X126994326Y-58313621D01*
X126998565Y-58367716D01*
X126993742Y-58422802D01*
X126982231Y-58453964D01*
X126963141Y-58474108D01*
X126940404Y-58480373D01*
X126720128Y-58480373D01*
X126771444Y-58546040D01*
X126803781Y-58616538D01*
X126821713Y-58692283D01*
X126827747Y-58771632D01*
X126816566Y-58900201D01*
X126785005Y-59007937D01*
X126732880Y-59103083D01*
X126662883Y-59181655D01*
X126576972Y-59243771D01*
X126474206Y-59290343D01*
X126361082Y-59318175D01*
X126231795Y-59327896D01*
X126139423Y-59321615D01*
X126053192Y-59303166D01*
X125975018Y-59273457D01*
X125922675Y-59240579D01*
X125872147Y-59310646D01*
X125857686Y-59352006D01*
X125852608Y-59401168D01*
X125865980Y-59454911D01*
X125908020Y-59500239D01*
X125969848Y-59529650D01*
X126055787Y-59542829D01*
X126457109Y-59559926D01*
X126568706Y-59569745D01*
X126667158Y-59591372D01*
X126757803Y-59626123D01*
X126832785Y-59671515D01*
X126895281Y-59729569D01*
X126942083Y-59799284D01*
X126971213Y-59879411D01*
X126981468Y-59975597D01*
X126970352Y-60078721D01*
X126937046Y-60176639D01*
X126881727Y-60265223D01*
X126801186Y-60344404D01*
X126700806Y-60407346D01*
X126568087Y-60458435D01*
X126419435Y-60489061D01*
X126233474Y-60500261D01*
X126054314Y-60491665D01*
X125916569Y-60468662D01*
X125793630Y-60429636D01*
X125702246Y-60382414D01*
X125628874Y-60321074D01*
X125581040Y-60251744D01*
X125552979Y-60173009D01*
X125543488Y-60087033D01*
X125546785Y-60060471D01*
X125820093Y-60060471D01*
X125832299Y-60127526D01*
X125868353Y-60182391D01*
X125932750Y-60228236D01*
X126010277Y-60257882D01*
X126112964Y-60277866D01*
X126247060Y-60285327D01*
X126369707Y-60278548D01*
X126461383Y-60260598D01*
X126541949Y-60230568D01*
X126600601Y-60194958D01*
X126646792Y-60150318D01*
X126676622Y-60101382D01*
X126693904Y-60047332D01*
X126699672Y-59990710D01*
X126690429Y-59929212D01*
X126663820Y-59879411D01*
X126618462Y-59838363D01*
X126528100Y-59798526D01*
X126399101Y-59781119D01*
X126001138Y-59767533D01*
X125911531Y-59848438D01*
X125855966Y-59921711D01*
X125827725Y-59990710D01*
X125820093Y-60060471D01*
X125546785Y-60060471D01*
X125557074Y-59977581D01*
X125598900Y-59876831D01*
X125668968Y-59785546D01*
X125765443Y-59699297D01*
X125691022Y-59649778D01*
X125641643Y-59592136D01*
X125611487Y-59524737D01*
X125601495Y-59452612D01*
X125612498Y-59352979D01*
X125644238Y-59267140D01*
X125692214Y-59189542D01*
X125750178Y-59120747D01*
X125702906Y-59053631D01*
X125666372Y-58977865D01*
X125643927Y-58893344D01*
X125635689Y-58785218D01*
X125635869Y-58783234D01*
X125903899Y-58783234D01*
X125914313Y-58881444D01*
X125943394Y-58959977D01*
X125989994Y-59023203D01*
X126052632Y-59070331D01*
X126131641Y-59099880D01*
X126231795Y-59110519D01*
X126311935Y-59103496D01*
X126376814Y-59083958D01*
X126433492Y-59051919D01*
X126478480Y-59010380D01*
X126513318Y-58959872D01*
X126538167Y-58901539D01*
X126552898Y-58838820D01*
X126557859Y-58773006D01*
X126547327Y-58671280D01*
X126518099Y-58590894D01*
X126471611Y-58527084D01*
X126408834Y-58479567D01*
X126328857Y-58449661D01*
X126226605Y-58438852D01*
X126148097Y-58446088D01*
X126084028Y-58466329D01*
X126028173Y-58499118D01*
X125983278Y-58541739D01*
X125948419Y-58593012D01*
X125923438Y-58652259D01*
X125908839Y-58715852D01*
X125903899Y-58783234D01*
X125635869Y-58783234D01*
X125647211Y-58658122D01*
X125680111Y-58549066D01*
X125733532Y-58452119D01*
X125802996Y-58372906D01*
X125888432Y-58309975D01*
X125991673Y-58262539D01*
X126105242Y-58233827D01*
X126231795Y-58223918D01*
X126362312Y-58231703D01*
G37*
G36*
X128105901Y-59719142D02*
G01*
X128099031Y-59798063D01*
X128078576Y-59840806D01*
X128037665Y-59866604D01*
X127975231Y-59886296D01*
X127901042Y-59899118D01*
X127822426Y-59904309D01*
X127707811Y-59895884D01*
X127617415Y-59872862D01*
X127539076Y-59832709D01*
X127477433Y-59777302D01*
X127431182Y-59706692D01*
X127398054Y-59615339D01*
X127379962Y-59512760D01*
X127373325Y-59384377D01*
X127373325Y-58487700D01*
X127158086Y-58487700D01*
X127135702Y-58481256D01*
X127117175Y-58460375D01*
X127106330Y-58428290D01*
X127101757Y-58371379D01*
X127106031Y-58316577D01*
X127117175Y-58279788D01*
X127135035Y-58259180D01*
X127159918Y-58253227D01*
X127373325Y-58253227D01*
X127373325Y-57887779D01*
X127379278Y-57865644D01*
X127401413Y-57847631D01*
X127445071Y-57836640D01*
X127513306Y-57833129D01*
X127583374Y-57836640D01*
X127625963Y-57847631D01*
X127648251Y-57865644D01*
X127655120Y-57887779D01*
X127655120Y-58253227D01*
X128049572Y-58253227D01*
X128073538Y-58259180D01*
X128091399Y-58279788D01*
X128102542Y-58316577D01*
X128105901Y-58371379D01*
X128101328Y-58428290D01*
X128090483Y-58460375D01*
X128072055Y-58481241D01*
X128049572Y-58487700D01*
X127655120Y-58487700D01*
X127655120Y-59342397D01*
X127668536Y-59489637D01*
X127701984Y-59581603D01*
X127739829Y-59625208D01*
X127793980Y-59652437D01*
X127870359Y-59662508D01*
X127940273Y-59654876D01*
X127994923Y-59638542D01*
X128035986Y-59622361D01*
X128066669Y-59614576D01*
X128082850Y-59618850D01*
X128094910Y-59635184D01*
X128102542Y-59667698D01*
X128105901Y-59719142D01*
G37*
G36*
X129303275Y-58229079D02*
G01*
X129451679Y-58270629D01*
X129581695Y-58340391D01*
X129686457Y-58434577D01*
X129767583Y-58551839D01*
X129827355Y-58696070D01*
X129862066Y-58855736D01*
X129874371Y-59043047D01*
X129861580Y-59226208D01*
X129824760Y-59389109D01*
X129762248Y-59537773D01*
X129676993Y-59661592D01*
X129567426Y-59762766D01*
X129431071Y-59840195D01*
X129275770Y-59887501D01*
X129088673Y-59904309D01*
X128906712Y-59889420D01*
X128758334Y-59847980D01*
X128628285Y-59778107D01*
X128523403Y-59683879D01*
X128442485Y-59566591D01*
X128383422Y-59422387D01*
X128349420Y-59262569D01*
X128337321Y-59073730D01*
X128338546Y-59055870D01*
X128632702Y-59055870D01*
X128638620Y-59180046D01*
X128655752Y-59293396D01*
X128687130Y-59399002D01*
X128732536Y-59487264D01*
X128795225Y-59561166D01*
X128876945Y-59618697D01*
X128974651Y-59654354D01*
X129102411Y-59667393D01*
X129219859Y-59655727D01*
X129315819Y-59622971D01*
X129398374Y-59569445D01*
X129464349Y-59498255D01*
X129514044Y-59411974D01*
X129549834Y-59306982D01*
X129570061Y-59192676D01*
X129577158Y-59062587D01*
X129571258Y-58939909D01*
X129554108Y-58826892D01*
X129522939Y-58721118D01*
X129478087Y-58632261D01*
X129416048Y-58557528D01*
X129334595Y-58499760D01*
X129236907Y-58464099D01*
X129109281Y-58451064D01*
X128990330Y-58462795D01*
X128894805Y-58495485D01*
X128813079Y-58549121D01*
X128747191Y-58621118D01*
X128697376Y-58708027D01*
X128660942Y-58813306D01*
X128640011Y-58927319D01*
X128632702Y-59055870D01*
X128338546Y-59055870D01*
X128349885Y-58890550D01*
X128386017Y-58727821D01*
X128447914Y-58579039D01*
X128532868Y-58455185D01*
X128642333Y-58354032D01*
X128777874Y-58277346D01*
X128932663Y-58230782D01*
X129121188Y-58214148D01*
X129303275Y-58229079D01*
G37*
G36*
X131612465Y-59831646D02*
G01*
X131605595Y-59854849D01*
X131583461Y-59871031D01*
X131540718Y-59881258D01*
X131472483Y-59884769D01*
X131402416Y-59881258D01*
X131359673Y-59871031D01*
X131337539Y-59854849D01*
X131330669Y-59831646D01*
X131330669Y-58929322D01*
X131324914Y-58803879D01*
X131310214Y-58716983D01*
X131284398Y-58640659D01*
X131250375Y-58578375D01*
X131205284Y-58526881D01*
X131148709Y-58489227D01*
X131082989Y-58466421D01*
X131004453Y-58458391D01*
X130901409Y-58476265D01*
X130792725Y-58533801D01*
X130689548Y-58621429D01*
X130570769Y-58754688D01*
X130570769Y-59831646D01*
X130563900Y-59854849D01*
X130541612Y-59871031D01*
X130499023Y-59881258D01*
X130428955Y-59884769D01*
X130360720Y-59881258D01*
X130317062Y-59871183D01*
X130294927Y-59855002D01*
X130288974Y-59831952D01*
X130288974Y-58296275D01*
X130294011Y-58273377D01*
X130314467Y-58256280D01*
X130353698Y-58246052D01*
X130417049Y-58243457D01*
X130479330Y-58246052D01*
X130517646Y-58256280D01*
X130537338Y-58273377D01*
X130543444Y-58296427D01*
X130543444Y-58499454D01*
X130677995Y-58367161D01*
X130802036Y-58282841D01*
X130933366Y-58230879D01*
X131062613Y-58214148D01*
X131208636Y-58228122D01*
X131321358Y-58266355D01*
X131417130Y-58327985D01*
X131491259Y-58405879D01*
X131546351Y-58499386D01*
X131584224Y-58610432D01*
X131604815Y-58733683D01*
X131612465Y-58891922D01*
X131612465Y-59831646D01*
G37*
G36*
X134176557Y-59753794D02*
G01*
X134173198Y-59807527D01*
X134161291Y-59845996D01*
X134141599Y-59868130D01*
X134116870Y-59875000D01*
X133056245Y-59875000D01*
X133018575Y-59868585D01*
X132981904Y-59848591D01*
X132956698Y-59814656D01*
X132946946Y-59755626D01*
X132946946Y-57786418D01*
X132956704Y-57727416D01*
X132981904Y-57693606D01*
X133018586Y-57673493D01*
X133056245Y-57667044D01*
X134104810Y-57667044D01*
X134129540Y-57673913D01*
X134147553Y-57696201D01*
X134158696Y-57734516D01*
X134162971Y-57791761D01*
X134158696Y-57845494D01*
X134147553Y-57883046D01*
X134129540Y-57904418D01*
X134104810Y-57911287D01*
X133240801Y-57911287D01*
X133240801Y-58602494D01*
X133981926Y-58602494D01*
X134006655Y-58610127D01*
X134025431Y-58631498D01*
X134036575Y-58669050D01*
X134039933Y-58725226D01*
X134036575Y-58778044D01*
X134025431Y-58813917D01*
X134006655Y-58833456D01*
X133981926Y-58839410D01*
X133240801Y-58839410D01*
X133240801Y-59630757D01*
X134116870Y-59630757D01*
X134141599Y-59637626D01*
X134161291Y-59658997D01*
X134173198Y-59696550D01*
X134176557Y-59753794D01*
G37*
G36*
X136088215Y-59560842D02*
G01*
X136086536Y-59608927D01*
X136080582Y-59645106D01*
X136069439Y-59672583D01*
X136045472Y-59701892D01*
X135973879Y-59754710D01*
X135838019Y-59823861D01*
X135651936Y-59880953D01*
X135544147Y-59898248D01*
X135422195Y-59904309D01*
X135280227Y-59895951D01*
X135151306Y-59871746D01*
X135033696Y-59832562D01*
X134923421Y-59776826D01*
X134825303Y-59706393D01*
X134738162Y-59620529D01*
X134664717Y-59522338D01*
X134602012Y-59407708D01*
X134550401Y-59274467D01*
X134514908Y-59135579D01*
X134492481Y-58978243D01*
X134484608Y-58800026D01*
X134493017Y-58617544D01*
X134517095Y-58454812D01*
X134555438Y-58309556D01*
X134610593Y-58170085D01*
X134677052Y-58049106D01*
X134754496Y-57944565D01*
X134845805Y-57852434D01*
X134947631Y-57776661D01*
X135061021Y-57716351D01*
X135182238Y-57673232D01*
X135313463Y-57646806D01*
X135456389Y-57637735D01*
X135642472Y-57655901D01*
X135809778Y-57701543D01*
X135946401Y-57765199D01*
X136029291Y-57824581D01*
X136059211Y-57859843D01*
X136070355Y-57887931D01*
X136077071Y-57926400D01*
X136079666Y-57979370D01*
X136076308Y-58037377D01*
X136066080Y-58077525D01*
X136049747Y-58101491D01*
X136026849Y-58109124D01*
X136001794Y-58102501D01*
X135960140Y-58075693D01*
X135850078Y-58001657D01*
X135778173Y-57964236D01*
X135686130Y-57927773D01*
X135584216Y-57903205D01*
X135454710Y-57894190D01*
X135312975Y-57909289D01*
X135187417Y-57953266D01*
X135076528Y-58025434D01*
X134981489Y-58126831D01*
X134907272Y-58250726D01*
X134849140Y-58406337D01*
X134814644Y-58577982D01*
X134802276Y-58783539D01*
X134814243Y-58987153D01*
X134847461Y-59155552D01*
X134904230Y-59307209D01*
X134977368Y-59425745D01*
X135071770Y-59521239D01*
X135184822Y-59589846D01*
X135313522Y-59631031D01*
X135463258Y-59645411D01*
X135589885Y-59636614D01*
X135692847Y-59612286D01*
X135786679Y-59575806D01*
X135860306Y-59537944D01*
X135973879Y-59463756D01*
X136017168Y-59437150D01*
X136043793Y-59430478D01*
X136064401Y-59435668D01*
X136077987Y-59455360D01*
X136085620Y-59495812D01*
X136088215Y-59560842D01*
G37*
G36*
X137708308Y-59753794D02*
G01*
X137704950Y-59807527D01*
X137693043Y-59845996D01*
X137673351Y-59868130D01*
X137648621Y-59875000D01*
X136587997Y-59875000D01*
X136550327Y-59868585D01*
X136513655Y-59848591D01*
X136488450Y-59814656D01*
X136478698Y-59755626D01*
X136478698Y-57786418D01*
X136488456Y-57727416D01*
X136513655Y-57693606D01*
X136550337Y-57673493D01*
X136587997Y-57667044D01*
X137636562Y-57667044D01*
X137661291Y-57673913D01*
X137679304Y-57696201D01*
X137690448Y-57734516D01*
X137694722Y-57791761D01*
X137690448Y-57845494D01*
X137679304Y-57883046D01*
X137661291Y-57904418D01*
X137636562Y-57911287D01*
X136772553Y-57911287D01*
X136772553Y-58602494D01*
X137513677Y-58602494D01*
X137538407Y-58610127D01*
X137557183Y-58631498D01*
X137568326Y-58669050D01*
X137571685Y-58725226D01*
X137568326Y-58778044D01*
X137557183Y-58813917D01*
X137538407Y-58833456D01*
X137513677Y-58839410D01*
X136772553Y-58839410D01*
X136772553Y-59630757D01*
X137648621Y-59630757D01*
X137673351Y-59637626D01*
X137693043Y-59658997D01*
X137704950Y-59696550D01*
X137708308Y-59753794D01*
G37*
G36*
X97723312Y-63953794D02*
G01*
X97719953Y-64007527D01*
X97708046Y-64045996D01*
X97688354Y-64068130D01*
X97663625Y-64075000D01*
X96603000Y-64075000D01*
X96565330Y-64068585D01*
X96528659Y-64048591D01*
X96503453Y-64014656D01*
X96493702Y-63955626D01*
X96493702Y-61986418D01*
X96503459Y-61927416D01*
X96528659Y-61893606D01*
X96565341Y-61873493D01*
X96603000Y-61867044D01*
X97651565Y-61867044D01*
X97676295Y-61873913D01*
X97694308Y-61896201D01*
X97705451Y-61934516D01*
X97709726Y-61991761D01*
X97705451Y-62045494D01*
X97694308Y-62083046D01*
X97676295Y-62104418D01*
X97651565Y-62111287D01*
X96787556Y-62111287D01*
X96787556Y-62802494D01*
X97528681Y-62802494D01*
X97553410Y-62810127D01*
X97572186Y-62831498D01*
X97583330Y-62869050D01*
X97586688Y-62925226D01*
X97583330Y-62978044D01*
X97572186Y-63013917D01*
X97553410Y-63033456D01*
X97528681Y-63039410D01*
X96787556Y-63039410D01*
X96787556Y-63830757D01*
X97663625Y-63830757D01*
X97688354Y-63837626D01*
X97708046Y-63858997D01*
X97719953Y-63896550D01*
X97723312Y-63953794D01*
G37*
G36*
X99430569Y-63953794D02*
G01*
X99427211Y-64007527D01*
X99415304Y-64045996D01*
X99395612Y-64068130D01*
X99370882Y-64075000D01*
X98310258Y-64075000D01*
X98272588Y-64068585D01*
X98235916Y-64048591D01*
X98210711Y-64014656D01*
X98200959Y-63955626D01*
X98200959Y-61986418D01*
X98210717Y-61927416D01*
X98235916Y-61893606D01*
X98272598Y-61873493D01*
X98310258Y-61867044D01*
X99358823Y-61867044D01*
X99383552Y-61873913D01*
X99401565Y-61896201D01*
X99412709Y-61934516D01*
X99416983Y-61991761D01*
X99412709Y-62045494D01*
X99401565Y-62083046D01*
X99383552Y-62104418D01*
X99358823Y-62111287D01*
X98494814Y-62111287D01*
X98494814Y-62802494D01*
X99235938Y-62802494D01*
X99260668Y-62810127D01*
X99279444Y-62831498D01*
X99290587Y-62869050D01*
X99293946Y-62925226D01*
X99290587Y-62978044D01*
X99279444Y-63013917D01*
X99260668Y-63033456D01*
X99235938Y-63039410D01*
X98494814Y-63039410D01*
X98494814Y-63830757D01*
X99370882Y-63830757D01*
X99395612Y-63837626D01*
X99415304Y-63858997D01*
X99427211Y-63896550D01*
X99430569Y-63953794D01*
G37*
G36*
X101981380Y-63948756D02*
G01*
X101977106Y-64003406D01*
X101965199Y-64043401D01*
X101944744Y-64067367D01*
X101916503Y-64075000D01*
X100695442Y-64075000D01*
X100653615Y-64069046D01*
X100622932Y-64049507D01*
X100604003Y-64010122D01*
X100598050Y-63946925D01*
X100600645Y-63887238D01*
X100611789Y-63842053D01*
X100633160Y-63802669D01*
X100666438Y-63760842D01*
X101095084Y-63303650D01*
X101234106Y-63148345D01*
X101333221Y-63021702D01*
X101415463Y-62897989D01*
X101471676Y-62794404D01*
X101513222Y-62693010D01*
X101535637Y-62608169D01*
X101551055Y-62450937D01*
X101544991Y-62378580D01*
X101527089Y-62310956D01*
X101497715Y-62248641D01*
X101457937Y-62195093D01*
X101407643Y-62150848D01*
X101344364Y-62116019D01*
X101272749Y-62094485D01*
X101187286Y-62086863D01*
X101086463Y-62094311D01*
X101000287Y-62115409D01*
X100855116Y-62177233D01*
X100751007Y-62239209D01*
X100688572Y-62267602D01*
X100667201Y-62260886D01*
X100651936Y-62238904D01*
X100642472Y-62198299D01*
X100639113Y-62137390D01*
X100640792Y-62093427D01*
X100646746Y-62061370D01*
X100657889Y-62036030D01*
X100685214Y-62006415D01*
X100756045Y-61958177D01*
X100882440Y-61898185D01*
X101049747Y-61848268D01*
X101142658Y-61833132D01*
X101241935Y-61827965D01*
X101396429Y-61839952D01*
X101522814Y-61873303D01*
X101634729Y-61928082D01*
X101722636Y-61997409D01*
X101792118Y-62082628D01*
X101841399Y-62180591D01*
X101870682Y-62287531D01*
X101880630Y-62403005D01*
X101861854Y-62614275D01*
X101833882Y-62719974D01*
X101782475Y-62841573D01*
X101712111Y-62964927D01*
X101607383Y-63113599D01*
X101481280Y-63266521D01*
X101303454Y-63458134D01*
X100953271Y-63825872D01*
X101914824Y-63825872D01*
X101941233Y-63833657D01*
X101963367Y-63856707D01*
X101977106Y-63895023D01*
X101981380Y-63948756D01*
G37*
G36*
X103223707Y-61837035D02*
G01*
X103340038Y-61862454D01*
X103437831Y-61902307D01*
X103526287Y-61959322D01*
X103602496Y-62031721D01*
X103667419Y-62121057D01*
X103740042Y-62276710D01*
X103791220Y-62476583D01*
X103818207Y-62695340D01*
X103828009Y-62960947D01*
X103817511Y-63209854D01*
X103787862Y-63425924D01*
X103733018Y-63625625D01*
X103654749Y-63787404D01*
X103585723Y-63881243D01*
X103504882Y-63958793D01*
X103411270Y-64021419D01*
X103307962Y-64065980D01*
X103185731Y-64094253D01*
X103040784Y-64104309D01*
X102903431Y-64095264D01*
X102787617Y-64069869D01*
X102689837Y-64029967D01*
X102601371Y-63972958D01*
X102525109Y-63900558D01*
X102460096Y-63811217D01*
X102387549Y-63655598D01*
X102336296Y-63455844D01*
X102309419Y-63236956D01*
X102299659Y-62971327D01*
X102300547Y-62950719D01*
X102600231Y-62950719D01*
X102607187Y-63189155D01*
X102625724Y-63371733D01*
X102660740Y-63535635D01*
X102706782Y-63654291D01*
X102771893Y-63750636D01*
X102848595Y-63813049D01*
X102941224Y-63849467D01*
X103057881Y-63862508D01*
X103149725Y-63854459D01*
X103225950Y-63831825D01*
X103293623Y-63794311D01*
X103350667Y-63743898D01*
X103397711Y-63681916D01*
X103436915Y-63606511D01*
X103491564Y-63428977D01*
X103519805Y-63218012D01*
X103527438Y-62981555D01*
X103515531Y-62684494D01*
X103480573Y-62452158D01*
X103453145Y-62355753D01*
X103420734Y-62278899D01*
X103379575Y-62211638D01*
X103332807Y-62159525D01*
X103277849Y-62118895D01*
X103215723Y-62091137D01*
X103147596Y-62075343D01*
X103068108Y-62069766D01*
X102973506Y-62078082D01*
X102896076Y-62101332D01*
X102832414Y-62138154D01*
X102752754Y-62217579D01*
X102689837Y-62325915D01*
X102647085Y-62451819D01*
X102619007Y-62605879D01*
X102605090Y-62769304D01*
X102600231Y-62950719D01*
X102300547Y-62950719D01*
X102310321Y-62723969D01*
X102340570Y-62507266D01*
X102396066Y-62306696D01*
X102473835Y-62145023D01*
X102542321Y-62051111D01*
X102622799Y-61973514D01*
X102716246Y-61910855D01*
X102819636Y-61866238D01*
X102941404Y-61837992D01*
X103085205Y-61827965D01*
X103223707Y-61837035D01*
G37*
G36*
X105532977Y-63958221D02*
G01*
X105527786Y-64013176D01*
X105514200Y-64049201D01*
X105494508Y-64069046D01*
X105471458Y-64075000D01*
X104316953Y-64075000D01*
X104294818Y-64069046D01*
X104275126Y-64049201D01*
X104260624Y-64013176D01*
X104255587Y-63958221D01*
X104260624Y-63905098D01*
X104273447Y-63868156D01*
X104292223Y-63845869D01*
X104316953Y-63838084D01*
X104778114Y-63838084D01*
X104778114Y-62157693D01*
X104351147Y-62411706D01*
X104299092Y-62432161D01*
X104267493Y-62424528D01*
X104251312Y-62387739D01*
X104247038Y-62322862D01*
X104249480Y-62273251D01*
X104257113Y-62239057D01*
X104271615Y-62215090D01*
X104296497Y-62194635D01*
X104805438Y-61867960D01*
X104822535Y-61859564D01*
X104848028Y-61852695D01*
X104883901Y-61848421D01*
X104935192Y-61847505D01*
X105003580Y-61851016D01*
X105046170Y-61860327D01*
X105066625Y-61875745D01*
X105071816Y-61895285D01*
X105071816Y-63838084D01*
X105471458Y-63838084D01*
X105497103Y-63845869D01*
X105516643Y-63868156D01*
X105528702Y-63905098D01*
X105532977Y-63958221D01*
G37*
G36*
X107992655Y-63451417D02*
G01*
X107977813Y-63600962D01*
X107935410Y-63728327D01*
X107866920Y-63840671D01*
X107776500Y-63934255D01*
X107667240Y-64007694D01*
X107537447Y-64061566D01*
X107396483Y-64093361D01*
X107241150Y-64104309D01*
X107132407Y-64099408D01*
X107035375Y-64085380D01*
X106866237Y-64038974D01*
X106741673Y-63982035D01*
X106671606Y-63932117D01*
X106642450Y-63879758D01*
X106633138Y-63794883D01*
X106636496Y-63732449D01*
X106646877Y-63692149D01*
X106663974Y-63670778D01*
X106687787Y-63664672D01*
X106713160Y-63670545D01*
X106755259Y-63693981D01*
X106867153Y-63757789D01*
X107032017Y-63822513D01*
X107132775Y-63844742D01*
X107254889Y-63852739D01*
X107347879Y-63846109D01*
X107429828Y-63827093D01*
X107504788Y-63795590D01*
X107566451Y-63754583D01*
X107617002Y-63702332D01*
X107654378Y-63639331D01*
X107677218Y-63567718D01*
X107685214Y-63483932D01*
X107674057Y-63395020D01*
X107642472Y-63323342D01*
X107593486Y-63261328D01*
X107529662Y-63206258D01*
X107369988Y-63114057D01*
X107186501Y-63028572D01*
X107003777Y-62931943D01*
X106919332Y-62874047D01*
X106844866Y-62807226D01*
X106781898Y-62729863D01*
X106731293Y-62639004D01*
X106699349Y-62536341D01*
X106687787Y-62407279D01*
X106700846Y-62274088D01*
X106738162Y-62160441D01*
X106798622Y-62060324D01*
X106878144Y-61978480D01*
X106974963Y-61914443D01*
X107091704Y-61866434D01*
X107218763Y-61837823D01*
X107358997Y-61827965D01*
X107506612Y-61840788D01*
X107646746Y-61874982D01*
X107763677Y-61922915D01*
X107831149Y-61965657D01*
X107852520Y-61991303D01*
X107861069Y-62015116D01*
X107866259Y-62049921D01*
X107867938Y-62102586D01*
X107865343Y-62157083D01*
X107857558Y-62197077D01*
X107843056Y-62220891D01*
X107821837Y-62228524D01*
X107762914Y-62204710D01*
X107664606Y-62151282D01*
X107527219Y-62096938D01*
X107444893Y-62078668D01*
X107348770Y-62072208D01*
X107260088Y-62078812D01*
X107188180Y-62097090D01*
X107124613Y-62126658D01*
X107075523Y-62162883D01*
X107036657Y-62207654D01*
X107008814Y-62260275D01*
X106992268Y-62318139D01*
X106986680Y-62379954D01*
X106997781Y-62467426D01*
X107029422Y-62539017D01*
X107078489Y-62601031D01*
X107142995Y-62656864D01*
X107304348Y-62750745D01*
X107488751Y-62837146D01*
X107673155Y-62932859D01*
X107759147Y-62989945D01*
X107834508Y-63055896D01*
X107898237Y-63132616D01*
X107948996Y-63223355D01*
X107981131Y-63325476D01*
X107992655Y-63451417D01*
G37*
G36*
X109333345Y-62431314D02*
G01*
X109459638Y-62479178D01*
X109566528Y-62555998D01*
X109651674Y-62656864D01*
X109715122Y-62776808D01*
X109760210Y-62919273D01*
X109785669Y-63071503D01*
X109794404Y-63236178D01*
X109782947Y-63432040D01*
X109750745Y-63598573D01*
X109695600Y-63749897D01*
X109622670Y-63871057D01*
X109528047Y-63970275D01*
X109413538Y-64043706D01*
X109282474Y-64088603D01*
X109128384Y-64104309D01*
X109001988Y-64090570D01*
X108888415Y-64047980D01*
X108778201Y-63974402D01*
X108662185Y-63870141D01*
X108662185Y-64645154D01*
X108655316Y-64669273D01*
X108633029Y-64686523D01*
X108590439Y-64696750D01*
X108520372Y-64700261D01*
X108452137Y-64696750D01*
X108408478Y-64686523D01*
X108386344Y-64669426D01*
X108380390Y-64645612D01*
X108380390Y-62957588D01*
X108662185Y-62957588D01*
X108662185Y-63569417D01*
X108780414Y-63700075D01*
X108882309Y-63787098D01*
X108990737Y-63844206D01*
X109101059Y-63862508D01*
X109201036Y-63849221D01*
X109282868Y-63811217D01*
X109351145Y-63751769D01*
X109405752Y-63674289D01*
X109446107Y-63584758D01*
X109474904Y-63482558D01*
X109491627Y-63375970D01*
X109497191Y-63268693D01*
X109479178Y-63040173D01*
X109454315Y-62934150D01*
X109417812Y-62844321D01*
X109366322Y-62766681D01*
X109300881Y-62707392D01*
X109220782Y-62669465D01*
X109118156Y-62655949D01*
X109010537Y-62672282D01*
X108902917Y-62723726D01*
X108788428Y-62816233D01*
X108662185Y-62957588D01*
X108380390Y-62957588D01*
X108380390Y-62496427D01*
X108385428Y-62471698D01*
X108405883Y-62455517D01*
X108445115Y-62446052D01*
X108503275Y-62443457D01*
X108562199Y-62446052D01*
X108600667Y-62455211D01*
X108622038Y-62471087D01*
X108627991Y-62495359D01*
X108627991Y-62697775D01*
X108762936Y-62573059D01*
X108893453Y-62485131D01*
X109028397Y-62432161D01*
X109174485Y-62414148D01*
X109333345Y-62431314D01*
G37*
G36*
X111115300Y-62591682D02*
G01*
X111113620Y-62654880D01*
X111106751Y-62695027D01*
X111093928Y-62717162D01*
X111072710Y-62724795D01*
X111039279Y-62717162D01*
X110994857Y-62701897D01*
X110939445Y-62687242D01*
X110872889Y-62680373D01*
X110789083Y-62697775D01*
X110702834Y-62754867D01*
X110608038Y-62860655D01*
X110498892Y-63021855D01*
X110498892Y-64031952D01*
X110492022Y-64055002D01*
X110469735Y-64071183D01*
X110427145Y-64081258D01*
X110357078Y-64084769D01*
X110288843Y-64081258D01*
X110245184Y-64071183D01*
X110223050Y-64055002D01*
X110217096Y-64031952D01*
X110217096Y-62496275D01*
X110222134Y-62473377D01*
X110242589Y-62456280D01*
X110281821Y-62446052D01*
X110345171Y-62443457D01*
X110407453Y-62446052D01*
X110445769Y-62456280D01*
X110465461Y-62473377D01*
X110471567Y-62496427D01*
X110471567Y-62719910D01*
X110590177Y-62567105D01*
X110695202Y-62474140D01*
X110793357Y-62427276D01*
X110891665Y-62414148D01*
X110941887Y-62416743D01*
X111000811Y-62426208D01*
X111056376Y-62441473D01*
X111091486Y-62458570D01*
X111105072Y-62474751D01*
X111111025Y-62494443D01*
X111114384Y-62529400D01*
X111115300Y-62591682D01*
G37*
G36*
X111717663Y-64031952D02*
G01*
X111710794Y-64055002D01*
X111688507Y-64071183D01*
X111645917Y-64081258D01*
X111575850Y-64084769D01*
X111507615Y-64081258D01*
X111463956Y-64071183D01*
X111441822Y-64055002D01*
X111435868Y-64031952D01*
X111435868Y-62496275D01*
X111441822Y-62474140D01*
X111463956Y-62457196D01*
X111507615Y-62446968D01*
X111575850Y-62443457D01*
X111645917Y-62446968D01*
X111688507Y-62457196D01*
X111710794Y-62474140D01*
X111717663Y-62496275D01*
X111717663Y-64031952D01*
G37*
G36*
X111750026Y-61980159D02*
G01*
X111738917Y-62068943D01*
X111712473Y-62114645D01*
X111665223Y-62139754D01*
X111574171Y-62150366D01*
X111484621Y-62140010D01*
X111438311Y-62115561D01*
X111412528Y-62070799D01*
X111401674Y-61983517D01*
X111412783Y-61894733D01*
X111439227Y-61849031D01*
X111486477Y-61823922D01*
X111577529Y-61813311D01*
X111667036Y-61823713D01*
X111713237Y-61848268D01*
X111739126Y-61892921D01*
X111750026Y-61980159D01*
G37*
G36*
X113560476Y-64031646D02*
G01*
X113553606Y-64054849D01*
X113531472Y-64071031D01*
X113488729Y-64081258D01*
X113420494Y-64084769D01*
X113350427Y-64081258D01*
X113307684Y-64071031D01*
X113285550Y-64054849D01*
X113278681Y-64031646D01*
X113278681Y-63129322D01*
X113272926Y-63003879D01*
X113258225Y-62916983D01*
X113232409Y-62840659D01*
X113198386Y-62778375D01*
X113153296Y-62726881D01*
X113096720Y-62689227D01*
X113031001Y-62666421D01*
X112952464Y-62658391D01*
X112849421Y-62676265D01*
X112740736Y-62733801D01*
X112637559Y-62821429D01*
X112518780Y-62954688D01*
X112518780Y-64031646D01*
X112511911Y-64054849D01*
X112489624Y-64071031D01*
X112447034Y-64081258D01*
X112376967Y-64084769D01*
X112308731Y-64081258D01*
X112265073Y-64071183D01*
X112242938Y-64055002D01*
X112236985Y-64031952D01*
X112236985Y-62496275D01*
X112242022Y-62473377D01*
X112262478Y-62456280D01*
X112301709Y-62446052D01*
X112365060Y-62443457D01*
X112427342Y-62446052D01*
X112465657Y-62456280D01*
X112485349Y-62473377D01*
X112491455Y-62496427D01*
X112491455Y-62699454D01*
X112626007Y-62567161D01*
X112750047Y-62482841D01*
X112881377Y-62430879D01*
X113010624Y-62414148D01*
X113156647Y-62428122D01*
X113269369Y-62466355D01*
X113365141Y-62527985D01*
X113439270Y-62605879D01*
X113494362Y-62699386D01*
X113532235Y-62810432D01*
X113552826Y-62933683D01*
X113560476Y-63091922D01*
X113560476Y-64031646D01*
G37*
G36*
X114721698Y-62431703D02*
G01*
X114835271Y-62453227D01*
X115299790Y-62453227D01*
X115325023Y-62460120D01*
X115343449Y-62481468D01*
X115353712Y-62513621D01*
X115357950Y-62567716D01*
X115353127Y-62622802D01*
X115341617Y-62653964D01*
X115322527Y-62674108D01*
X115299790Y-62680373D01*
X115079514Y-62680373D01*
X115130830Y-62746040D01*
X115163167Y-62816538D01*
X115181099Y-62892283D01*
X115187133Y-62971632D01*
X115175952Y-63100201D01*
X115144391Y-63207937D01*
X115092266Y-63303083D01*
X115022269Y-63381655D01*
X114936358Y-63443771D01*
X114833592Y-63490343D01*
X114720468Y-63518175D01*
X114591181Y-63527896D01*
X114498809Y-63521615D01*
X114412578Y-63503166D01*
X114334404Y-63473457D01*
X114282061Y-63440579D01*
X114231533Y-63510646D01*
X114217072Y-63552006D01*
X114211994Y-63601168D01*
X114225366Y-63654911D01*
X114267406Y-63700239D01*
X114329234Y-63729650D01*
X114415173Y-63742829D01*
X114816495Y-63759926D01*
X114928092Y-63769745D01*
X115026543Y-63791372D01*
X115117188Y-63826123D01*
X115192171Y-63871515D01*
X115254667Y-63929569D01*
X115301469Y-63999284D01*
X115330599Y-64079411D01*
X115340853Y-64175597D01*
X115329738Y-64278721D01*
X115296432Y-64376639D01*
X115241113Y-64465223D01*
X115160572Y-64544404D01*
X115060192Y-64607346D01*
X114927472Y-64658435D01*
X114778821Y-64689061D01*
X114592860Y-64700261D01*
X114413700Y-64691665D01*
X114275955Y-64668662D01*
X114153016Y-64629636D01*
X114061632Y-64582414D01*
X113988260Y-64521074D01*
X113940426Y-64451744D01*
X113912365Y-64373009D01*
X113902874Y-64287033D01*
X113906171Y-64260471D01*
X114179479Y-64260471D01*
X114191685Y-64327526D01*
X114227739Y-64382391D01*
X114292136Y-64428236D01*
X114369663Y-64457882D01*
X114472350Y-64477866D01*
X114606446Y-64485327D01*
X114729093Y-64478548D01*
X114820769Y-64460598D01*
X114901335Y-64430568D01*
X114959987Y-64394958D01*
X115006178Y-64350318D01*
X115036008Y-64301382D01*
X115053290Y-64247332D01*
X115059058Y-64190710D01*
X115049815Y-64129212D01*
X115023206Y-64079411D01*
X114977848Y-64038363D01*
X114887486Y-63998526D01*
X114758487Y-63981119D01*
X114360524Y-63967533D01*
X114270917Y-64048438D01*
X114215352Y-64121711D01*
X114187111Y-64190710D01*
X114179479Y-64260471D01*
X113906171Y-64260471D01*
X113916460Y-64177581D01*
X113958286Y-64076831D01*
X114028353Y-63985546D01*
X114124829Y-63899297D01*
X114050408Y-63849778D01*
X114001029Y-63792136D01*
X113970873Y-63724737D01*
X113960881Y-63652612D01*
X113971884Y-63552979D01*
X114003624Y-63467140D01*
X114051600Y-63389542D01*
X114109564Y-63320747D01*
X114062292Y-63253631D01*
X114025758Y-63177865D01*
X114003313Y-63093344D01*
X113995075Y-62985218D01*
X113995255Y-62983234D01*
X114263285Y-62983234D01*
X114273699Y-63081444D01*
X114302779Y-63159977D01*
X114349380Y-63223203D01*
X114412018Y-63270331D01*
X114491027Y-63299880D01*
X114591181Y-63310519D01*
X114671321Y-63303496D01*
X114736200Y-63283958D01*
X114792877Y-63251919D01*
X114837866Y-63210380D01*
X114872704Y-63159872D01*
X114897553Y-63101539D01*
X114912283Y-63038820D01*
X114917245Y-62973006D01*
X114906713Y-62871280D01*
X114877485Y-62790894D01*
X114830997Y-62727084D01*
X114768220Y-62679567D01*
X114688243Y-62649661D01*
X114585990Y-62638852D01*
X114507483Y-62646088D01*
X114443414Y-62666329D01*
X114387559Y-62699118D01*
X114342663Y-62741739D01*
X114307805Y-62793012D01*
X114282824Y-62852259D01*
X114268225Y-62915852D01*
X114263285Y-62983234D01*
X113995255Y-62983234D01*
X114006597Y-62858122D01*
X114039497Y-62749066D01*
X114092918Y-62652119D01*
X114162382Y-62572906D01*
X114247818Y-62509975D01*
X114351059Y-62462539D01*
X114464628Y-62433827D01*
X114591181Y-62423918D01*
X114721698Y-62431703D01*
G37*
G36*
X117825414Y-63948756D02*
G01*
X117821140Y-64003406D01*
X117809233Y-64043401D01*
X117788777Y-64067367D01*
X117760537Y-64075000D01*
X116539475Y-64075000D01*
X116497649Y-64069046D01*
X116466966Y-64049507D01*
X116448037Y-64010122D01*
X116442083Y-63946925D01*
X116444678Y-63887238D01*
X116455822Y-63842053D01*
X116477193Y-63802669D01*
X116510471Y-63760842D01*
X116939118Y-63303650D01*
X117078140Y-63148345D01*
X117177254Y-63021702D01*
X117259497Y-62897989D01*
X117315710Y-62794404D01*
X117357255Y-62693010D01*
X117379671Y-62608169D01*
X117395088Y-62450937D01*
X117389025Y-62378580D01*
X117371122Y-62310956D01*
X117341748Y-62248641D01*
X117301971Y-62195093D01*
X117251676Y-62150848D01*
X117188398Y-62116019D01*
X117116782Y-62094485D01*
X117031319Y-62086863D01*
X116930496Y-62094311D01*
X116844321Y-62115409D01*
X116699149Y-62177233D01*
X116595040Y-62239209D01*
X116532606Y-62267602D01*
X116511235Y-62260886D01*
X116495969Y-62238904D01*
X116486505Y-62198299D01*
X116483147Y-62137390D01*
X116484826Y-62093427D01*
X116490779Y-62061370D01*
X116501923Y-62036030D01*
X116529248Y-62006415D01*
X116600078Y-61958177D01*
X116726474Y-61898185D01*
X116893780Y-61848268D01*
X116986692Y-61833132D01*
X117085969Y-61827965D01*
X117240463Y-61839952D01*
X117366848Y-61873303D01*
X117478762Y-61928082D01*
X117566669Y-61997409D01*
X117636151Y-62082628D01*
X117685432Y-62180591D01*
X117714715Y-62287531D01*
X117724664Y-62403005D01*
X117705887Y-62614275D01*
X117677916Y-62719974D01*
X117626509Y-62841573D01*
X117556144Y-62964927D01*
X117451417Y-63113599D01*
X117325314Y-63266521D01*
X117147487Y-63458134D01*
X116797304Y-63825872D01*
X117758858Y-63825872D01*
X117785266Y-63833657D01*
X117807401Y-63856707D01*
X117821140Y-63895023D01*
X117825414Y-63948756D01*
G37*
G36*
X119067741Y-61837035D02*
G01*
X119184072Y-61862454D01*
X119281864Y-61902307D01*
X119370321Y-61959322D01*
X119446530Y-62031721D01*
X119511453Y-62121057D01*
X119584076Y-62276710D01*
X119635253Y-62476583D01*
X119662241Y-62695340D01*
X119672042Y-62960947D01*
X119661544Y-63209854D01*
X119631895Y-63425924D01*
X119577051Y-63625625D01*
X119498783Y-63787404D01*
X119429756Y-63881243D01*
X119348915Y-63958793D01*
X119255303Y-64021419D01*
X119151996Y-64065980D01*
X119029764Y-64094253D01*
X118884817Y-64104309D01*
X118747464Y-64095264D01*
X118631650Y-64069869D01*
X118533871Y-64029967D01*
X118445404Y-63972958D01*
X118369143Y-63900558D01*
X118304130Y-63811217D01*
X118231582Y-63655598D01*
X118180329Y-63455844D01*
X118153452Y-63236956D01*
X118143693Y-62971327D01*
X118144581Y-62950719D01*
X118444264Y-62950719D01*
X118451220Y-63189155D01*
X118469757Y-63371733D01*
X118504774Y-63535635D01*
X118550815Y-63654291D01*
X118615926Y-63750636D01*
X118692629Y-63813049D01*
X118785258Y-63849467D01*
X118901914Y-63862508D01*
X118993759Y-63854459D01*
X119069984Y-63831825D01*
X119137657Y-63794311D01*
X119194700Y-63743898D01*
X119241744Y-63681916D01*
X119280949Y-63606511D01*
X119335598Y-63428977D01*
X119363838Y-63218012D01*
X119371471Y-62981555D01*
X119359564Y-62684494D01*
X119324607Y-62452158D01*
X119297178Y-62355753D01*
X119264767Y-62278899D01*
X119223608Y-62211638D01*
X119176840Y-62159525D01*
X119121882Y-62118895D01*
X119059756Y-62091137D01*
X118991629Y-62075343D01*
X118912142Y-62069766D01*
X118817540Y-62078082D01*
X118740109Y-62101332D01*
X118676448Y-62138154D01*
X118596788Y-62217579D01*
X118533871Y-62325915D01*
X118491118Y-62451819D01*
X118463040Y-62605879D01*
X118449123Y-62769304D01*
X118444264Y-62950719D01*
X118144581Y-62950719D01*
X118154355Y-62723969D01*
X118184603Y-62507266D01*
X118240100Y-62306696D01*
X118317868Y-62145023D01*
X118386354Y-62051111D01*
X118466833Y-61973514D01*
X118560280Y-61910855D01*
X118663669Y-61866238D01*
X118785437Y-61837992D01*
X118929239Y-61827965D01*
X119067741Y-61837035D01*
G37*
G36*
X121371820Y-63948756D02*
G01*
X121367546Y-64003406D01*
X121355639Y-64043401D01*
X121335184Y-64067367D01*
X121306943Y-64075000D01*
X120085881Y-64075000D01*
X120044055Y-64069046D01*
X120013372Y-64049507D01*
X119994443Y-64010122D01*
X119988490Y-63946925D01*
X119991085Y-63887238D01*
X120002228Y-63842053D01*
X120023599Y-63802669D01*
X120056878Y-63760842D01*
X120485524Y-63303650D01*
X120624546Y-63148345D01*
X120723661Y-63021702D01*
X120805903Y-62897989D01*
X120862116Y-62794404D01*
X120903661Y-62693010D01*
X120926077Y-62608169D01*
X120941495Y-62450937D01*
X120935431Y-62378580D01*
X120917528Y-62310956D01*
X120888154Y-62248641D01*
X120848377Y-62195093D01*
X120798082Y-62150848D01*
X120734804Y-62116019D01*
X120663188Y-62094485D01*
X120577725Y-62086863D01*
X120476903Y-62094311D01*
X120390727Y-62115409D01*
X120245555Y-62177233D01*
X120141447Y-62239209D01*
X120079012Y-62267602D01*
X120057641Y-62260886D01*
X120042376Y-62238904D01*
X120032911Y-62198299D01*
X120029553Y-62137390D01*
X120031232Y-62093427D01*
X120037185Y-62061370D01*
X120048329Y-62036030D01*
X120075654Y-62006415D01*
X120146484Y-61958177D01*
X120272880Y-61898185D01*
X120440186Y-61848268D01*
X120533098Y-61833132D01*
X120632375Y-61827965D01*
X120786869Y-61839952D01*
X120913254Y-61873303D01*
X121025168Y-61928082D01*
X121113075Y-61997409D01*
X121182557Y-62082628D01*
X121231838Y-62180591D01*
X121261121Y-62287531D01*
X121271070Y-62403005D01*
X121252294Y-62614275D01*
X121224322Y-62719974D01*
X121172915Y-62841573D01*
X121102550Y-62964927D01*
X120997823Y-63113599D01*
X120871720Y-63266521D01*
X120693893Y-63458134D01*
X120343710Y-63825872D01*
X121305264Y-63825872D01*
X121331673Y-63833657D01*
X121353807Y-63856707D01*
X121367546Y-63895023D01*
X121371820Y-63948756D01*
G37*
G36*
X122796672Y-61845520D02*
G01*
X122916198Y-61865976D01*
X123008400Y-61894216D01*
X123057859Y-61919098D01*
X123075872Y-61939554D01*
X123085184Y-61963520D01*
X123090374Y-61992677D01*
X123092053Y-62032824D01*
X123091137Y-62085947D01*
X123084420Y-62121820D01*
X123069002Y-62142275D01*
X123044273Y-62148992D01*
X122992982Y-62137085D01*
X122914519Y-62110524D01*
X122802625Y-62084115D01*
X122649821Y-62072208D01*
X122498745Y-62089094D01*
X122376421Y-62136627D01*
X122272445Y-62211977D01*
X122189423Y-62309276D01*
X122127115Y-62424311D01*
X122081956Y-62560541D01*
X122054603Y-62705764D01*
X122041809Y-62860502D01*
X122141643Y-62809211D01*
X122263001Y-62763110D01*
X122402219Y-62729832D01*
X122559298Y-62717009D01*
X122730530Y-62730171D01*
X122861549Y-62765705D01*
X122974534Y-62824859D01*
X123060454Y-62900497D01*
X123125196Y-62993621D01*
X123168837Y-63103524D01*
X123192985Y-63223500D01*
X123201352Y-63356926D01*
X123190205Y-63499878D01*
X123156930Y-63637652D01*
X123100403Y-63765568D01*
X123020307Y-63876552D01*
X122917324Y-63968366D01*
X122786291Y-64042027D01*
X122636483Y-64087854D01*
X122451679Y-64104309D01*
X122318066Y-64095317D01*
X122207436Y-64070267D01*
X122107337Y-64028392D01*
X122023032Y-63973181D01*
X121951429Y-63903364D01*
X121892363Y-63818239D01*
X121846156Y-63721688D01*
X121808709Y-63608801D01*
X121781992Y-63488115D01*
X121763372Y-63351735D01*
X121751695Y-63094059D01*
X122046999Y-63094059D01*
X122054730Y-63305444D01*
X122075087Y-63462866D01*
X122111715Y-63602439D01*
X122157061Y-63701003D01*
X122218884Y-63779129D01*
X122291089Y-63829077D01*
X122375971Y-63857350D01*
X122479003Y-63867393D01*
X122583349Y-63856663D01*
X122668597Y-63826482D01*
X122742324Y-63778185D01*
X122801709Y-63716420D01*
X122847480Y-63643273D01*
X122879409Y-63561021D01*
X122898058Y-63473793D01*
X122904291Y-63384250D01*
X122899151Y-63287835D01*
X122884599Y-63204274D01*
X122857831Y-63128254D01*
X122818806Y-63066887D01*
X122766006Y-63017661D01*
X122695922Y-62979876D01*
X122613946Y-62957384D01*
X122506328Y-62949040D01*
X122379932Y-62960184D01*
X122257811Y-62990867D01*
X122145154Y-63036967D01*
X122046999Y-63094059D01*
X121751695Y-63094059D01*
X121749786Y-63051927D01*
X121765051Y-62765858D01*
X121786548Y-62623061D01*
X121819700Y-62486658D01*
X121866296Y-62355654D01*
X121926557Y-62233714D01*
X122002707Y-62122760D01*
X122095542Y-62027634D01*
X122205500Y-61950033D01*
X122338869Y-61888873D01*
X122487577Y-61851249D01*
X122668597Y-61837735D01*
X122796672Y-61845520D01*
G37*
D10*
X127169104Y-111714285D02*
X127169104Y-111238095D01*
X127454819Y-111809523D02*
X126454819Y-111476190D01*
X126454819Y-111476190D02*
X127454819Y-111142857D01*
X127454819Y-110761904D02*
X127454819Y-110571428D01*
X127454819Y-110571428D02*
X127407200Y-110476190D01*
X127407200Y-110476190D02*
X127359580Y-110428571D01*
X127359580Y-110428571D02*
X127216723Y-110333333D01*
X127216723Y-110333333D02*
X127026247Y-110285714D01*
X127026247Y-110285714D02*
X126645295Y-110285714D01*
X126645295Y-110285714D02*
X126550057Y-110333333D01*
X126550057Y-110333333D02*
X126502438Y-110380952D01*
X126502438Y-110380952D02*
X126454819Y-110476190D01*
X126454819Y-110476190D02*
X126454819Y-110666666D01*
X126454819Y-110666666D02*
X126502438Y-110761904D01*
X126502438Y-110761904D02*
X126550057Y-110809523D01*
X126550057Y-110809523D02*
X126645295Y-110857142D01*
X126645295Y-110857142D02*
X126883390Y-110857142D01*
X126883390Y-110857142D02*
X126978628Y-110809523D01*
X126978628Y-110809523D02*
X127026247Y-110761904D01*
X127026247Y-110761904D02*
X127073866Y-110666666D01*
X127073866Y-110666666D02*
X127073866Y-110476190D01*
X127073866Y-110476190D02*
X127026247Y-110380952D01*
X127026247Y-110380952D02*
X126978628Y-110333333D01*
X126978628Y-110333333D02*
X126883390Y-110285714D01*
X117738095Y-112002438D02*
X117642857Y-111954819D01*
X117642857Y-111954819D02*
X117500000Y-111954819D01*
X117500000Y-111954819D02*
X117357143Y-112002438D01*
X117357143Y-112002438D02*
X117261905Y-112097676D01*
X117261905Y-112097676D02*
X117214286Y-112192914D01*
X117214286Y-112192914D02*
X117166667Y-112383390D01*
X117166667Y-112383390D02*
X117166667Y-112526247D01*
X117166667Y-112526247D02*
X117214286Y-112716723D01*
X117214286Y-112716723D02*
X117261905Y-112811961D01*
X117261905Y-112811961D02*
X117357143Y-112907200D01*
X117357143Y-112907200D02*
X117500000Y-112954819D01*
X117500000Y-112954819D02*
X117595238Y-112954819D01*
X117595238Y-112954819D02*
X117738095Y-112907200D01*
X117738095Y-112907200D02*
X117785714Y-112859580D01*
X117785714Y-112859580D02*
X117785714Y-112526247D01*
X117785714Y-112526247D02*
X117595238Y-112526247D01*
X118214286Y-112954819D02*
X118214286Y-111954819D01*
X118214286Y-111954819D02*
X118785714Y-112954819D01*
X118785714Y-112954819D02*
X118785714Y-111954819D01*
X119261905Y-112954819D02*
X119261905Y-111954819D01*
X119261905Y-111954819D02*
X119500000Y-111954819D01*
X119500000Y-111954819D02*
X119642857Y-112002438D01*
X119642857Y-112002438D02*
X119738095Y-112097676D01*
X119738095Y-112097676D02*
X119785714Y-112192914D01*
X119785714Y-112192914D02*
X119833333Y-112383390D01*
X119833333Y-112383390D02*
X119833333Y-112526247D01*
X119833333Y-112526247D02*
X119785714Y-112716723D01*
X119785714Y-112716723D02*
X119738095Y-112811961D01*
X119738095Y-112811961D02*
X119642857Y-112907200D01*
X119642857Y-112907200D02*
X119500000Y-112954819D01*
X119500000Y-112954819D02*
X119261905Y-112954819D01*
X118285714Y-94954819D02*
X117714286Y-94954819D01*
X118000000Y-94954819D02*
X118000000Y-93954819D01*
X118000000Y-93954819D02*
X117904762Y-94097676D01*
X117904762Y-94097676D02*
X117809524Y-94192914D01*
X117809524Y-94192914D02*
X117714286Y-94240533D01*
X118714286Y-94954819D02*
X118714286Y-93954819D01*
X119285714Y-94954819D02*
X118857143Y-94383390D01*
X119285714Y-93954819D02*
X118714286Y-94526247D01*
X145574819Y-85253333D02*
X146289104Y-85253333D01*
X146289104Y-85253333D02*
X146431961Y-85300952D01*
X146431961Y-85300952D02*
X146527200Y-85396190D01*
X146527200Y-85396190D02*
X146574819Y-85539047D01*
X146574819Y-85539047D02*
X146574819Y-85634285D01*
X146574819Y-84253333D02*
X146574819Y-84824761D01*
X146574819Y-84539047D02*
X145574819Y-84539047D01*
X145574819Y-84539047D02*
X145717676Y-84634285D01*
X145717676Y-84634285D02*
X145812914Y-84729523D01*
X145812914Y-84729523D02*
X145860533Y-84824761D01*
D12*
X157216667Y-98399619D02*
X157550000Y-99399619D01*
X157550000Y-99399619D02*
X157883333Y-98399619D01*
X158788095Y-99304380D02*
X158740476Y-99352000D01*
X158740476Y-99352000D02*
X158597619Y-99399619D01*
X158597619Y-99399619D02*
X158502381Y-99399619D01*
X158502381Y-99399619D02*
X158359524Y-99352000D01*
X158359524Y-99352000D02*
X158264286Y-99256761D01*
X158264286Y-99256761D02*
X158216667Y-99161523D01*
X158216667Y-99161523D02*
X158169048Y-98971047D01*
X158169048Y-98971047D02*
X158169048Y-98828190D01*
X158169048Y-98828190D02*
X158216667Y-98637714D01*
X158216667Y-98637714D02*
X158264286Y-98542476D01*
X158264286Y-98542476D02*
X158359524Y-98447238D01*
X158359524Y-98447238D02*
X158502381Y-98399619D01*
X158502381Y-98399619D02*
X158597619Y-98399619D01*
X158597619Y-98399619D02*
X158740476Y-98447238D01*
X158740476Y-98447238D02*
X158788095Y-98494857D01*
X159788095Y-99304380D02*
X159740476Y-99352000D01*
X159740476Y-99352000D02*
X159597619Y-99399619D01*
X159597619Y-99399619D02*
X159502381Y-99399619D01*
X159502381Y-99399619D02*
X159359524Y-99352000D01*
X159359524Y-99352000D02*
X159264286Y-99256761D01*
X159264286Y-99256761D02*
X159216667Y-99161523D01*
X159216667Y-99161523D02*
X159169048Y-98971047D01*
X159169048Y-98971047D02*
X159169048Y-98828190D01*
X159169048Y-98828190D02*
X159216667Y-98637714D01*
X159216667Y-98637714D02*
X159264286Y-98542476D01*
X159264286Y-98542476D02*
X159359524Y-98447238D01*
X159359524Y-98447238D02*
X159502381Y-98399619D01*
X159502381Y-98399619D02*
X159597619Y-98399619D01*
X159597619Y-98399619D02*
X159740476Y-98447238D01*
X159740476Y-98447238D02*
X159788095Y-98494857D01*
%TO.C,R11*%
D14*
X150400000Y-115020000D02*
X150400000Y-117820000D01*
X154600000Y-115020000D02*
X154600000Y-117820000D01*
X150400000Y-115020000D02*
G75*
G02*
X154609242Y-115033963I2100000J-1400000D01*
G01*
X154600000Y-117820000D02*
G75*
G02*
X150390758Y-117806037I-2100000J1400000D01*
G01*
%TO.C,D3*%
X147045000Y-113855000D02*
X143955000Y-113855000D01*
X145500000Y-119405000D02*
G75*
G02*
X143955170Y-113855000I0J2990000D01*
G01*
X147044830Y-113855000D02*
G75*
G02*
X145500000Y-119405000I-1544830J-2560000D01*
G01*
X148000000Y-116415000D02*
G75*
G02*
X143000000Y-116415000I-2500000J0D01*
G01*
X143000000Y-116415000D02*
G75*
G02*
X148000000Y-116415000I2500000J0D01*
G01*
%TO.C,A9*%
X125500000Y-97880000D02*
X125500000Y-98650000D01*
X125500000Y-105960000D02*
X125500000Y-105190000D01*
X124130000Y-98650000D02*
X126870000Y-98650000D01*
X126870000Y-105190000D01*
X124130000Y-105190000D01*
X124130000Y-98650000D01*
%TO.C,D5*%
X174545000Y-113855000D02*
X171455000Y-113855000D01*
X173000000Y-119405000D02*
G75*
G02*
X171455170Y-113855000I0J2990000D01*
G01*
X174544830Y-113855000D02*
G75*
G02*
X173000000Y-119405000I-1544830J-2560000D01*
G01*
X175500000Y-116415000D02*
G75*
G02*
X170500000Y-116415000I-2500000J0D01*
G01*
X170500000Y-116415000D02*
G75*
G02*
X175500000Y-116415000I2500000J0D01*
G01*
%TO.C,R15*%
X111500000Y-97880000D02*
X111500000Y-98650000D01*
X111500000Y-105960000D02*
X111500000Y-105190000D01*
X110130000Y-98650000D02*
X112870000Y-98650000D01*
X112870000Y-105190000D01*
X110130000Y-105190000D01*
X110130000Y-98650000D01*
%TO.C,R4*%
X152500000Y-97880000D02*
X152500000Y-98650000D01*
X152500000Y-105960000D02*
X152500000Y-105190000D01*
X151130000Y-98650000D02*
X153870000Y-98650000D01*
X153870000Y-105190000D01*
X151130000Y-105190000D01*
X151130000Y-98650000D01*
%TO.C,GND*%
X120045000Y-114090000D02*
X116955000Y-114090000D01*
X118500000Y-119640000D02*
G75*
G02*
X116955170Y-114090000I0J2990000D01*
G01*
X120044830Y-114090000D02*
G75*
G02*
X118500000Y-119640000I-1544830J-2560000D01*
G01*
X121000000Y-116650000D02*
G75*
G02*
X116000000Y-116650000I-2500000J0D01*
G01*
X116000000Y-116650000D02*
G75*
G02*
X121000000Y-116650000I2500000J0D01*
G01*
%TO.C,R9*%
X123400000Y-115020000D02*
X123400000Y-117820000D01*
X127600000Y-115020000D02*
X127600000Y-117820000D01*
X123400000Y-115020000D02*
G75*
G02*
X127609242Y-115033963I2100000J-1400000D01*
G01*
X127600000Y-117820000D02*
G75*
G02*
X123390758Y-117806037I-2100000J1400000D01*
G01*
%TO.C,R14*%
X190900000Y-115020000D02*
X190900000Y-117820000D01*
X195100000Y-115020000D02*
X195100000Y-117820000D01*
X190900000Y-115020000D02*
G75*
G02*
X195109242Y-115033963I2100000J-1400000D01*
G01*
X195100000Y-117820000D02*
G75*
G02*
X190890758Y-117806037I-2100000J1400000D01*
G01*
%TO.C,D6*%
X188045000Y-113855000D02*
X184955000Y-113855000D01*
X186500000Y-119405000D02*
G75*
G02*
X184955170Y-113855000I0J2990000D01*
G01*
X188044830Y-113855000D02*
G75*
G02*
X186500000Y-119405000I-1544830J-2560000D01*
G01*
X189000000Y-116415000D02*
G75*
G02*
X184000000Y-116415000I-2500000J0D01*
G01*
X184000000Y-116415000D02*
G75*
G02*
X189000000Y-116415000I2500000J0D01*
G01*
%TO.C,1K*%
X118500000Y-97880000D02*
X118500000Y-98650000D01*
X118500000Y-105960000D02*
X118500000Y-105190000D01*
X117130000Y-98650000D02*
X119870000Y-98650000D01*
X119870000Y-105190000D01*
X117130000Y-105190000D01*
X117130000Y-98650000D01*
%TO.C,R5*%
X166000000Y-97880000D02*
X166000000Y-98650000D01*
X166000000Y-105960000D02*
X166000000Y-105190000D01*
X164630000Y-98650000D02*
X167370000Y-98650000D01*
X167370000Y-105190000D01*
X164630000Y-105190000D01*
X164630000Y-98650000D01*
%TO.C,R8*%
X109900000Y-115020000D02*
X109900000Y-117820000D01*
X114100000Y-115020000D02*
X114100000Y-117820000D01*
X109900000Y-115020000D02*
G75*
G02*
X114109242Y-115033963I2100000J-1400000D01*
G01*
X114100000Y-117820000D02*
G75*
G02*
X109890758Y-117806037I-2100000J1400000D01*
G01*
%TO.C,J1*%
X147120000Y-86300000D02*
X147120000Y-84920000D01*
X148500000Y-86300000D02*
X147120000Y-86300000D01*
X149770000Y-83540000D02*
X165120000Y-83540000D01*
X149770000Y-86300000D02*
X149770000Y-83540000D01*
X149770000Y-86300000D02*
X165120000Y-86300000D01*
X165120000Y-86300000D02*
X165120000Y-83540000D01*
%TO.C,R7*%
X193000000Y-97880000D02*
X193000000Y-98650000D01*
X193000000Y-105960000D02*
X193000000Y-105190000D01*
X191630000Y-98650000D02*
X194370000Y-98650000D01*
X194370000Y-105190000D01*
X191630000Y-105190000D01*
X191630000Y-98650000D01*
%TO.C,R6*%
X179500000Y-97880000D02*
X179500000Y-98650000D01*
X179500000Y-105960000D02*
X179500000Y-105190000D01*
X178130000Y-98650000D02*
X180870000Y-98650000D01*
X180870000Y-105190000D01*
X178130000Y-105190000D01*
X178130000Y-98650000D01*
%TO.C,D2*%
X133545000Y-113855000D02*
X130455000Y-113855000D01*
X132000000Y-119405000D02*
G75*
G02*
X130455170Y-113855000I0J2990000D01*
G01*
X133544830Y-113855000D02*
G75*
G02*
X132000000Y-119405000I-1544830J-2560000D01*
G01*
X134500000Y-116415000D02*
G75*
G02*
X129500000Y-116415000I-2500000J0D01*
G01*
X129500000Y-116415000D02*
G75*
G02*
X134500000Y-116415000I2500000J0D01*
G01*
%TO.C,R10*%
X136900000Y-115020000D02*
X136900000Y-117820000D01*
X141100000Y-115020000D02*
X141100000Y-117820000D01*
X136900000Y-115020000D02*
G75*
G02*
X141109242Y-115033963I2100000J-1400000D01*
G01*
X141100000Y-117820000D02*
G75*
G02*
X136890758Y-117806037I-2100000J1400000D01*
G01*
%TO.C,R12*%
X163900000Y-115020000D02*
X163900000Y-117820000D01*
X168100000Y-115020000D02*
X168100000Y-117820000D01*
X163900000Y-115020000D02*
G75*
G02*
X168109242Y-115033963I2100000J-1400000D01*
G01*
X168100000Y-117820000D02*
G75*
G02*
X163890758Y-117806037I-2100000J1400000D01*
G01*
%TO.C,VCC*%
X157120000Y-100265000D02*
X158500000Y-100265000D01*
X157120000Y-101645000D02*
X157120000Y-100265000D01*
X157120000Y-102915000D02*
X157120000Y-105565000D01*
X157120000Y-102915000D02*
X159880000Y-102915000D01*
X157120000Y-105565000D02*
X159880000Y-105565000D01*
X159880000Y-102915000D02*
X159880000Y-105565000D01*
%TO.C,D4*%
X161045000Y-113855000D02*
X157955000Y-113855000D01*
X159500000Y-119405000D02*
G75*
G02*
X157955170Y-113855000I0J2990000D01*
G01*
X161044830Y-113855000D02*
G75*
G02*
X159500000Y-119405000I-1544830J-2560000D01*
G01*
X162000000Y-116415000D02*
G75*
G02*
X157000000Y-116415000I-2500000J0D01*
G01*
X157000000Y-116415000D02*
G75*
G02*
X162000000Y-116415000I2500000J0D01*
G01*
%TO.C,R13*%
X177400000Y-115020000D02*
X177400000Y-117820000D01*
X181600000Y-115020000D02*
X181600000Y-117820000D01*
X177400000Y-115020000D02*
G75*
G02*
X181609242Y-115033963I2100000J-1400000D01*
G01*
X181600000Y-117820000D02*
G75*
G02*
X177390758Y-117806037I-2100000J1400000D01*
G01*
%TO.C,R3*%
X139000000Y-97880000D02*
X139000000Y-98650000D01*
X139000000Y-105960000D02*
X139000000Y-105190000D01*
X137630000Y-98650000D02*
X140370000Y-98650000D01*
X140370000Y-105190000D01*
X137630000Y-105190000D01*
X137630000Y-98650000D01*
%TD*%
M02*
