M48
; DRILL file KiCad 10.0.0 date 2026-04-25T23:16:13
; FORMAT={-:-/ absolute / metric / decimal}
; #@! TF.CreationDate,2026-04-25T23:16:13-07:00
; #@! TF.GenerationSoftware,Kicad,Pcbnew,10.0.0
; #@! TF.FileFunction,Plated,1,2,PTH
FMAT,2
METRIC
; #@! TA.AperFunction,Plated,PTH,ComponentDrill
T1C0.800
; #@! TA.AperFunction,Plated,PTH,ComponentDrill
T2C0.900
; #@! TA.AperFunction,Plated,PTH,ComponentDrill
T3C1.000
; #@! TA.AperFunction,Plated,PTH,ComponentDrill
T4C3.200
%
G90
G05
T1
X111.5Y-96.84
X111.5Y-107.0
X112.0Y-114.92
X112.0Y-117.92
X118.5Y-96.84
X118.5Y-107.0
X125.5Y-96.84
X125.5Y-107.0
X125.5Y-114.92
X125.5Y-117.92
X139.0Y-96.84
X139.0Y-107.0
X139.0Y-114.92
X139.0Y-117.92
X152.5Y-96.84
X152.5Y-107.0
X152.5Y-114.92
X152.5Y-117.92
X166.0Y-96.84
X166.0Y-107.0
X166.0Y-114.92
X166.0Y-117.92
X179.5Y-96.84
X179.5Y-107.0
X179.5Y-114.92
X179.5Y-117.92
X193.0Y-96.84
X193.0Y-107.0
X193.0Y-114.92
X193.0Y-117.92
T2
X118.5Y-115.38
X118.5Y-117.92
X132.0Y-115.145
X132.0Y-117.685
X145.5Y-115.145
X145.5Y-117.685
X159.5Y-115.145
X159.5Y-117.685
X173.0Y-115.145
X173.0Y-117.685
X186.5Y-115.145
X186.5Y-117.685
T3
X148.5Y-84.92
X151.04Y-84.92
X153.58Y-84.92
X156.12Y-84.92
X158.5Y-101.645
X158.5Y-104.185
X158.66Y-84.92
X161.2Y-84.92
X163.74Y-84.92
T4
X101.5Y-78.0
X101.5Y-127.5
X201.5Y-78.0
X201.5Y-127.5
M30
