%TF.GenerationSoftware,KiCad,Pcbnew,10.0.0*%
%TF.CreationDate,2026-04-25T23:15:49-07:00*%
%TF.ProjectId,EE_201_FINAL_final_sensor,45455f32-3031-45f4-9649-4e414c5f6669,rev?*%
%TF.SameCoordinates,Original*%
%TF.FileFunction,Copper,L2,Bot*%
%TF.FilePolarity,Positive*%
%FSLAX46Y46*%
G04 Gerber Fmt 4.6, Leading zero omitted, Abs format (unit mm)*
G04 Created by KiCad (PCBNEW 10.0.0) date 2026-04-25 23:15:49*
%MOMM*%
%LPD*%
G01*
G04 APERTURE LIST*
%TA.AperFunction,ComponentPad*%
%ADD10C,1.600000*%
%TD*%
%TA.AperFunction,ComponentPad*%
%ADD11R,1.800000X1.800000*%
%TD*%
%TA.AperFunction,ComponentPad*%
%ADD12C,1.800000*%
%TD*%
%TA.AperFunction,ComponentPad*%
%ADD13C,6.400000*%
%TD*%
%TA.AperFunction,ComponentPad*%
%ADD14R,1.700000X1.700000*%
%TD*%
%TA.AperFunction,ComponentPad*%
%ADD15C,1.700000*%
%TD*%
G04 APERTURE END LIST*
D10*
%TO.P,R11,1*%
%TO.N,/A11*%
X152500000Y-114920000D03*
%TO.P,R11,2*%
%TO.N,GND*%
X152500000Y-117920000D03*
%TD*%
D11*
%TO.P,D3,1,K*%
%TO.N,GND*%
X145500000Y-115145000D03*
D12*
%TO.P,D3,2,A*%
%TO.N,Net-(D1-A)*%
X145500000Y-117685000D03*
%TD*%
D13*
%TO.P,H1,1,1*%
%TO.N,GND*%
X101500000Y-78000000D03*
%TD*%
D10*
%TO.P,A9,1*%
%TO.N,VCC*%
X125500000Y-96840000D03*
%TO.P,A9,2*%
%TO.N,/A9*%
X125500000Y-107000000D03*
%TD*%
D11*
%TO.P,D5,1,K*%
%TO.N,GND*%
X173000000Y-115145000D03*
D12*
%TO.P,D5,2,A*%
%TO.N,Net-(D1-A)*%
X173000000Y-117685000D03*
%TD*%
D10*
%TO.P,R15,1*%
%TO.N,VCC*%
X111500000Y-96840000D03*
%TO.P,R15,2*%
%TO.N,Net-(D1-A)*%
X111500000Y-107000000D03*
%TD*%
%TO.P,R4,1*%
%TO.N,VCC*%
X152500000Y-96840000D03*
%TO.P,R4,2*%
%TO.N,/A11*%
X152500000Y-107000000D03*
%TD*%
D11*
%TO.P,GND,1,K*%
%TO.N,GND*%
X118500000Y-115380000D03*
D12*
%TO.P,GND,2,A*%
%TO.N,Net-(D1-A)*%
X118500000Y-117920000D03*
%TD*%
D10*
%TO.P,R9,1*%
%TO.N,/A9*%
X125500000Y-114920000D03*
%TO.P,R9,2*%
%TO.N,GND*%
X125500000Y-117920000D03*
%TD*%
%TO.P,R14,1*%
%TO.N,/A14*%
X193000000Y-114920000D03*
%TO.P,R14,2*%
%TO.N,GND*%
X193000000Y-117920000D03*
%TD*%
D11*
%TO.P,D6,1,K*%
%TO.N,GND*%
X186500000Y-115145000D03*
D12*
%TO.P,D6,2,A*%
%TO.N,Net-(D1-A)*%
X186500000Y-117685000D03*
%TD*%
D10*
%TO.P,1K,1*%
%TO.N,VCC*%
X118500000Y-96840000D03*
%TO.P,1K,2*%
%TO.N,/A8*%
X118500000Y-107000000D03*
%TD*%
D13*
%TO.P,H4,1,1*%
%TO.N,GND*%
X101500000Y-127500000D03*
%TD*%
D10*
%TO.P,R5,1*%
%TO.N,VCC*%
X166000000Y-96840000D03*
%TO.P,R5,2*%
%TO.N,/A12*%
X166000000Y-107000000D03*
%TD*%
D13*
%TO.P,H3,1,1*%
%TO.N,GND*%
X201500000Y-127500000D03*
%TD*%
D10*
%TO.P,R8,1*%
%TO.N,/A8*%
X112000000Y-114920000D03*
%TO.P,R8,2*%
%TO.N,GND*%
X112000000Y-117920000D03*
%TD*%
D14*
%TO.P,J1,1,Pin_1*%
%TO.N,/A8*%
X148500000Y-84920000D03*
D15*
%TO.P,J1,2,Pin_2*%
%TO.N,/A9*%
X151040000Y-84920000D03*
%TO.P,J1,3,Pin_3*%
%TO.N,/A10*%
X153580000Y-84920000D03*
%TO.P,J1,4,Pin_4*%
%TO.N,/A11*%
X156120000Y-84920000D03*
%TO.P,J1,5,Pin_5*%
%TO.N,/A12*%
X158660000Y-84920000D03*
%TO.P,J1,6,Pin_6*%
%TO.N,/A13*%
X161200000Y-84920000D03*
%TO.P,J1,7,Pin_7*%
%TO.N,/A14*%
X163740000Y-84920000D03*
%TD*%
D10*
%TO.P,R7,1*%
%TO.N,VCC*%
X193000000Y-96840000D03*
%TO.P,R7,2*%
%TO.N,/A14*%
X193000000Y-107000000D03*
%TD*%
%TO.P,R6,1*%
%TO.N,VCC*%
X179500000Y-96840000D03*
%TO.P,R6,2*%
%TO.N,/A13*%
X179500000Y-107000000D03*
%TD*%
D13*
%TO.P,H2,1,1*%
%TO.N,GND*%
X201500000Y-78000000D03*
%TD*%
D11*
%TO.P,D2,1,K*%
%TO.N,GND*%
X132000000Y-115145000D03*
D12*
%TO.P,D2,2,A*%
%TO.N,Net-(D1-A)*%
X132000000Y-117685000D03*
%TD*%
D10*
%TO.P,R10,1*%
%TO.N,/A10*%
X139000000Y-114920000D03*
%TO.P,R10,2*%
%TO.N,GND*%
X139000000Y-117920000D03*
%TD*%
%TO.P,R12,1*%
%TO.N,/A12*%
X166000000Y-114920000D03*
%TO.P,R12,2*%
%TO.N,GND*%
X166000000Y-117920000D03*
%TD*%
D14*
%TO.P,VCC,1,Pin_1*%
%TO.N,VCC*%
X158500000Y-101645000D03*
D15*
%TO.P,VCC,2,Pin_2*%
%TO.N,GND*%
X158500000Y-104185000D03*
%TD*%
D11*
%TO.P,D4,1,K*%
%TO.N,GND*%
X159500000Y-115145000D03*
D12*
%TO.P,D4,2,A*%
%TO.N,Net-(D1-A)*%
X159500000Y-117685000D03*
%TD*%
D10*
%TO.P,R13,1*%
%TO.N,/A13*%
X179500000Y-114920000D03*
%TO.P,R13,2*%
%TO.N,GND*%
X179500000Y-117920000D03*
%TD*%
%TO.P,R3,1*%
%TO.N,VCC*%
X139000000Y-96840000D03*
%TO.P,R3,2*%
%TO.N,/A10*%
X139000000Y-107000000D03*
%TD*%
%TA.AperFunction,Conductor*%
%TO.N,VCC*%
G36*
X196468106Y-82005023D02*
G01*
X196483104Y-82009427D01*
X196541855Y-82047172D01*
X196543042Y-82048541D01*
X196562907Y-82092004D01*
X196566363Y-82090908D01*
X196569195Y-82099835D01*
X196570582Y-82108794D01*
X196572087Y-82112087D01*
X196571608Y-82115423D01*
X196575000Y-82137331D01*
X196575000Y-102620500D01*
X196555315Y-102687539D01*
X196502511Y-102733294D01*
X196451000Y-102744500D01*
X159982700Y-102744500D01*
X159947276Y-102739332D01*
X159934646Y-102735567D01*
X159876024Y-102697552D01*
X159847627Y-102636317D01*
X159845649Y-102623952D01*
X159844806Y-102591130D01*
X159849999Y-102542839D01*
X159850000Y-102542827D01*
X159850000Y-101895000D01*
X159112250Y-101895000D01*
X159045211Y-101875315D01*
X158999456Y-101822511D01*
X158989512Y-101753353D01*
X158992476Y-101738905D01*
X158999999Y-101710828D01*
X159000000Y-101710825D01*
X159000000Y-101579175D01*
X158999999Y-101579171D01*
X158992476Y-101551095D01*
X158994137Y-101481245D01*
X159033299Y-101423382D01*
X159097527Y-101395877D01*
X159112250Y-101395000D01*
X159850000Y-101395000D01*
X159850000Y-100747172D01*
X159849998Y-100747138D01*
X159843598Y-100687628D01*
X159843596Y-100687621D01*
X159843596Y-100687620D01*
X159793354Y-100552913D01*
X159793350Y-100552906D01*
X159707190Y-100437812D01*
X159707187Y-100437809D01*
X159707185Y-100437807D01*
X159649317Y-100394487D01*
X159592093Y-100351649D01*
X159592088Y-100351646D01*
X159592089Y-100351646D01*
X159457377Y-100301402D01*
X159457370Y-100301400D01*
X159397852Y-100295000D01*
X159397844Y-100295000D01*
X158750000Y-100295000D01*
X158750000Y-101032749D01*
X158730315Y-101099788D01*
X158677511Y-101145543D01*
X158608353Y-101155487D01*
X158593908Y-101152524D01*
X158565828Y-101145000D01*
X158565826Y-101145000D01*
X158434174Y-101145000D01*
X158434171Y-101145000D01*
X158406092Y-101152524D01*
X158336242Y-101150861D01*
X158278380Y-101111698D01*
X158250877Y-101047469D01*
X158250000Y-101032749D01*
X158250000Y-100295000D01*
X157602155Y-100295000D01*
X157602146Y-100295000D01*
X157542628Y-100301400D01*
X157542621Y-100301402D01*
X157407910Y-100351646D01*
X157407907Y-100351648D01*
X157292813Y-100437807D01*
X157292807Y-100437813D01*
X157206648Y-100552907D01*
X157206646Y-100552910D01*
X157156402Y-100687621D01*
X157156400Y-100687628D01*
X157150000Y-100747146D01*
X157150000Y-100747155D01*
X157150000Y-101395000D01*
X157887750Y-101395000D01*
X157954789Y-101414685D01*
X158000544Y-101467489D01*
X158010488Y-101536647D01*
X158007524Y-101551095D01*
X158000000Y-101579171D01*
X158000000Y-101710828D01*
X158007524Y-101738905D01*
X158005863Y-101808755D01*
X157966701Y-101866618D01*
X157902473Y-101894123D01*
X157887750Y-101895000D01*
X157150000Y-101895000D01*
X157150000Y-102542851D01*
X157153758Y-102577796D01*
X157152499Y-102613066D01*
X157149920Y-102627362D01*
X157118647Y-102689842D01*
X157060453Y-102724996D01*
X157048107Y-102728356D01*
X157015033Y-102732707D01*
X107391315Y-102528375D01*
X107356402Y-102523208D01*
X107341424Y-102518743D01*
X107282802Y-102480727D01*
X107282795Y-102480719D01*
X107281526Y-102479242D01*
X107254356Y-102424530D01*
X107252777Y-102417195D01*
X107250000Y-102391099D01*
X107250000Y-96737676D01*
X110200000Y-96737676D01*
X110200000Y-96942322D01*
X110232008Y-97144411D01*
X110232009Y-97144417D01*
X110295244Y-97339031D01*
X110314335Y-97376498D01*
X110388144Y-97521357D01*
X110388147Y-97521360D01*
X110420517Y-97565914D01*
X110420521Y-97565919D01*
X110420523Y-97565921D01*
X110420524Y-97565922D01*
X110963503Y-97022942D01*
X111024824Y-96989459D01*
X111094515Y-96994443D01*
X111150449Y-97036314D01*
X111158567Y-97048622D01*
X111179920Y-97085606D01*
X111254394Y-97160080D01*
X111254395Y-97160081D01*
X111254397Y-97160082D01*
X111291373Y-97181430D01*
X111339588Y-97231996D01*
X111352812Y-97300603D01*
X111326844Y-97365468D01*
X111317054Y-97376498D01*
X110774075Y-97919473D01*
X110774076Y-97919473D01*
X110774076Y-97919474D01*
X110818650Y-97951859D01*
X110904786Y-97995747D01*
X111000963Y-98044753D01*
X111000965Y-98044753D01*
X111000968Y-98044755D01*
X111195582Y-98107990D01*
X111397683Y-98140000D01*
X111602316Y-98140000D01*
X111602317Y-98140000D01*
X111804417Y-98107990D01*
X111999031Y-98044755D01*
X112181349Y-97951859D01*
X112225921Y-97919474D01*
X111682945Y-97376498D01*
X111649460Y-97315175D01*
X111654444Y-97245483D01*
X111696316Y-97189550D01*
X111708618Y-97181434D01*
X111745606Y-97160080D01*
X111820080Y-97085606D01*
X111841430Y-97048625D01*
X111891995Y-97000411D01*
X111960602Y-96987187D01*
X112025467Y-97013154D01*
X112036498Y-97022945D01*
X112579473Y-97565920D01*
X112579474Y-97565921D01*
X112611859Y-97521349D01*
X112704755Y-97339031D01*
X112767990Y-97144417D01*
X112800000Y-96942317D01*
X112800000Y-96737682D01*
X112799999Y-96737676D01*
X117200000Y-96737676D01*
X117200000Y-96942322D01*
X117232008Y-97144411D01*
X117232009Y-97144417D01*
X117295244Y-97339031D01*
X117314335Y-97376498D01*
X117388144Y-97521357D01*
X117388147Y-97521360D01*
X117420517Y-97565914D01*
X117420521Y-97565919D01*
X117420523Y-97565921D01*
X117420524Y-97565922D01*
X117963503Y-97022942D01*
X118024824Y-96989459D01*
X118094515Y-96994443D01*
X118150449Y-97036314D01*
X118158567Y-97048622D01*
X118179920Y-97085606D01*
X118254394Y-97160080D01*
X118254395Y-97160081D01*
X118254397Y-97160082D01*
X118291373Y-97181430D01*
X118339588Y-97231996D01*
X118352812Y-97300603D01*
X118326844Y-97365468D01*
X118317054Y-97376498D01*
X117774075Y-97919473D01*
X117774076Y-97919473D01*
X117774076Y-97919474D01*
X117818650Y-97951859D01*
X117904786Y-97995747D01*
X118000963Y-98044753D01*
X118000965Y-98044753D01*
X118000968Y-98044755D01*
X118195582Y-98107990D01*
X118397683Y-98140000D01*
X118602316Y-98140000D01*
X118602317Y-98140000D01*
X118804417Y-98107990D01*
X118999031Y-98044755D01*
X119181349Y-97951859D01*
X119225921Y-97919474D01*
X118682945Y-97376498D01*
X118649460Y-97315175D01*
X118654444Y-97245483D01*
X118696316Y-97189550D01*
X118708618Y-97181434D01*
X118745606Y-97160080D01*
X118820080Y-97085606D01*
X118841429Y-97048627D01*
X118891994Y-97000413D01*
X118960600Y-96987188D01*
X119025466Y-97013155D01*
X119036497Y-97022946D01*
X119579473Y-97565922D01*
X119579473Y-97565921D01*
X119579474Y-97565922D01*
X119579474Y-97565921D01*
X119592943Y-97560342D01*
X119599159Y-97539174D01*
X119603159Y-97533324D01*
X119611857Y-97521352D01*
X119685665Y-97376498D01*
X119704755Y-97339031D01*
X119767990Y-97144417D01*
X119800000Y-96942317D01*
X119800000Y-96737682D01*
X119799999Y-96737676D01*
X124200000Y-96737676D01*
X124200000Y-96942322D01*
X124232008Y-97144411D01*
X124232009Y-97144417D01*
X124295244Y-97339031D01*
X124314335Y-97376498D01*
X124388144Y-97521357D01*
X124388147Y-97521360D01*
X124420517Y-97565914D01*
X124420521Y-97565919D01*
X124420523Y-97565921D01*
X124420524Y-97565922D01*
X124963503Y-97022942D01*
X125024824Y-96989459D01*
X125094515Y-96994443D01*
X125150449Y-97036314D01*
X125158567Y-97048622D01*
X125179920Y-97085606D01*
X125254394Y-97160080D01*
X125254395Y-97160081D01*
X125254397Y-97160082D01*
X125291373Y-97181430D01*
X125339588Y-97231996D01*
X125352812Y-97300603D01*
X125326844Y-97365468D01*
X125317054Y-97376498D01*
X124774075Y-97919473D01*
X124774076Y-97919473D01*
X124774076Y-97919474D01*
X124818650Y-97951859D01*
X124904786Y-97995747D01*
X125000963Y-98044753D01*
X125000965Y-98044753D01*
X125000968Y-98044755D01*
X125195582Y-98107990D01*
X125397683Y-98140000D01*
X125602316Y-98140000D01*
X125602317Y-98140000D01*
X125804417Y-98107990D01*
X125999031Y-98044755D01*
X126181349Y-97951859D01*
X126225921Y-97919474D01*
X125682945Y-97376498D01*
X125649460Y-97315175D01*
X125654444Y-97245483D01*
X125696316Y-97189550D01*
X125708618Y-97181434D01*
X125745606Y-97160080D01*
X125820080Y-97085606D01*
X125841430Y-97048625D01*
X125891995Y-97000411D01*
X125960602Y-96987187D01*
X126025467Y-97013154D01*
X126036498Y-97022945D01*
X126579473Y-97565920D01*
X126579474Y-97565921D01*
X126611859Y-97521349D01*
X126704755Y-97339031D01*
X126767990Y-97144417D01*
X126800000Y-96942317D01*
X126800000Y-96737682D01*
X126799999Y-96737676D01*
X137700000Y-96737676D01*
X137700000Y-96942322D01*
X137732008Y-97144411D01*
X137732009Y-97144417D01*
X137795244Y-97339031D01*
X137814335Y-97376498D01*
X137888144Y-97521357D01*
X137888147Y-97521360D01*
X137920517Y-97565914D01*
X137920521Y-97565919D01*
X137920523Y-97565921D01*
X137920524Y-97565922D01*
X138463503Y-97022942D01*
X138524824Y-96989459D01*
X138594515Y-96994443D01*
X138650449Y-97036314D01*
X138658567Y-97048622D01*
X138679920Y-97085606D01*
X138754394Y-97160080D01*
X138754395Y-97160081D01*
X138754397Y-97160082D01*
X138791373Y-97181430D01*
X138839588Y-97231996D01*
X138852812Y-97300603D01*
X138826844Y-97365468D01*
X138817054Y-97376498D01*
X138274075Y-97919473D01*
X138274076Y-97919473D01*
X138274076Y-97919474D01*
X138318650Y-97951859D01*
X138404786Y-97995747D01*
X138500963Y-98044753D01*
X138500965Y-98044753D01*
X138500968Y-98044755D01*
X138695582Y-98107990D01*
X138897683Y-98140000D01*
X139102316Y-98140000D01*
X139102317Y-98140000D01*
X139304417Y-98107990D01*
X139499031Y-98044755D01*
X139681349Y-97951859D01*
X139725921Y-97919474D01*
X139182945Y-97376498D01*
X139149460Y-97315175D01*
X139154444Y-97245483D01*
X139196316Y-97189550D01*
X139208618Y-97181434D01*
X139245606Y-97160080D01*
X139320080Y-97085606D01*
X139341429Y-97048627D01*
X139391994Y-97000413D01*
X139460600Y-96987188D01*
X139525466Y-97013155D01*
X139536497Y-97022946D01*
X140079473Y-97565922D01*
X140079473Y-97565921D01*
X140079474Y-97565922D01*
X140079474Y-97565921D01*
X140092943Y-97560342D01*
X140099159Y-97539174D01*
X140103159Y-97533324D01*
X140111857Y-97521352D01*
X140185665Y-97376498D01*
X140204755Y-97339031D01*
X140267990Y-97144417D01*
X140300000Y-96942317D01*
X140300000Y-96737682D01*
X140299999Y-96737676D01*
X151200000Y-96737676D01*
X151200000Y-96942322D01*
X151232008Y-97144411D01*
X151232009Y-97144417D01*
X151295244Y-97339031D01*
X151314335Y-97376498D01*
X151388144Y-97521357D01*
X151388147Y-97521360D01*
X151420517Y-97565914D01*
X151420521Y-97565919D01*
X151420523Y-97565921D01*
X151420524Y-97565922D01*
X151963503Y-97022942D01*
X152024824Y-96989459D01*
X152094515Y-96994443D01*
X152150449Y-97036314D01*
X152158567Y-97048622D01*
X152179920Y-97085606D01*
X152254394Y-97160080D01*
X152254395Y-97160081D01*
X152254397Y-97160082D01*
X152291373Y-97181430D01*
X152339588Y-97231996D01*
X152352812Y-97300603D01*
X152326844Y-97365468D01*
X152317054Y-97376498D01*
X151774075Y-97919473D01*
X151774076Y-97919473D01*
X151774076Y-97919474D01*
X151818650Y-97951859D01*
X151904786Y-97995747D01*
X152000963Y-98044753D01*
X152000965Y-98044753D01*
X152000968Y-98044755D01*
X152195582Y-98107990D01*
X152397683Y-98140000D01*
X152602316Y-98140000D01*
X152602317Y-98140000D01*
X152804417Y-98107990D01*
X152999031Y-98044755D01*
X153181349Y-97951859D01*
X153225921Y-97919474D01*
X152682945Y-97376498D01*
X152649460Y-97315175D01*
X152654444Y-97245483D01*
X152696316Y-97189550D01*
X152708618Y-97181434D01*
X152745606Y-97160080D01*
X152820080Y-97085606D01*
X152841429Y-97048627D01*
X152891994Y-97000413D01*
X152960600Y-96987188D01*
X153025466Y-97013155D01*
X153036497Y-97022946D01*
X153579473Y-97565922D01*
X153579473Y-97565921D01*
X153579474Y-97565922D01*
X153579474Y-97565921D01*
X153592943Y-97560342D01*
X153599159Y-97539174D01*
X153603159Y-97533324D01*
X153611857Y-97521352D01*
X153685665Y-97376498D01*
X153704755Y-97339031D01*
X153767990Y-97144417D01*
X153800000Y-96942317D01*
X153800000Y-96737682D01*
X153799999Y-96737676D01*
X164700000Y-96737676D01*
X164700000Y-96942322D01*
X164732008Y-97144411D01*
X164732009Y-97144417D01*
X164795244Y-97339031D01*
X164814335Y-97376498D01*
X164888144Y-97521357D01*
X164888147Y-97521360D01*
X164920517Y-97565914D01*
X164920521Y-97565919D01*
X164920523Y-97565921D01*
X164920524Y-97565922D01*
X165463503Y-97022942D01*
X165524824Y-96989459D01*
X165594515Y-96994443D01*
X165650449Y-97036314D01*
X165658567Y-97048622D01*
X165679920Y-97085606D01*
X165754394Y-97160080D01*
X165754395Y-97160081D01*
X165754397Y-97160082D01*
X165791373Y-97181430D01*
X165839588Y-97231996D01*
X165852812Y-97300603D01*
X165826844Y-97365468D01*
X165817054Y-97376498D01*
X165274075Y-97919473D01*
X165274076Y-97919473D01*
X165274076Y-97919474D01*
X165318650Y-97951859D01*
X165404786Y-97995747D01*
X165500963Y-98044753D01*
X165500965Y-98044753D01*
X165500968Y-98044755D01*
X165695582Y-98107990D01*
X165897683Y-98140000D01*
X166102316Y-98140000D01*
X166102317Y-98140000D01*
X166304417Y-98107990D01*
X166499031Y-98044755D01*
X166681349Y-97951859D01*
X166725921Y-97919474D01*
X166182945Y-97376498D01*
X166149460Y-97315175D01*
X166154444Y-97245483D01*
X166196316Y-97189550D01*
X166208618Y-97181434D01*
X166245606Y-97160080D01*
X166320080Y-97085606D01*
X166341430Y-97048625D01*
X166391995Y-97000411D01*
X166460602Y-96987187D01*
X166525467Y-97013154D01*
X166536498Y-97022945D01*
X167079473Y-97565920D01*
X167079474Y-97565921D01*
X167111859Y-97521349D01*
X167204755Y-97339031D01*
X167267990Y-97144417D01*
X167300000Y-96942317D01*
X167300000Y-96737682D01*
X167299999Y-96737676D01*
X178200000Y-96737676D01*
X178200000Y-96942322D01*
X178232008Y-97144411D01*
X178232009Y-97144417D01*
X178295244Y-97339031D01*
X178314335Y-97376498D01*
X178388144Y-97521357D01*
X178388147Y-97521360D01*
X178420517Y-97565914D01*
X178420521Y-97565919D01*
X178420523Y-97565921D01*
X178420524Y-97565922D01*
X178963503Y-97022942D01*
X179024824Y-96989459D01*
X179094515Y-96994443D01*
X179150449Y-97036314D01*
X179158567Y-97048622D01*
X179179920Y-97085606D01*
X179254394Y-97160080D01*
X179254395Y-97160081D01*
X179254397Y-97160082D01*
X179291373Y-97181430D01*
X179339588Y-97231996D01*
X179352812Y-97300603D01*
X179326844Y-97365468D01*
X179317054Y-97376498D01*
X178774075Y-97919473D01*
X178774076Y-97919473D01*
X178774076Y-97919474D01*
X178818650Y-97951859D01*
X178904786Y-97995747D01*
X179000963Y-98044753D01*
X179000965Y-98044753D01*
X179000968Y-98044755D01*
X179195582Y-98107990D01*
X179397683Y-98140000D01*
X179602316Y-98140000D01*
X179602317Y-98140000D01*
X179804417Y-98107990D01*
X179999031Y-98044755D01*
X180181349Y-97951859D01*
X180225921Y-97919474D01*
X179682945Y-97376498D01*
X179649460Y-97315175D01*
X179654444Y-97245483D01*
X179696316Y-97189550D01*
X179708618Y-97181434D01*
X179745606Y-97160080D01*
X179820080Y-97085606D01*
X179841430Y-97048625D01*
X179891995Y-97000411D01*
X179960602Y-96987187D01*
X180025467Y-97013154D01*
X180036498Y-97022945D01*
X180579473Y-97565920D01*
X180579474Y-97565921D01*
X180611859Y-97521349D01*
X180704755Y-97339031D01*
X180767990Y-97144417D01*
X180800000Y-96942317D01*
X180800000Y-96737682D01*
X180799999Y-96737676D01*
X191700000Y-96737676D01*
X191700000Y-96942322D01*
X191732008Y-97144411D01*
X191732009Y-97144417D01*
X191795244Y-97339031D01*
X191814335Y-97376498D01*
X191888144Y-97521357D01*
X191888147Y-97521360D01*
X191920517Y-97565914D01*
X191920521Y-97565919D01*
X191920523Y-97565921D01*
X191920524Y-97565922D01*
X192463503Y-97022942D01*
X192524824Y-96989459D01*
X192594515Y-96994443D01*
X192650449Y-97036314D01*
X192658567Y-97048622D01*
X192679920Y-97085606D01*
X192754394Y-97160080D01*
X192754395Y-97160081D01*
X192754397Y-97160082D01*
X192791373Y-97181430D01*
X192839588Y-97231996D01*
X192852812Y-97300603D01*
X192826844Y-97365468D01*
X192817054Y-97376498D01*
X192274075Y-97919473D01*
X192274076Y-97919473D01*
X192274076Y-97919474D01*
X192318650Y-97951859D01*
X192404786Y-97995747D01*
X192500963Y-98044753D01*
X192500965Y-98044753D01*
X192500968Y-98044755D01*
X192695582Y-98107990D01*
X192897683Y-98140000D01*
X193102316Y-98140000D01*
X193102317Y-98140000D01*
X193304417Y-98107990D01*
X193499031Y-98044755D01*
X193681349Y-97951859D01*
X193725921Y-97919474D01*
X193182945Y-97376498D01*
X193149460Y-97315175D01*
X193154444Y-97245483D01*
X193196316Y-97189550D01*
X193208618Y-97181434D01*
X193245606Y-97160080D01*
X193320080Y-97085606D01*
X193341430Y-97048625D01*
X193391995Y-97000411D01*
X193460602Y-96987187D01*
X193525467Y-97013154D01*
X193536498Y-97022945D01*
X194079473Y-97565920D01*
X194079474Y-97565921D01*
X194111859Y-97521349D01*
X194204755Y-97339031D01*
X194267990Y-97144417D01*
X194300000Y-96942317D01*
X194300000Y-96737682D01*
X194267990Y-96535582D01*
X194204755Y-96340968D01*
X194204753Y-96340965D01*
X194204753Y-96340963D01*
X194111859Y-96158650D01*
X194103156Y-96146672D01*
X194093615Y-96119933D01*
X194079473Y-96114075D01*
X193536497Y-96657053D01*
X193475174Y-96690538D01*
X193405483Y-96685554D01*
X193349549Y-96643683D01*
X193341430Y-96631374D01*
X193320080Y-96594394D01*
X193245606Y-96519920D01*
X193208625Y-96498569D01*
X193160410Y-96448003D01*
X193147186Y-96379396D01*
X193173154Y-96314531D01*
X193182936Y-96303509D01*
X193725922Y-95760524D01*
X193725921Y-95760523D01*
X193725920Y-95760522D01*
X193725919Y-95760521D01*
X193725914Y-95760517D01*
X193681360Y-95728147D01*
X193681357Y-95728144D01*
X193616198Y-95694944D01*
X193499031Y-95635244D01*
X193304417Y-95572009D01*
X193304411Y-95572008D01*
X193102322Y-95540000D01*
X193102317Y-95540000D01*
X192897683Y-95540000D01*
X192897678Y-95540000D01*
X192695587Y-95572008D01*
X192695585Y-95572008D01*
X192695582Y-95572009D01*
X192598275Y-95603626D01*
X192500963Y-95635245D01*
X192318640Y-95728145D01*
X192274077Y-95760522D01*
X192274077Y-95760524D01*
X192817055Y-96303501D01*
X192850540Y-96364824D01*
X192845556Y-96434515D01*
X192803685Y-96490449D01*
X192791374Y-96498569D01*
X192754397Y-96519917D01*
X192754392Y-96519921D01*
X192679921Y-96594392D01*
X192679915Y-96594400D01*
X192658568Y-96631374D01*
X192608001Y-96679589D01*
X192539393Y-96692811D01*
X192474529Y-96666843D01*
X192463501Y-96657054D01*
X191920524Y-96114077D01*
X191920523Y-96114077D01*
X191920522Y-96114077D01*
X191888145Y-96158640D01*
X191795245Y-96340963D01*
X191764848Y-96434515D01*
X191732009Y-96535582D01*
X191732008Y-96535585D01*
X191732008Y-96535587D01*
X191700000Y-96737676D01*
X180799999Y-96737676D01*
X180767990Y-96535582D01*
X180704755Y-96340968D01*
X180704753Y-96340965D01*
X180704753Y-96340963D01*
X180611859Y-96158650D01*
X180603156Y-96146672D01*
X180593615Y-96119933D01*
X180579473Y-96114075D01*
X180036497Y-96657053D01*
X179975174Y-96690538D01*
X179905483Y-96685554D01*
X179849549Y-96643683D01*
X179841430Y-96631374D01*
X179820080Y-96594394D01*
X179745606Y-96519920D01*
X179708625Y-96498569D01*
X179660410Y-96448003D01*
X179647186Y-96379396D01*
X179673154Y-96314531D01*
X179682936Y-96303509D01*
X180225922Y-95760524D01*
X180225921Y-95760523D01*
X180225920Y-95760522D01*
X180225919Y-95760521D01*
X180225914Y-95760517D01*
X180181360Y-95728147D01*
X180181357Y-95728144D01*
X180116198Y-95694944D01*
X179999031Y-95635244D01*
X179804417Y-95572009D01*
X179804411Y-95572008D01*
X179602322Y-95540000D01*
X179602317Y-95540000D01*
X179397683Y-95540000D01*
X179397678Y-95540000D01*
X179195587Y-95572008D01*
X179195585Y-95572008D01*
X179195582Y-95572009D01*
X179098275Y-95603626D01*
X179000963Y-95635245D01*
X178818640Y-95728145D01*
X178774077Y-95760522D01*
X178774077Y-95760524D01*
X179317055Y-96303501D01*
X179350540Y-96364824D01*
X179345556Y-96434515D01*
X179303685Y-96490449D01*
X179291374Y-96498569D01*
X179254397Y-96519917D01*
X179254392Y-96519921D01*
X179179921Y-96594392D01*
X179179915Y-96594400D01*
X179158568Y-96631374D01*
X179108001Y-96679589D01*
X179039393Y-96692811D01*
X178974529Y-96666843D01*
X178963501Y-96657054D01*
X178420524Y-96114077D01*
X178420523Y-96114077D01*
X178420522Y-96114077D01*
X178388145Y-96158640D01*
X178295245Y-96340963D01*
X178264848Y-96434515D01*
X178232009Y-96535582D01*
X178232008Y-96535585D01*
X178232008Y-96535587D01*
X178200000Y-96737676D01*
X167299999Y-96737676D01*
X167267990Y-96535582D01*
X167204755Y-96340968D01*
X167204753Y-96340965D01*
X167204753Y-96340963D01*
X167111859Y-96158650D01*
X167103156Y-96146672D01*
X167093615Y-96119933D01*
X167079473Y-96114075D01*
X166536497Y-96657053D01*
X166475174Y-96690538D01*
X166405483Y-96685554D01*
X166349549Y-96643683D01*
X166341430Y-96631374D01*
X166320080Y-96594394D01*
X166245606Y-96519920D01*
X166208625Y-96498569D01*
X166160410Y-96448003D01*
X166147186Y-96379396D01*
X166173154Y-96314531D01*
X166182936Y-96303509D01*
X166725922Y-95760524D01*
X166725921Y-95760523D01*
X166725920Y-95760522D01*
X166725919Y-95760521D01*
X166725914Y-95760517D01*
X166681360Y-95728147D01*
X166681357Y-95728144D01*
X166616198Y-95694944D01*
X166499031Y-95635244D01*
X166304417Y-95572009D01*
X166304411Y-95572008D01*
X166102322Y-95540000D01*
X166102317Y-95540000D01*
X165897683Y-95540000D01*
X165897678Y-95540000D01*
X165695587Y-95572008D01*
X165695585Y-95572008D01*
X165695582Y-95572009D01*
X165598275Y-95603626D01*
X165500963Y-95635245D01*
X165318640Y-95728145D01*
X165274077Y-95760522D01*
X165274077Y-95760524D01*
X165817055Y-96303501D01*
X165850540Y-96364824D01*
X165845556Y-96434515D01*
X165803685Y-96490449D01*
X165791374Y-96498569D01*
X165754397Y-96519917D01*
X165754392Y-96519921D01*
X165679921Y-96594392D01*
X165679915Y-96594400D01*
X165658568Y-96631374D01*
X165608001Y-96679589D01*
X165539393Y-96692811D01*
X165474529Y-96666843D01*
X165463501Y-96657054D01*
X164920524Y-96114077D01*
X164920523Y-96114077D01*
X164920522Y-96114077D01*
X164888145Y-96158640D01*
X164795245Y-96340963D01*
X164764848Y-96434515D01*
X164732009Y-96535582D01*
X164732008Y-96535585D01*
X164732008Y-96535587D01*
X164700000Y-96737676D01*
X153799999Y-96737676D01*
X153767990Y-96535582D01*
X153704755Y-96340968D01*
X153704753Y-96340965D01*
X153704753Y-96340963D01*
X153611859Y-96158650D01*
X153603156Y-96146672D01*
X153593615Y-96119933D01*
X153579473Y-96114075D01*
X153036497Y-96657053D01*
X152975174Y-96690538D01*
X152905483Y-96685554D01*
X152849549Y-96643683D01*
X152841430Y-96631374D01*
X152820080Y-96594394D01*
X152745606Y-96519920D01*
X152708625Y-96498569D01*
X152660410Y-96448003D01*
X152647186Y-96379396D01*
X152673154Y-96314531D01*
X152682936Y-96303509D01*
X153225922Y-95760524D01*
X153225921Y-95760523D01*
X153225920Y-95760522D01*
X153225919Y-95760521D01*
X153225914Y-95760517D01*
X153181360Y-95728147D01*
X153181357Y-95728144D01*
X153116198Y-95694944D01*
X152999031Y-95635244D01*
X152804417Y-95572009D01*
X152804411Y-95572008D01*
X152602322Y-95540000D01*
X152602317Y-95540000D01*
X152397683Y-95540000D01*
X152397678Y-95540000D01*
X152195587Y-95572008D01*
X152195585Y-95572008D01*
X152195582Y-95572009D01*
X152098275Y-95603626D01*
X152000963Y-95635245D01*
X151818640Y-95728145D01*
X151774077Y-95760522D01*
X151774077Y-95760524D01*
X152317055Y-96303501D01*
X152350540Y-96364824D01*
X152345556Y-96434515D01*
X152303685Y-96490449D01*
X152291374Y-96498569D01*
X152254397Y-96519917D01*
X152254392Y-96519921D01*
X152179921Y-96594392D01*
X152179915Y-96594400D01*
X152158568Y-96631374D01*
X152108001Y-96679589D01*
X152039393Y-96692811D01*
X151974529Y-96666843D01*
X151963501Y-96657054D01*
X151420524Y-96114077D01*
X151420523Y-96114077D01*
X151420522Y-96114077D01*
X151388145Y-96158640D01*
X151295245Y-96340963D01*
X151264848Y-96434515D01*
X151232009Y-96535582D01*
X151232008Y-96535585D01*
X151232008Y-96535587D01*
X151200000Y-96737676D01*
X140299999Y-96737676D01*
X140267990Y-96535582D01*
X140204755Y-96340968D01*
X140204753Y-96340965D01*
X140204753Y-96340963D01*
X140111859Y-96158650D01*
X140103156Y-96146672D01*
X140093615Y-96119933D01*
X140079473Y-96114075D01*
X139536497Y-96657053D01*
X139475174Y-96690538D01*
X139405483Y-96685554D01*
X139349549Y-96643683D01*
X139341430Y-96631374D01*
X139320080Y-96594394D01*
X139245606Y-96519920D01*
X139208625Y-96498569D01*
X139160410Y-96448003D01*
X139147186Y-96379396D01*
X139173154Y-96314531D01*
X139182936Y-96303509D01*
X139725922Y-95760524D01*
X139725921Y-95760523D01*
X139725920Y-95760522D01*
X139725919Y-95760521D01*
X139725914Y-95760517D01*
X139681360Y-95728147D01*
X139681357Y-95728144D01*
X139616198Y-95694944D01*
X139499031Y-95635244D01*
X139304417Y-95572009D01*
X139304411Y-95572008D01*
X139102322Y-95540000D01*
X139102317Y-95540000D01*
X138897683Y-95540000D01*
X138897678Y-95540000D01*
X138695587Y-95572008D01*
X138695585Y-95572008D01*
X138695582Y-95572009D01*
X138598275Y-95603626D01*
X138500963Y-95635245D01*
X138318640Y-95728145D01*
X138274077Y-95760522D01*
X138274077Y-95760524D01*
X138817055Y-96303501D01*
X138850540Y-96364824D01*
X138845556Y-96434515D01*
X138803685Y-96490449D01*
X138791374Y-96498569D01*
X138754397Y-96519917D01*
X138754392Y-96519921D01*
X138679921Y-96594392D01*
X138679915Y-96594400D01*
X138658568Y-96631374D01*
X138608001Y-96679589D01*
X138539393Y-96692811D01*
X138474529Y-96666843D01*
X138463501Y-96657054D01*
X137920524Y-96114077D01*
X137920523Y-96114077D01*
X137920522Y-96114077D01*
X137888145Y-96158640D01*
X137795245Y-96340963D01*
X137764848Y-96434515D01*
X137732009Y-96535582D01*
X137732008Y-96535585D01*
X137732008Y-96535587D01*
X137700000Y-96737676D01*
X126799999Y-96737676D01*
X126767990Y-96535582D01*
X126704755Y-96340968D01*
X126704753Y-96340965D01*
X126704753Y-96340963D01*
X126611859Y-96158650D01*
X126603156Y-96146672D01*
X126593615Y-96119933D01*
X126579473Y-96114075D01*
X126036497Y-96657053D01*
X125975174Y-96690538D01*
X125905483Y-96685554D01*
X125849549Y-96643683D01*
X125841430Y-96631374D01*
X125820080Y-96594394D01*
X125745606Y-96519920D01*
X125708625Y-96498569D01*
X125660410Y-96448003D01*
X125647186Y-96379396D01*
X125673154Y-96314531D01*
X125682936Y-96303509D01*
X126225922Y-95760524D01*
X126225921Y-95760523D01*
X126225920Y-95760522D01*
X126225919Y-95760521D01*
X126225914Y-95760517D01*
X126181360Y-95728147D01*
X126181357Y-95728144D01*
X126116198Y-95694944D01*
X125999031Y-95635244D01*
X125804417Y-95572009D01*
X125804411Y-95572008D01*
X125602322Y-95540000D01*
X125602317Y-95540000D01*
X125397683Y-95540000D01*
X125397678Y-95540000D01*
X125195587Y-95572008D01*
X125195585Y-95572008D01*
X125195582Y-95572009D01*
X125098275Y-95603626D01*
X125000963Y-95635245D01*
X124818640Y-95728145D01*
X124774077Y-95760522D01*
X124774077Y-95760524D01*
X125317055Y-96303501D01*
X125350540Y-96364824D01*
X125345556Y-96434515D01*
X125303685Y-96490449D01*
X125291374Y-96498569D01*
X125254397Y-96519917D01*
X125254392Y-96519921D01*
X125179921Y-96594392D01*
X125179915Y-96594400D01*
X125158568Y-96631374D01*
X125108001Y-96679589D01*
X125039393Y-96692811D01*
X124974529Y-96666843D01*
X124963501Y-96657054D01*
X124420524Y-96114077D01*
X124420523Y-96114077D01*
X124420522Y-96114077D01*
X124388145Y-96158640D01*
X124295245Y-96340963D01*
X124264848Y-96434515D01*
X124232009Y-96535582D01*
X124232008Y-96535585D01*
X124232008Y-96535587D01*
X124200000Y-96737676D01*
X119799999Y-96737676D01*
X119767990Y-96535582D01*
X119704755Y-96340968D01*
X119704753Y-96340965D01*
X119704753Y-96340963D01*
X119611859Y-96158650D01*
X119603156Y-96146672D01*
X119593615Y-96119933D01*
X119579473Y-96114075D01*
X119036497Y-96657053D01*
X118975174Y-96690538D01*
X118905483Y-96685554D01*
X118849549Y-96643683D01*
X118841430Y-96631374D01*
X118820080Y-96594394D01*
X118745606Y-96519920D01*
X118708625Y-96498569D01*
X118660410Y-96448003D01*
X118647186Y-96379396D01*
X118673154Y-96314531D01*
X118682936Y-96303509D01*
X119225922Y-95760524D01*
X119225921Y-95760523D01*
X119225920Y-95760522D01*
X119225919Y-95760521D01*
X119225914Y-95760517D01*
X119181360Y-95728147D01*
X119181357Y-95728144D01*
X119116198Y-95694944D01*
X118999031Y-95635244D01*
X118804417Y-95572009D01*
X118804411Y-95572008D01*
X118602322Y-95540000D01*
X118602317Y-95540000D01*
X118397683Y-95540000D01*
X118397678Y-95540000D01*
X118195587Y-95572008D01*
X118195585Y-95572008D01*
X118195582Y-95572009D01*
X118098275Y-95603626D01*
X118000963Y-95635245D01*
X117818640Y-95728145D01*
X117774077Y-95760522D01*
X117774077Y-95760524D01*
X118317055Y-96303501D01*
X118350540Y-96364824D01*
X118345556Y-96434515D01*
X118303685Y-96490449D01*
X118291374Y-96498569D01*
X118254397Y-96519917D01*
X118254392Y-96519921D01*
X118179921Y-96594392D01*
X118179915Y-96594400D01*
X118158568Y-96631374D01*
X118108001Y-96679589D01*
X118039393Y-96692811D01*
X117974529Y-96666843D01*
X117963501Y-96657054D01*
X117420524Y-96114077D01*
X117420523Y-96114077D01*
X117420522Y-96114077D01*
X117388145Y-96158640D01*
X117295245Y-96340963D01*
X117264848Y-96434515D01*
X117232009Y-96535582D01*
X117232008Y-96535585D01*
X117232008Y-96535587D01*
X117200000Y-96737676D01*
X112799999Y-96737676D01*
X112767990Y-96535582D01*
X112704755Y-96340968D01*
X112704753Y-96340965D01*
X112704753Y-96340963D01*
X112611859Y-96158650D01*
X112603156Y-96146672D01*
X112593615Y-96119933D01*
X112579473Y-96114075D01*
X112036497Y-96657053D01*
X111975174Y-96690538D01*
X111905483Y-96685554D01*
X111849549Y-96643683D01*
X111841430Y-96631374D01*
X111820080Y-96594394D01*
X111745606Y-96519920D01*
X111708625Y-96498569D01*
X111660410Y-96448003D01*
X111647186Y-96379396D01*
X111673154Y-96314531D01*
X111682936Y-96303509D01*
X112225922Y-95760524D01*
X112225921Y-95760523D01*
X112225920Y-95760522D01*
X112225919Y-95760521D01*
X112225914Y-95760517D01*
X112181360Y-95728147D01*
X112181357Y-95728144D01*
X112116198Y-95694944D01*
X111999031Y-95635244D01*
X111804417Y-95572009D01*
X111804411Y-95572008D01*
X111602322Y-95540000D01*
X111602317Y-95540000D01*
X111397683Y-95540000D01*
X111397678Y-95540000D01*
X111195587Y-95572008D01*
X111195585Y-95572008D01*
X111195582Y-95572009D01*
X111098275Y-95603626D01*
X111000963Y-95635245D01*
X110818640Y-95728145D01*
X110774077Y-95760522D01*
X110774077Y-95760524D01*
X111317055Y-96303501D01*
X111350540Y-96364824D01*
X111345556Y-96434515D01*
X111303685Y-96490449D01*
X111291374Y-96498569D01*
X111254397Y-96519917D01*
X111254392Y-96519921D01*
X111179921Y-96594392D01*
X111179915Y-96594400D01*
X111158568Y-96631374D01*
X111108001Y-96679589D01*
X111039393Y-96692811D01*
X110974529Y-96666843D01*
X110963501Y-96657054D01*
X110420524Y-96114077D01*
X110420523Y-96114077D01*
X110420522Y-96114077D01*
X110388145Y-96158640D01*
X110295245Y-96340963D01*
X110264848Y-96434515D01*
X110232009Y-96535582D01*
X110232008Y-96535585D01*
X110232008Y-96535587D01*
X110200000Y-96737676D01*
X107250000Y-96737676D01*
X107250000Y-84022139D01*
X147149500Y-84022139D01*
X147149500Y-85817876D01*
X147149659Y-85819806D01*
X147149885Y-85821454D01*
X147155907Y-85877482D01*
X147182670Y-85949235D01*
X147206202Y-86012328D01*
X147206205Y-86012334D01*
X147292450Y-86127542D01*
X147292452Y-86127544D01*
X147292455Y-86127547D01*
X147407664Y-86213793D01*
X147407671Y-86213797D01*
X147542517Y-86264091D01*
X147542516Y-86264091D01*
X147549444Y-86264835D01*
X147602127Y-86270500D01*
X149397872Y-86270499D01*
X149457483Y-86264091D01*
X149592331Y-86213796D01*
X149707546Y-86127546D01*
X149793796Y-86012331D01*
X149836580Y-85897620D01*
X149853490Y-85866649D01*
X149861811Y-85855533D01*
X149917741Y-85813663D01*
X149987424Y-85808675D01*
X149991909Y-85809650D01*
X150053234Y-85843130D01*
X150160216Y-85950112D01*
X150332169Y-86075042D01*
X150332200Y-86075060D01*
X150332442Y-86075182D01*
X150521588Y-86171557D01*
X150723757Y-86237246D01*
X150933713Y-86270500D01*
X150933714Y-86270500D01*
X151146286Y-86270500D01*
X151146287Y-86270500D01*
X151356243Y-86237246D01*
X151558412Y-86171557D01*
X151747816Y-86075051D01*
X151834138Y-86012335D01*
X151919786Y-85950109D01*
X151919788Y-85950106D01*
X151919792Y-85950104D01*
X151919799Y-85950096D01*
X151919849Y-85950061D01*
X151920605Y-85949290D01*
X152070104Y-85799792D01*
X152070106Y-85799788D01*
X152070109Y-85799786D01*
X152195048Y-85627820D01*
X152195047Y-85627820D01*
X152195051Y-85627816D01*
X152195053Y-85627811D01*
X152203066Y-85616782D01*
X152203071Y-85616778D01*
X152213229Y-85604531D01*
X152220647Y-85596678D01*
X152255566Y-85576294D01*
X152258394Y-85574114D01*
X152259458Y-85574022D01*
X152280985Y-85561457D01*
X152350791Y-85564447D01*
X152404503Y-85600612D01*
X152410707Y-85607771D01*
X152422729Y-85624193D01*
X152424949Y-85627817D01*
X152424951Y-85627820D01*
X152549890Y-85799786D01*
X152549892Y-85799788D01*
X152700216Y-85950112D01*
X152872169Y-86075042D01*
X152872200Y-86075060D01*
X152872442Y-86075182D01*
X153061588Y-86171557D01*
X153263757Y-86237246D01*
X153473713Y-86270500D01*
X153473714Y-86270500D01*
X153686286Y-86270500D01*
X153686287Y-86270500D01*
X153896243Y-86237246D01*
X154098412Y-86171557D01*
X154287816Y-86075051D01*
X154374138Y-86012335D01*
X154459786Y-85950109D01*
X154459788Y-85950106D01*
X154459792Y-85950104D01*
X154459799Y-85950096D01*
X154459849Y-85950061D01*
X154460605Y-85949290D01*
X154610104Y-85799792D01*
X154610106Y-85799788D01*
X154610109Y-85799786D01*
X154735048Y-85627820D01*
X154735047Y-85627820D01*
X154735051Y-85627816D01*
X154735053Y-85627811D01*
X154743066Y-85616782D01*
X154743071Y-85616778D01*
X154753229Y-85604531D01*
X154760647Y-85596678D01*
X154795566Y-85576294D01*
X154798394Y-85574114D01*
X154799458Y-85574022D01*
X154820985Y-85561457D01*
X154890791Y-85564447D01*
X154944503Y-85600612D01*
X154950707Y-85607771D01*
X154962729Y-85624193D01*
X154964949Y-85627817D01*
X154964951Y-85627820D01*
X155089890Y-85799786D01*
X155089892Y-85799788D01*
X155240216Y-85950112D01*
X155412169Y-86075042D01*
X155412200Y-86075060D01*
X155412442Y-86075182D01*
X155601588Y-86171557D01*
X155803757Y-86237246D01*
X156013713Y-86270500D01*
X156013714Y-86270500D01*
X156226286Y-86270500D01*
X156226287Y-86270500D01*
X156436243Y-86237246D01*
X156638412Y-86171557D01*
X156827816Y-86075051D01*
X156914138Y-86012335D01*
X156999786Y-85950109D01*
X156999788Y-85950106D01*
X156999792Y-85950104D01*
X156999799Y-85950096D01*
X156999849Y-85950061D01*
X157000605Y-85949290D01*
X157150104Y-85799792D01*
X157150106Y-85799788D01*
X157150109Y-85799786D01*
X157275048Y-85627820D01*
X157275047Y-85627820D01*
X157275051Y-85627816D01*
X157275053Y-85627811D01*
X157283066Y-85616782D01*
X157283071Y-85616778D01*
X157293229Y-85604531D01*
X157300647Y-85596678D01*
X157335566Y-85576294D01*
X157338394Y-85574114D01*
X157339458Y-85574022D01*
X157360985Y-85561457D01*
X157430791Y-85564447D01*
X157484503Y-85600612D01*
X157490707Y-85607771D01*
X157502729Y-85624193D01*
X157504949Y-85627817D01*
X157504951Y-85627820D01*
X157629890Y-85799786D01*
X157629892Y-85799788D01*
X157780216Y-85950112D01*
X157952169Y-86075042D01*
X157952200Y-86075060D01*
X157952442Y-86075182D01*
X158141588Y-86171557D01*
X158343757Y-86237246D01*
X158553713Y-86270500D01*
X158553714Y-86270500D01*
X158766286Y-86270500D01*
X158766287Y-86270500D01*
X158976243Y-86237246D01*
X159178412Y-86171557D01*
X159367816Y-86075051D01*
X159454138Y-86012335D01*
X159539786Y-85950109D01*
X159539788Y-85950106D01*
X159539792Y-85950104D01*
X159539799Y-85950096D01*
X159539849Y-85950061D01*
X159540605Y-85949290D01*
X159690104Y-85799792D01*
X159690106Y-85799788D01*
X159690109Y-85799786D01*
X159815048Y-85627820D01*
X159815047Y-85627820D01*
X159815051Y-85627816D01*
X159815053Y-85627811D01*
X159823066Y-85616782D01*
X159823071Y-85616778D01*
X159833229Y-85604531D01*
X159840647Y-85596678D01*
X159875566Y-85576294D01*
X159878394Y-85574114D01*
X159879458Y-85574022D01*
X159900985Y-85561457D01*
X159970791Y-85564447D01*
X160024503Y-85600612D01*
X160030707Y-85607771D01*
X160042729Y-85624193D01*
X160044949Y-85627817D01*
X160044951Y-85627820D01*
X160169890Y-85799786D01*
X160169892Y-85799788D01*
X160320216Y-85950112D01*
X160492169Y-86075042D01*
X160492200Y-86075060D01*
X160492442Y-86075182D01*
X160681588Y-86171557D01*
X160883757Y-86237246D01*
X161093713Y-86270500D01*
X161093714Y-86270500D01*
X161306286Y-86270500D01*
X161306287Y-86270500D01*
X161516243Y-86237246D01*
X161718412Y-86171557D01*
X161907816Y-86075051D01*
X161994138Y-86012335D01*
X162079786Y-85950109D01*
X162079788Y-85950106D01*
X162079792Y-85950104D01*
X162079799Y-85950096D01*
X162079849Y-85950061D01*
X162080605Y-85949290D01*
X162230104Y-85799792D01*
X162230106Y-85799788D01*
X162230109Y-85799786D01*
X162355048Y-85627820D01*
X162355047Y-85627820D01*
X162355051Y-85627816D01*
X162355053Y-85627811D01*
X162363066Y-85616782D01*
X162363071Y-85616778D01*
X162373229Y-85604531D01*
X162380647Y-85596678D01*
X162415566Y-85576294D01*
X162418394Y-85574114D01*
X162419458Y-85574022D01*
X162440985Y-85561457D01*
X162510791Y-85564447D01*
X162564503Y-85600612D01*
X162570707Y-85607771D01*
X162582729Y-85624193D01*
X162584949Y-85627817D01*
X162584951Y-85627820D01*
X162709890Y-85799786D01*
X162709892Y-85799788D01*
X162860216Y-85950112D01*
X163032169Y-86075042D01*
X163032200Y-86075060D01*
X163032442Y-86075182D01*
X163221588Y-86171557D01*
X163423757Y-86237246D01*
X163633713Y-86270500D01*
X163633714Y-86270500D01*
X163846286Y-86270500D01*
X163846287Y-86270500D01*
X164056243Y-86237246D01*
X164258412Y-86171557D01*
X164447816Y-86075051D01*
X164534138Y-86012335D01*
X164619786Y-85950109D01*
X164619788Y-85950106D01*
X164619792Y-85950104D01*
X164619799Y-85950096D01*
X164619849Y-85950061D01*
X164620605Y-85949290D01*
X164770104Y-85799792D01*
X164770106Y-85799788D01*
X164770109Y-85799786D01*
X164895048Y-85627820D01*
X164895047Y-85627820D01*
X164895051Y-85627816D01*
X164895053Y-85627810D01*
X164915445Y-85599744D01*
X164923730Y-85571529D01*
X164991557Y-85438412D01*
X165057246Y-85236243D01*
X165090500Y-85026287D01*
X165090500Y-84813713D01*
X165057246Y-84603757D01*
X164991557Y-84401588D01*
X164895051Y-84212184D01*
X164895049Y-84212181D01*
X164895048Y-84212179D01*
X164894702Y-84211703D01*
X164894700Y-84211699D01*
X164770112Y-84040216D01*
X164619788Y-83889892D01*
X164619786Y-83889890D01*
X164447820Y-83764951D01*
X164344781Y-83712450D01*
X164280245Y-83679567D01*
X164280240Y-83679565D01*
X164258414Y-83668444D01*
X164258413Y-83668443D01*
X164258412Y-83668443D01*
X164161550Y-83636970D01*
X164065074Y-83605623D01*
X164060552Y-83603770D01*
X164051362Y-83601600D01*
X164046599Y-83601226D01*
X163894957Y-83577208D01*
X163875489Y-83574124D01*
X163846290Y-83569500D01*
X163846287Y-83569500D01*
X163633713Y-83569500D01*
X163633709Y-83569500D01*
X163594776Y-83575666D01*
X163585042Y-83577208D01*
X163547654Y-83583129D01*
X163423763Y-83602752D01*
X163221582Y-83668445D01*
X163032182Y-83764949D01*
X162860210Y-83889892D01*
X162709892Y-84040210D01*
X162709890Y-84040213D01*
X162584952Y-84212179D01*
X162584945Y-84212188D01*
X162584634Y-84212696D01*
X162583499Y-84214177D01*
X162582085Y-84216125D01*
X162582036Y-84216089D01*
X162569060Y-84233041D01*
X162559353Y-84243319D01*
X162499011Y-84278542D01*
X162429205Y-84275550D01*
X162375488Y-84239378D01*
X162369285Y-84232219D01*
X162357274Y-84215811D01*
X162355053Y-84212187D01*
X162355051Y-84212184D01*
X162355050Y-84212182D01*
X162230109Y-84040213D01*
X162079786Y-83889890D01*
X161907820Y-83764951D01*
X161804781Y-83712450D01*
X161740245Y-83679567D01*
X161740240Y-83679565D01*
X161718414Y-83668444D01*
X161718413Y-83668443D01*
X161718412Y-83668443D01*
X161621550Y-83636970D01*
X161525074Y-83605623D01*
X161520552Y-83603770D01*
X161511362Y-83601600D01*
X161506599Y-83601226D01*
X161354957Y-83577208D01*
X161335489Y-83574124D01*
X161306290Y-83569500D01*
X161306287Y-83569500D01*
X161093713Y-83569500D01*
X161093709Y-83569500D01*
X161054776Y-83575666D01*
X161045042Y-83577208D01*
X161007654Y-83583129D01*
X160883763Y-83602752D01*
X160681582Y-83668445D01*
X160492182Y-83764949D01*
X160320210Y-83889892D01*
X160169892Y-84040210D01*
X160169890Y-84040213D01*
X160044952Y-84212179D01*
X160044945Y-84212188D01*
X160044634Y-84212696D01*
X160043499Y-84214177D01*
X160042085Y-84216125D01*
X160042036Y-84216089D01*
X160029060Y-84233041D01*
X160019353Y-84243319D01*
X159959011Y-84278542D01*
X159889205Y-84275550D01*
X159835488Y-84239378D01*
X159829285Y-84232219D01*
X159817274Y-84215811D01*
X159815053Y-84212187D01*
X159815051Y-84212184D01*
X159815050Y-84212182D01*
X159690109Y-84040213D01*
X159539786Y-83889890D01*
X159367820Y-83764951D01*
X159264781Y-83712450D01*
X159200245Y-83679567D01*
X159200240Y-83679565D01*
X159178414Y-83668444D01*
X159178413Y-83668443D01*
X159178412Y-83668443D01*
X159081550Y-83636970D01*
X158985074Y-83605623D01*
X158980552Y-83603770D01*
X158971362Y-83601600D01*
X158966599Y-83601226D01*
X158814957Y-83577208D01*
X158795489Y-83574124D01*
X158766290Y-83569500D01*
X158766287Y-83569500D01*
X158553713Y-83569500D01*
X158553709Y-83569500D01*
X158514776Y-83575666D01*
X158505042Y-83577208D01*
X158467654Y-83583129D01*
X158343763Y-83602752D01*
X158141582Y-83668445D01*
X157952182Y-83764949D01*
X157780210Y-83889892D01*
X157629892Y-84040210D01*
X157629890Y-84040213D01*
X157504952Y-84212179D01*
X157504945Y-84212188D01*
X157504634Y-84212696D01*
X157503499Y-84214177D01*
X157502085Y-84216125D01*
X157502036Y-84216089D01*
X157489060Y-84233041D01*
X157479353Y-84243319D01*
X157419011Y-84278542D01*
X157349205Y-84275550D01*
X157295488Y-84239378D01*
X157289285Y-84232219D01*
X157277274Y-84215811D01*
X157275053Y-84212187D01*
X157275051Y-84212184D01*
X157275050Y-84212182D01*
X157150109Y-84040213D01*
X156999786Y-83889890D01*
X156827820Y-83764951D01*
X156724781Y-83712450D01*
X156660245Y-83679567D01*
X156660240Y-83679565D01*
X156638414Y-83668444D01*
X156638413Y-83668443D01*
X156638412Y-83668443D01*
X156541550Y-83636970D01*
X156445074Y-83605623D01*
X156440552Y-83603770D01*
X156431362Y-83601600D01*
X156426599Y-83601226D01*
X156274957Y-83577208D01*
X156255489Y-83574124D01*
X156226290Y-83569500D01*
X156226287Y-83569500D01*
X156013713Y-83569500D01*
X156013709Y-83569500D01*
X155974776Y-83575666D01*
X155965042Y-83577208D01*
X155927654Y-83583129D01*
X155803763Y-83602752D01*
X155601582Y-83668445D01*
X155412182Y-83764949D01*
X155240210Y-83889892D01*
X155089892Y-84040210D01*
X155089890Y-84040213D01*
X154964952Y-84212179D01*
X154964945Y-84212188D01*
X154964634Y-84212696D01*
X154963499Y-84214177D01*
X154962085Y-84216125D01*
X154962036Y-84216089D01*
X154949060Y-84233041D01*
X154939353Y-84243319D01*
X154879011Y-84278542D01*
X154809205Y-84275550D01*
X154755488Y-84239378D01*
X154749285Y-84232219D01*
X154737274Y-84215811D01*
X154735053Y-84212187D01*
X154735051Y-84212184D01*
X154735050Y-84212182D01*
X154610109Y-84040213D01*
X154459786Y-83889890D01*
X154287820Y-83764951D01*
X154184781Y-83712450D01*
X154120245Y-83679567D01*
X154120240Y-83679565D01*
X154098414Y-83668444D01*
X154098413Y-83668443D01*
X154098412Y-83668443D01*
X154001550Y-83636970D01*
X153905074Y-83605623D01*
X153900552Y-83603770D01*
X153891362Y-83601600D01*
X153886599Y-83601226D01*
X153734957Y-83577208D01*
X153715489Y-83574124D01*
X153686290Y-83569500D01*
X153686287Y-83569500D01*
X153473713Y-83569500D01*
X153473709Y-83569500D01*
X153434776Y-83575666D01*
X153425042Y-83577208D01*
X153387654Y-83583129D01*
X153263763Y-83602752D01*
X153061582Y-83668445D01*
X152872182Y-83764949D01*
X152700210Y-83889892D01*
X152549892Y-84040210D01*
X152549890Y-84040213D01*
X152424952Y-84212179D01*
X152424945Y-84212188D01*
X152424634Y-84212696D01*
X152423499Y-84214177D01*
X152422085Y-84216125D01*
X152422036Y-84216089D01*
X152409060Y-84233041D01*
X152399353Y-84243319D01*
X152339011Y-84278542D01*
X152269205Y-84275550D01*
X152215488Y-84239378D01*
X152209285Y-84232219D01*
X152197274Y-84215811D01*
X152195053Y-84212187D01*
X152195051Y-84212184D01*
X152195050Y-84212182D01*
X152070109Y-84040213D01*
X151919786Y-83889890D01*
X151747820Y-83764951D01*
X151644781Y-83712450D01*
X151580245Y-83679567D01*
X151580240Y-83679565D01*
X151558414Y-83668444D01*
X151558413Y-83668443D01*
X151558412Y-83668443D01*
X151461550Y-83636970D01*
X151365074Y-83605623D01*
X151360552Y-83603770D01*
X151351362Y-83601600D01*
X151346599Y-83601226D01*
X151194957Y-83577208D01*
X151175489Y-83574124D01*
X151146290Y-83569500D01*
X151146287Y-83569500D01*
X150933713Y-83569500D01*
X150933709Y-83569500D01*
X150894776Y-83575666D01*
X150885042Y-83577208D01*
X150847654Y-83583129D01*
X150723763Y-83602752D01*
X150521582Y-83668445D01*
X150332182Y-83764949D01*
X150160218Y-83889886D01*
X150059281Y-83990823D01*
X150031024Y-84011975D01*
X150018841Y-84018627D01*
X149950568Y-84033477D01*
X149885104Y-84009058D01*
X149885105Y-84009058D01*
X149883412Y-84007791D01*
X149881414Y-84006295D01*
X149839563Y-83950376D01*
X149834109Y-83935755D01*
X149793797Y-83827671D01*
X149793793Y-83827664D01*
X149707547Y-83712455D01*
X149707544Y-83712452D01*
X149707542Y-83712450D01*
X149638641Y-83660871D01*
X149592335Y-83626206D01*
X149592332Y-83626204D01*
X149592330Y-83626203D01*
X149592328Y-83626202D01*
X149457482Y-83575908D01*
X149457483Y-83575908D01*
X149397883Y-83569501D01*
X149397881Y-83569500D01*
X149397873Y-83569500D01*
X149397864Y-83569500D01*
X149396841Y-83569500D01*
X147602123Y-83569500D01*
X147600192Y-83569659D01*
X147598545Y-83569885D01*
X147542516Y-83575908D01*
X147407666Y-83626204D01*
X147407665Y-83626205D01*
X147292456Y-83712450D01*
X147292450Y-83712456D01*
X147206205Y-83827665D01*
X147206203Y-83827668D01*
X147155907Y-83962516D01*
X147149501Y-84022116D01*
X147149500Y-84022139D01*
X107250000Y-84022139D01*
X107250000Y-82141829D01*
X107255023Y-82106893D01*
X107259427Y-82091895D01*
X107297172Y-82033144D01*
X107298541Y-82031957D01*
X107353420Y-82004477D01*
X107360979Y-82002833D01*
X107387332Y-82000000D01*
X196433170Y-82000000D01*
X196468106Y-82005023D01*
G37*
%TD.AperFunction*%
%TD*%
%TA.AperFunction,Conductor*%
%TO.N,GND*%
G36*
X204247944Y-73000066D02*
G01*
X204251992Y-73000198D01*
X204252243Y-73000280D01*
X204531490Y-73018450D01*
X204539623Y-73019249D01*
X204540742Y-73019396D01*
X204547636Y-73020304D01*
X204555615Y-73021621D01*
X204788812Y-73068007D01*
X204820391Y-73074289D01*
X204828277Y-73076126D01*
X204836132Y-73078231D01*
X204843843Y-73080570D01*
X205099522Y-73167362D01*
X205107078Y-73170205D01*
X205114580Y-73173313D01*
X205121961Y-73176658D01*
X205245007Y-73237337D01*
X205364084Y-73296060D01*
X205371203Y-73299865D01*
X205378257Y-73303937D01*
X205385127Y-73308209D01*
X205609605Y-73458201D01*
X205616165Y-73462902D01*
X205622615Y-73467851D01*
X205628871Y-73472986D01*
X205831830Y-73650977D01*
X205837752Y-73656524D01*
X205843474Y-73662246D01*
X205849021Y-73668168D01*
X206027004Y-73871118D01*
X206032150Y-73877389D01*
X206037091Y-73883828D01*
X206041819Y-73890425D01*
X206191786Y-74114867D01*
X206196065Y-74121748D01*
X206200126Y-74128782D01*
X206203946Y-74135929D01*
X206323338Y-74378032D01*
X206326687Y-74385424D01*
X206329789Y-74392913D01*
X206332647Y-74400507D01*
X206419414Y-74656115D01*
X206421768Y-74663872D01*
X206423866Y-74671700D01*
X206425710Y-74679610D01*
X206478372Y-74944358D01*
X206479694Y-74952366D01*
X206480750Y-74960388D01*
X206481545Y-74968461D01*
X206499601Y-75243937D01*
X206499800Y-75247976D01*
X206499933Y-75252025D01*
X206500000Y-75256096D01*
X206500000Y-130732733D01*
X206499933Y-130736809D01*
X206499800Y-130740853D01*
X206499600Y-130744913D01*
X206481431Y-131021240D01*
X206480629Y-131029351D01*
X206479563Y-131037417D01*
X206478234Y-131045436D01*
X206425244Y-131310977D01*
X206423393Y-131318895D01*
X206421283Y-131326746D01*
X206418910Y-131334542D01*
X206331603Y-131590869D01*
X206328728Y-131598482D01*
X206325609Y-131605986D01*
X206322239Y-131613397D01*
X206202116Y-131856099D01*
X206198262Y-131863282D01*
X206194195Y-131870298D01*
X206189890Y-131877193D01*
X206039023Y-132102077D01*
X206034262Y-132108693D01*
X206029303Y-132115127D01*
X206024132Y-132121399D01*
X205845133Y-132324576D01*
X205839558Y-132330501D01*
X205833795Y-132336236D01*
X205827837Y-132341788D01*
X205623762Y-132519793D01*
X205617446Y-132524946D01*
X205610984Y-132529874D01*
X205604362Y-132534589D01*
X205378746Y-132684333D01*
X205371824Y-132688607D01*
X205364777Y-132692645D01*
X205357581Y-132696460D01*
X205114295Y-132815376D01*
X205106873Y-132818707D01*
X205099364Y-132821785D01*
X205091731Y-132824625D01*
X204834956Y-132910668D01*
X204827146Y-132913002D01*
X204819292Y-132915071D01*
X204811368Y-132916883D01*
X204545562Y-132968559D01*
X204537524Y-132969849D01*
X204529463Y-132970873D01*
X204521360Y-132971634D01*
X204244933Y-132988436D01*
X204240841Y-132988616D01*
X204239835Y-132988644D01*
X204236773Y-132988729D01*
X204232738Y-132988774D01*
X168204813Y-132810419D01*
X105500194Y-132500000D01*
X105500097Y-132500000D01*
X105500000Y-132500000D01*
X105494431Y-132500000D01*
X98756097Y-132500000D01*
X98752026Y-132499933D01*
X98747977Y-132499800D01*
X98743938Y-132499601D01*
X98468461Y-132481545D01*
X98460388Y-132480750D01*
X98452366Y-132479694D01*
X98444358Y-132478372D01*
X98179610Y-132425710D01*
X98171705Y-132423867D01*
X98169389Y-132423246D01*
X98163872Y-132421768D01*
X98156115Y-132419414D01*
X97900507Y-132332647D01*
X97892913Y-132329789D01*
X97885424Y-132326687D01*
X97878032Y-132323338D01*
X97635929Y-132203946D01*
X97628782Y-132200126D01*
X97621748Y-132196065D01*
X97614867Y-132191786D01*
X97390425Y-132041819D01*
X97383828Y-132037091D01*
X97377389Y-132032150D01*
X97371118Y-132027004D01*
X97168168Y-131849021D01*
X97162246Y-131843474D01*
X97156524Y-131837752D01*
X97150977Y-131831830D01*
X96972994Y-131628880D01*
X96967841Y-131622600D01*
X96962894Y-131616152D01*
X96958173Y-131609563D01*
X96808217Y-131385137D01*
X96803937Y-131378257D01*
X96799867Y-131371208D01*
X96796052Y-131364069D01*
X96779590Y-131330688D01*
X96676658Y-131121961D01*
X96673313Y-131114580D01*
X96670206Y-131107078D01*
X96667354Y-131099500D01*
X96640788Y-131021240D01*
X96580580Y-130843870D01*
X96578227Y-130836114D01*
X96576131Y-130828292D01*
X96574291Y-130820403D01*
X96521621Y-130555614D01*
X96520302Y-130547622D01*
X96519249Y-130539623D01*
X96518453Y-130531549D01*
X96500397Y-130256061D01*
X96500198Y-130251991D01*
X96500066Y-130247942D01*
X96500000Y-130243902D01*
X96500000Y-117817676D01*
X110700000Y-117817676D01*
X110700000Y-118022322D01*
X110731722Y-118222603D01*
X110732009Y-118224417D01*
X110795244Y-118419031D01*
X110854944Y-118536198D01*
X110888144Y-118601357D01*
X110888147Y-118601360D01*
X110920517Y-118645914D01*
X110920521Y-118645919D01*
X110920523Y-118645921D01*
X110920524Y-118645922D01*
X111463503Y-118102942D01*
X111524824Y-118069459D01*
X111594515Y-118074443D01*
X111650449Y-118116314D01*
X111658567Y-118128622D01*
X111679920Y-118165606D01*
X111754394Y-118240080D01*
X111754395Y-118240081D01*
X111754397Y-118240082D01*
X111791373Y-118261430D01*
X111839588Y-118311996D01*
X111852812Y-118380603D01*
X111826844Y-118445468D01*
X111817054Y-118456498D01*
X111274075Y-118999473D01*
X111274076Y-118999473D01*
X111274076Y-118999474D01*
X111318650Y-119031859D01*
X111356240Y-119051012D01*
X111500963Y-119124753D01*
X111500965Y-119124753D01*
X111500968Y-119124755D01*
X111695582Y-119187990D01*
X111897683Y-119220000D01*
X112102316Y-119220000D01*
X112102317Y-119220000D01*
X112304417Y-119187990D01*
X112499031Y-119124755D01*
X112512652Y-119117815D01*
X112681347Y-119031860D01*
X112681346Y-119031860D01*
X112681349Y-119031859D01*
X112725921Y-118999474D01*
X112182945Y-118456498D01*
X112149460Y-118395175D01*
X112154444Y-118325483D01*
X112196316Y-118269550D01*
X112208618Y-118261434D01*
X112245606Y-118240080D01*
X112320080Y-118165606D01*
X112341430Y-118128625D01*
X112391995Y-118080411D01*
X112460602Y-118067187D01*
X112525467Y-118093154D01*
X112536498Y-118102945D01*
X113079473Y-118645920D01*
X113079474Y-118645921D01*
X113111859Y-118601349D01*
X113204755Y-118419031D01*
X113267990Y-118224417D01*
X113300000Y-118022317D01*
X113300000Y-117817682D01*
X113298747Y-117809772D01*
X117099500Y-117809772D01*
X117099500Y-118030226D01*
X117133985Y-118247955D01*
X117202094Y-118457579D01*
X117202102Y-118457602D01*
X117202104Y-118457606D01*
X117270122Y-118591096D01*
X117298057Y-118645921D01*
X117298058Y-118645923D01*
X117302184Y-118654020D01*
X117302190Y-118654030D01*
X117374272Y-118753243D01*
X117431752Y-118832358D01*
X117431756Y-118832363D01*
X117431761Y-118832369D01*
X117587627Y-118988235D01*
X117587636Y-118988243D01*
X117587660Y-118988261D01*
X117674030Y-119051012D01*
X117674032Y-119051013D01*
X117674035Y-119051015D01*
X117765978Y-119117815D01*
X117894375Y-119183237D01*
X117962393Y-119217895D01*
X117962396Y-119217896D01*
X118067221Y-119251955D01*
X118172049Y-119286015D01*
X118389778Y-119320500D01*
X118389779Y-119320500D01*
X118610221Y-119320500D01*
X118610222Y-119320500D01*
X118827951Y-119286015D01*
X119037606Y-119217895D01*
X119234022Y-119117815D01*
X119412365Y-118988242D01*
X119568242Y-118832365D01*
X119568244Y-118832361D01*
X119568249Y-118832357D01*
X119644880Y-118726881D01*
X119697815Y-118654022D01*
X119797895Y-118457606D01*
X119866015Y-118247951D01*
X119900500Y-118030222D01*
X119900500Y-117817676D01*
X124200000Y-117817676D01*
X124200000Y-118022322D01*
X124231722Y-118222603D01*
X124232009Y-118224417D01*
X124295244Y-118419031D01*
X124354944Y-118536198D01*
X124388144Y-118601357D01*
X124388147Y-118601360D01*
X124420517Y-118645914D01*
X124420521Y-118645919D01*
X124420523Y-118645921D01*
X124420524Y-118645922D01*
X124963503Y-118102942D01*
X125024824Y-118069459D01*
X125094515Y-118074443D01*
X125150449Y-118116314D01*
X125158567Y-118128622D01*
X125179920Y-118165606D01*
X125254394Y-118240080D01*
X125254395Y-118240081D01*
X125254397Y-118240082D01*
X125291373Y-118261430D01*
X125339588Y-118311996D01*
X125352812Y-118380603D01*
X125326844Y-118445468D01*
X125317054Y-118456498D01*
X124774075Y-118999473D01*
X124774076Y-118999473D01*
X124774076Y-118999474D01*
X124818650Y-119031859D01*
X124856240Y-119051012D01*
X125000963Y-119124753D01*
X125000965Y-119124753D01*
X125000968Y-119124755D01*
X125195582Y-119187990D01*
X125397683Y-119220000D01*
X125602316Y-119220000D01*
X125602317Y-119220000D01*
X125804417Y-119187990D01*
X125999031Y-119124755D01*
X126012652Y-119117815D01*
X126181347Y-119031860D01*
X126181346Y-119031860D01*
X126181349Y-119031859D01*
X126225921Y-118999474D01*
X125682945Y-118456498D01*
X125649460Y-118395175D01*
X125654444Y-118325483D01*
X125696316Y-118269550D01*
X125708618Y-118261434D01*
X125745606Y-118240080D01*
X125820080Y-118165606D01*
X125841430Y-118128625D01*
X125891995Y-118080411D01*
X125960602Y-118067187D01*
X126025467Y-118093154D01*
X126036498Y-118102945D01*
X126579473Y-118645920D01*
X126579474Y-118645921D01*
X126611859Y-118601349D01*
X126704755Y-118419031D01*
X126767990Y-118224417D01*
X126800000Y-118022317D01*
X126800000Y-117817682D01*
X126767989Y-117615581D01*
X126767988Y-117615576D01*
X126765601Y-117608229D01*
X126765599Y-117608225D01*
X126754729Y-117574772D01*
X130599500Y-117574772D01*
X130599500Y-117574778D01*
X130599500Y-117795222D01*
X130603056Y-117817676D01*
X130603057Y-117817679D01*
X130603057Y-117817681D01*
X130633985Y-118012955D01*
X130702094Y-118222579D01*
X130702102Y-118222602D01*
X130702104Y-118222606D01*
X130802187Y-118419026D01*
X130830215Y-118457603D01*
X130931752Y-118597358D01*
X130931756Y-118597363D01*
X130931761Y-118597369D01*
X131087629Y-118753237D01*
X131087633Y-118753240D01*
X131087636Y-118753243D01*
X131087641Y-118753247D01*
X131196529Y-118832358D01*
X131265978Y-118882815D01*
X131394375Y-118948237D01*
X131462393Y-118982895D01*
X131462396Y-118982896D01*
X131567221Y-119016955D01*
X131672049Y-119051015D01*
X131889778Y-119085500D01*
X131889779Y-119085500D01*
X132110221Y-119085500D01*
X132110222Y-119085500D01*
X132327951Y-119051015D01*
X132537606Y-118982895D01*
X132537606Y-118982894D01*
X132537611Y-118982893D01*
X132610687Y-118945658D01*
X132734022Y-118882815D01*
X132759331Y-118864426D01*
X132776578Y-118851897D01*
X132912359Y-118753247D01*
X132912360Y-118753245D01*
X132912415Y-118753206D01*
X132913130Y-118752476D01*
X133068242Y-118597365D01*
X133197815Y-118419022D01*
X133297895Y-118222606D01*
X133366015Y-118012951D01*
X133396944Y-117817676D01*
X137700000Y-117817676D01*
X137700000Y-118022322D01*
X137731722Y-118222603D01*
X137732009Y-118224417D01*
X137795244Y-118419031D01*
X137854944Y-118536198D01*
X137888144Y-118601357D01*
X137888147Y-118601360D01*
X137920517Y-118645914D01*
X137920521Y-118645919D01*
X137920523Y-118645921D01*
X137920524Y-118645922D01*
X138463503Y-118102942D01*
X138524824Y-118069459D01*
X138594515Y-118074443D01*
X138650449Y-118116314D01*
X138658567Y-118128622D01*
X138679920Y-118165606D01*
X138754394Y-118240080D01*
X138754395Y-118240081D01*
X138754397Y-118240082D01*
X138791373Y-118261430D01*
X138839588Y-118311996D01*
X138852812Y-118380603D01*
X138826844Y-118445468D01*
X138817054Y-118456498D01*
X138274075Y-118999473D01*
X138274076Y-118999473D01*
X138274076Y-118999474D01*
X138318650Y-119031859D01*
X138356240Y-119051012D01*
X138500963Y-119124753D01*
X138500965Y-119124753D01*
X138500968Y-119124755D01*
X138695582Y-119187990D01*
X138897683Y-119220000D01*
X139102316Y-119220000D01*
X139102317Y-119220000D01*
X139304417Y-119187990D01*
X139499031Y-119124755D01*
X139512652Y-119117815D01*
X139681347Y-119031860D01*
X139681346Y-119031860D01*
X139681349Y-119031859D01*
X139725921Y-118999474D01*
X139182945Y-118456498D01*
X139149460Y-118395175D01*
X139154444Y-118325483D01*
X139196316Y-118269550D01*
X139208618Y-118261434D01*
X139245606Y-118240080D01*
X139320080Y-118165606D01*
X139341429Y-118128627D01*
X139391994Y-118080413D01*
X139460600Y-118067188D01*
X139525466Y-118093155D01*
X139536497Y-118102946D01*
X140079473Y-118645922D01*
X140079473Y-118645921D01*
X140079474Y-118645922D01*
X140079474Y-118645921D01*
X140092943Y-118640342D01*
X140099159Y-118619174D01*
X140103159Y-118613324D01*
X140111857Y-118601352D01*
X140113887Y-118597369D01*
X140204755Y-118419031D01*
X140267990Y-118224417D01*
X140300000Y-118022317D01*
X140300000Y-117817682D01*
X140267989Y-117615581D01*
X140267988Y-117615576D01*
X140265601Y-117608229D01*
X140265599Y-117608225D01*
X140254729Y-117574772D01*
X144099500Y-117574772D01*
X144099500Y-117574778D01*
X144099500Y-117795222D01*
X144103056Y-117817676D01*
X144103057Y-117817679D01*
X144103057Y-117817681D01*
X144133985Y-118012955D01*
X144202094Y-118222579D01*
X144202102Y-118222602D01*
X144202104Y-118222606D01*
X144302187Y-118419026D01*
X144330215Y-118457603D01*
X144431752Y-118597358D01*
X144431756Y-118597363D01*
X144431761Y-118597369D01*
X144587629Y-118753237D01*
X144587633Y-118753240D01*
X144587636Y-118753243D01*
X144587641Y-118753247D01*
X144696529Y-118832358D01*
X144765978Y-118882815D01*
X144894375Y-118948237D01*
X144962393Y-118982895D01*
X144962396Y-118982896D01*
X145067221Y-119016955D01*
X145172049Y-119051015D01*
X145389778Y-119085500D01*
X145389779Y-119085500D01*
X145610221Y-119085500D01*
X145610222Y-119085500D01*
X145827951Y-119051015D01*
X146037606Y-118982895D01*
X146037606Y-118982894D01*
X146037611Y-118982893D01*
X146110687Y-118945658D01*
X146234022Y-118882815D01*
X146259331Y-118864426D01*
X146276578Y-118851897D01*
X146412359Y-118753247D01*
X146412360Y-118753245D01*
X146412415Y-118753206D01*
X146413130Y-118752476D01*
X146568242Y-118597365D01*
X146697815Y-118419022D01*
X146797895Y-118222606D01*
X146866015Y-118012951D01*
X146896944Y-117817676D01*
X151200000Y-117817676D01*
X151200000Y-118022322D01*
X151231722Y-118222603D01*
X151232009Y-118224417D01*
X151295244Y-118419031D01*
X151354944Y-118536198D01*
X151388144Y-118601357D01*
X151388147Y-118601360D01*
X151420517Y-118645914D01*
X151420521Y-118645919D01*
X151420523Y-118645921D01*
X151420524Y-118645922D01*
X151963503Y-118102942D01*
X152024824Y-118069459D01*
X152094515Y-118074443D01*
X152150449Y-118116314D01*
X152158567Y-118128622D01*
X152179920Y-118165606D01*
X152254394Y-118240080D01*
X152254395Y-118240081D01*
X152254397Y-118240082D01*
X152291373Y-118261430D01*
X152339588Y-118311996D01*
X152352812Y-118380603D01*
X152326844Y-118445468D01*
X152317054Y-118456498D01*
X151774075Y-118999473D01*
X151774076Y-118999473D01*
X151774076Y-118999474D01*
X151818650Y-119031859D01*
X151856240Y-119051012D01*
X152000963Y-119124753D01*
X152000965Y-119124753D01*
X152000968Y-119124755D01*
X152195582Y-119187990D01*
X152397683Y-119220000D01*
X152602316Y-119220000D01*
X152602317Y-119220000D01*
X152804417Y-119187990D01*
X152999031Y-119124755D01*
X153012652Y-119117815D01*
X153181347Y-119031860D01*
X153181346Y-119031860D01*
X153181349Y-119031859D01*
X153225921Y-118999474D01*
X152682945Y-118456498D01*
X152649460Y-118395175D01*
X152654444Y-118325483D01*
X152696316Y-118269550D01*
X152708618Y-118261434D01*
X152745606Y-118240080D01*
X152820080Y-118165606D01*
X152841429Y-118128627D01*
X152891994Y-118080413D01*
X152960600Y-118067188D01*
X153025466Y-118093155D01*
X153036497Y-118102946D01*
X153579473Y-118645922D01*
X153579473Y-118645921D01*
X153579474Y-118645922D01*
X153579474Y-118645921D01*
X153592943Y-118640342D01*
X153599159Y-118619174D01*
X153603159Y-118613324D01*
X153611857Y-118601352D01*
X153613887Y-118597369D01*
X153704755Y-118419031D01*
X153767990Y-118224417D01*
X153800000Y-118022317D01*
X153800000Y-117817682D01*
X153767989Y-117615581D01*
X153767988Y-117615576D01*
X153765601Y-117608229D01*
X153765599Y-117608225D01*
X153754729Y-117574772D01*
X158099500Y-117574772D01*
X158099500Y-117574778D01*
X158099500Y-117795222D01*
X158103056Y-117817676D01*
X158103057Y-117817679D01*
X158103057Y-117817681D01*
X158133985Y-118012955D01*
X158202094Y-118222579D01*
X158202102Y-118222602D01*
X158202104Y-118222606D01*
X158302187Y-118419026D01*
X158330215Y-118457603D01*
X158431752Y-118597358D01*
X158431756Y-118597363D01*
X158431761Y-118597369D01*
X158587629Y-118753237D01*
X158587633Y-118753240D01*
X158587636Y-118753243D01*
X158587641Y-118753247D01*
X158696529Y-118832358D01*
X158765978Y-118882815D01*
X158894375Y-118948237D01*
X158962393Y-118982895D01*
X158962396Y-118982896D01*
X159067221Y-119016955D01*
X159172049Y-119051015D01*
X159389778Y-119085500D01*
X159389779Y-119085500D01*
X159610221Y-119085500D01*
X159610222Y-119085500D01*
X159827951Y-119051015D01*
X160037606Y-118982895D01*
X160037606Y-118982894D01*
X160037611Y-118982893D01*
X160110687Y-118945658D01*
X160234022Y-118882815D01*
X160259331Y-118864426D01*
X160276578Y-118851897D01*
X160412359Y-118753247D01*
X160412360Y-118753245D01*
X160412415Y-118753206D01*
X160413130Y-118752476D01*
X160568242Y-118597365D01*
X160697815Y-118419022D01*
X160797895Y-118222606D01*
X160866015Y-118012951D01*
X160896944Y-117817676D01*
X164700000Y-117817676D01*
X164700000Y-118022322D01*
X164731722Y-118222603D01*
X164732009Y-118224417D01*
X164795244Y-118419031D01*
X164854944Y-118536198D01*
X164888144Y-118601357D01*
X164888147Y-118601360D01*
X164920517Y-118645914D01*
X164920521Y-118645919D01*
X164920523Y-118645921D01*
X164920524Y-118645922D01*
X165463503Y-118102942D01*
X165524824Y-118069459D01*
X165594515Y-118074443D01*
X165650449Y-118116314D01*
X165658567Y-118128622D01*
X165679920Y-118165606D01*
X165754394Y-118240080D01*
X165754395Y-118240081D01*
X165754397Y-118240082D01*
X165791373Y-118261430D01*
X165839588Y-118311996D01*
X165852812Y-118380603D01*
X165826844Y-118445468D01*
X165817054Y-118456498D01*
X165274075Y-118999473D01*
X165274076Y-118999473D01*
X165274076Y-118999474D01*
X165318650Y-119031859D01*
X165356240Y-119051012D01*
X165500963Y-119124753D01*
X165500965Y-119124753D01*
X165500968Y-119124755D01*
X165695582Y-119187990D01*
X165897683Y-119220000D01*
X166102316Y-119220000D01*
X166102317Y-119220000D01*
X166304417Y-119187990D01*
X166499031Y-119124755D01*
X166512652Y-119117815D01*
X166681347Y-119031860D01*
X166681346Y-119031860D01*
X166681349Y-119031859D01*
X166725921Y-118999474D01*
X166182945Y-118456498D01*
X166149460Y-118395175D01*
X166154444Y-118325483D01*
X166196316Y-118269550D01*
X166208618Y-118261434D01*
X166245606Y-118240080D01*
X166320080Y-118165606D01*
X166341430Y-118128625D01*
X166391995Y-118080411D01*
X166460602Y-118067187D01*
X166525467Y-118093154D01*
X166536498Y-118102945D01*
X167079473Y-118645920D01*
X167079474Y-118645921D01*
X167111859Y-118601349D01*
X167204755Y-118419031D01*
X167267990Y-118224417D01*
X167300000Y-118022317D01*
X167300000Y-117817682D01*
X167267989Y-117615581D01*
X167267988Y-117615576D01*
X167265601Y-117608229D01*
X167265599Y-117608225D01*
X167254729Y-117574772D01*
X171599500Y-117574772D01*
X171599500Y-117574778D01*
X171599500Y-117795222D01*
X171603056Y-117817676D01*
X171603057Y-117817679D01*
X171603057Y-117817681D01*
X171633985Y-118012955D01*
X171702094Y-118222579D01*
X171702102Y-118222602D01*
X171702104Y-118222606D01*
X171802187Y-118419026D01*
X171830215Y-118457603D01*
X171931752Y-118597358D01*
X171931756Y-118597363D01*
X171931761Y-118597369D01*
X172087629Y-118753237D01*
X172087633Y-118753240D01*
X172087636Y-118753243D01*
X172087641Y-118753247D01*
X172196529Y-118832358D01*
X172265978Y-118882815D01*
X172394375Y-118948237D01*
X172462393Y-118982895D01*
X172462396Y-118982896D01*
X172567221Y-119016955D01*
X172672049Y-119051015D01*
X172889778Y-119085500D01*
X172889779Y-119085500D01*
X173110221Y-119085500D01*
X173110222Y-119085500D01*
X173327951Y-119051015D01*
X173537606Y-118982895D01*
X173537606Y-118982894D01*
X173537611Y-118982893D01*
X173610687Y-118945658D01*
X173734022Y-118882815D01*
X173759331Y-118864426D01*
X173776578Y-118851897D01*
X173912359Y-118753247D01*
X173912360Y-118753245D01*
X173912415Y-118753206D01*
X173913130Y-118752476D01*
X174068242Y-118597365D01*
X174197815Y-118419022D01*
X174297895Y-118222606D01*
X174366015Y-118012951D01*
X174396944Y-117817676D01*
X178200000Y-117817676D01*
X178200000Y-118022322D01*
X178231722Y-118222603D01*
X178232009Y-118224417D01*
X178295244Y-118419031D01*
X178354944Y-118536198D01*
X178388144Y-118601357D01*
X178388147Y-118601360D01*
X178420517Y-118645914D01*
X178420521Y-118645919D01*
X178420523Y-118645921D01*
X178420524Y-118645922D01*
X178963503Y-118102942D01*
X179024824Y-118069459D01*
X179094515Y-118074443D01*
X179150449Y-118116314D01*
X179158567Y-118128622D01*
X179179920Y-118165606D01*
X179254394Y-118240080D01*
X179254395Y-118240081D01*
X179254397Y-118240082D01*
X179291373Y-118261430D01*
X179339588Y-118311996D01*
X179352812Y-118380603D01*
X179326844Y-118445468D01*
X179317054Y-118456498D01*
X178774075Y-118999473D01*
X178774076Y-118999473D01*
X178774076Y-118999474D01*
X178818650Y-119031859D01*
X178856240Y-119051012D01*
X179000963Y-119124753D01*
X179000965Y-119124753D01*
X179000968Y-119124755D01*
X179195582Y-119187990D01*
X179397683Y-119220000D01*
X179602316Y-119220000D01*
X179602317Y-119220000D01*
X179804417Y-119187990D01*
X179999031Y-119124755D01*
X180181349Y-119031859D01*
X180225922Y-118999474D01*
X179682944Y-118456497D01*
X179649460Y-118395175D01*
X179654444Y-118325484D01*
X179696315Y-118269550D01*
X179708618Y-118261434D01*
X179745606Y-118240080D01*
X179820080Y-118165606D01*
X179841430Y-118128625D01*
X179891995Y-118080411D01*
X179960602Y-118067187D01*
X180025467Y-118093154D01*
X180036498Y-118102945D01*
X180579473Y-118645920D01*
X180579474Y-118645921D01*
X180611859Y-118601349D01*
X180704755Y-118419031D01*
X180767990Y-118224417D01*
X180800000Y-118022317D01*
X180800000Y-117817682D01*
X180767989Y-117615581D01*
X180767988Y-117615576D01*
X180765601Y-117608229D01*
X180765599Y-117608225D01*
X180754729Y-117574772D01*
X185099500Y-117574772D01*
X185099500Y-117574778D01*
X185099500Y-117795222D01*
X185103056Y-117817676D01*
X185103057Y-117817679D01*
X185103057Y-117817681D01*
X185133985Y-118012955D01*
X185202094Y-118222579D01*
X185202102Y-118222602D01*
X185202104Y-118222606D01*
X185302187Y-118419026D01*
X185330215Y-118457603D01*
X185431752Y-118597358D01*
X185431756Y-118597363D01*
X185431761Y-118597369D01*
X185587629Y-118753237D01*
X185587633Y-118753240D01*
X185587636Y-118753243D01*
X185587641Y-118753247D01*
X185696529Y-118832358D01*
X185765978Y-118882815D01*
X185894375Y-118948237D01*
X185962393Y-118982895D01*
X185962396Y-118982896D01*
X186067221Y-119016955D01*
X186172049Y-119051015D01*
X186389778Y-119085500D01*
X186389779Y-119085500D01*
X186610221Y-119085500D01*
X186610222Y-119085500D01*
X186827951Y-119051015D01*
X187037606Y-118982895D01*
X187037606Y-118982894D01*
X187037611Y-118982893D01*
X187110687Y-118945658D01*
X187234022Y-118882815D01*
X187259331Y-118864426D01*
X187276578Y-118851897D01*
X187412359Y-118753247D01*
X187412360Y-118753245D01*
X187412415Y-118753206D01*
X187413130Y-118752476D01*
X187568242Y-118597365D01*
X187697815Y-118419022D01*
X187797895Y-118222606D01*
X187866015Y-118012951D01*
X187896944Y-117817676D01*
X191700000Y-117817676D01*
X191700000Y-118022322D01*
X191731722Y-118222603D01*
X191732009Y-118224417D01*
X191795244Y-118419031D01*
X191854944Y-118536198D01*
X191888144Y-118601357D01*
X191888147Y-118601360D01*
X191920517Y-118645914D01*
X191920521Y-118645919D01*
X191920523Y-118645921D01*
X191920524Y-118645922D01*
X192463503Y-118102942D01*
X192524824Y-118069459D01*
X192594515Y-118074443D01*
X192650449Y-118116314D01*
X192658567Y-118128622D01*
X192679920Y-118165606D01*
X192754394Y-118240080D01*
X192754395Y-118240081D01*
X192754397Y-118240082D01*
X192791373Y-118261430D01*
X192839588Y-118311996D01*
X192852812Y-118380603D01*
X192826844Y-118445468D01*
X192817054Y-118456498D01*
X192274075Y-118999473D01*
X192274076Y-118999473D01*
X192274076Y-118999474D01*
X192318650Y-119031859D01*
X192356240Y-119051012D01*
X192500963Y-119124753D01*
X192500965Y-119124753D01*
X192500968Y-119124755D01*
X192695582Y-119187990D01*
X192897683Y-119220000D01*
X193102316Y-119220000D01*
X193102317Y-119220000D01*
X193304417Y-119187990D01*
X193499031Y-119124755D01*
X193512652Y-119117815D01*
X193681347Y-119031860D01*
X193681346Y-119031860D01*
X193681349Y-119031859D01*
X193725921Y-118999474D01*
X193182945Y-118456498D01*
X193149460Y-118395175D01*
X193154444Y-118325483D01*
X193196316Y-118269550D01*
X193208618Y-118261434D01*
X193245606Y-118240080D01*
X193320080Y-118165606D01*
X193341430Y-118128625D01*
X193391995Y-118080411D01*
X193460602Y-118067187D01*
X193525467Y-118093154D01*
X193536498Y-118102945D01*
X194079473Y-118645920D01*
X194079474Y-118645921D01*
X194111859Y-118601349D01*
X194204755Y-118419031D01*
X194267990Y-118224417D01*
X194300000Y-118022317D01*
X194300000Y-117817682D01*
X194267990Y-117615582D01*
X194204755Y-117420968D01*
X194204753Y-117420965D01*
X194204753Y-117420963D01*
X194111859Y-117238650D01*
X194103156Y-117226672D01*
X194093615Y-117199933D01*
X194079473Y-117194075D01*
X193536497Y-117737053D01*
X193475174Y-117770538D01*
X193405483Y-117765554D01*
X193349549Y-117723683D01*
X193341430Y-117711374D01*
X193320080Y-117674394D01*
X193245606Y-117599920D01*
X193208625Y-117578569D01*
X193160410Y-117528003D01*
X193147186Y-117459396D01*
X193173154Y-117394531D01*
X193182936Y-117383509D01*
X193725922Y-116840524D01*
X193725921Y-116840523D01*
X193725920Y-116840522D01*
X193725919Y-116840521D01*
X193725914Y-116840517D01*
X193681360Y-116808147D01*
X193681357Y-116808144D01*
X193594521Y-116763899D01*
X193499031Y-116715244D01*
X193304417Y-116652009D01*
X193304411Y-116652008D01*
X193102322Y-116620000D01*
X193102317Y-116620000D01*
X192897683Y-116620000D01*
X192897678Y-116620000D01*
X192695587Y-116652008D01*
X192695585Y-116652008D01*
X192695582Y-116652009D01*
X192598275Y-116683626D01*
X192500963Y-116715245D01*
X192318640Y-116808145D01*
X192274077Y-116840522D01*
X192274077Y-116840523D01*
X192274077Y-116840524D01*
X192580951Y-117147398D01*
X192817055Y-117383501D01*
X192850540Y-117444824D01*
X192845556Y-117514515D01*
X192803685Y-117570449D01*
X192791374Y-117578569D01*
X192754397Y-117599917D01*
X192754392Y-117599921D01*
X192679921Y-117674392D01*
X192679915Y-117674400D01*
X192658568Y-117711374D01*
X192608001Y-117759589D01*
X192539393Y-117772811D01*
X192474529Y-117746843D01*
X192463501Y-117737054D01*
X191920524Y-117194077D01*
X191920523Y-117194077D01*
X191920522Y-117194077D01*
X191888145Y-117238640D01*
X191795245Y-117420963D01*
X191764848Y-117514515D01*
X191732009Y-117615582D01*
X191732008Y-117615585D01*
X191732008Y-117615587D01*
X191700000Y-117817676D01*
X187896944Y-117817676D01*
X187900500Y-117795222D01*
X187900500Y-117574778D01*
X187866015Y-117357049D01*
X187827545Y-117238650D01*
X187797896Y-117147396D01*
X187797895Y-117147393D01*
X187763237Y-117079375D01*
X187697815Y-116950978D01*
X187617566Y-116840524D01*
X187568247Y-116772641D01*
X187568243Y-116772636D01*
X187526178Y-116730571D01*
X187522471Y-116726095D01*
X187520594Y-116721731D01*
X187509137Y-116706426D01*
X187502486Y-116694245D01*
X187496048Y-116664651D01*
X187494869Y-116661908D01*
X187495121Y-116660390D01*
X187487635Y-116625971D01*
X187512051Y-116560511D01*
X187514805Y-116556833D01*
X187570733Y-116514967D01*
X187642086Y-116488354D01*
X187642093Y-116488350D01*
X187757187Y-116402190D01*
X187757190Y-116402187D01*
X187843350Y-116287093D01*
X187843354Y-116287086D01*
X187893596Y-116152379D01*
X187893598Y-116152372D01*
X187896356Y-116126722D01*
X187899998Y-116092860D01*
X187900000Y-116092827D01*
X187900000Y-115395000D01*
X187060487Y-115395000D01*
X186993448Y-115375315D01*
X186947693Y-115322511D01*
X186937749Y-115253353D01*
X186940712Y-115238907D01*
X186944564Y-115224530D01*
X186950000Y-115204244D01*
X186950000Y-115085756D01*
X186940712Y-115051092D01*
X186942375Y-114981243D01*
X186981538Y-114923381D01*
X187045767Y-114895877D01*
X187060487Y-114895000D01*
X187900000Y-114895000D01*
X187900000Y-114817642D01*
X191699500Y-114817642D01*
X191699500Y-115022356D01*
X191731521Y-115224530D01*
X191731522Y-115224534D01*
X191794781Y-115419223D01*
X191858691Y-115544653D01*
X191868719Y-115564333D01*
X191887715Y-115601613D01*
X192008028Y-115767213D01*
X192152786Y-115911971D01*
X192307749Y-116024556D01*
X192318390Y-116032287D01*
X192434607Y-116091503D01*
X192495154Y-116122353D01*
X192496043Y-116122824D01*
X192496249Y-116123025D01*
X192499629Y-116124662D01*
X192501637Y-116125659D01*
X192505403Y-116126722D01*
X192584346Y-116152372D01*
X192695465Y-116188477D01*
X192796557Y-116204488D01*
X192897648Y-116220500D01*
X192897649Y-116220500D01*
X193102351Y-116220500D01*
X193102352Y-116220500D01*
X193304534Y-116188477D01*
X193499219Y-116125220D01*
X193681610Y-116032287D01*
X193774590Y-115964732D01*
X193847213Y-115911971D01*
X193847213Y-115911969D01*
X193847272Y-115911927D01*
X193848031Y-115911153D01*
X193991966Y-115767219D01*
X193991968Y-115767215D01*
X193991971Y-115767213D01*
X194072548Y-115656306D01*
X194112287Y-115601610D01*
X194205220Y-115419219D01*
X194268477Y-115224534D01*
X194300500Y-115022352D01*
X194300500Y-114817648D01*
X194268477Y-114615466D01*
X194268476Y-114615462D01*
X194268476Y-114615461D01*
X194207833Y-114428823D01*
X194205220Y-114420781D01*
X194205218Y-114420778D01*
X194205218Y-114420776D01*
X194202977Y-114416378D01*
X194202667Y-114415583D01*
X194201932Y-114414327D01*
X194201931Y-114414326D01*
X194171503Y-114354607D01*
X194112287Y-114238390D01*
X194082341Y-114197172D01*
X194039080Y-114137627D01*
X193991972Y-114072787D01*
X193847211Y-113928026D01*
X193692202Y-113815408D01*
X193692199Y-113815406D01*
X193681613Y-113807715D01*
X193681612Y-113807714D01*
X193681610Y-113807713D01*
X193675535Y-113804617D01*
X193675531Y-113804615D01*
X193571096Y-113751403D01*
X193571096Y-113751402D01*
X193571094Y-113751402D01*
X193499228Y-113714783D01*
X193499221Y-113714780D01*
X193394316Y-113680694D01*
X193304534Y-113651522D01*
X193304532Y-113651521D01*
X193304530Y-113651521D01*
X193304529Y-113651520D01*
X193129995Y-113623878D01*
X193113409Y-113621251D01*
X193102354Y-113619500D01*
X193102352Y-113619500D01*
X192897648Y-113619500D01*
X192897647Y-113619500D01*
X192873327Y-113623351D01*
X192873326Y-113623350D01*
X192695468Y-113651521D01*
X192500777Y-113714780D01*
X192500764Y-113714786D01*
X192318397Y-113807708D01*
X192318385Y-113807715D01*
X192152787Y-113928027D01*
X192152784Y-113928029D01*
X192008029Y-114072784D01*
X192008027Y-114072787D01*
X191887715Y-114238385D01*
X191887708Y-114238397D01*
X191794786Y-114420764D01*
X191794780Y-114420777D01*
X191731521Y-114615468D01*
X191699500Y-114817642D01*
X187900000Y-114817642D01*
X187900000Y-114197172D01*
X187899998Y-114197138D01*
X187893598Y-114137628D01*
X187893596Y-114137621D01*
X187888073Y-114122812D01*
X187843354Y-114002913D01*
X187843350Y-114002906D01*
X187757190Y-113887812D01*
X187757187Y-113887809D01*
X187757185Y-113887807D01*
X187699317Y-113844487D01*
X187642093Y-113801649D01*
X187642088Y-113801646D01*
X187642089Y-113801646D01*
X187507377Y-113751402D01*
X187507370Y-113751400D01*
X187447852Y-113745000D01*
X187447844Y-113745000D01*
X186750000Y-113745000D01*
X186750000Y-114584513D01*
X186730315Y-114651552D01*
X186677511Y-114697307D01*
X186608353Y-114707251D01*
X186593907Y-114704288D01*
X186559244Y-114695000D01*
X186559243Y-114695000D01*
X186440756Y-114695000D01*
X186406093Y-114704288D01*
X186336243Y-114702625D01*
X186278381Y-114663462D01*
X186250877Y-114599233D01*
X186250000Y-114584513D01*
X186250000Y-113745000D01*
X185552155Y-113745000D01*
X185552146Y-113745000D01*
X185492628Y-113751400D01*
X185492621Y-113751402D01*
X185357910Y-113801646D01*
X185357907Y-113801648D01*
X185242813Y-113887807D01*
X185242807Y-113887813D01*
X185156648Y-114002907D01*
X185156646Y-114002910D01*
X185106402Y-114137621D01*
X185106400Y-114137628D01*
X185100000Y-114197146D01*
X185100000Y-114197155D01*
X185100000Y-114895000D01*
X185939513Y-114895000D01*
X186006552Y-114914685D01*
X186052307Y-114967489D01*
X186062251Y-115036647D01*
X186059288Y-115051093D01*
X186050000Y-115085756D01*
X186050000Y-115204243D01*
X186059288Y-115238907D01*
X186057625Y-115308757D01*
X186018462Y-115366619D01*
X185954233Y-115394123D01*
X185939513Y-115395000D01*
X185100000Y-115395000D01*
X185100000Y-116092852D01*
X185106400Y-116152370D01*
X185106402Y-116152377D01*
X185125837Y-116204486D01*
X185156645Y-116287086D01*
X185156649Y-116287093D01*
X185199487Y-116344317D01*
X185242807Y-116402185D01*
X185242809Y-116402187D01*
X185242812Y-116402190D01*
X185357906Y-116488350D01*
X185357913Y-116488354D01*
X185421265Y-116511983D01*
X185452242Y-116528899D01*
X185463353Y-116537217D01*
X185505223Y-116593151D01*
X185510206Y-116662840D01*
X185509231Y-116667322D01*
X185475746Y-116728645D01*
X185431763Y-116772627D01*
X185431761Y-116772629D01*
X185431739Y-116772658D01*
X185302187Y-116950972D01*
X185202105Y-117147391D01*
X185202101Y-117147398D01*
X185133985Y-117357043D01*
X185129970Y-117382396D01*
X185099500Y-117574772D01*
X180754729Y-117574772D01*
X180704754Y-117420968D01*
X180704752Y-117420965D01*
X180704752Y-117420963D01*
X180611859Y-117238650D01*
X180603156Y-117226672D01*
X180593615Y-117199933D01*
X180579473Y-117194075D01*
X180036497Y-117737053D01*
X179975174Y-117770538D01*
X179905483Y-117765554D01*
X179849549Y-117723683D01*
X179841430Y-117711374D01*
X179820080Y-117674394D01*
X179745606Y-117599920D01*
X179708625Y-117578569D01*
X179660410Y-117528003D01*
X179647186Y-117459396D01*
X179673154Y-117394531D01*
X179682936Y-117383509D01*
X180225922Y-116840524D01*
X180225921Y-116840523D01*
X180225920Y-116840522D01*
X180225919Y-116840521D01*
X180225914Y-116840517D01*
X180181360Y-116808147D01*
X180181357Y-116808144D01*
X180094521Y-116763899D01*
X179999031Y-116715244D01*
X179804417Y-116652009D01*
X179804411Y-116652008D01*
X179602322Y-116620000D01*
X179602317Y-116620000D01*
X179397683Y-116620000D01*
X179397678Y-116620000D01*
X179195587Y-116652008D01*
X179195585Y-116652008D01*
X179195582Y-116652009D01*
X179098275Y-116683626D01*
X179000963Y-116715245D01*
X178818640Y-116808145D01*
X178774077Y-116840522D01*
X178774077Y-116840523D01*
X178774077Y-116840524D01*
X179080951Y-117147398D01*
X179317055Y-117383501D01*
X179350540Y-117444824D01*
X179345556Y-117514515D01*
X179303685Y-117570449D01*
X179291374Y-117578569D01*
X179254397Y-117599917D01*
X179254392Y-117599921D01*
X179179921Y-117674392D01*
X179179915Y-117674400D01*
X179158568Y-117711374D01*
X179108001Y-117759589D01*
X179039393Y-117772811D01*
X178974529Y-117746843D01*
X178963501Y-117737054D01*
X178420524Y-117194077D01*
X178420523Y-117194077D01*
X178420522Y-117194077D01*
X178388145Y-117238640D01*
X178295245Y-117420963D01*
X178264848Y-117514515D01*
X178232009Y-117615582D01*
X178232008Y-117615585D01*
X178232008Y-117615587D01*
X178200000Y-117817676D01*
X174396944Y-117817676D01*
X174400500Y-117795222D01*
X174400500Y-117574778D01*
X174366015Y-117357049D01*
X174327545Y-117238650D01*
X174297896Y-117147396D01*
X174297895Y-117147393D01*
X174263237Y-117079375D01*
X174197815Y-116950978D01*
X174117566Y-116840524D01*
X174068247Y-116772641D01*
X174068243Y-116772636D01*
X174026178Y-116730571D01*
X174022471Y-116726095D01*
X174020594Y-116721731D01*
X174009137Y-116706426D01*
X174002486Y-116694245D01*
X173996048Y-116664651D01*
X173994869Y-116661908D01*
X173995121Y-116660390D01*
X173987635Y-116625971D01*
X174012051Y-116560511D01*
X174014805Y-116556833D01*
X174070733Y-116514967D01*
X174142086Y-116488354D01*
X174142093Y-116488350D01*
X174257187Y-116402190D01*
X174257190Y-116402187D01*
X174343350Y-116287093D01*
X174343354Y-116287086D01*
X174393596Y-116152379D01*
X174393598Y-116152372D01*
X174396356Y-116126722D01*
X174399998Y-116092860D01*
X174400000Y-116092827D01*
X174400000Y-115395000D01*
X173560487Y-115395000D01*
X173493448Y-115375315D01*
X173447693Y-115322511D01*
X173437749Y-115253353D01*
X173440712Y-115238907D01*
X173444564Y-115224530D01*
X173450000Y-115204244D01*
X173450000Y-115085756D01*
X173440712Y-115051092D01*
X173442375Y-114981243D01*
X173481538Y-114923381D01*
X173545767Y-114895877D01*
X173560487Y-114895000D01*
X174400000Y-114895000D01*
X174400000Y-114817642D01*
X178199500Y-114817642D01*
X178199500Y-115022356D01*
X178231521Y-115224530D01*
X178231522Y-115224534D01*
X178294781Y-115419223D01*
X178358691Y-115544653D01*
X178368719Y-115564333D01*
X178387715Y-115601613D01*
X178508028Y-115767213D01*
X178652786Y-115911971D01*
X178807749Y-116024556D01*
X178818390Y-116032287D01*
X178934607Y-116091503D01*
X178995154Y-116122353D01*
X178996043Y-116122824D01*
X178996249Y-116123025D01*
X178999629Y-116124662D01*
X179001637Y-116125659D01*
X179005403Y-116126722D01*
X179084346Y-116152372D01*
X179195465Y-116188477D01*
X179296557Y-116204488D01*
X179397648Y-116220500D01*
X179397649Y-116220500D01*
X179602351Y-116220500D01*
X179602352Y-116220500D01*
X179804534Y-116188477D01*
X179999219Y-116125220D01*
X180181610Y-116032287D01*
X180274590Y-115964732D01*
X180347213Y-115911971D01*
X180347213Y-115911969D01*
X180347272Y-115911927D01*
X180348031Y-115911153D01*
X180491966Y-115767219D01*
X180491968Y-115767215D01*
X180491971Y-115767213D01*
X180572548Y-115656306D01*
X180612287Y-115601610D01*
X180705220Y-115419219D01*
X180768477Y-115224534D01*
X180800500Y-115022352D01*
X180800500Y-114817648D01*
X180768477Y-114615466D01*
X180768476Y-114615462D01*
X180768476Y-114615461D01*
X180707832Y-114428819D01*
X180707830Y-114428814D01*
X180705220Y-114420781D01*
X180705218Y-114420778D01*
X180705218Y-114420776D01*
X180702979Y-114416382D01*
X180702669Y-114415587D01*
X180701932Y-114414327D01*
X180618277Y-114250146D01*
X180618276Y-114250144D01*
X180612286Y-114238388D01*
X180491971Y-114072786D01*
X180347213Y-113928028D01*
X180347212Y-113928027D01*
X180347211Y-113928026D01*
X180192202Y-113815408D01*
X180192199Y-113815406D01*
X180181613Y-113807715D01*
X180181612Y-113807714D01*
X180181610Y-113807713D01*
X180175535Y-113804617D01*
X180175531Y-113804615D01*
X180071096Y-113751403D01*
X180071096Y-113751402D01*
X180071094Y-113751402D01*
X179999228Y-113714783D01*
X179999221Y-113714780D01*
X179894316Y-113680694D01*
X179804534Y-113651522D01*
X179804532Y-113651521D01*
X179804530Y-113651521D01*
X179804529Y-113651520D01*
X179629995Y-113623878D01*
X179613409Y-113621251D01*
X179602354Y-113619500D01*
X179602352Y-113619500D01*
X179397648Y-113619500D01*
X179397647Y-113619500D01*
X179373327Y-113623351D01*
X179373326Y-113623350D01*
X179195468Y-113651521D01*
X179000777Y-113714780D01*
X179000764Y-113714786D01*
X178818397Y-113807708D01*
X178818385Y-113807715D01*
X178652787Y-113928027D01*
X178652784Y-113928029D01*
X178508029Y-114072784D01*
X178508027Y-114072787D01*
X178387715Y-114238385D01*
X178387708Y-114238397D01*
X178294786Y-114420764D01*
X178294780Y-114420777D01*
X178231521Y-114615468D01*
X178199500Y-114817642D01*
X174400000Y-114817642D01*
X174400000Y-114197172D01*
X174399998Y-114197138D01*
X174393598Y-114137628D01*
X174393596Y-114137621D01*
X174388073Y-114122812D01*
X174343354Y-114002913D01*
X174343350Y-114002906D01*
X174257190Y-113887812D01*
X174257187Y-113887809D01*
X174257185Y-113887807D01*
X174199317Y-113844487D01*
X174142093Y-113801649D01*
X174142088Y-113801646D01*
X174142089Y-113801646D01*
X174007377Y-113751402D01*
X174007370Y-113751400D01*
X173947852Y-113745000D01*
X173947844Y-113745000D01*
X173250000Y-113745000D01*
X173250000Y-114584513D01*
X173230315Y-114651552D01*
X173177511Y-114697307D01*
X173108353Y-114707251D01*
X173093907Y-114704288D01*
X173059244Y-114695000D01*
X173059243Y-114695000D01*
X172940756Y-114695000D01*
X172906093Y-114704288D01*
X172836243Y-114702625D01*
X172778381Y-114663462D01*
X172750877Y-114599233D01*
X172750000Y-114584513D01*
X172750000Y-113745000D01*
X172052155Y-113745000D01*
X172052146Y-113745000D01*
X171992628Y-113751400D01*
X171992621Y-113751402D01*
X171857910Y-113801646D01*
X171857907Y-113801648D01*
X171742813Y-113887807D01*
X171742807Y-113887813D01*
X171656648Y-114002907D01*
X171656646Y-114002910D01*
X171606402Y-114137621D01*
X171606400Y-114137628D01*
X171600000Y-114197146D01*
X171600000Y-114197155D01*
X171600000Y-114895000D01*
X172439513Y-114895000D01*
X172506552Y-114914685D01*
X172552307Y-114967489D01*
X172562251Y-115036647D01*
X172559288Y-115051093D01*
X172550000Y-115085756D01*
X172550000Y-115204243D01*
X172559288Y-115238907D01*
X172557625Y-115308757D01*
X172518462Y-115366619D01*
X172454233Y-115394123D01*
X172439513Y-115395000D01*
X171600000Y-115395000D01*
X171600000Y-116092852D01*
X171606400Y-116152370D01*
X171606402Y-116152377D01*
X171625837Y-116204486D01*
X171656645Y-116287086D01*
X171656649Y-116287093D01*
X171699487Y-116344317D01*
X171742807Y-116402185D01*
X171742809Y-116402187D01*
X171742812Y-116402190D01*
X171857906Y-116488350D01*
X171857913Y-116488354D01*
X171921265Y-116511983D01*
X171952242Y-116528899D01*
X171963353Y-116537217D01*
X172005223Y-116593151D01*
X172010206Y-116662840D01*
X172009231Y-116667322D01*
X171975746Y-116728645D01*
X171931763Y-116772627D01*
X171931761Y-116772629D01*
X171931739Y-116772658D01*
X171802187Y-116950972D01*
X171702105Y-117147391D01*
X171702101Y-117147398D01*
X171633985Y-117357043D01*
X171629970Y-117382396D01*
X171599500Y-117574772D01*
X167254729Y-117574772D01*
X167204754Y-117420968D01*
X167204752Y-117420965D01*
X167204752Y-117420963D01*
X167111859Y-117238650D01*
X167103156Y-117226672D01*
X167093615Y-117199933D01*
X167079473Y-117194075D01*
X166536497Y-117737053D01*
X166475174Y-117770538D01*
X166405483Y-117765554D01*
X166349549Y-117723683D01*
X166341430Y-117711374D01*
X166320080Y-117674394D01*
X166245606Y-117599920D01*
X166208625Y-117578569D01*
X166160410Y-117528003D01*
X166147186Y-117459396D01*
X166173154Y-117394531D01*
X166182936Y-117383509D01*
X166725922Y-116840524D01*
X166725921Y-116840523D01*
X166725920Y-116840522D01*
X166725919Y-116840521D01*
X166725914Y-116840517D01*
X166681360Y-116808147D01*
X166681357Y-116808144D01*
X166594521Y-116763899D01*
X166499031Y-116715244D01*
X166304417Y-116652009D01*
X166304411Y-116652008D01*
X166102322Y-116620000D01*
X166102317Y-116620000D01*
X165897683Y-116620000D01*
X165897678Y-116620000D01*
X165695587Y-116652008D01*
X165695585Y-116652008D01*
X165695582Y-116652009D01*
X165598275Y-116683626D01*
X165500963Y-116715245D01*
X165318640Y-116808145D01*
X165274077Y-116840522D01*
X165274077Y-116840523D01*
X165274077Y-116840524D01*
X165580951Y-117147398D01*
X165817055Y-117383501D01*
X165850540Y-117444824D01*
X165845556Y-117514515D01*
X165803685Y-117570449D01*
X165791374Y-117578569D01*
X165754397Y-117599917D01*
X165754392Y-117599921D01*
X165679921Y-117674392D01*
X165679915Y-117674400D01*
X165658568Y-117711374D01*
X165608001Y-117759589D01*
X165539393Y-117772811D01*
X165474529Y-117746843D01*
X165463501Y-117737054D01*
X164920524Y-117194077D01*
X164920523Y-117194077D01*
X164920522Y-117194077D01*
X164888145Y-117238640D01*
X164795245Y-117420963D01*
X164764848Y-117514515D01*
X164732009Y-117615582D01*
X164732008Y-117615585D01*
X164732008Y-117615587D01*
X164700000Y-117817676D01*
X160896944Y-117817676D01*
X160900500Y-117795222D01*
X160900500Y-117574778D01*
X160866015Y-117357049D01*
X160827545Y-117238650D01*
X160797896Y-117147396D01*
X160797895Y-117147393D01*
X160763237Y-117079375D01*
X160697815Y-116950978D01*
X160617566Y-116840524D01*
X160568247Y-116772641D01*
X160568243Y-116772636D01*
X160526178Y-116730571D01*
X160522471Y-116726095D01*
X160520594Y-116721731D01*
X160509137Y-116706426D01*
X160502486Y-116694245D01*
X160496048Y-116664651D01*
X160494869Y-116661908D01*
X160495121Y-116660390D01*
X160487635Y-116625971D01*
X160512051Y-116560511D01*
X160514805Y-116556833D01*
X160570733Y-116514967D01*
X160642086Y-116488354D01*
X160642093Y-116488350D01*
X160757187Y-116402190D01*
X160757190Y-116402187D01*
X160843350Y-116287093D01*
X160843354Y-116287086D01*
X160893596Y-116152379D01*
X160893598Y-116152372D01*
X160896356Y-116126722D01*
X160899998Y-116092860D01*
X160900000Y-116092827D01*
X160900000Y-115395000D01*
X160060487Y-115395000D01*
X159993448Y-115375315D01*
X159947693Y-115322511D01*
X159937749Y-115253353D01*
X159940712Y-115238907D01*
X159944564Y-115224530D01*
X159950000Y-115204244D01*
X159950000Y-115085756D01*
X159940712Y-115051092D01*
X159942375Y-114981243D01*
X159981538Y-114923381D01*
X160045767Y-114895877D01*
X160060487Y-114895000D01*
X160900000Y-114895000D01*
X160900000Y-114817642D01*
X164699500Y-114817642D01*
X164699500Y-115022356D01*
X164731521Y-115224530D01*
X164731522Y-115224534D01*
X164794781Y-115419223D01*
X164858691Y-115544653D01*
X164868719Y-115564333D01*
X164887715Y-115601613D01*
X165008028Y-115767213D01*
X165152786Y-115911971D01*
X165307749Y-116024556D01*
X165318390Y-116032287D01*
X165434607Y-116091503D01*
X165495154Y-116122353D01*
X165496043Y-116122824D01*
X165496249Y-116123025D01*
X165499629Y-116124662D01*
X165501637Y-116125659D01*
X165505403Y-116126722D01*
X165584346Y-116152372D01*
X165695465Y-116188477D01*
X165796557Y-116204488D01*
X165897648Y-116220500D01*
X165897649Y-116220500D01*
X166102351Y-116220500D01*
X166102352Y-116220500D01*
X166304534Y-116188477D01*
X166499219Y-116125220D01*
X166681610Y-116032287D01*
X166774590Y-115964732D01*
X166847213Y-115911971D01*
X166847213Y-115911969D01*
X166847272Y-115911927D01*
X166848031Y-115911153D01*
X166991966Y-115767219D01*
X166991968Y-115767215D01*
X166991971Y-115767213D01*
X167072548Y-115656306D01*
X167112287Y-115601610D01*
X167205220Y-115419219D01*
X167268477Y-115224534D01*
X167300500Y-115022352D01*
X167300500Y-114817648D01*
X167268477Y-114615466D01*
X167268476Y-114615462D01*
X167268476Y-114615461D01*
X167207832Y-114428819D01*
X167207830Y-114428814D01*
X167205220Y-114420781D01*
X167205218Y-114420778D01*
X167205218Y-114420776D01*
X167202979Y-114416382D01*
X167202669Y-114415587D01*
X167201932Y-114414327D01*
X167118277Y-114250146D01*
X167118276Y-114250144D01*
X167112286Y-114238388D01*
X166991971Y-114072786D01*
X166847213Y-113928028D01*
X166847212Y-113928027D01*
X166847211Y-113928026D01*
X166692202Y-113815408D01*
X166692199Y-113815406D01*
X166681613Y-113807715D01*
X166681612Y-113807714D01*
X166681610Y-113807713D01*
X166675535Y-113804617D01*
X166675531Y-113804615D01*
X166571096Y-113751403D01*
X166571096Y-113751402D01*
X166571094Y-113751402D01*
X166499228Y-113714783D01*
X166499221Y-113714780D01*
X166394316Y-113680694D01*
X166304534Y-113651522D01*
X166304532Y-113651521D01*
X166304530Y-113651521D01*
X166304529Y-113651520D01*
X166129995Y-113623878D01*
X166113409Y-113621251D01*
X166102354Y-113619500D01*
X166102352Y-113619500D01*
X165897648Y-113619500D01*
X165897647Y-113619500D01*
X165873327Y-113623351D01*
X165873326Y-113623350D01*
X165695468Y-113651521D01*
X165500777Y-113714780D01*
X165500764Y-113714786D01*
X165318397Y-113807708D01*
X165318385Y-113807715D01*
X165152787Y-113928027D01*
X165152784Y-113928029D01*
X165008029Y-114072784D01*
X165008027Y-114072787D01*
X164887715Y-114238385D01*
X164887708Y-114238397D01*
X164794786Y-114420764D01*
X164794780Y-114420777D01*
X164731521Y-114615468D01*
X164699500Y-114817642D01*
X160900000Y-114817642D01*
X160900000Y-114197172D01*
X160899998Y-114197138D01*
X160893598Y-114137628D01*
X160893596Y-114137621D01*
X160888073Y-114122812D01*
X160843354Y-114002913D01*
X160843350Y-114002906D01*
X160757190Y-113887812D01*
X160757187Y-113887809D01*
X160757185Y-113887807D01*
X160699317Y-113844487D01*
X160642093Y-113801649D01*
X160642088Y-113801646D01*
X160642089Y-113801646D01*
X160507377Y-113751402D01*
X160507370Y-113751400D01*
X160447852Y-113745000D01*
X160447844Y-113745000D01*
X159750000Y-113745000D01*
X159750000Y-114584513D01*
X159730315Y-114651552D01*
X159677511Y-114697307D01*
X159608353Y-114707251D01*
X159593907Y-114704288D01*
X159559244Y-114695000D01*
X159559243Y-114695000D01*
X159440756Y-114695000D01*
X159406093Y-114704288D01*
X159336243Y-114702625D01*
X159278381Y-114663462D01*
X159250877Y-114599233D01*
X159250000Y-114584513D01*
X159250000Y-113745000D01*
X158552155Y-113745000D01*
X158552146Y-113745000D01*
X158492628Y-113751400D01*
X158492621Y-113751402D01*
X158357910Y-113801646D01*
X158357907Y-113801648D01*
X158242813Y-113887807D01*
X158242807Y-113887813D01*
X158156648Y-114002907D01*
X158156646Y-114002910D01*
X158106402Y-114137621D01*
X158106400Y-114137628D01*
X158100000Y-114197146D01*
X158100000Y-114197155D01*
X158100000Y-114895000D01*
X158939513Y-114895000D01*
X159006552Y-114914685D01*
X159052307Y-114967489D01*
X159062251Y-115036647D01*
X159059288Y-115051093D01*
X159050000Y-115085756D01*
X159050000Y-115204243D01*
X159059288Y-115238907D01*
X159057625Y-115308757D01*
X159018462Y-115366619D01*
X158954233Y-115394123D01*
X158939513Y-115395000D01*
X158100000Y-115395000D01*
X158100000Y-116092852D01*
X158106400Y-116152370D01*
X158106402Y-116152377D01*
X158125837Y-116204486D01*
X158156645Y-116287086D01*
X158156649Y-116287093D01*
X158199487Y-116344317D01*
X158242807Y-116402185D01*
X158242809Y-116402187D01*
X158242812Y-116402190D01*
X158357906Y-116488350D01*
X158357913Y-116488354D01*
X158421265Y-116511983D01*
X158452242Y-116528899D01*
X158463353Y-116537217D01*
X158505223Y-116593151D01*
X158510206Y-116662840D01*
X158509231Y-116667322D01*
X158475746Y-116728645D01*
X158431763Y-116772627D01*
X158431761Y-116772629D01*
X158431739Y-116772658D01*
X158302187Y-116950972D01*
X158202105Y-117147391D01*
X158202101Y-117147398D01*
X158133985Y-117357043D01*
X158129970Y-117382396D01*
X158099500Y-117574772D01*
X153754729Y-117574772D01*
X153704754Y-117420968D01*
X153704752Y-117420965D01*
X153704752Y-117420963D01*
X153611859Y-117238650D01*
X153603156Y-117226672D01*
X153593615Y-117199933D01*
X153579473Y-117194075D01*
X153036497Y-117737053D01*
X152975174Y-117770538D01*
X152905483Y-117765554D01*
X152849549Y-117723683D01*
X152841430Y-117711374D01*
X152820080Y-117674394D01*
X152745606Y-117599920D01*
X152708625Y-117578569D01*
X152660410Y-117528003D01*
X152647186Y-117459396D01*
X152673154Y-117394531D01*
X152682936Y-117383509D01*
X153225922Y-116840524D01*
X153225921Y-116840523D01*
X153225920Y-116840522D01*
X153225919Y-116840521D01*
X153225914Y-116840517D01*
X153181360Y-116808147D01*
X153181357Y-116808144D01*
X153094521Y-116763899D01*
X152999031Y-116715244D01*
X152804417Y-116652009D01*
X152804411Y-116652008D01*
X152602322Y-116620000D01*
X152602317Y-116620000D01*
X152397683Y-116620000D01*
X152397678Y-116620000D01*
X152195587Y-116652008D01*
X152195585Y-116652008D01*
X152195582Y-116652009D01*
X152098275Y-116683626D01*
X152000963Y-116715245D01*
X151818640Y-116808145D01*
X151774077Y-116840522D01*
X151774077Y-116840523D01*
X151774077Y-116840524D01*
X152080951Y-117147398D01*
X152317055Y-117383501D01*
X152350540Y-117444824D01*
X152345556Y-117514515D01*
X152303685Y-117570449D01*
X152291374Y-117578569D01*
X152254397Y-117599917D01*
X152254392Y-117599921D01*
X152179921Y-117674392D01*
X152179915Y-117674400D01*
X152158568Y-117711374D01*
X152108001Y-117759589D01*
X152039393Y-117772811D01*
X151974529Y-117746843D01*
X151963501Y-117737054D01*
X151420524Y-117194077D01*
X151420523Y-117194077D01*
X151420522Y-117194077D01*
X151388145Y-117238640D01*
X151295245Y-117420963D01*
X151264848Y-117514515D01*
X151232009Y-117615582D01*
X151232008Y-117615585D01*
X151232008Y-117615587D01*
X151200000Y-117817676D01*
X146896944Y-117817676D01*
X146900500Y-117795222D01*
X146900500Y-117574778D01*
X146866015Y-117357049D01*
X146827545Y-117238650D01*
X146797896Y-117147396D01*
X146797895Y-117147393D01*
X146763237Y-117079375D01*
X146697815Y-116950978D01*
X146617566Y-116840524D01*
X146568247Y-116772641D01*
X146568243Y-116772636D01*
X146526178Y-116730571D01*
X146522471Y-116726095D01*
X146520594Y-116721731D01*
X146509137Y-116706426D01*
X146502486Y-116694245D01*
X146496048Y-116664651D01*
X146494869Y-116661908D01*
X146495121Y-116660390D01*
X146487635Y-116625971D01*
X146512051Y-116560511D01*
X146514805Y-116556833D01*
X146570733Y-116514967D01*
X146642086Y-116488354D01*
X146642093Y-116488350D01*
X146757187Y-116402190D01*
X146757190Y-116402187D01*
X146843350Y-116287093D01*
X146843354Y-116287086D01*
X146893596Y-116152379D01*
X146893598Y-116152372D01*
X146896356Y-116126722D01*
X146899998Y-116092860D01*
X146900000Y-116092827D01*
X146900000Y-115395000D01*
X146060487Y-115395000D01*
X145993448Y-115375315D01*
X145947693Y-115322511D01*
X145937749Y-115253353D01*
X145940712Y-115238907D01*
X145944564Y-115224530D01*
X145950000Y-115204244D01*
X145950000Y-115085756D01*
X145940712Y-115051092D01*
X145942375Y-114981243D01*
X145981538Y-114923381D01*
X146045767Y-114895877D01*
X146060487Y-114895000D01*
X146900000Y-114895000D01*
X146900000Y-114817642D01*
X151199500Y-114817642D01*
X151199500Y-115022356D01*
X151231521Y-115224530D01*
X151231522Y-115224534D01*
X151294781Y-115419223D01*
X151358691Y-115544653D01*
X151368719Y-115564333D01*
X151387715Y-115601613D01*
X151508028Y-115767213D01*
X151652786Y-115911971D01*
X151807749Y-116024556D01*
X151818390Y-116032287D01*
X151934607Y-116091503D01*
X151995154Y-116122353D01*
X151996043Y-116122824D01*
X151996249Y-116123025D01*
X151999629Y-116124662D01*
X152001637Y-116125659D01*
X152005403Y-116126722D01*
X152084346Y-116152372D01*
X152195465Y-116188477D01*
X152296557Y-116204488D01*
X152397648Y-116220500D01*
X152397649Y-116220500D01*
X152602351Y-116220500D01*
X152602352Y-116220500D01*
X152804534Y-116188477D01*
X152999219Y-116125220D01*
X153181610Y-116032287D01*
X153274590Y-115964732D01*
X153347213Y-115911971D01*
X153347213Y-115911969D01*
X153347272Y-115911927D01*
X153348031Y-115911153D01*
X153491966Y-115767219D01*
X153491968Y-115767215D01*
X153491971Y-115767213D01*
X153572548Y-115656306D01*
X153612287Y-115601610D01*
X153705220Y-115419219D01*
X153768477Y-115224534D01*
X153800500Y-115022352D01*
X153800500Y-114817648D01*
X153768477Y-114615466D01*
X153768476Y-114615462D01*
X153768476Y-114615461D01*
X153707832Y-114428819D01*
X153707830Y-114428814D01*
X153705220Y-114420781D01*
X153705218Y-114420778D01*
X153705218Y-114420776D01*
X153702979Y-114416382D01*
X153702669Y-114415587D01*
X153701932Y-114414327D01*
X153618277Y-114250146D01*
X153618276Y-114250144D01*
X153612286Y-114238388D01*
X153491971Y-114072786D01*
X153347213Y-113928028D01*
X153347212Y-113928027D01*
X153347211Y-113928026D01*
X153192202Y-113815408D01*
X153192199Y-113815406D01*
X153181613Y-113807715D01*
X153181612Y-113807714D01*
X153181610Y-113807713D01*
X153175535Y-113804617D01*
X153175531Y-113804615D01*
X153071096Y-113751403D01*
X153071096Y-113751402D01*
X153071094Y-113751402D01*
X152999228Y-113714783D01*
X152999221Y-113714780D01*
X152894316Y-113680694D01*
X152804534Y-113651522D01*
X152804532Y-113651521D01*
X152804530Y-113651521D01*
X152804529Y-113651520D01*
X152629995Y-113623878D01*
X152613409Y-113621251D01*
X152602354Y-113619500D01*
X152602352Y-113619500D01*
X152397648Y-113619500D01*
X152397647Y-113619500D01*
X152373327Y-113623351D01*
X152373326Y-113623350D01*
X152195468Y-113651521D01*
X152000777Y-113714780D01*
X152000764Y-113714786D01*
X151818397Y-113807708D01*
X151818385Y-113807715D01*
X151652787Y-113928027D01*
X151652784Y-113928029D01*
X151508029Y-114072784D01*
X151508027Y-114072787D01*
X151387715Y-114238385D01*
X151387708Y-114238397D01*
X151294786Y-114420764D01*
X151294780Y-114420777D01*
X151231521Y-114615468D01*
X151199500Y-114817642D01*
X146900000Y-114817642D01*
X146900000Y-114197172D01*
X146899998Y-114197138D01*
X146893598Y-114137628D01*
X146893596Y-114137621D01*
X146888073Y-114122812D01*
X146843354Y-114002913D01*
X146843350Y-114002906D01*
X146757190Y-113887812D01*
X146757187Y-113887809D01*
X146757185Y-113887807D01*
X146699317Y-113844487D01*
X146642093Y-113801649D01*
X146642088Y-113801646D01*
X146642089Y-113801646D01*
X146507377Y-113751402D01*
X146507370Y-113751400D01*
X146447852Y-113745000D01*
X146447844Y-113745000D01*
X145750000Y-113745000D01*
X145750000Y-114584513D01*
X145730315Y-114651552D01*
X145677511Y-114697307D01*
X145608353Y-114707251D01*
X145593907Y-114704288D01*
X145559244Y-114695000D01*
X145559243Y-114695000D01*
X145440756Y-114695000D01*
X145406093Y-114704288D01*
X145336243Y-114702625D01*
X145278381Y-114663462D01*
X145250877Y-114599233D01*
X145250000Y-114584513D01*
X145250000Y-113745000D01*
X144552155Y-113745000D01*
X144552146Y-113745000D01*
X144492628Y-113751400D01*
X144492621Y-113751402D01*
X144357910Y-113801646D01*
X144357907Y-113801648D01*
X144242813Y-113887807D01*
X144242807Y-113887813D01*
X144156648Y-114002907D01*
X144156646Y-114002910D01*
X144106402Y-114137621D01*
X144106400Y-114137628D01*
X144100000Y-114197146D01*
X144100000Y-114197155D01*
X144100000Y-114895000D01*
X144939513Y-114895000D01*
X145006552Y-114914685D01*
X145052307Y-114967489D01*
X145062251Y-115036647D01*
X145059288Y-115051093D01*
X145050000Y-115085756D01*
X145050000Y-115204243D01*
X145059288Y-115238907D01*
X145057625Y-115308757D01*
X145018462Y-115366619D01*
X144954233Y-115394123D01*
X144939513Y-115395000D01*
X144100000Y-115395000D01*
X144100000Y-116092852D01*
X144106400Y-116152370D01*
X144106402Y-116152377D01*
X144125837Y-116204486D01*
X144156645Y-116287086D01*
X144156649Y-116287093D01*
X144199487Y-116344317D01*
X144242807Y-116402185D01*
X144242809Y-116402187D01*
X144242812Y-116402190D01*
X144357906Y-116488350D01*
X144357913Y-116488354D01*
X144421265Y-116511983D01*
X144452242Y-116528899D01*
X144463353Y-116537217D01*
X144505223Y-116593151D01*
X144510206Y-116662840D01*
X144509231Y-116667322D01*
X144475746Y-116728645D01*
X144431763Y-116772627D01*
X144431761Y-116772629D01*
X144431739Y-116772658D01*
X144302187Y-116950972D01*
X144202105Y-117147391D01*
X144202101Y-117147398D01*
X144133985Y-117357043D01*
X144129970Y-117382396D01*
X144099500Y-117574772D01*
X140254729Y-117574772D01*
X140204754Y-117420968D01*
X140204752Y-117420965D01*
X140204752Y-117420963D01*
X140111859Y-117238650D01*
X140103156Y-117226672D01*
X140093615Y-117199933D01*
X140079473Y-117194075D01*
X139536497Y-117737053D01*
X139475174Y-117770538D01*
X139405483Y-117765554D01*
X139349549Y-117723683D01*
X139341430Y-117711374D01*
X139320080Y-117674394D01*
X139245606Y-117599920D01*
X139208625Y-117578569D01*
X139160410Y-117528003D01*
X139147186Y-117459396D01*
X139173154Y-117394531D01*
X139182936Y-117383509D01*
X139725922Y-116840524D01*
X139725921Y-116840523D01*
X139725920Y-116840522D01*
X139725919Y-116840521D01*
X139725914Y-116840517D01*
X139681360Y-116808147D01*
X139681357Y-116808144D01*
X139594521Y-116763899D01*
X139499031Y-116715244D01*
X139304417Y-116652009D01*
X139304411Y-116652008D01*
X139102322Y-116620000D01*
X139102317Y-116620000D01*
X138897683Y-116620000D01*
X138897678Y-116620000D01*
X138695587Y-116652008D01*
X138695585Y-116652008D01*
X138695582Y-116652009D01*
X138598275Y-116683626D01*
X138500963Y-116715245D01*
X138318640Y-116808145D01*
X138274077Y-116840522D01*
X138274077Y-116840523D01*
X138274077Y-116840524D01*
X138580951Y-117147398D01*
X138817055Y-117383501D01*
X138850540Y-117444824D01*
X138845556Y-117514515D01*
X138803685Y-117570449D01*
X138791374Y-117578569D01*
X138754397Y-117599917D01*
X138754392Y-117599921D01*
X138679921Y-117674392D01*
X138679915Y-117674400D01*
X138658568Y-117711374D01*
X138608001Y-117759589D01*
X138539393Y-117772811D01*
X138474529Y-117746843D01*
X138463501Y-117737054D01*
X137920524Y-117194077D01*
X137920523Y-117194077D01*
X137920522Y-117194077D01*
X137888145Y-117238640D01*
X137795245Y-117420963D01*
X137764848Y-117514515D01*
X137732009Y-117615582D01*
X137732008Y-117615585D01*
X137732008Y-117615587D01*
X137700000Y-117817676D01*
X133396944Y-117817676D01*
X133400500Y-117795222D01*
X133400500Y-117574778D01*
X133366015Y-117357049D01*
X133327545Y-117238650D01*
X133297896Y-117147396D01*
X133297895Y-117147393D01*
X133263237Y-117079375D01*
X133197815Y-116950978D01*
X133117566Y-116840524D01*
X133068247Y-116772641D01*
X133068243Y-116772636D01*
X133026178Y-116730571D01*
X133022471Y-116726095D01*
X133020594Y-116721731D01*
X133009137Y-116706426D01*
X133002486Y-116694245D01*
X132996048Y-116664651D01*
X132994869Y-116661908D01*
X132995121Y-116660390D01*
X132987635Y-116625971D01*
X133012051Y-116560511D01*
X133014805Y-116556833D01*
X133070733Y-116514967D01*
X133142086Y-116488354D01*
X133142093Y-116488350D01*
X133257187Y-116402190D01*
X133257190Y-116402187D01*
X133343350Y-116287093D01*
X133343354Y-116287086D01*
X133393596Y-116152379D01*
X133393598Y-116152372D01*
X133396356Y-116126722D01*
X133399998Y-116092860D01*
X133400000Y-116092827D01*
X133400000Y-115395000D01*
X132560487Y-115395000D01*
X132493448Y-115375315D01*
X132447693Y-115322511D01*
X132437749Y-115253353D01*
X132440712Y-115238907D01*
X132444564Y-115224530D01*
X132450000Y-115204244D01*
X132450000Y-115085756D01*
X132440712Y-115051092D01*
X132442375Y-114981243D01*
X132481538Y-114923381D01*
X132545767Y-114895877D01*
X132560487Y-114895000D01*
X133400000Y-114895000D01*
X133400000Y-114817642D01*
X137699500Y-114817642D01*
X137699500Y-115022356D01*
X137731521Y-115224530D01*
X137731522Y-115224534D01*
X137794781Y-115419223D01*
X137858691Y-115544653D01*
X137868719Y-115564333D01*
X137887715Y-115601613D01*
X138008028Y-115767213D01*
X138152786Y-115911971D01*
X138307749Y-116024556D01*
X138318390Y-116032287D01*
X138434607Y-116091503D01*
X138495154Y-116122353D01*
X138496043Y-116122824D01*
X138496249Y-116123025D01*
X138499629Y-116124662D01*
X138501637Y-116125659D01*
X138505403Y-116126722D01*
X138584346Y-116152372D01*
X138695465Y-116188477D01*
X138796557Y-116204488D01*
X138897648Y-116220500D01*
X138897649Y-116220500D01*
X139102351Y-116220500D01*
X139102352Y-116220500D01*
X139304534Y-116188477D01*
X139499219Y-116125220D01*
X139681610Y-116032287D01*
X139774590Y-115964732D01*
X139847213Y-115911971D01*
X139847213Y-115911969D01*
X139847272Y-115911927D01*
X139848031Y-115911153D01*
X139991966Y-115767219D01*
X139991968Y-115767215D01*
X139991971Y-115767213D01*
X140072548Y-115656306D01*
X140112287Y-115601610D01*
X140205220Y-115419219D01*
X140268477Y-115224534D01*
X140300500Y-115022352D01*
X140300500Y-114817648D01*
X140268477Y-114615466D01*
X140268476Y-114615462D01*
X140268476Y-114615461D01*
X140207832Y-114428819D01*
X140207830Y-114428814D01*
X140205220Y-114420781D01*
X140205218Y-114420778D01*
X140205218Y-114420776D01*
X140202979Y-114416382D01*
X140202669Y-114415587D01*
X140201932Y-114414327D01*
X140118277Y-114250146D01*
X140118276Y-114250144D01*
X140112286Y-114238388D01*
X139991971Y-114072786D01*
X139847213Y-113928028D01*
X139847212Y-113928027D01*
X139847211Y-113928026D01*
X139692202Y-113815408D01*
X139692199Y-113815406D01*
X139681613Y-113807715D01*
X139681612Y-113807714D01*
X139681610Y-113807713D01*
X139675535Y-113804617D01*
X139675531Y-113804615D01*
X139571096Y-113751403D01*
X139571096Y-113751402D01*
X139571094Y-113751402D01*
X139499228Y-113714783D01*
X139499221Y-113714780D01*
X139394316Y-113680694D01*
X139304534Y-113651522D01*
X139304532Y-113651521D01*
X139304530Y-113651521D01*
X139304529Y-113651520D01*
X139129995Y-113623878D01*
X139113409Y-113621251D01*
X139102354Y-113619500D01*
X139102352Y-113619500D01*
X138897648Y-113619500D01*
X138897647Y-113619500D01*
X138873327Y-113623351D01*
X138873326Y-113623350D01*
X138695468Y-113651521D01*
X138500777Y-113714780D01*
X138500764Y-113714786D01*
X138318397Y-113807708D01*
X138318385Y-113807715D01*
X138152787Y-113928027D01*
X138152784Y-113928029D01*
X138008029Y-114072784D01*
X138008027Y-114072787D01*
X137887715Y-114238385D01*
X137887708Y-114238397D01*
X137794786Y-114420764D01*
X137794780Y-114420777D01*
X137731521Y-114615468D01*
X137699500Y-114817642D01*
X133400000Y-114817642D01*
X133400000Y-114197172D01*
X133399998Y-114197138D01*
X133393598Y-114137628D01*
X133393596Y-114137621D01*
X133388073Y-114122812D01*
X133343354Y-114002913D01*
X133343350Y-114002906D01*
X133257190Y-113887812D01*
X133257187Y-113887809D01*
X133257185Y-113887807D01*
X133199317Y-113844487D01*
X133142093Y-113801649D01*
X133142088Y-113801646D01*
X133142089Y-113801646D01*
X133007377Y-113751402D01*
X133007370Y-113751400D01*
X132947852Y-113745000D01*
X132947844Y-113745000D01*
X132250000Y-113745000D01*
X132250000Y-114584513D01*
X132230315Y-114651552D01*
X132177511Y-114697307D01*
X132108353Y-114707251D01*
X132093907Y-114704288D01*
X132059244Y-114695000D01*
X132059243Y-114695000D01*
X131940756Y-114695000D01*
X131906093Y-114704288D01*
X131836243Y-114702625D01*
X131778381Y-114663462D01*
X131750877Y-114599233D01*
X131750000Y-114584513D01*
X131750000Y-113745000D01*
X131052155Y-113745000D01*
X131052146Y-113745000D01*
X130992628Y-113751400D01*
X130992621Y-113751402D01*
X130857910Y-113801646D01*
X130857907Y-113801648D01*
X130742813Y-113887807D01*
X130742807Y-113887813D01*
X130656648Y-114002907D01*
X130656646Y-114002910D01*
X130606402Y-114137621D01*
X130606400Y-114137628D01*
X130600000Y-114197146D01*
X130600000Y-114197155D01*
X130600000Y-114895000D01*
X131439513Y-114895000D01*
X131506552Y-114914685D01*
X131552307Y-114967489D01*
X131562251Y-115036647D01*
X131559288Y-115051093D01*
X131550000Y-115085756D01*
X131550000Y-115204243D01*
X131559288Y-115238907D01*
X131557625Y-115308757D01*
X131518462Y-115366619D01*
X131454233Y-115394123D01*
X131439513Y-115395000D01*
X130600000Y-115395000D01*
X130600000Y-116092852D01*
X130606400Y-116152370D01*
X130606402Y-116152377D01*
X130625837Y-116204486D01*
X130656645Y-116287086D01*
X130656649Y-116287093D01*
X130699487Y-116344317D01*
X130742807Y-116402185D01*
X130742809Y-116402187D01*
X130742812Y-116402190D01*
X130857906Y-116488350D01*
X130857913Y-116488354D01*
X130921265Y-116511983D01*
X130952242Y-116528899D01*
X130963353Y-116537217D01*
X131005223Y-116593151D01*
X131010206Y-116662840D01*
X131009231Y-116667322D01*
X130975746Y-116728645D01*
X130931763Y-116772627D01*
X130931761Y-116772629D01*
X130931739Y-116772658D01*
X130802187Y-116950972D01*
X130702105Y-117147391D01*
X130702101Y-117147398D01*
X130633985Y-117357043D01*
X130629970Y-117382396D01*
X130599500Y-117574772D01*
X126754729Y-117574772D01*
X126704754Y-117420968D01*
X126704752Y-117420965D01*
X126704752Y-117420963D01*
X126611859Y-117238650D01*
X126603156Y-117226672D01*
X126593615Y-117199933D01*
X126579473Y-117194075D01*
X126036497Y-117737053D01*
X125975174Y-117770538D01*
X125905483Y-117765554D01*
X125849549Y-117723683D01*
X125841430Y-117711374D01*
X125820080Y-117674394D01*
X125745606Y-117599920D01*
X125708625Y-117578569D01*
X125660410Y-117528003D01*
X125647186Y-117459396D01*
X125673154Y-117394531D01*
X125682936Y-117383509D01*
X126225922Y-116840524D01*
X126225921Y-116840523D01*
X126225920Y-116840522D01*
X126225919Y-116840521D01*
X126225914Y-116840517D01*
X126181360Y-116808147D01*
X126181357Y-116808144D01*
X126094521Y-116763899D01*
X125999031Y-116715244D01*
X125804417Y-116652009D01*
X125804411Y-116652008D01*
X125602322Y-116620000D01*
X125602317Y-116620000D01*
X125397683Y-116620000D01*
X125397678Y-116620000D01*
X125195587Y-116652008D01*
X125195585Y-116652008D01*
X125195582Y-116652009D01*
X125098275Y-116683626D01*
X125000963Y-116715245D01*
X124818640Y-116808145D01*
X124774077Y-116840522D01*
X124774077Y-116840523D01*
X124774077Y-116840524D01*
X125080951Y-117147398D01*
X125317055Y-117383501D01*
X125350540Y-117444824D01*
X125345556Y-117514515D01*
X125303685Y-117570449D01*
X125291374Y-117578569D01*
X125254397Y-117599917D01*
X125254392Y-117599921D01*
X125179921Y-117674392D01*
X125179915Y-117674400D01*
X125158568Y-117711374D01*
X125108001Y-117759589D01*
X125039393Y-117772811D01*
X124974529Y-117746843D01*
X124963501Y-117737054D01*
X124420524Y-117194077D01*
X124420523Y-117194077D01*
X124420522Y-117194077D01*
X124388145Y-117238640D01*
X124295245Y-117420963D01*
X124264848Y-117514515D01*
X124232009Y-117615582D01*
X124232008Y-117615585D01*
X124232008Y-117615587D01*
X124200000Y-117817676D01*
X119900500Y-117817676D01*
X119900500Y-117809778D01*
X119866015Y-117592049D01*
X119797895Y-117382394D01*
X119797895Y-117382393D01*
X119763237Y-117314375D01*
X119697815Y-117185978D01*
X119669782Y-117147393D01*
X119568247Y-117007641D01*
X119568243Y-117007636D01*
X119568239Y-117007632D01*
X119568237Y-117007629D01*
X119568236Y-117007628D01*
X119530290Y-116969683D01*
X119509137Y-116941426D01*
X119502486Y-116929245D01*
X119487635Y-116860971D01*
X119512051Y-116795511D01*
X119514805Y-116791833D01*
X119570733Y-116749967D01*
X119642086Y-116723354D01*
X119642093Y-116723350D01*
X119757187Y-116637190D01*
X119757190Y-116637187D01*
X119843350Y-116522093D01*
X119843354Y-116522086D01*
X119893596Y-116387379D01*
X119893598Y-116387372D01*
X119895069Y-116373689D01*
X119899998Y-116327860D01*
X119900000Y-116327827D01*
X119900000Y-115630000D01*
X119060487Y-115630000D01*
X118993448Y-115610315D01*
X118947693Y-115557511D01*
X118937749Y-115488353D01*
X118940712Y-115473907D01*
X118950000Y-115439244D01*
X118950000Y-115320756D01*
X118940712Y-115286092D01*
X118942375Y-115216243D01*
X118981538Y-115158381D01*
X119045767Y-115130877D01*
X119060487Y-115130000D01*
X119900000Y-115130000D01*
X119900000Y-114817642D01*
X124199500Y-114817642D01*
X124199500Y-115022356D01*
X124231521Y-115224530D01*
X124231522Y-115224534D01*
X124294781Y-115419223D01*
X124358691Y-115544653D01*
X124368719Y-115564333D01*
X124387715Y-115601613D01*
X124508028Y-115767213D01*
X124652786Y-115911971D01*
X124807749Y-116024556D01*
X124818390Y-116032287D01*
X124934607Y-116091503D01*
X124995154Y-116122353D01*
X124996043Y-116122824D01*
X124996249Y-116123025D01*
X124999629Y-116124662D01*
X125001637Y-116125659D01*
X125005403Y-116126722D01*
X125084346Y-116152372D01*
X125195465Y-116188477D01*
X125296557Y-116204488D01*
X125397648Y-116220500D01*
X125397649Y-116220500D01*
X125602351Y-116220500D01*
X125602352Y-116220500D01*
X125804534Y-116188477D01*
X125999219Y-116125220D01*
X126181610Y-116032287D01*
X126274590Y-115964732D01*
X126347213Y-115911971D01*
X126347213Y-115911969D01*
X126347272Y-115911927D01*
X126348031Y-115911153D01*
X126491966Y-115767219D01*
X126491968Y-115767215D01*
X126491971Y-115767213D01*
X126572548Y-115656306D01*
X126612287Y-115601610D01*
X126705220Y-115419219D01*
X126768477Y-115224534D01*
X126800500Y-115022352D01*
X126800500Y-114817648D01*
X126768477Y-114615466D01*
X126768476Y-114615462D01*
X126768476Y-114615461D01*
X126707832Y-114428819D01*
X126707830Y-114428814D01*
X126705220Y-114420781D01*
X126705218Y-114420778D01*
X126705218Y-114420776D01*
X126702979Y-114416382D01*
X126702669Y-114415587D01*
X126701932Y-114414327D01*
X126618277Y-114250146D01*
X126618276Y-114250144D01*
X126612286Y-114238388D01*
X126491971Y-114072786D01*
X126347213Y-113928028D01*
X126347212Y-113928027D01*
X126347211Y-113928026D01*
X126192202Y-113815408D01*
X126192199Y-113815406D01*
X126181613Y-113807715D01*
X126181612Y-113807714D01*
X126181610Y-113807713D01*
X126175535Y-113804617D01*
X126175531Y-113804615D01*
X126071096Y-113751403D01*
X126071096Y-113751402D01*
X126071094Y-113751402D01*
X125999228Y-113714783D01*
X125999221Y-113714780D01*
X125894316Y-113680694D01*
X125804534Y-113651522D01*
X125804532Y-113651521D01*
X125804530Y-113651521D01*
X125804529Y-113651520D01*
X125629995Y-113623878D01*
X125613409Y-113621251D01*
X125602354Y-113619500D01*
X125602352Y-113619500D01*
X125397648Y-113619500D01*
X125397647Y-113619500D01*
X125373327Y-113623351D01*
X125373326Y-113623350D01*
X125195468Y-113651521D01*
X125000777Y-113714780D01*
X125000764Y-113714786D01*
X124818397Y-113807708D01*
X124818385Y-113807715D01*
X124652787Y-113928027D01*
X124652784Y-113928029D01*
X124508029Y-114072784D01*
X124508027Y-114072787D01*
X124387715Y-114238385D01*
X124387708Y-114238397D01*
X124294786Y-114420764D01*
X124294780Y-114420777D01*
X124231521Y-114615468D01*
X124199500Y-114817642D01*
X119900000Y-114817642D01*
X119900000Y-114432172D01*
X119899998Y-114432138D01*
X119893598Y-114372628D01*
X119893596Y-114372621D01*
X119893596Y-114372620D01*
X119843354Y-114237913D01*
X119843350Y-114237906D01*
X119757190Y-114122812D01*
X119757187Y-114122809D01*
X119757185Y-114122807D01*
X119690361Y-114072783D01*
X119642093Y-114036649D01*
X119642088Y-114036646D01*
X119642089Y-114036646D01*
X119507377Y-113986402D01*
X119507370Y-113986400D01*
X119447852Y-113980000D01*
X119447844Y-113980000D01*
X118750000Y-113980000D01*
X118750000Y-114819513D01*
X118730315Y-114886552D01*
X118677511Y-114932307D01*
X118608353Y-114942251D01*
X118593907Y-114939288D01*
X118559244Y-114930000D01*
X118559243Y-114930000D01*
X118440756Y-114930000D01*
X118406093Y-114939288D01*
X118336243Y-114937625D01*
X118278381Y-114898462D01*
X118250877Y-114834233D01*
X118250000Y-114819513D01*
X118250000Y-113980000D01*
X117552155Y-113980000D01*
X117552146Y-113980000D01*
X117492628Y-113986400D01*
X117492621Y-113986402D01*
X117357910Y-114036646D01*
X117357907Y-114036648D01*
X117242813Y-114122807D01*
X117242807Y-114122813D01*
X117156648Y-114237907D01*
X117156646Y-114237910D01*
X117106402Y-114372621D01*
X117106400Y-114372628D01*
X117100000Y-114432146D01*
X117100000Y-114432155D01*
X117100000Y-115130000D01*
X117939513Y-115130000D01*
X118006552Y-115149685D01*
X118052307Y-115202489D01*
X118062251Y-115271647D01*
X118059288Y-115286093D01*
X118050000Y-115320756D01*
X118050000Y-115439243D01*
X118059288Y-115473907D01*
X118057625Y-115543757D01*
X118018462Y-115601619D01*
X117954233Y-115629123D01*
X117939513Y-115630000D01*
X117100000Y-115630000D01*
X117100000Y-116327852D01*
X117106400Y-116387370D01*
X117106401Y-116387372D01*
X117106403Y-116387379D01*
X117155200Y-116518213D01*
X117156646Y-116522088D01*
X117156648Y-116522091D01*
X117242807Y-116637185D01*
X117242809Y-116637187D01*
X117242812Y-116637190D01*
X117357906Y-116723350D01*
X117357913Y-116723354D01*
X117421265Y-116746983D01*
X117452242Y-116763899D01*
X117463353Y-116772217D01*
X117505223Y-116828151D01*
X117510206Y-116897840D01*
X117509231Y-116902322D01*
X117475746Y-116963645D01*
X117431763Y-117007627D01*
X117431761Y-117007629D01*
X117431739Y-117007658D01*
X117302187Y-117185972D01*
X117202104Y-117382392D01*
X117202102Y-117382396D01*
X117202094Y-117382419D01*
X117133985Y-117592043D01*
X117099500Y-117809772D01*
X113298747Y-117809772D01*
X113267990Y-117615582D01*
X113204755Y-117420968D01*
X113204753Y-117420965D01*
X113204753Y-117420963D01*
X113111859Y-117238650D01*
X113103156Y-117226672D01*
X113093615Y-117199933D01*
X113079473Y-117194075D01*
X112536497Y-117737053D01*
X112475174Y-117770538D01*
X112405483Y-117765554D01*
X112349549Y-117723683D01*
X112341430Y-117711374D01*
X112320080Y-117674394D01*
X112245606Y-117599920D01*
X112208625Y-117578569D01*
X112160410Y-117528003D01*
X112147186Y-117459396D01*
X112173154Y-117394531D01*
X112182936Y-117383509D01*
X112725922Y-116840524D01*
X112725921Y-116840523D01*
X112725920Y-116840522D01*
X112725919Y-116840521D01*
X112725914Y-116840517D01*
X112681360Y-116808147D01*
X112681357Y-116808144D01*
X112594521Y-116763899D01*
X112499031Y-116715244D01*
X112304417Y-116652009D01*
X112304411Y-116652008D01*
X112102322Y-116620000D01*
X112102317Y-116620000D01*
X111897683Y-116620000D01*
X111897678Y-116620000D01*
X111695587Y-116652008D01*
X111695585Y-116652008D01*
X111695582Y-116652009D01*
X111598275Y-116683626D01*
X111500963Y-116715245D01*
X111318640Y-116808145D01*
X111274077Y-116840522D01*
X111274077Y-116840523D01*
X111274077Y-116840524D01*
X111580951Y-117147398D01*
X111817055Y-117383501D01*
X111850540Y-117444824D01*
X111845556Y-117514515D01*
X111803685Y-117570449D01*
X111791374Y-117578569D01*
X111754397Y-117599917D01*
X111754392Y-117599921D01*
X111679921Y-117674392D01*
X111679915Y-117674400D01*
X111658568Y-117711374D01*
X111608001Y-117759589D01*
X111539393Y-117772811D01*
X111474529Y-117746843D01*
X111463501Y-117737054D01*
X110920524Y-117194077D01*
X110920523Y-117194077D01*
X110920522Y-117194077D01*
X110888145Y-117238640D01*
X110795245Y-117420963D01*
X110764848Y-117514515D01*
X110732009Y-117615582D01*
X110732008Y-117615585D01*
X110732008Y-117615587D01*
X110700000Y-117817676D01*
X96500000Y-117817676D01*
X96500000Y-114817642D01*
X110699500Y-114817642D01*
X110699500Y-115022356D01*
X110731521Y-115224530D01*
X110731522Y-115224534D01*
X110794781Y-115419223D01*
X110858691Y-115544653D01*
X110868719Y-115564333D01*
X110887715Y-115601613D01*
X111008028Y-115767213D01*
X111152786Y-115911971D01*
X111307749Y-116024556D01*
X111318390Y-116032287D01*
X111434607Y-116091503D01*
X111495154Y-116122353D01*
X111496043Y-116122824D01*
X111496249Y-116123025D01*
X111499629Y-116124662D01*
X111501637Y-116125659D01*
X111505403Y-116126722D01*
X111584346Y-116152372D01*
X111695465Y-116188477D01*
X111796557Y-116204488D01*
X111897648Y-116220500D01*
X111897649Y-116220500D01*
X112102351Y-116220500D01*
X112102352Y-116220500D01*
X112304534Y-116188477D01*
X112499219Y-116125220D01*
X112681610Y-116032287D01*
X112774590Y-115964732D01*
X112847213Y-115911971D01*
X112847213Y-115911969D01*
X112847272Y-115911927D01*
X112848031Y-115911153D01*
X112991966Y-115767219D01*
X112991968Y-115767215D01*
X112991971Y-115767213D01*
X113072548Y-115656306D01*
X113112287Y-115601610D01*
X113205220Y-115419219D01*
X113268477Y-115224534D01*
X113300500Y-115022352D01*
X113300500Y-114817648D01*
X113268477Y-114615466D01*
X113268476Y-114615464D01*
X113208921Y-114432172D01*
X113205220Y-114420781D01*
X113205218Y-114420778D01*
X113205218Y-114420776D01*
X113118276Y-114250144D01*
X113112287Y-114238390D01*
X113082341Y-114197172D01*
X113039080Y-114137627D01*
X112991972Y-114072787D01*
X112847211Y-113928026D01*
X112692202Y-113815408D01*
X112692199Y-113815406D01*
X112681613Y-113807715D01*
X112681612Y-113807714D01*
X112681610Y-113807713D01*
X112675535Y-113804617D01*
X112675531Y-113804615D01*
X112571096Y-113751403D01*
X112571096Y-113751402D01*
X112571094Y-113751402D01*
X112499228Y-113714783D01*
X112499221Y-113714780D01*
X112394316Y-113680694D01*
X112304534Y-113651522D01*
X112304532Y-113651521D01*
X112304530Y-113651521D01*
X112304529Y-113651520D01*
X112129995Y-113623878D01*
X112113409Y-113621251D01*
X112102354Y-113619500D01*
X112102352Y-113619500D01*
X111897648Y-113619500D01*
X111897647Y-113619500D01*
X111873327Y-113623351D01*
X111873326Y-113623350D01*
X111695468Y-113651521D01*
X111500777Y-113714780D01*
X111500764Y-113714786D01*
X111318397Y-113807708D01*
X111318385Y-113807715D01*
X111152787Y-113928027D01*
X111152784Y-113928029D01*
X111008029Y-114072784D01*
X111008027Y-114072787D01*
X110887715Y-114238385D01*
X110887708Y-114238397D01*
X110794786Y-114420764D01*
X110794780Y-114420777D01*
X110731521Y-114615468D01*
X110699500Y-114817642D01*
X96500000Y-114817642D01*
X96500000Y-106897642D01*
X110199500Y-106897642D01*
X110199500Y-107102356D01*
X110231521Y-107304530D01*
X110294780Y-107499221D01*
X110294786Y-107499234D01*
X110387708Y-107681601D01*
X110387709Y-107681602D01*
X110387715Y-107681613D01*
X110508028Y-107847213D01*
X110652786Y-107991971D01*
X110807749Y-108104556D01*
X110818390Y-108112287D01*
X110934607Y-108171503D01*
X110995154Y-108202353D01*
X110996043Y-108202824D01*
X110996249Y-108203025D01*
X110999629Y-108204662D01*
X111001637Y-108205660D01*
X111005403Y-108206722D01*
X111045488Y-108219746D01*
X111105135Y-108239126D01*
X111105136Y-108239127D01*
X111148612Y-108253253D01*
X111195465Y-108268477D01*
X111296557Y-108284488D01*
X111397648Y-108300500D01*
X111397649Y-108300500D01*
X111602351Y-108300500D01*
X111602352Y-108300500D01*
X111804534Y-108268477D01*
X111999219Y-108205220D01*
X112181610Y-108112287D01*
X112274590Y-108044732D01*
X112347213Y-107991971D01*
X112347213Y-107991969D01*
X112347272Y-107991927D01*
X112348031Y-107991153D01*
X112491966Y-107847219D01*
X112491968Y-107847215D01*
X112491971Y-107847213D01*
X112544730Y-107774593D01*
X112544732Y-107774591D01*
X112568172Y-107742327D01*
X112612287Y-107681610D01*
X112705220Y-107499219D01*
X112768477Y-107304534D01*
X112800500Y-107102352D01*
X112800500Y-106897648D01*
X112800499Y-106897642D01*
X117199500Y-106897642D01*
X117199500Y-107102356D01*
X117231521Y-107304530D01*
X117294780Y-107499221D01*
X117294786Y-107499234D01*
X117387708Y-107681601D01*
X117387709Y-107681602D01*
X117387715Y-107681613D01*
X117508028Y-107847213D01*
X117652786Y-107991971D01*
X117807749Y-108104556D01*
X117818390Y-108112287D01*
X117934607Y-108171503D01*
X117995154Y-108202353D01*
X117996043Y-108202824D01*
X117996249Y-108203025D01*
X117999629Y-108204662D01*
X118001637Y-108205660D01*
X118005403Y-108206722D01*
X118045488Y-108219746D01*
X118105135Y-108239126D01*
X118105136Y-108239127D01*
X118148612Y-108253253D01*
X118195465Y-108268477D01*
X118296557Y-108284488D01*
X118397648Y-108300500D01*
X118397649Y-108300500D01*
X118602351Y-108300500D01*
X118602352Y-108300500D01*
X118804534Y-108268477D01*
X118999219Y-108205220D01*
X119181610Y-108112287D01*
X119274590Y-108044732D01*
X119347213Y-107991971D01*
X119347213Y-107991969D01*
X119347272Y-107991927D01*
X119348031Y-107991153D01*
X119491966Y-107847219D01*
X119491968Y-107847215D01*
X119491971Y-107847213D01*
X119544730Y-107774593D01*
X119544732Y-107774591D01*
X119568172Y-107742327D01*
X119612287Y-107681610D01*
X119705220Y-107499219D01*
X119768477Y-107304534D01*
X119800500Y-107102352D01*
X119800500Y-106897648D01*
X119800499Y-106897642D01*
X124199500Y-106897642D01*
X124199500Y-107102356D01*
X124231521Y-107304530D01*
X124294780Y-107499221D01*
X124294786Y-107499234D01*
X124387708Y-107681601D01*
X124387709Y-107681602D01*
X124387715Y-107681613D01*
X124508028Y-107847213D01*
X124652786Y-107991971D01*
X124807749Y-108104556D01*
X124818390Y-108112287D01*
X124934607Y-108171503D01*
X124995154Y-108202353D01*
X124996043Y-108202824D01*
X124996249Y-108203025D01*
X124999629Y-108204662D01*
X125001637Y-108205660D01*
X125005403Y-108206722D01*
X125045488Y-108219746D01*
X125105135Y-108239126D01*
X125105136Y-108239127D01*
X125148612Y-108253253D01*
X125195465Y-108268477D01*
X125296557Y-108284488D01*
X125397648Y-108300500D01*
X125397649Y-108300500D01*
X125602351Y-108300500D01*
X125602352Y-108300500D01*
X125804534Y-108268477D01*
X125999219Y-108205220D01*
X126181610Y-108112287D01*
X126274590Y-108044732D01*
X126347213Y-107991971D01*
X126347213Y-107991969D01*
X126347272Y-107991927D01*
X126348031Y-107991153D01*
X126491966Y-107847219D01*
X126491968Y-107847215D01*
X126491971Y-107847213D01*
X126544730Y-107774593D01*
X126544732Y-107774591D01*
X126568172Y-107742327D01*
X126612287Y-107681610D01*
X126705220Y-107499219D01*
X126768477Y-107304534D01*
X126800500Y-107102352D01*
X126800500Y-106897648D01*
X126800499Y-106897642D01*
X137699500Y-106897642D01*
X137699500Y-107102356D01*
X137731521Y-107304530D01*
X137794780Y-107499221D01*
X137794786Y-107499234D01*
X137887708Y-107681601D01*
X137887709Y-107681602D01*
X137887715Y-107681613D01*
X138008028Y-107847213D01*
X138152786Y-107991971D01*
X138307749Y-108104556D01*
X138318390Y-108112287D01*
X138434607Y-108171503D01*
X138495154Y-108202353D01*
X138496043Y-108202824D01*
X138496249Y-108203025D01*
X138499629Y-108204662D01*
X138501637Y-108205660D01*
X138505403Y-108206722D01*
X138545488Y-108219746D01*
X138605135Y-108239126D01*
X138605136Y-108239127D01*
X138648612Y-108253253D01*
X138695465Y-108268477D01*
X138796557Y-108284488D01*
X138897648Y-108300500D01*
X138897649Y-108300500D01*
X139102351Y-108300500D01*
X139102352Y-108300500D01*
X139304534Y-108268477D01*
X139499219Y-108205220D01*
X139681610Y-108112287D01*
X139774590Y-108044732D01*
X139847213Y-107991971D01*
X139847213Y-107991969D01*
X139847272Y-107991927D01*
X139848031Y-107991153D01*
X139991966Y-107847219D01*
X139991968Y-107847215D01*
X139991971Y-107847213D01*
X140044730Y-107774593D01*
X140044732Y-107774591D01*
X140068172Y-107742327D01*
X140112287Y-107681610D01*
X140205220Y-107499219D01*
X140268477Y-107304534D01*
X140300500Y-107102352D01*
X140300500Y-106897648D01*
X140300499Y-106897642D01*
X151199500Y-106897642D01*
X151199500Y-107102356D01*
X151231521Y-107304530D01*
X151294780Y-107499221D01*
X151294786Y-107499234D01*
X151387708Y-107681601D01*
X151387709Y-107681602D01*
X151387715Y-107681613D01*
X151508028Y-107847213D01*
X151652786Y-107991971D01*
X151807749Y-108104556D01*
X151818390Y-108112287D01*
X151934607Y-108171503D01*
X151995154Y-108202353D01*
X151996043Y-108202824D01*
X151996249Y-108203025D01*
X151999629Y-108204662D01*
X152001637Y-108205660D01*
X152005403Y-108206722D01*
X152045488Y-108219746D01*
X152105135Y-108239126D01*
X152105136Y-108239127D01*
X152148612Y-108253253D01*
X152195465Y-108268477D01*
X152296557Y-108284488D01*
X152397648Y-108300500D01*
X152397649Y-108300500D01*
X152602351Y-108300500D01*
X152602352Y-108300500D01*
X152804534Y-108268477D01*
X152999219Y-108205220D01*
X153181610Y-108112287D01*
X153274590Y-108044732D01*
X153347213Y-107991971D01*
X153347213Y-107991969D01*
X153347272Y-107991927D01*
X153348031Y-107991153D01*
X153491966Y-107847219D01*
X153491968Y-107847215D01*
X153491971Y-107847213D01*
X153544730Y-107774593D01*
X153544732Y-107774591D01*
X153568172Y-107742327D01*
X153612287Y-107681610D01*
X153705220Y-107499219D01*
X153768477Y-107304534D01*
X153800500Y-107102352D01*
X153800500Y-106897648D01*
X153800499Y-106897642D01*
X164699500Y-106897642D01*
X164699500Y-107102356D01*
X164731521Y-107304530D01*
X164794780Y-107499221D01*
X164794786Y-107499234D01*
X164887708Y-107681601D01*
X164887709Y-107681602D01*
X164887715Y-107681613D01*
X165008028Y-107847213D01*
X165152786Y-107991971D01*
X165307749Y-108104556D01*
X165318390Y-108112287D01*
X165434607Y-108171503D01*
X165495154Y-108202353D01*
X165496043Y-108202824D01*
X165496249Y-108203025D01*
X165499629Y-108204662D01*
X165501637Y-108205660D01*
X165505403Y-108206722D01*
X165545488Y-108219746D01*
X165605135Y-108239126D01*
X165605136Y-108239127D01*
X165648612Y-108253253D01*
X165695465Y-108268477D01*
X165796557Y-108284488D01*
X165897648Y-108300500D01*
X165897649Y-108300500D01*
X166102351Y-108300500D01*
X166102352Y-108300500D01*
X166304534Y-108268477D01*
X166499219Y-108205220D01*
X166681610Y-108112287D01*
X166774590Y-108044732D01*
X166847213Y-107991971D01*
X166847213Y-107991969D01*
X166847272Y-107991927D01*
X166848031Y-107991153D01*
X166991966Y-107847219D01*
X166991968Y-107847215D01*
X166991971Y-107847213D01*
X167044730Y-107774593D01*
X167044732Y-107774591D01*
X167068172Y-107742327D01*
X167112287Y-107681610D01*
X167205220Y-107499219D01*
X167268477Y-107304534D01*
X167300500Y-107102352D01*
X167300500Y-106897648D01*
X167300499Y-106897642D01*
X178199500Y-106897642D01*
X178199500Y-107102356D01*
X178231521Y-107304530D01*
X178294780Y-107499221D01*
X178294786Y-107499234D01*
X178387708Y-107681601D01*
X178387709Y-107681602D01*
X178387715Y-107681613D01*
X178508028Y-107847213D01*
X178652786Y-107991971D01*
X178807749Y-108104556D01*
X178818390Y-108112287D01*
X178934607Y-108171503D01*
X178995154Y-108202353D01*
X178996043Y-108202824D01*
X178996249Y-108203025D01*
X178999629Y-108204662D01*
X179001637Y-108205660D01*
X179005403Y-108206722D01*
X179045488Y-108219746D01*
X179105135Y-108239126D01*
X179105136Y-108239127D01*
X179148612Y-108253253D01*
X179195465Y-108268477D01*
X179296557Y-108284488D01*
X179397648Y-108300500D01*
X179397649Y-108300500D01*
X179602351Y-108300500D01*
X179602352Y-108300500D01*
X179804534Y-108268477D01*
X179999219Y-108205220D01*
X180181610Y-108112287D01*
X180274590Y-108044732D01*
X180347213Y-107991971D01*
X180347213Y-107991969D01*
X180347272Y-107991927D01*
X180348031Y-107991153D01*
X180491966Y-107847219D01*
X180491968Y-107847215D01*
X180491971Y-107847213D01*
X180544730Y-107774593D01*
X180544732Y-107774591D01*
X180568172Y-107742327D01*
X180612287Y-107681610D01*
X180705220Y-107499219D01*
X180768477Y-107304534D01*
X180800500Y-107102352D01*
X180800500Y-106897648D01*
X180800499Y-106897642D01*
X191699500Y-106897642D01*
X191699500Y-107102356D01*
X191731521Y-107304530D01*
X191794780Y-107499221D01*
X191794786Y-107499234D01*
X191887708Y-107681601D01*
X191887709Y-107681602D01*
X191887715Y-107681613D01*
X192008028Y-107847213D01*
X192152786Y-107991971D01*
X192307749Y-108104556D01*
X192318390Y-108112287D01*
X192434607Y-108171503D01*
X192495154Y-108202353D01*
X192496043Y-108202824D01*
X192496249Y-108203025D01*
X192499629Y-108204662D01*
X192501637Y-108205660D01*
X192505403Y-108206722D01*
X192545488Y-108219746D01*
X192605135Y-108239126D01*
X192605136Y-108239127D01*
X192648612Y-108253253D01*
X192695465Y-108268477D01*
X192796557Y-108284488D01*
X192897648Y-108300500D01*
X192897649Y-108300500D01*
X193102351Y-108300500D01*
X193102352Y-108300500D01*
X193304534Y-108268477D01*
X193499219Y-108205220D01*
X193681610Y-108112287D01*
X193774590Y-108044732D01*
X193847213Y-107991971D01*
X193847213Y-107991969D01*
X193847272Y-107991927D01*
X193848031Y-107991153D01*
X193991966Y-107847219D01*
X193991968Y-107847215D01*
X193991971Y-107847213D01*
X194044730Y-107774593D01*
X194044732Y-107774591D01*
X194068172Y-107742327D01*
X194112287Y-107681610D01*
X194205220Y-107499219D01*
X194268477Y-107304534D01*
X194300500Y-107102352D01*
X194300500Y-106897648D01*
X194268477Y-106695466D01*
X194268476Y-106695462D01*
X194268476Y-106695461D01*
X194207833Y-106508823D01*
X194205220Y-106500781D01*
X194205218Y-106500778D01*
X194205218Y-106500776D01*
X194202977Y-106496378D01*
X194202667Y-106495583D01*
X194201932Y-106494327D01*
X194171503Y-106434607D01*
X194112287Y-106318390D01*
X194104556Y-106307749D01*
X193991971Y-106152786D01*
X193847213Y-106008028D01*
X193847212Y-106008027D01*
X193847211Y-106008026D01*
X193692209Y-105895413D01*
X193692205Y-105895410D01*
X193681613Y-105887715D01*
X193681612Y-105887714D01*
X193681610Y-105887713D01*
X193653171Y-105873222D01*
X193624654Y-105858691D01*
X193624653Y-105858691D01*
X193499223Y-105794781D01*
X193304534Y-105731522D01*
X193304532Y-105731521D01*
X193304530Y-105731521D01*
X193304529Y-105731520D01*
X193129995Y-105703878D01*
X193113409Y-105701251D01*
X193102354Y-105699500D01*
X193102352Y-105699500D01*
X192897648Y-105699500D01*
X192897647Y-105699500D01*
X192873327Y-105703351D01*
X192873326Y-105703350D01*
X192695468Y-105731521D01*
X192500777Y-105794780D01*
X192500764Y-105794786D01*
X192318397Y-105887708D01*
X192318385Y-105887715D01*
X192152787Y-106008027D01*
X192152784Y-106008029D01*
X192008029Y-106152784D01*
X192008027Y-106152787D01*
X191887715Y-106318385D01*
X191887708Y-106318397D01*
X191794786Y-106500764D01*
X191794780Y-106500777D01*
X191731521Y-106695468D01*
X191699500Y-106897642D01*
X180800499Y-106897642D01*
X180768477Y-106695466D01*
X180768476Y-106695462D01*
X180768476Y-106695461D01*
X180707833Y-106508823D01*
X180705220Y-106500781D01*
X180705218Y-106500778D01*
X180705218Y-106500776D01*
X180702977Y-106496378D01*
X180702667Y-106495583D01*
X180701932Y-106494327D01*
X180671503Y-106434607D01*
X180612287Y-106318390D01*
X180604556Y-106307749D01*
X180491971Y-106152786D01*
X180347213Y-106008028D01*
X180347212Y-106008027D01*
X180347211Y-106008026D01*
X180192209Y-105895413D01*
X180192205Y-105895410D01*
X180181613Y-105887715D01*
X180181612Y-105887714D01*
X180181610Y-105887713D01*
X180153171Y-105873222D01*
X180124654Y-105858691D01*
X180124653Y-105858691D01*
X179999223Y-105794781D01*
X179804534Y-105731522D01*
X179804532Y-105731521D01*
X179804530Y-105731521D01*
X179804529Y-105731520D01*
X179629995Y-105703878D01*
X179613409Y-105701251D01*
X179602354Y-105699500D01*
X179602352Y-105699500D01*
X179397648Y-105699500D01*
X179397647Y-105699500D01*
X179373327Y-105703351D01*
X179373326Y-105703350D01*
X179195468Y-105731521D01*
X179000777Y-105794780D01*
X179000764Y-105794786D01*
X178818397Y-105887708D01*
X178818385Y-105887715D01*
X178652787Y-106008027D01*
X178652784Y-106008029D01*
X178508029Y-106152784D01*
X178508027Y-106152787D01*
X178387715Y-106318385D01*
X178387708Y-106318397D01*
X178294786Y-106500764D01*
X178294780Y-106500777D01*
X178231521Y-106695468D01*
X178199500Y-106897642D01*
X167300499Y-106897642D01*
X167268477Y-106695466D01*
X167268476Y-106695462D01*
X167268476Y-106695461D01*
X167207833Y-106508823D01*
X167205220Y-106500781D01*
X167205218Y-106500778D01*
X167205218Y-106500776D01*
X167202977Y-106496378D01*
X167202667Y-106495583D01*
X167201932Y-106494327D01*
X167171503Y-106434607D01*
X167112287Y-106318390D01*
X167104556Y-106307749D01*
X166991971Y-106152786D01*
X166847213Y-106008028D01*
X166847212Y-106008027D01*
X166847211Y-106008026D01*
X166692209Y-105895413D01*
X166692205Y-105895410D01*
X166681613Y-105887715D01*
X166681612Y-105887714D01*
X166681610Y-105887713D01*
X166653171Y-105873222D01*
X166624654Y-105858691D01*
X166624653Y-105858691D01*
X166499223Y-105794781D01*
X166304534Y-105731522D01*
X166304532Y-105731521D01*
X166304530Y-105731521D01*
X166304529Y-105731520D01*
X166129995Y-105703878D01*
X166113409Y-105701251D01*
X166102354Y-105699500D01*
X166102352Y-105699500D01*
X165897648Y-105699500D01*
X165897647Y-105699500D01*
X165873327Y-105703351D01*
X165873326Y-105703350D01*
X165695468Y-105731521D01*
X165500777Y-105794780D01*
X165500764Y-105794786D01*
X165318397Y-105887708D01*
X165318385Y-105887715D01*
X165152787Y-106008027D01*
X165152784Y-106008029D01*
X165008029Y-106152784D01*
X165008027Y-106152787D01*
X164887715Y-106318385D01*
X164887708Y-106318397D01*
X164794786Y-106500764D01*
X164794780Y-106500777D01*
X164731521Y-106695468D01*
X164699500Y-106897642D01*
X153800499Y-106897642D01*
X153768477Y-106695466D01*
X153768476Y-106695462D01*
X153768476Y-106695461D01*
X153707833Y-106508823D01*
X153705220Y-106500781D01*
X153705218Y-106500778D01*
X153705218Y-106500776D01*
X153702977Y-106496378D01*
X153702667Y-106495583D01*
X153701932Y-106494327D01*
X153671503Y-106434607D01*
X153612287Y-106318390D01*
X153604556Y-106307749D01*
X153491971Y-106152786D01*
X153347213Y-106008028D01*
X153347212Y-106008027D01*
X153347211Y-106008026D01*
X153192209Y-105895413D01*
X153192205Y-105895410D01*
X153181613Y-105887715D01*
X153181612Y-105887714D01*
X153181610Y-105887713D01*
X153153171Y-105873222D01*
X153124654Y-105858691D01*
X153124653Y-105858691D01*
X152999223Y-105794781D01*
X152804534Y-105731522D01*
X152804532Y-105731521D01*
X152804530Y-105731521D01*
X152804529Y-105731520D01*
X152629995Y-105703878D01*
X152613409Y-105701251D01*
X152602354Y-105699500D01*
X152602352Y-105699500D01*
X152397648Y-105699500D01*
X152397647Y-105699500D01*
X152373327Y-105703351D01*
X152373326Y-105703350D01*
X152195468Y-105731521D01*
X152000777Y-105794780D01*
X152000764Y-105794786D01*
X151818397Y-105887708D01*
X151818385Y-105887715D01*
X151652787Y-106008027D01*
X151652784Y-106008029D01*
X151508029Y-106152784D01*
X151508027Y-106152787D01*
X151387715Y-106318385D01*
X151387708Y-106318397D01*
X151294786Y-106500764D01*
X151294780Y-106500777D01*
X151231521Y-106695468D01*
X151199500Y-106897642D01*
X140300499Y-106897642D01*
X140268477Y-106695466D01*
X140268476Y-106695462D01*
X140268476Y-106695461D01*
X140207833Y-106508823D01*
X140205220Y-106500781D01*
X140205218Y-106500778D01*
X140205218Y-106500776D01*
X140202977Y-106496378D01*
X140202667Y-106495583D01*
X140201932Y-106494327D01*
X140171503Y-106434607D01*
X140112287Y-106318390D01*
X140104556Y-106307749D01*
X139991971Y-106152786D01*
X139847213Y-106008028D01*
X139847212Y-106008027D01*
X139847211Y-106008026D01*
X139692209Y-105895413D01*
X139692205Y-105895410D01*
X139681613Y-105887715D01*
X139681612Y-105887714D01*
X139681610Y-105887713D01*
X139653171Y-105873222D01*
X139624654Y-105858691D01*
X139624653Y-105858691D01*
X139499223Y-105794781D01*
X139304534Y-105731522D01*
X139304532Y-105731521D01*
X139304530Y-105731521D01*
X139304529Y-105731520D01*
X139129995Y-105703878D01*
X139113409Y-105701251D01*
X139102354Y-105699500D01*
X139102352Y-105699500D01*
X138897648Y-105699500D01*
X138897647Y-105699500D01*
X138873327Y-105703351D01*
X138873326Y-105703350D01*
X138695468Y-105731521D01*
X138500777Y-105794780D01*
X138500764Y-105794786D01*
X138318397Y-105887708D01*
X138318385Y-105887715D01*
X138152787Y-106008027D01*
X138152784Y-106008029D01*
X138008029Y-106152784D01*
X138008027Y-106152787D01*
X137887715Y-106318385D01*
X137887708Y-106318397D01*
X137794786Y-106500764D01*
X137794780Y-106500777D01*
X137731521Y-106695468D01*
X137699500Y-106897642D01*
X126800499Y-106897642D01*
X126768477Y-106695466D01*
X126768476Y-106695462D01*
X126768476Y-106695461D01*
X126707833Y-106508823D01*
X126705220Y-106500781D01*
X126705218Y-106500778D01*
X126705218Y-106500776D01*
X126702977Y-106496378D01*
X126702667Y-106495583D01*
X126701932Y-106494327D01*
X126671503Y-106434607D01*
X126612287Y-106318390D01*
X126604556Y-106307749D01*
X126491971Y-106152786D01*
X126347213Y-106008028D01*
X126347212Y-106008027D01*
X126347211Y-106008026D01*
X126192209Y-105895413D01*
X126192205Y-105895410D01*
X126181613Y-105887715D01*
X126181612Y-105887714D01*
X126181610Y-105887713D01*
X126153171Y-105873222D01*
X126124654Y-105858691D01*
X126124653Y-105858691D01*
X125999223Y-105794781D01*
X125804534Y-105731522D01*
X125804532Y-105731521D01*
X125804530Y-105731521D01*
X125804529Y-105731520D01*
X125629995Y-105703878D01*
X125613409Y-105701251D01*
X125602354Y-105699500D01*
X125602352Y-105699500D01*
X125397648Y-105699500D01*
X125397647Y-105699500D01*
X125373327Y-105703351D01*
X125373326Y-105703350D01*
X125195468Y-105731521D01*
X125000777Y-105794780D01*
X125000764Y-105794786D01*
X124818397Y-105887708D01*
X124818385Y-105887715D01*
X124652787Y-106008027D01*
X124652784Y-106008029D01*
X124508029Y-106152784D01*
X124508027Y-106152787D01*
X124387715Y-106318385D01*
X124387708Y-106318397D01*
X124294786Y-106500764D01*
X124294780Y-106500777D01*
X124231521Y-106695468D01*
X124199500Y-106897642D01*
X119800499Y-106897642D01*
X119768477Y-106695466D01*
X119768476Y-106695462D01*
X119768476Y-106695461D01*
X119707833Y-106508823D01*
X119705220Y-106500781D01*
X119705218Y-106500778D01*
X119705218Y-106500776D01*
X119702977Y-106496378D01*
X119702667Y-106495583D01*
X119701932Y-106494327D01*
X119671503Y-106434607D01*
X119612287Y-106318390D01*
X119604556Y-106307749D01*
X119491971Y-106152786D01*
X119347213Y-106008028D01*
X119347212Y-106008027D01*
X119347211Y-106008026D01*
X119192209Y-105895413D01*
X119192205Y-105895410D01*
X119181613Y-105887715D01*
X119181612Y-105887714D01*
X119181610Y-105887713D01*
X119153171Y-105873222D01*
X119124654Y-105858691D01*
X119124653Y-105858691D01*
X118999223Y-105794781D01*
X118804534Y-105731522D01*
X118804532Y-105731521D01*
X118804530Y-105731521D01*
X118804529Y-105731520D01*
X118629995Y-105703878D01*
X118613409Y-105701251D01*
X118602354Y-105699500D01*
X118602352Y-105699500D01*
X118397648Y-105699500D01*
X118397647Y-105699500D01*
X118373327Y-105703351D01*
X118373326Y-105703350D01*
X118195468Y-105731521D01*
X118000777Y-105794780D01*
X118000764Y-105794786D01*
X117818397Y-105887708D01*
X117818385Y-105887715D01*
X117652787Y-106008027D01*
X117652784Y-106008029D01*
X117508029Y-106152784D01*
X117508027Y-106152787D01*
X117387715Y-106318385D01*
X117387708Y-106318397D01*
X117294786Y-106500764D01*
X117294780Y-106500777D01*
X117231521Y-106695468D01*
X117199500Y-106897642D01*
X112800499Y-106897642D01*
X112768477Y-106695466D01*
X112768476Y-106695462D01*
X112768476Y-106695461D01*
X112707833Y-106508823D01*
X112705220Y-106500781D01*
X112705218Y-106500778D01*
X112705218Y-106500776D01*
X112702977Y-106496378D01*
X112702667Y-106495583D01*
X112701932Y-106494327D01*
X112671503Y-106434607D01*
X112612287Y-106318390D01*
X112604556Y-106307749D01*
X112491971Y-106152786D01*
X112347213Y-106008028D01*
X112347212Y-106008027D01*
X112347211Y-106008026D01*
X112192209Y-105895413D01*
X112192205Y-105895410D01*
X112181613Y-105887715D01*
X112181612Y-105887714D01*
X112181610Y-105887713D01*
X112153171Y-105873222D01*
X112124654Y-105858691D01*
X112124653Y-105858691D01*
X111999223Y-105794781D01*
X111804534Y-105731522D01*
X111804532Y-105731521D01*
X111804530Y-105731521D01*
X111804529Y-105731520D01*
X111629995Y-105703878D01*
X111613409Y-105701251D01*
X111602354Y-105699500D01*
X111602352Y-105699500D01*
X111397648Y-105699500D01*
X111397647Y-105699500D01*
X111373327Y-105703351D01*
X111373326Y-105703350D01*
X111195468Y-105731521D01*
X111000777Y-105794780D01*
X111000764Y-105794786D01*
X110818397Y-105887708D01*
X110818385Y-105887715D01*
X110652787Y-106008027D01*
X110652784Y-106008029D01*
X110508029Y-106152784D01*
X110508027Y-106152787D01*
X110387715Y-106318385D01*
X110387708Y-106318397D01*
X110294786Y-106500764D01*
X110294780Y-106500777D01*
X110231521Y-106695468D01*
X110199500Y-106897642D01*
X96500000Y-106897642D01*
X96500000Y-103000000D01*
X106500000Y-103000000D01*
X106500000Y-103250000D01*
X157867192Y-103250000D01*
X157934231Y-103269685D01*
X157954873Y-103286319D01*
X158243850Y-103575296D01*
X158277335Y-103636619D01*
X158272351Y-103706311D01*
X158230479Y-103762244D01*
X158218173Y-103770362D01*
X158192996Y-103784898D01*
X158192990Y-103784903D01*
X158099903Y-103877990D01*
X158099898Y-103877996D01*
X158085362Y-103903173D01*
X158034793Y-103951387D01*
X157966185Y-103964607D01*
X157901322Y-103938637D01*
X157890296Y-103928850D01*
X157459446Y-103498000D01*
X157384728Y-103423282D01*
X157384727Y-103423282D01*
X157345380Y-103477439D01*
X157334904Y-103498000D01*
X157248903Y-103666784D01*
X157183242Y-103868865D01*
X157181798Y-103877990D01*
X157150000Y-104078753D01*
X157150000Y-104291246D01*
X157175860Y-104454519D01*
X157181715Y-104491485D01*
X157181716Y-104491493D01*
X157183242Y-104501133D01*
X157217886Y-104607754D01*
X157248904Y-104703217D01*
X157345374Y-104892548D01*
X157345375Y-104892550D01*
X157380674Y-104941137D01*
X157384728Y-104946716D01*
X157890297Y-104441147D01*
X157951619Y-104407663D01*
X158021311Y-104412647D01*
X158077244Y-104454519D01*
X158085363Y-104466828D01*
X158099896Y-104492000D01*
X158099899Y-104492004D01*
X158099901Y-104492007D01*
X158192993Y-104585099D01*
X158218169Y-104599634D01*
X158266384Y-104650202D01*
X158279606Y-104718809D01*
X158253638Y-104783673D01*
X158243849Y-104794702D01*
X157738282Y-105300268D01*
X157738282Y-105300269D01*
X157738282Y-105300270D01*
X157792449Y-105339624D01*
X157981782Y-105436095D01*
X157981784Y-105436096D01*
X158183866Y-105501756D01*
X158183867Y-105501756D01*
X158183870Y-105501757D01*
X158393754Y-105535000D01*
X158606245Y-105535000D01*
X158606246Y-105535000D01*
X158719050Y-105517132D01*
X158806487Y-105503284D01*
X158806493Y-105503283D01*
X158816127Y-105501757D01*
X158816130Y-105501757D01*
X159018217Y-105436095D01*
X159207554Y-105339622D01*
X159209976Y-105337862D01*
X159229121Y-105323953D01*
X159255858Y-105314412D01*
X159261717Y-105300269D01*
X158756149Y-104794702D01*
X158722664Y-104733379D01*
X158727648Y-104663688D01*
X158769519Y-104607754D01*
X158781822Y-104599639D01*
X158807007Y-104585099D01*
X158900099Y-104492007D01*
X158914634Y-104466830D01*
X158965199Y-104418616D01*
X159033805Y-104405391D01*
X159098671Y-104431358D01*
X159109702Y-104441149D01*
X159615269Y-104946717D01*
X159615269Y-104946716D01*
X159615270Y-104946717D01*
X159615270Y-104946716D01*
X159628738Y-104941137D01*
X159634955Y-104919967D01*
X159638954Y-104914118D01*
X159654621Y-104892555D01*
X159654625Y-104892548D01*
X159751095Y-104703217D01*
X159816757Y-104501130D01*
X159816757Y-104501127D01*
X159850000Y-104291246D01*
X159850000Y-104078753D01*
X159836260Y-103992007D01*
X159818284Y-103878511D01*
X159818283Y-103878505D01*
X159818283Y-103878506D01*
X159816756Y-103868865D01*
X159789473Y-103784898D01*
X159751095Y-103666782D01*
X159654624Y-103477449D01*
X159615270Y-103423282D01*
X159615269Y-103423282D01*
X159540551Y-103498000D01*
X159109702Y-103928849D01*
X159048379Y-103962334D01*
X158978687Y-103957350D01*
X158922754Y-103915478D01*
X158914634Y-103903169D01*
X158900099Y-103877993D01*
X158807007Y-103784901D01*
X158807004Y-103784899D01*
X158807000Y-103784896D01*
X158781828Y-103770363D01*
X158733613Y-103719796D01*
X158720391Y-103651189D01*
X158746359Y-103586324D01*
X158756134Y-103575311D01*
X159045126Y-103286318D01*
X159106449Y-103252834D01*
X159132807Y-103250000D01*
X197500000Y-103250000D01*
X197500000Y-81000000D01*
X107000000Y-81000000D01*
X106500000Y-81000000D01*
X106500000Y-103000000D01*
X96500000Y-103000000D01*
X96500000Y-75256096D01*
X96500066Y-75252056D01*
X96500198Y-75248007D01*
X96500397Y-75243937D01*
X96518452Y-74968457D01*
X96519247Y-74960388D01*
X96520308Y-74952334D01*
X96521620Y-74944390D01*
X96574292Y-74679590D01*
X96576129Y-74671712D01*
X96576132Y-74671700D01*
X96578230Y-74663872D01*
X96580571Y-74656152D01*
X96667359Y-74400481D01*
X96670210Y-74392909D01*
X96673307Y-74385432D01*
X96676644Y-74378065D01*
X96796065Y-74135903D01*
X96799858Y-74128805D01*
X96803945Y-74121726D01*
X96808191Y-74114899D01*
X96958194Y-73890403D01*
X96962910Y-73883822D01*
X96967847Y-73877388D01*
X96972953Y-73871165D01*
X97150997Y-73668145D01*
X97156514Y-73662255D01*
X97162255Y-73656514D01*
X97168145Y-73650997D01*
X97371165Y-73472953D01*
X97377388Y-73467847D01*
X97383827Y-73462905D01*
X97390408Y-73458191D01*
X97614899Y-73308191D01*
X97621726Y-73303945D01*
X97628805Y-73299858D01*
X97635903Y-73296065D01*
X97878065Y-73176644D01*
X97885419Y-73173312D01*
X97892390Y-73170424D01*
X97892909Y-73170210D01*
X97900481Y-73167359D01*
X98156152Y-73080571D01*
X98163874Y-73078228D01*
X98171718Y-73076127D01*
X98179590Y-73074292D01*
X98444390Y-73021620D01*
X98452334Y-73020308D01*
X98460396Y-73019246D01*
X98468443Y-73018453D01*
X98743957Y-73000396D01*
X98748008Y-73000198D01*
X98752057Y-73000066D01*
X98756097Y-73000000D01*
X204243903Y-73000000D01*
X204247944Y-73000066D01*
G37*
%TD.AperFunction*%
%TD*%
M02*
