%TF.GenerationSoftware,KiCad,Pcbnew,10.0.0*%
%TF.CreationDate,2026-04-25T23:15:49-07:00*%
%TF.ProjectId,EE_201_FINAL_final_sensor,45455f32-3031-45f4-9649-4e414c5f6669,rev?*%
%TF.SameCoordinates,Original*%
%TF.FileFunction,Copper,L1,Top*%
%TF.FilePolarity,Positive*%
%FSLAX46Y46*%
G04 Gerber Fmt 4.6, Leading zero omitted, Abs format (unit mm)*
G04 Created by KiCad (PCBNEW 10.0.0) date 2026-04-25 23:15:49*
%MOMM*%
%LPD*%
G01*
G04 APERTURE LIST*
%TA.AperFunction,EtchedComponent*%
%ADD10C,0.000000*%
%TD*%
%TA.AperFunction,ComponentPad*%
%ADD11C,1.600000*%
%TD*%
%TA.AperFunction,ComponentPad*%
%ADD12R,1.800000X1.800000*%
%TD*%
%TA.AperFunction,ComponentPad*%
%ADD13C,1.800000*%
%TD*%
%TA.AperFunction,ComponentPad*%
%ADD14C,6.400000*%
%TD*%
%TA.AperFunction,ComponentPad*%
%ADD15R,1.700000X1.700000*%
%TD*%
%TA.AperFunction,ComponentPad*%
%ADD16C,1.700000*%
%TD*%
%TA.AperFunction,Conductor*%
%ADD17C,1.000000*%
%TD*%
G04 APERTURE END LIST*
D10*
%TA.AperFunction,EtchedComponent*%
%TO.C,logo*%
G36*
X176433836Y-57392010D02*
G01*
X176572828Y-57397768D01*
X176669819Y-57406334D01*
X176711614Y-57416863D01*
X176712309Y-57418461D01*
X176689073Y-57458559D01*
X176630985Y-57524177D01*
X176606915Y-57547994D01*
X176501521Y-57648968D01*
X176501521Y-58773901D01*
X176501521Y-59898835D01*
X176631610Y-60032059D01*
X176761700Y-60165283D01*
X176290732Y-60165283D01*
X175819764Y-60165283D01*
X175949854Y-60032059D01*
X176079944Y-59898835D01*
X176079944Y-58777592D01*
X176079944Y-57656350D01*
X175949854Y-57523126D01*
X175819764Y-57389902D01*
X176266037Y-57389902D01*
X176433836Y-57392010D01*
G37*
%TD.AperFunction*%
%TA.AperFunction,EtchedComponent*%
G36*
X182722356Y-57392010D02*
G01*
X182861348Y-57397768D01*
X182958339Y-57406334D01*
X183000134Y-57416863D01*
X183000829Y-57418461D01*
X182977593Y-57458559D01*
X182919505Y-57524177D01*
X182895435Y-57547994D01*
X182790041Y-57648968D01*
X182790041Y-58784165D01*
X182790041Y-59919363D01*
X183113799Y-59919363D01*
X183437558Y-59919363D01*
X183605639Y-59753809D01*
X183773720Y-59588256D01*
X183773720Y-59876769D01*
X183773720Y-60165283D01*
X182941002Y-60165283D01*
X182108285Y-60165283D01*
X182238374Y-60032059D01*
X182368464Y-59898835D01*
X182368464Y-58777592D01*
X182368464Y-57656350D01*
X182238374Y-57523126D01*
X182108285Y-57389902D01*
X182554557Y-57389902D01*
X182722356Y-57392010D01*
G37*
%TD.AperFunction*%
%TA.AperFunction,EtchedComponent*%
G36*
X170607710Y-62029387D02*
G01*
X170745151Y-62035231D01*
X170840378Y-62043914D01*
X170880089Y-62054571D01*
X170880497Y-62055805D01*
X170857261Y-62095903D01*
X170799173Y-62161521D01*
X170775103Y-62185338D01*
X170669709Y-62286312D01*
X170669709Y-63414937D01*
X170669709Y-64543562D01*
X170775103Y-64644536D01*
X170840928Y-64713897D01*
X170877706Y-64764872D01*
X170880497Y-64774068D01*
X170847569Y-64784809D01*
X170757583Y-64793705D01*
X170623738Y-64799912D01*
X170459232Y-64802583D01*
X170434463Y-64802627D01*
X169988429Y-64802627D01*
X170100715Y-64686778D01*
X170213001Y-64570928D01*
X170213001Y-63428620D01*
X170213001Y-62286312D01*
X170107606Y-62185338D01*
X170041781Y-62115977D01*
X170005004Y-62065002D01*
X170002212Y-62055805D01*
X170035123Y-62044987D01*
X170124988Y-62036049D01*
X170258506Y-62029856D01*
X170422376Y-62027273D01*
X170441355Y-62027247D01*
X170607710Y-62029387D01*
G37*
%TD.AperFunction*%
%TA.AperFunction,EtchedComponent*%
G36*
X181709231Y-62029387D02*
G01*
X181846673Y-62035231D01*
X181941900Y-62043914D01*
X181981611Y-62054571D01*
X181982019Y-62055805D01*
X181958783Y-62095903D01*
X181900695Y-62161521D01*
X181876624Y-62185338D01*
X181771230Y-62286312D01*
X181771230Y-63428620D01*
X181771230Y-64570928D01*
X181883516Y-64686778D01*
X181995802Y-64802627D01*
X181549768Y-64802627D01*
X181382017Y-64800519D01*
X181243076Y-64794757D01*
X181146144Y-64786187D01*
X181104418Y-64775654D01*
X181103734Y-64774068D01*
X181126970Y-64733970D01*
X181185058Y-64668353D01*
X181209128Y-64644536D01*
X181314522Y-64543562D01*
X181314522Y-63414937D01*
X181314522Y-62286312D01*
X181209128Y-62185338D01*
X181143303Y-62115977D01*
X181106525Y-62065002D01*
X181103734Y-62055805D01*
X181136645Y-62044987D01*
X181226510Y-62036049D01*
X181360028Y-62029856D01*
X181523898Y-62027273D01*
X181542876Y-62027247D01*
X181709231Y-62029387D01*
G37*
%TD.AperFunction*%
%TA.AperFunction,EtchedComponent*%
G36*
X204747164Y-57678416D02*
G01*
X204747164Y-57966929D01*
X204579083Y-57801376D01*
X204485987Y-57712948D01*
X204415839Y-57663408D01*
X204342367Y-57641501D01*
X204239297Y-57635971D01*
X204192638Y-57635822D01*
X203974273Y-57635822D01*
X203974273Y-58767328D01*
X203974273Y-59898835D01*
X204104363Y-60032059D01*
X204234453Y-60165283D01*
X203788180Y-60165283D01*
X203620381Y-60163175D01*
X203481389Y-60157417D01*
X203384398Y-60148851D01*
X203342604Y-60138322D01*
X203341908Y-60136724D01*
X203365144Y-60096626D01*
X203423232Y-60031008D01*
X203447302Y-60007191D01*
X203552696Y-59906217D01*
X203552696Y-58771020D01*
X203552696Y-57635822D01*
X203334332Y-57635822D01*
X203215142Y-57638338D01*
X203134519Y-57653389D01*
X203066189Y-57692230D01*
X202983881Y-57766116D01*
X202947887Y-57801376D01*
X202779806Y-57966929D01*
X202779806Y-57678416D01*
X202779806Y-57389902D01*
X203763485Y-57389902D01*
X204747164Y-57389902D01*
X204747164Y-57678416D01*
G37*
%TD.AperFunction*%
%TA.AperFunction,EtchedComponent*%
G36*
X167036265Y-68073189D02*
G01*
X167136411Y-68082086D01*
X167188085Y-68094841D01*
X167191701Y-68099533D01*
X167168210Y-68142898D01*
X167121438Y-68192807D01*
X167099605Y-68215950D01*
X167082826Y-68246743D01*
X167070438Y-68293960D01*
X167061778Y-68366379D01*
X167056185Y-68472774D01*
X167052995Y-68621923D01*
X167051547Y-68822600D01*
X167051178Y-69083582D01*
X167051175Y-69123789D01*
X167051449Y-69393558D01*
X167052713Y-69601840D01*
X167055630Y-69757413D01*
X167060862Y-69869051D01*
X167069070Y-69945531D01*
X167080918Y-69995630D01*
X167097067Y-70028122D01*
X167118181Y-70051784D01*
X167121438Y-70054771D01*
X167173759Y-70112046D01*
X167191701Y-70148044D01*
X167159317Y-70161688D01*
X167073121Y-70172024D01*
X166949543Y-70177358D01*
X166904077Y-70177731D01*
X166616453Y-70177731D01*
X166710854Y-70079197D01*
X166805255Y-69980663D01*
X166805255Y-69123789D01*
X166805255Y-68266914D01*
X166710854Y-68168381D01*
X166616453Y-68069847D01*
X166904077Y-68069847D01*
X167036265Y-68073189D01*
G37*
%TD.AperFunction*%
%TA.AperFunction,EtchedComponent*%
G36*
X175612243Y-68168381D02*
G01*
X175517842Y-68266914D01*
X175517842Y-69123789D01*
X175517842Y-69980663D01*
X175612243Y-70079197D01*
X175706644Y-70177731D01*
X175419020Y-70177731D01*
X175286832Y-70174388D01*
X175186685Y-70165492D01*
X175135012Y-70152737D01*
X175131396Y-70148044D01*
X175154887Y-70104679D01*
X175201659Y-70054771D01*
X175223491Y-70031627D01*
X175240270Y-70000835D01*
X175252659Y-69953617D01*
X175261318Y-69881199D01*
X175266912Y-69774803D01*
X175270102Y-69625655D01*
X175271550Y-69424978D01*
X175271919Y-69163995D01*
X175271922Y-69123789D01*
X175271648Y-68854020D01*
X175270383Y-68645738D01*
X175267467Y-68490165D01*
X175262235Y-68378527D01*
X175254027Y-68302046D01*
X175242179Y-68251948D01*
X175226029Y-68219456D01*
X175204916Y-68195794D01*
X175201659Y-68192807D01*
X175149338Y-68135532D01*
X175131396Y-68099533D01*
X175163780Y-68085890D01*
X175249976Y-68075554D01*
X175373554Y-68070220D01*
X175419020Y-68069847D01*
X175706644Y-68069847D01*
X175612243Y-68168381D01*
G37*
%TD.AperFunction*%
%TA.AperFunction,EtchedComponent*%
G36*
X193560469Y-68073189D02*
G01*
X193660616Y-68082086D01*
X193712290Y-68094841D01*
X193715905Y-68099533D01*
X193692414Y-68142898D01*
X193645642Y-68192807D01*
X193623810Y-68215950D01*
X193607031Y-68246743D01*
X193594643Y-68293960D01*
X193585983Y-68366379D01*
X193580390Y-68472774D01*
X193577200Y-68621923D01*
X193575752Y-68822600D01*
X193575383Y-69083582D01*
X193575380Y-69123789D01*
X193575654Y-69393558D01*
X193576918Y-69601840D01*
X193579835Y-69757413D01*
X193585066Y-69869051D01*
X193593275Y-69945531D01*
X193605123Y-69995630D01*
X193621272Y-70028122D01*
X193642386Y-70051784D01*
X193645642Y-70054771D01*
X193697964Y-70112046D01*
X193715905Y-70148044D01*
X193683522Y-70161688D01*
X193597325Y-70172024D01*
X193473748Y-70177358D01*
X193428281Y-70177731D01*
X193140657Y-70177731D01*
X193235059Y-70079197D01*
X193329460Y-69980663D01*
X193329460Y-69123789D01*
X193329460Y-68266914D01*
X193235059Y-68168381D01*
X193140657Y-68069847D01*
X193428281Y-68069847D01*
X193560469Y-68073189D01*
G37*
%TD.AperFunction*%
%TA.AperFunction,EtchedComponent*%
G36*
X165021818Y-57392043D02*
G01*
X165159259Y-57397887D01*
X165254486Y-57406570D01*
X165294197Y-57417227D01*
X165294605Y-57418461D01*
X165271369Y-57458559D01*
X165213281Y-57524177D01*
X165189211Y-57547994D01*
X165083817Y-57648968D01*
X165083817Y-58784165D01*
X165083817Y-59919363D01*
X165390010Y-59919363D01*
X165696203Y-59919363D01*
X165864284Y-59753809D01*
X166032364Y-59588256D01*
X166032364Y-59876769D01*
X166032364Y-60165283D01*
X165224342Y-60165283D01*
X164994524Y-60164099D01*
X164790125Y-60160778D01*
X164620954Y-60155668D01*
X164496817Y-60149114D01*
X164427521Y-60141463D01*
X164416320Y-60136724D01*
X164439556Y-60096626D01*
X164497644Y-60031008D01*
X164521714Y-60007191D01*
X164627109Y-59906217D01*
X164627109Y-58777592D01*
X164627109Y-57648968D01*
X164521714Y-57547994D01*
X164455889Y-57478633D01*
X164419112Y-57427658D01*
X164416320Y-57418461D01*
X164449231Y-57407642D01*
X164539096Y-57398704D01*
X164672614Y-57392511D01*
X164836484Y-57389929D01*
X164855463Y-57389902D01*
X165021818Y-57392043D01*
G37*
%TD.AperFunction*%
%TA.AperFunction,EtchedComponent*%
G36*
X177625725Y-68269961D02*
G01*
X177625725Y-68470076D01*
X177509876Y-68357790D01*
X177427607Y-68288440D01*
X177347682Y-68255205D01*
X177237074Y-68245664D01*
X177211259Y-68245504D01*
X177028492Y-68245504D01*
X177028492Y-69130307D01*
X177028698Y-69402567D01*
X177029784Y-69613414D01*
X177032450Y-69771701D01*
X177037395Y-69886277D01*
X177045319Y-69965994D01*
X177056922Y-70019702D01*
X177072904Y-70056252D01*
X177093964Y-70084495D01*
X177104878Y-70096421D01*
X177181265Y-70177731D01*
X176887517Y-70177731D01*
X176593769Y-70177731D01*
X176688171Y-70079197D01*
X176782572Y-69980663D01*
X176782572Y-69113084D01*
X176782572Y-68245504D01*
X176595922Y-68245504D01*
X176476684Y-68251366D01*
X176397250Y-68276281D01*
X176327626Y-68331239D01*
X176308298Y-68350898D01*
X176238937Y-68416724D01*
X176187962Y-68453501D01*
X176178765Y-68456292D01*
X176163124Y-68424520D01*
X176152751Y-68342561D01*
X176150207Y-68263070D01*
X176150207Y-68069847D01*
X176887966Y-68069847D01*
X177625725Y-68069847D01*
X177625725Y-68269961D01*
G37*
%TD.AperFunction*%
%TA.AperFunction,EtchedComponent*%
G36*
X168140248Y-57678416D02*
G01*
X168140248Y-57966929D01*
X167972167Y-57801376D01*
X167804086Y-57635822D01*
X167445196Y-57635822D01*
X167086306Y-57635822D01*
X167086306Y-58092530D01*
X167086306Y-58549238D01*
X167356902Y-58549238D01*
X167496569Y-58547344D01*
X167587544Y-58537488D01*
X167651378Y-58513408D01*
X167709621Y-58468842D01*
X167743348Y-58436953D01*
X167859197Y-58324667D01*
X167859197Y-58690002D01*
X167859197Y-59055338D01*
X167725973Y-58925248D01*
X167652734Y-58857530D01*
X167590885Y-58818633D01*
X167516740Y-58800584D01*
X167406614Y-58795410D01*
X167339528Y-58795158D01*
X167086306Y-58795158D01*
X167086306Y-59357261D01*
X167086306Y-59919363D01*
X167445196Y-59919363D01*
X167804086Y-59919363D01*
X167972167Y-59753809D01*
X168140248Y-59588256D01*
X168140248Y-59876769D01*
X168140248Y-60165283D01*
X167272399Y-60165283D01*
X166404550Y-60165283D01*
X166534640Y-60032059D01*
X166664730Y-59898835D01*
X166664730Y-58777592D01*
X166664730Y-57656350D01*
X166534640Y-57523126D01*
X166404550Y-57389902D01*
X167272399Y-57389902D01*
X168140248Y-57389902D01*
X168140248Y-57678416D01*
G37*
%TD.AperFunction*%
%TA.AperFunction,EtchedComponent*%
G36*
X172882987Y-57677869D02*
G01*
X172882987Y-57966929D01*
X172714906Y-57801376D01*
X172621810Y-57712948D01*
X172551662Y-57663408D01*
X172478189Y-57641501D01*
X172375120Y-57635971D01*
X172328461Y-57635822D01*
X172110096Y-57635822D01*
X172110096Y-58771020D01*
X172110096Y-59906217D01*
X172215490Y-60007191D01*
X172281316Y-60076552D01*
X172318093Y-60127527D01*
X172320884Y-60136724D01*
X172287974Y-60147543D01*
X172198108Y-60156481D01*
X172064590Y-60162674D01*
X171900720Y-60165256D01*
X171881742Y-60165283D01*
X171715387Y-60163142D01*
X171577945Y-60157298D01*
X171482718Y-60148615D01*
X171443007Y-60137958D01*
X171442600Y-60136724D01*
X171465836Y-60096626D01*
X171523924Y-60031008D01*
X171547994Y-60007191D01*
X171653388Y-59906217D01*
X171653388Y-58771020D01*
X171653388Y-57635822D01*
X171435023Y-57635822D01*
X171316290Y-57638298D01*
X171235822Y-57653185D01*
X171167611Y-57691669D01*
X171085646Y-57764938D01*
X171047040Y-57802696D01*
X170877420Y-57969570D01*
X170887742Y-57688519D01*
X170898063Y-57407468D01*
X171890525Y-57398138D01*
X172882987Y-57388808D01*
X172882987Y-57677869D01*
G37*
%TD.AperFunction*%
%TA.AperFunction,EtchedComponent*%
G36*
X175869156Y-62315760D02*
G01*
X175869156Y-62604273D01*
X175701075Y-62438720D01*
X175532994Y-62273166D01*
X175174104Y-62273166D01*
X174815214Y-62273166D01*
X174815214Y-62729875D01*
X174815214Y-63186583D01*
X175085809Y-63186583D01*
X175225476Y-63184689D01*
X175316451Y-63174833D01*
X175380285Y-63150752D01*
X175438529Y-63106186D01*
X175472255Y-63074297D01*
X175588104Y-62962011D01*
X175588104Y-63327347D01*
X175588104Y-63692682D01*
X175454880Y-63562592D01*
X175381641Y-63494874D01*
X175319792Y-63455977D01*
X175245647Y-63437929D01*
X175135521Y-63432755D01*
X175068435Y-63432503D01*
X174815214Y-63432503D01*
X174815214Y-63994605D01*
X174815214Y-64556707D01*
X175191546Y-64556707D01*
X175567879Y-64556707D01*
X175718517Y-64408867D01*
X175869156Y-64261027D01*
X175869156Y-64531827D01*
X175869156Y-64802627D01*
X175001306Y-64802627D01*
X174133457Y-64802627D01*
X174263547Y-64669403D01*
X174393637Y-64536179D01*
X174393637Y-63414937D01*
X174393637Y-62293695D01*
X174263547Y-62160471D01*
X174133457Y-62027247D01*
X175001306Y-62027247D01*
X175869156Y-62027247D01*
X175869156Y-62315760D01*
G37*
%TD.AperFunction*%
%TA.AperFunction,EtchedComponent*%
G36*
X173610730Y-62160041D02*
G01*
X173481060Y-62292835D01*
X173471857Y-63650998D01*
X173462655Y-65009161D01*
X172689764Y-63808514D01*
X171916873Y-62607867D01*
X171907514Y-63571432D01*
X171898154Y-64534998D01*
X172028821Y-64668812D01*
X172159487Y-64802627D01*
X171783478Y-64802627D01*
X171630474Y-64800141D01*
X171507456Y-64793411D01*
X171428797Y-64783529D01*
X171407468Y-64774068D01*
X171430704Y-64733970D01*
X171488792Y-64668353D01*
X171512862Y-64644536D01*
X171618257Y-64543562D01*
X171618257Y-63414937D01*
X171618257Y-62286312D01*
X171512862Y-62185338D01*
X171447001Y-62115654D01*
X171410238Y-62063973D01*
X171407468Y-62054533D01*
X171440036Y-62042769D01*
X171527653Y-62035349D01*
X171655194Y-62033158D01*
X171745857Y-62034757D01*
X172084246Y-62044812D01*
X172632925Y-62903930D01*
X173181604Y-63763048D01*
X173191119Y-63029318D01*
X173200634Y-62295588D01*
X173094507Y-62186093D01*
X173029526Y-62113848D01*
X172992028Y-62062090D01*
X172988381Y-62051923D01*
X173021113Y-62041882D01*
X173109726Y-62033808D01*
X173239845Y-62028646D01*
X173364391Y-62027247D01*
X173740400Y-62027247D01*
X173610730Y-62160041D01*
G37*
%TD.AperFunction*%
%TA.AperFunction,EtchedComponent*%
G36*
X183725848Y-62902170D02*
G01*
X184283125Y-63777094D01*
X184292625Y-63036325D01*
X184302125Y-62295557D01*
X184196014Y-62186078D01*
X184131037Y-62113838D01*
X184093547Y-62062084D01*
X184089902Y-62051923D01*
X184122551Y-62041564D01*
X184210583Y-62033347D01*
X184339128Y-62028316D01*
X184441216Y-62027247D01*
X184588685Y-62029901D01*
X184705673Y-62037057D01*
X184777309Y-62047506D01*
X184792530Y-62055805D01*
X184769297Y-62095929D01*
X184711243Y-62161503D01*
X184687538Y-62184953D01*
X184582546Y-62285541D01*
X184573361Y-63653649D01*
X184564176Y-65021757D01*
X183791286Y-63820527D01*
X183018395Y-62619298D01*
X183009036Y-63576953D01*
X182999676Y-64534607D01*
X183105647Y-64643941D01*
X183170574Y-64716137D01*
X183208003Y-64767842D01*
X183211618Y-64777951D01*
X183178886Y-64787992D01*
X183090273Y-64796065D01*
X182960154Y-64801227D01*
X182835608Y-64802627D01*
X182459599Y-64802627D01*
X182589688Y-64669403D01*
X182719778Y-64536179D01*
X182719778Y-63414937D01*
X182719778Y-62293695D01*
X182589688Y-62160471D01*
X182459599Y-62027247D01*
X182814084Y-62027247D01*
X183168570Y-62027247D01*
X183725848Y-62902170D01*
G37*
%TD.AperFunction*%
%TA.AperFunction,EtchedComponent*%
G36*
X177187620Y-62035399D02*
G01*
X178064868Y-62044812D01*
X178075128Y-62317081D01*
X178076487Y-62445237D01*
X178070891Y-62540961D01*
X178059518Y-62587406D01*
X178056095Y-62589349D01*
X178018016Y-62566047D01*
X177947805Y-62505299D01*
X177870530Y-62430122D01*
X177714261Y-62270895D01*
X177362593Y-62280813D01*
X177010926Y-62290732D01*
X177001093Y-62738657D01*
X176991261Y-63186583D01*
X177262906Y-63186583D01*
X177402845Y-63184712D01*
X177494014Y-63174950D01*
X177557884Y-63151076D01*
X177615928Y-63106868D01*
X177650401Y-63074297D01*
X177766251Y-62962011D01*
X177766251Y-63327347D01*
X177766251Y-63692682D01*
X177631254Y-63560861D01*
X177556962Y-63491586D01*
X177496564Y-63453036D01*
X177425754Y-63437404D01*
X177320227Y-63436881D01*
X177253592Y-63439554D01*
X177010926Y-63450068D01*
X177001251Y-64003388D01*
X176991576Y-64556707D01*
X177368924Y-64556707D01*
X177746272Y-64556707D01*
X177914353Y-64391154D01*
X178082434Y-64225600D01*
X178082434Y-64514114D01*
X178082434Y-64802627D01*
X177197019Y-64802627D01*
X176311604Y-64802627D01*
X176441694Y-64669403D01*
X176571784Y-64536179D01*
X176571784Y-63414937D01*
X176571784Y-62293695D01*
X176441078Y-62159840D01*
X176310372Y-62025985D01*
X177187620Y-62035399D01*
G37*
%TD.AperFunction*%
%TA.AperFunction,EtchedComponent*%
G36*
X181602066Y-68862309D02*
G01*
X181722125Y-68925893D01*
X181810200Y-69039234D01*
X181840672Y-69120740D01*
X181857133Y-69283424D01*
X181834197Y-69474763D01*
X181776122Y-69668357D01*
X181739194Y-69750088D01*
X181623896Y-69917934D01*
X181472836Y-70053774D01*
X181301662Y-70148246D01*
X181126021Y-70191990D01*
X181008322Y-70187328D01*
X180936046Y-70152029D01*
X180855156Y-70082471D01*
X180838034Y-70063298D01*
X180790788Y-70000953D01*
X180764345Y-69940197D01*
X180754133Y-69859481D01*
X180755569Y-69738193D01*
X180996964Y-69738193D01*
X181024945Y-69891139D01*
X181071152Y-69979770D01*
X181158002Y-70055013D01*
X181249565Y-70062100D01*
X181350167Y-70000810D01*
X181387878Y-69963631D01*
X181472601Y-69838817D01*
X181537852Y-69677314D01*
X181580305Y-69498743D01*
X181596633Y-69322723D01*
X181583509Y-69168875D01*
X181540884Y-69061343D01*
X181458011Y-68995238D01*
X181354203Y-68988356D01*
X181244947Y-69039833D01*
X181199500Y-69080373D01*
X181107247Y-69212840D01*
X181040890Y-69379597D01*
X181003204Y-69561196D01*
X180996964Y-69738193D01*
X180755569Y-69738193D01*
X180755580Y-69737257D01*
X180757789Y-69685165D01*
X180769583Y-69529345D01*
X180793156Y-69415145D01*
X180836185Y-69314039D01*
X180876211Y-69245078D01*
X181004391Y-69079448D01*
X181151186Y-68957051D01*
X181306476Y-68879192D01*
X181460143Y-68847177D01*
X181602066Y-68862309D01*
G37*
%TD.AperFunction*%
%TA.AperFunction,EtchedComponent*%
G36*
X199863900Y-68269249D02*
G01*
X199863900Y-68470076D01*
X199748050Y-68357790D01*
X199665781Y-68288440D01*
X199585856Y-68255205D01*
X199475248Y-68245664D01*
X199449433Y-68245504D01*
X199266666Y-68245504D01*
X199266666Y-69118344D01*
X199266937Y-69389044D01*
X199268188Y-69598227D01*
X199271074Y-69754637D01*
X199276252Y-69867019D01*
X199284378Y-69944117D01*
X199296108Y-69994677D01*
X199312098Y-70027443D01*
X199333005Y-70051160D01*
X199336929Y-70054771D01*
X199389250Y-70112046D01*
X199407192Y-70148044D01*
X199374932Y-70162234D01*
X199289598Y-70172731D01*
X199168357Y-70177601D01*
X199143706Y-70177731D01*
X199017764Y-70174096D01*
X198924597Y-70164482D01*
X198881373Y-70150822D01*
X198880221Y-70148044D01*
X198903711Y-70104679D01*
X198950483Y-70054771D01*
X198972255Y-70031701D01*
X198989003Y-70001009D01*
X199001383Y-69953951D01*
X199010053Y-69881781D01*
X199015667Y-69775755D01*
X199018883Y-69627129D01*
X199020355Y-69427157D01*
X199020741Y-69167096D01*
X199020746Y-69118344D01*
X199020746Y-68245504D01*
X198834096Y-68245504D01*
X198714858Y-68251366D01*
X198635425Y-68276281D01*
X198565800Y-68331239D01*
X198546472Y-68350898D01*
X198476645Y-68416776D01*
X198424651Y-68453532D01*
X198415104Y-68456292D01*
X198399966Y-68424714D01*
X198393605Y-68343575D01*
X198395328Y-68271853D01*
X198405947Y-68087413D01*
X199134923Y-68077917D01*
X199863900Y-68068421D01*
X199863900Y-68269249D01*
G37*
%TD.AperFunction*%
%TA.AperFunction,EtchedComponent*%
G36*
X178605554Y-57373915D02*
G01*
X178815543Y-57402663D01*
X178969501Y-57451498D01*
X179136375Y-57526477D01*
X179136375Y-57815267D01*
X179136375Y-58104058D01*
X178896008Y-57872003D01*
X178780200Y-57767218D01*
X178671771Y-57681336D01*
X178587429Y-57627098D01*
X178560353Y-57616032D01*
X178392108Y-57606210D01*
X178226829Y-57652318D01*
X178108864Y-57731115D01*
X177983223Y-57881908D01*
X177892548Y-58066424D01*
X177834798Y-58292539D01*
X177807932Y-58568127D01*
X177809317Y-58886912D01*
X177831177Y-59174499D01*
X177873121Y-59404847D01*
X177938625Y-59588988D01*
X178031163Y-59737955D01*
X178101865Y-59815777D01*
X178180581Y-59885223D01*
X178251273Y-59921511D01*
X178342894Y-59935178D01*
X178434749Y-59936929D01*
X178642637Y-59936929D01*
X178889506Y-59691951D01*
X179136375Y-59446973D01*
X179136375Y-59749616D01*
X179136375Y-60052259D01*
X178987067Y-60112647D01*
X178843322Y-60152670D01*
X178660876Y-60178310D01*
X178465845Y-60188304D01*
X178284344Y-60181384D01*
X178142487Y-60156286D01*
X178135101Y-60153943D01*
X177890058Y-60037426D01*
X177678769Y-59864915D01*
X177506449Y-59644621D01*
X177378315Y-59384754D01*
X177299582Y-59093526D01*
X177275270Y-58800240D01*
X177280565Y-58643927D01*
X177293623Y-58492150D01*
X177311618Y-58377733D01*
X177311647Y-58377610D01*
X177402233Y-58113224D01*
X177542399Y-57868719D01*
X177721094Y-57658815D01*
X177927270Y-57498234D01*
X178002753Y-57456956D01*
X178173458Y-57401207D01*
X178382959Y-57373478D01*
X178605554Y-57373915D01*
G37*
%TD.AperFunction*%
%TA.AperFunction,EtchedComponent*%
G36*
X166517538Y-62029751D02*
G01*
X166638840Y-62036522D01*
X166715506Y-62046449D01*
X166734992Y-62055486D01*
X166711766Y-62094490D01*
X166652703Y-62161909D01*
X166612439Y-62202510D01*
X166489886Y-62321293D01*
X166480696Y-63660166D01*
X166471507Y-64999040D01*
X165751313Y-63875997D01*
X165587464Y-63621038D01*
X165433523Y-63382532D01*
X165294062Y-63167485D01*
X165173654Y-62982902D01*
X165076870Y-62835792D01*
X165008283Y-62733160D01*
X164972466Y-62682012D01*
X164970808Y-62679934D01*
X164952991Y-62661578D01*
X164939055Y-62659468D01*
X164928513Y-62680682D01*
X164920877Y-62732300D01*
X164915658Y-62821401D01*
X164912368Y-62955066D01*
X164910519Y-63140373D01*
X164909623Y-63384401D01*
X164909329Y-63571547D01*
X164908160Y-64536179D01*
X165038249Y-64669403D01*
X165168339Y-64802627D01*
X164785438Y-64802627D01*
X164402537Y-64802627D01*
X164514823Y-64686778D01*
X164627109Y-64570928D01*
X164627109Y-63428620D01*
X164627109Y-62286312D01*
X164521714Y-62185338D01*
X164455853Y-62115654D01*
X164419090Y-62063973D01*
X164416320Y-62054533D01*
X164448901Y-62042817D01*
X164536607Y-62035398D01*
X164664386Y-62033148D01*
X164758066Y-62034757D01*
X165099812Y-62044812D01*
X165645134Y-62895653D01*
X166190456Y-63746494D01*
X166199971Y-63021041D01*
X166209486Y-62295588D01*
X166103359Y-62186093D01*
X166038378Y-62113848D01*
X166000880Y-62062090D01*
X165997233Y-62051923D01*
X166029942Y-62041793D01*
X166118393Y-62033679D01*
X166248074Y-62028550D01*
X166366113Y-62027247D01*
X166517538Y-62029751D01*
G37*
%TD.AperFunction*%
%TA.AperFunction,EtchedComponent*%
G36*
X170950760Y-68263070D02*
G01*
X170946064Y-68368898D01*
X170933950Y-68439081D01*
X170922201Y-68456292D01*
X170882103Y-68433056D01*
X170816486Y-68374968D01*
X170792669Y-68350898D01*
X170738732Y-68298991D01*
X170686537Y-68267694D01*
X170616719Y-68251815D01*
X170509912Y-68246160D01*
X170399651Y-68245504D01*
X170107606Y-68245504D01*
X170107606Y-68614384D01*
X170107606Y-68983263D01*
X170325255Y-68983263D01*
X170454375Y-68978936D01*
X170539099Y-68960858D01*
X170605031Y-68921385D01*
X170641438Y-68888862D01*
X170739972Y-68794461D01*
X170739972Y-69046953D01*
X170736186Y-69169952D01*
X170726204Y-69259807D01*
X170712087Y-69298982D01*
X170710285Y-69299446D01*
X170666920Y-69275955D01*
X170617012Y-69229183D01*
X170564409Y-69188217D01*
X170487582Y-69166542D01*
X170366045Y-69159134D01*
X170330516Y-69158920D01*
X170107606Y-69158920D01*
X170107606Y-69580497D01*
X170107606Y-70002074D01*
X170399651Y-70002074D01*
X170544938Y-70000556D01*
X170639340Y-69992540D01*
X170702221Y-69972834D01*
X170752946Y-69936244D01*
X170792669Y-69896680D01*
X170862030Y-69830854D01*
X170913005Y-69794077D01*
X170922201Y-69791285D01*
X170937843Y-69823058D01*
X170948216Y-69905016D01*
X170950760Y-69984508D01*
X170950760Y-70177731D01*
X170311822Y-70177731D01*
X169672884Y-70177731D01*
X169767285Y-70079197D01*
X169861687Y-69980663D01*
X169861687Y-69123789D01*
X169861687Y-68266914D01*
X169767285Y-68168381D01*
X169672884Y-68069847D01*
X170311822Y-68069847D01*
X170950760Y-68069847D01*
X170950760Y-68263070D01*
G37*
%TD.AperFunction*%
%TA.AperFunction,EtchedComponent*%
G36*
X170047979Y-57382594D02*
G01*
X170269947Y-57428578D01*
X170309612Y-57441976D01*
X170494052Y-57509177D01*
X170494052Y-57808694D01*
X170494052Y-58108212D01*
X170251126Y-57867147D01*
X170134072Y-57753783D01*
X170048656Y-57681451D01*
X169978458Y-57639933D01*
X169907054Y-57619008D01*
X169838332Y-57610256D01*
X169657934Y-57625879D01*
X169498163Y-57708461D01*
X169358602Y-57858226D01*
X169346801Y-57875330D01*
X169277562Y-58017768D01*
X169221169Y-58212494D01*
X169181195Y-58442151D01*
X169161214Y-58689379D01*
X169159608Y-58784528D01*
X169178429Y-59104863D01*
X169232187Y-59380097D01*
X169318643Y-59606247D01*
X169435556Y-59779333D01*
X169580686Y-59895375D01*
X169751795Y-59950392D01*
X169817929Y-59954494D01*
X169892433Y-59951173D01*
X169954502Y-59935187D01*
X170019072Y-59897501D01*
X170101078Y-59829083D01*
X170215456Y-59720897D01*
X170234311Y-59702637D01*
X170494052Y-59450780D01*
X170494052Y-59751520D01*
X170494052Y-60052259D01*
X170344743Y-60112647D01*
X170185975Y-60156370D01*
X169988099Y-60181753D01*
X169779162Y-60187688D01*
X169587206Y-60173070D01*
X169468908Y-60147204D01*
X169316800Y-60073167D01*
X169153942Y-59952812D01*
X168999546Y-59803376D01*
X168872824Y-59642096D01*
X168833759Y-59577341D01*
X168715328Y-59298370D01*
X168651008Y-59005806D01*
X168638244Y-58709567D01*
X168674484Y-58419572D01*
X168757174Y-58145739D01*
X168883760Y-57897987D01*
X169051690Y-57686234D01*
X169258409Y-57520399D01*
X169379903Y-57455821D01*
X169576516Y-57396609D01*
X169808021Y-57372069D01*
X170047979Y-57382594D01*
G37*
%TD.AperFunction*%
%TA.AperFunction,EtchedComponent*%
G36*
X188133863Y-68098761D02*
G01*
X188161816Y-68137109D01*
X188197436Y-68208914D01*
X188243343Y-68320633D01*
X188302159Y-68478723D01*
X188376505Y-68689639D01*
X188469001Y-68959838D01*
X188488837Y-69018395D01*
X188580020Y-69282801D01*
X188666267Y-69523217D01*
X188744180Y-69730788D01*
X188810356Y-69896658D01*
X188861394Y-70011973D01*
X188890278Y-70063554D01*
X188976742Y-70177731D01*
X188670214Y-70177731D01*
X188363685Y-70177731D01*
X188445771Y-70090354D01*
X188527857Y-70002978D01*
X188463898Y-69791738D01*
X188399940Y-69580497D01*
X188059750Y-69580497D01*
X187719561Y-69580497D01*
X187655602Y-69791738D01*
X187591644Y-70002978D01*
X187673730Y-70090354D01*
X187755816Y-70177731D01*
X187479633Y-70177731D01*
X187203451Y-70177731D01*
X187297398Y-70079672D01*
X187335712Y-70025544D01*
X187383872Y-69930823D01*
X187444018Y-69790209D01*
X187518293Y-69598402D01*
X187588876Y-69404840D01*
X187780127Y-69404840D01*
X188057367Y-69404840D01*
X188334607Y-69404840D01*
X188207130Y-69018983D01*
X188155439Y-68870195D01*
X188109686Y-68752586D01*
X188074925Y-68678238D01*
X188056486Y-68658886D01*
X188035981Y-68700850D01*
X187998455Y-68794445D01*
X187949667Y-68924836D01*
X187906723Y-69044743D01*
X187780127Y-69404840D01*
X187588876Y-69404840D01*
X187608837Y-69350101D01*
X187717794Y-69040007D01*
X187719699Y-69034513D01*
X187819242Y-68749604D01*
X187899635Y-68525161D01*
X187963499Y-68354840D01*
X188013453Y-68232303D01*
X188052117Y-68151207D01*
X188082109Y-68105211D01*
X188106050Y-68087976D01*
X188110957Y-68087413D01*
X188133863Y-68098761D01*
G37*
%TD.AperFunction*%
%TA.AperFunction,EtchedComponent*%
G36*
X163959612Y-57678416D02*
G01*
X163959612Y-57966929D01*
X163791531Y-57801376D01*
X163623450Y-57635822D01*
X163264560Y-57635822D01*
X162905670Y-57635822D01*
X162905670Y-58092530D01*
X162905670Y-58549238D01*
X163162583Y-58549238D01*
X163298607Y-58547017D01*
X163386093Y-58536093D01*
X163446729Y-58510082D01*
X163502202Y-58462596D01*
X163520470Y-58443844D01*
X163589830Y-58378019D01*
X163640806Y-58341241D01*
X163650002Y-58338450D01*
X163661881Y-58371122D01*
X163671342Y-58459325D01*
X163677214Y-58588337D01*
X163678561Y-58696894D01*
X163678561Y-59055338D01*
X163545337Y-58925248D01*
X163472098Y-58857530D01*
X163410248Y-58818633D01*
X163336104Y-58800584D01*
X163225978Y-58795410D01*
X163158891Y-58795158D01*
X162905670Y-58795158D01*
X162905670Y-59357261D01*
X162905670Y-59919363D01*
X163264560Y-59919363D01*
X163623450Y-59919363D01*
X163791531Y-59753809D01*
X163959612Y-59588256D01*
X163959612Y-59876769D01*
X163959612Y-60165283D01*
X163098893Y-60165283D01*
X162861344Y-60164170D01*
X162648911Y-60161041D01*
X162471096Y-60156211D01*
X162337399Y-60149996D01*
X162257325Y-60142710D01*
X162238174Y-60136724D01*
X162261410Y-60096626D01*
X162319498Y-60031008D01*
X162343568Y-60007191D01*
X162448962Y-59906217D01*
X162448962Y-58777592D01*
X162448962Y-57648968D01*
X162343568Y-57547994D01*
X162277742Y-57478633D01*
X162240965Y-57427658D01*
X162238174Y-57418461D01*
X162271720Y-57410579D01*
X162366026Y-57403531D01*
X162511589Y-57397631D01*
X162698906Y-57393195D01*
X162918477Y-57390538D01*
X163098893Y-57389902D01*
X163959612Y-57389902D01*
X163959612Y-57678416D01*
G37*
%TD.AperFunction*%
%TA.AperFunction,EtchedComponent*%
G36*
X163959612Y-62315760D02*
G01*
X163959612Y-62604273D01*
X163791531Y-62438720D01*
X163623450Y-62273166D01*
X163264560Y-62273166D01*
X162905670Y-62273166D01*
X162905670Y-62729875D01*
X162905670Y-63186583D01*
X163162583Y-63186583D01*
X163298607Y-63184361D01*
X163386093Y-63173438D01*
X163446729Y-63147427D01*
X163502202Y-63099941D01*
X163520470Y-63081189D01*
X163589830Y-63015363D01*
X163640806Y-62978586D01*
X163650002Y-62975794D01*
X163661881Y-63008467D01*
X163671342Y-63096669D01*
X163677214Y-63225681D01*
X163678561Y-63334238D01*
X163678561Y-63692682D01*
X163545337Y-63562592D01*
X163472098Y-63494874D01*
X163410248Y-63455977D01*
X163336104Y-63437929D01*
X163225978Y-63432755D01*
X163158891Y-63432503D01*
X162905670Y-63432503D01*
X162905670Y-63994605D01*
X162905670Y-64556707D01*
X163264560Y-64556707D01*
X163623450Y-64556707D01*
X163791531Y-64391154D01*
X163959612Y-64225600D01*
X163959612Y-64514114D01*
X163959612Y-64802627D01*
X163098893Y-64802627D01*
X162861344Y-64801514D01*
X162648911Y-64798385D01*
X162471096Y-64793555D01*
X162337399Y-64787340D01*
X162257325Y-64780055D01*
X162238174Y-64774068D01*
X162261410Y-64733970D01*
X162319498Y-64668353D01*
X162343568Y-64644536D01*
X162448962Y-64543562D01*
X162448962Y-63414937D01*
X162448962Y-62286312D01*
X162343568Y-62185338D01*
X162277742Y-62115977D01*
X162240965Y-62065002D01*
X162238174Y-62055805D01*
X162271720Y-62047923D01*
X162366026Y-62040875D01*
X162511589Y-62034975D01*
X162698906Y-62030539D01*
X162918477Y-62027882D01*
X163098893Y-62027247D01*
X163959612Y-62027247D01*
X163959612Y-62315760D01*
G37*
%TD.AperFunction*%
%TA.AperFunction,EtchedComponent*%
G36*
X206890179Y-57678416D02*
G01*
X206890179Y-57966929D01*
X206722098Y-57801376D01*
X206554017Y-57635822D01*
X206195127Y-57635822D01*
X205836237Y-57635822D01*
X205836237Y-58092530D01*
X205836237Y-58549238D01*
X206093150Y-58549238D01*
X206229174Y-58547017D01*
X206316660Y-58536093D01*
X206377296Y-58510082D01*
X206432769Y-58462596D01*
X206451037Y-58443844D01*
X206520398Y-58378019D01*
X206571373Y-58341241D01*
X206580569Y-58338450D01*
X206592448Y-58371122D01*
X206601909Y-58459325D01*
X206607781Y-58588337D01*
X206609128Y-58696894D01*
X206609128Y-59055338D01*
X206475904Y-58925248D01*
X206402665Y-58857530D01*
X206340815Y-58818633D01*
X206266671Y-58800584D01*
X206156545Y-58795410D01*
X206089459Y-58795158D01*
X205836237Y-58795158D01*
X205836237Y-59357261D01*
X205836237Y-59919363D01*
X206195127Y-59919363D01*
X206554017Y-59919363D01*
X206722098Y-59753809D01*
X206890179Y-59588256D01*
X206890179Y-59876769D01*
X206890179Y-60165283D01*
X206029460Y-60165283D01*
X205791911Y-60164170D01*
X205579478Y-60161041D01*
X205401663Y-60156211D01*
X205267967Y-60149996D01*
X205187892Y-60142710D01*
X205168741Y-60136724D01*
X205191977Y-60096626D01*
X205250065Y-60031008D01*
X205274135Y-60007191D01*
X205379529Y-59906217D01*
X205379529Y-58777592D01*
X205379529Y-57648968D01*
X205274135Y-57547994D01*
X205208309Y-57478633D01*
X205171532Y-57427658D01*
X205168741Y-57418461D01*
X205202287Y-57410579D01*
X205296593Y-57403531D01*
X205442156Y-57397631D01*
X205629473Y-57393195D01*
X205849044Y-57390538D01*
X206029460Y-57389902D01*
X206890179Y-57389902D01*
X206890179Y-57678416D01*
G37*
%TD.AperFunction*%
%TA.AperFunction,EtchedComponent*%
G36*
X190472627Y-57373788D02*
G01*
X190680530Y-57400880D01*
X190843914Y-57451498D01*
X191010788Y-57526477D01*
X191010788Y-57817272D01*
X191010788Y-58108066D01*
X190791216Y-57893479D01*
X190681870Y-57790641D01*
X190582557Y-57704302D01*
X190510106Y-57648871D01*
X190494909Y-57639791D01*
X190346054Y-57600985D01*
X190187615Y-57623193D01*
X190033440Y-57701186D01*
X189897377Y-57829736D01*
X189860996Y-57879101D01*
X189797743Y-57986590D01*
X189752023Y-58101873D01*
X189721397Y-58238415D01*
X189703424Y-58409675D01*
X189695662Y-58629116D01*
X189694907Y-58795158D01*
X189701944Y-59075163D01*
X189723367Y-59297818D01*
X189762495Y-59475158D01*
X189822646Y-59619217D01*
X189907138Y-59742031D01*
X189976277Y-59815777D01*
X190054993Y-59885223D01*
X190125685Y-59921511D01*
X190217306Y-59935178D01*
X190309161Y-59936929D01*
X190517049Y-59936929D01*
X190763918Y-59691951D01*
X191010788Y-59446973D01*
X191010788Y-59749616D01*
X191010788Y-60052259D01*
X190861479Y-60112647D01*
X190715472Y-60153252D01*
X190530772Y-60178894D01*
X190333755Y-60188335D01*
X190150800Y-60180334D01*
X190008282Y-60153650D01*
X190005900Y-60152876D01*
X189769288Y-60038917D01*
X189558231Y-59864219D01*
X189379430Y-59635729D01*
X189239588Y-59360394D01*
X189238343Y-59357261D01*
X189197442Y-59208870D01*
X189169255Y-59016423D01*
X189155356Y-58805239D01*
X189157316Y-58600636D01*
X189176711Y-58427932D01*
X189179678Y-58413352D01*
X189268561Y-58137648D01*
X189407396Y-57885046D01*
X189586415Y-57668866D01*
X189795855Y-57502430D01*
X189882711Y-57454348D01*
X190048295Y-57400597D01*
X190253408Y-57373719D01*
X190472627Y-57373788D01*
G37*
%TD.AperFunction*%
%TA.AperFunction,EtchedComponent*%
G36*
X201138933Y-68048515D02*
G01*
X201321640Y-68109720D01*
X201490269Y-68222279D01*
X201636620Y-68384610D01*
X201752493Y-68595127D01*
X201829690Y-68852247D01*
X201831945Y-68863944D01*
X201855420Y-69136979D01*
X201827539Y-69409278D01*
X201752440Y-69664050D01*
X201634258Y-69884502D01*
X201557003Y-69980155D01*
X201388191Y-70111760D01*
X201188773Y-70188693D01*
X200975951Y-70207524D01*
X200766927Y-70164821D01*
X200722658Y-70146600D01*
X200615260Y-70080467D01*
X200502102Y-69984932D01*
X200451571Y-69931640D01*
X200328876Y-69755868D01*
X200249098Y-69558873D01*
X200207584Y-69325463D01*
X200201333Y-69169792D01*
X200473790Y-69169792D01*
X200495064Y-69401644D01*
X200546743Y-69614596D01*
X200627163Y-69794942D01*
X200734660Y-69928980D01*
X200787516Y-69968189D01*
X200947749Y-70027632D01*
X201116749Y-70024628D01*
X201255577Y-69970244D01*
X201373368Y-69860060D01*
X201463918Y-69698855D01*
X201526602Y-69500635D01*
X201560797Y-69279405D01*
X201565878Y-69049172D01*
X201541221Y-68823940D01*
X201486200Y-68617714D01*
X201400193Y-68444502D01*
X201327525Y-68356396D01*
X201180530Y-68255110D01*
X201024834Y-68218909D01*
X200871830Y-68245551D01*
X200732910Y-68332791D01*
X200619467Y-68478387D01*
X200609030Y-68497873D01*
X200529109Y-68704202D01*
X200484584Y-68932743D01*
X200473790Y-69169792D01*
X200201333Y-69169792D01*
X200198781Y-69106223D01*
X200202698Y-68938141D01*
X200216465Y-68813085D01*
X200245235Y-68703974D01*
X200294164Y-68583730D01*
X200301187Y-68568246D01*
X200431300Y-68348920D01*
X200588330Y-68188868D01*
X200764078Y-68086505D01*
X200950346Y-68040249D01*
X201138933Y-68048515D01*
G37*
%TD.AperFunction*%
%TA.AperFunction,EtchedComponent*%
G36*
X165929953Y-68073398D02*
G01*
X166023120Y-68082793D01*
X166066344Y-68096141D01*
X166067496Y-68098854D01*
X166044198Y-68140368D01*
X165987337Y-68203057D01*
X165979667Y-68210373D01*
X165891839Y-68292883D01*
X165891839Y-69238235D01*
X165891170Y-69531609D01*
X165888966Y-69760995D01*
X165884932Y-69932655D01*
X165878773Y-70052851D01*
X165870192Y-70127848D01*
X165858894Y-70163908D01*
X165847925Y-70169007D01*
X165818136Y-70136664D01*
X165756069Y-70052686D01*
X165667012Y-69924813D01*
X165556255Y-69760784D01*
X165429090Y-69568340D01*
X165290807Y-69355220D01*
X165277039Y-69333798D01*
X164750068Y-68513168D01*
X164740555Y-69245797D01*
X164737717Y-69491451D01*
X164736951Y-69676692D01*
X164739004Y-69811357D01*
X164744626Y-69905284D01*
X164754565Y-69968310D01*
X164769568Y-70010271D01*
X164790385Y-70041006D01*
X164802035Y-70053994D01*
X164852979Y-70115573D01*
X164873028Y-70153647D01*
X164840730Y-70165033D01*
X164755143Y-70173515D01*
X164633224Y-70177580D01*
X164602970Y-70177731D01*
X164332912Y-70177731D01*
X164427313Y-70079197D01*
X164521714Y-69980663D01*
X164521714Y-69136773D01*
X164521714Y-68292883D01*
X164433886Y-68210373D01*
X164374413Y-68146345D01*
X164346380Y-68100111D01*
X164346057Y-68097178D01*
X164377959Y-68082819D01*
X164461181Y-68075696D01*
X164565629Y-68076953D01*
X164785200Y-68087413D01*
X165241908Y-68815663D01*
X165698616Y-69543912D01*
X165708234Y-68923851D01*
X165717852Y-68303789D01*
X165629188Y-68211244D01*
X165570792Y-68144206D01*
X165541368Y-68098517D01*
X165540525Y-68094273D01*
X165572787Y-68082597D01*
X165658129Y-68073960D01*
X165779380Y-68069954D01*
X165804010Y-68069847D01*
X165929953Y-68073398D01*
G37*
%TD.AperFunction*%
%TA.AperFunction,EtchedComponent*%
G36*
X194712870Y-57397412D02*
G01*
X195094217Y-57407468D01*
X195450220Y-58047764D01*
X195557353Y-58238878D01*
X195653454Y-58407329D01*
X195733217Y-58544061D01*
X195791338Y-58640019D01*
X195822512Y-58686145D01*
X195825802Y-58688912D01*
X195847910Y-58659887D01*
X195898622Y-58578253D01*
X195972677Y-58452963D01*
X196064811Y-58292969D01*
X196169760Y-58107223D01*
X196207405Y-58039833D01*
X196569429Y-57389902D01*
X196881671Y-57389902D01*
X197019956Y-57392874D01*
X197126858Y-57400829D01*
X197186606Y-57412324D01*
X197193914Y-57418461D01*
X197170678Y-57458559D01*
X197112589Y-57524177D01*
X197088519Y-57547994D01*
X196983125Y-57648968D01*
X196983125Y-58773901D01*
X196983125Y-59898835D01*
X197113215Y-60032059D01*
X197243305Y-60165283D01*
X196772337Y-60165283D01*
X196301369Y-60165283D01*
X196432017Y-60031487D01*
X196562665Y-59897691D01*
X196553324Y-58910023D01*
X196543983Y-57922356D01*
X196163126Y-58602331D01*
X196050054Y-58803449D01*
X195946533Y-58986152D01*
X195858138Y-59140714D01*
X195790445Y-59257408D01*
X195749031Y-59326509D01*
X195740840Y-59338963D01*
X195722891Y-59348990D01*
X195696334Y-59333862D01*
X195657024Y-59287410D01*
X195600819Y-59203467D01*
X195523574Y-59075865D01*
X195421145Y-58898435D01*
X195296109Y-58676987D01*
X194892807Y-57958354D01*
X194883457Y-58927818D01*
X194874107Y-59897282D01*
X194980068Y-60006606D01*
X195044992Y-60078799D01*
X195082417Y-60130501D01*
X195086030Y-60140607D01*
X195053298Y-60150648D01*
X194964685Y-60158721D01*
X194834566Y-60163883D01*
X194710020Y-60165283D01*
X194334011Y-60165283D01*
X194464100Y-60032059D01*
X194594190Y-59898835D01*
X194594190Y-58777592D01*
X194594190Y-57656350D01*
X194462857Y-57521853D01*
X194331524Y-57387355D01*
X194712870Y-57397412D01*
G37*
%TD.AperFunction*%
%TA.AperFunction,EtchedComponent*%
G36*
X183311827Y-68113323D02*
G01*
X183350685Y-68194100D01*
X183352143Y-68218501D01*
X183326735Y-68285009D01*
X183255172Y-68304182D01*
X183144447Y-68274647D01*
X183120752Y-68263983D01*
X183036760Y-68227974D01*
X182986068Y-68224859D01*
X182939707Y-68254983D01*
X182926998Y-68266299D01*
X182871363Y-68348693D01*
X182815165Y-68491129D01*
X182762006Y-68683510D01*
X182736982Y-68798823D01*
X182714195Y-68913000D01*
X182896945Y-68913000D01*
X183001382Y-68915700D01*
X183047603Y-68926675D01*
X183047546Y-68950239D01*
X183037526Y-68963811D01*
X182977468Y-68998501D01*
X182880077Y-69022086D01*
X182849792Y-69025291D01*
X182704228Y-69035960D01*
X182608759Y-69561162D01*
X182542110Y-69895849D01*
X182473987Y-70167884D01*
X182401153Y-70384858D01*
X182320369Y-70554360D01*
X182228394Y-70683978D01*
X182121992Y-70781304D01*
X182074561Y-70812956D01*
X181981450Y-70862676D01*
X181914112Y-70874506D01*
X181850276Y-70857092D01*
X181813060Y-70811349D01*
X181806362Y-70774110D01*
X181830423Y-70700947D01*
X181907104Y-70661675D01*
X182016232Y-70652005D01*
X182110078Y-70639326D01*
X182166027Y-70590235D01*
X182183859Y-70557822D01*
X182205326Y-70490336D01*
X182234218Y-70366953D01*
X182268065Y-70201336D01*
X182304398Y-70007153D01*
X182340747Y-69798067D01*
X182374644Y-69587743D01*
X182403618Y-69389847D01*
X182423952Y-69229203D01*
X182447802Y-69018395D01*
X182316003Y-69018395D01*
X182233429Y-69014606D01*
X182208910Y-68998445D01*
X182227938Y-68965698D01*
X182293767Y-68926432D01*
X182370948Y-68913000D01*
X182427036Y-68907191D01*
X182464682Y-68879340D01*
X182495573Y-68813817D01*
X182529880Y-68700384D01*
X182620058Y-68469118D01*
X182744717Y-68286456D01*
X182897873Y-68160568D01*
X182941517Y-68138193D01*
X183099737Y-68083902D01*
X183225676Y-68076101D01*
X183311827Y-68113323D01*
G37*
%TD.AperFunction*%
%TA.AperFunction,EtchedComponent*%
G36*
X168075956Y-68072398D02*
G01*
X168181341Y-68079217D01*
X168239280Y-68089053D01*
X168245642Y-68093931D01*
X168223956Y-68134189D01*
X168173514Y-68194793D01*
X168101385Y-68271570D01*
X168301728Y-68944200D01*
X168363135Y-69147950D01*
X168418098Y-69325731D01*
X168463448Y-69467672D01*
X168496018Y-69563899D01*
X168512641Y-69604539D01*
X168513772Y-69605130D01*
X168527278Y-69569531D01*
X168558096Y-69477109D01*
X168602896Y-69338205D01*
X168658350Y-69163158D01*
X168721128Y-68962309D01*
X168731698Y-68928249D01*
X168801822Y-68701150D01*
X168852820Y-68531444D01*
X168886543Y-68409462D01*
X168904839Y-68325539D01*
X168909559Y-68270007D01*
X168902551Y-68233200D01*
X168885665Y-68205450D01*
X168872834Y-68190543D01*
X168824962Y-68129391D01*
X168807745Y-68093931D01*
X168839793Y-68081665D01*
X168923644Y-68072991D01*
X169036099Y-68069847D01*
X169152398Y-68073227D01*
X169234646Y-68082071D01*
X169264453Y-68093931D01*
X169242864Y-68134580D01*
X169196587Y-68190543D01*
X169166312Y-68244594D01*
X169119800Y-68355001D01*
X169061101Y-68510846D01*
X168994263Y-68701213D01*
X168923336Y-68915187D01*
X168896024Y-69000829D01*
X168797736Y-69312402D01*
X168718257Y-69563509D01*
X168655185Y-69760669D01*
X168606117Y-69910399D01*
X168568651Y-70019218D01*
X168540384Y-70093645D01*
X168518912Y-70140198D01*
X168501833Y-70165395D01*
X168486745Y-70175754D01*
X168471245Y-70177794D01*
X168462203Y-70177731D01*
X168440324Y-70164361D01*
X168412811Y-70120178D01*
X168377427Y-70039068D01*
X168331936Y-69914922D01*
X168274100Y-69741626D01*
X168201683Y-69513068D01*
X168112449Y-69223138D01*
X168110326Y-69216175D01*
X168018629Y-68918441D01*
X167943249Y-68681332D01*
X167881608Y-68497797D01*
X167831128Y-68360787D01*
X167789229Y-68263252D01*
X167753333Y-68198143D01*
X167724826Y-68162233D01*
X167632440Y-68069847D01*
X167939041Y-68069847D01*
X168075956Y-68072398D01*
G37*
%TD.AperFunction*%
%TA.AperFunction,EtchedComponent*%
G36*
X186888057Y-62025576D02*
G01*
X187025715Y-62054651D01*
X187149303Y-62089457D01*
X187222225Y-62117986D01*
X187271480Y-62146798D01*
X187301090Y-62181672D01*
X187316049Y-62239501D01*
X187321350Y-62337172D01*
X187321991Y-62455489D01*
X187321991Y-62741402D01*
X187081624Y-62509347D01*
X186936395Y-62377258D01*
X186818853Y-62293341D01*
X186713442Y-62250390D01*
X186604605Y-62241199D01*
X186522388Y-62250280D01*
X186340321Y-62313643D01*
X186176660Y-62442406D01*
X186029860Y-62637941D01*
X185974070Y-62737957D01*
X185905120Y-62879491D01*
X185862162Y-62995607D01*
X185837422Y-63115624D01*
X185823123Y-63268861D01*
X185820118Y-63318420D01*
X185828351Y-63639072D01*
X185889388Y-63930028D01*
X186000871Y-64182121D01*
X186067979Y-64281902D01*
X186220820Y-64436643D01*
X186398267Y-64541320D01*
X186586922Y-64591816D01*
X186773383Y-64584012D01*
X186902159Y-64538239D01*
X187005808Y-64484640D01*
X187005808Y-64017841D01*
X187005808Y-63551042D01*
X186900414Y-63450068D01*
X186834589Y-63380707D01*
X186797811Y-63329732D01*
X186795020Y-63320536D01*
X186827949Y-63309798D01*
X186917939Y-63300903D01*
X187051795Y-63294696D01*
X187216323Y-63292021D01*
X187241292Y-63291977D01*
X187687565Y-63291977D01*
X187557475Y-63425201D01*
X187427385Y-63558425D01*
X187427385Y-64105937D01*
X187427385Y-64653449D01*
X187242945Y-64733342D01*
X187061987Y-64789049D01*
X186843357Y-64822385D01*
X186612638Y-64832272D01*
X186395415Y-64817630D01*
X186217271Y-64777380D01*
X186215352Y-64776693D01*
X185934179Y-64640190D01*
X185698141Y-64452420D01*
X185511646Y-64219373D01*
X185379103Y-63947039D01*
X185304919Y-63641407D01*
X185293323Y-63523977D01*
X185304833Y-63210096D01*
X185375473Y-62919623D01*
X185498846Y-62658569D01*
X185668556Y-62432945D01*
X185878206Y-62248760D01*
X186121398Y-62112026D01*
X186391737Y-62028753D01*
X186682825Y-62004951D01*
X186888057Y-62025576D01*
G37*
%TD.AperFunction*%
%TA.AperFunction,EtchedComponent*%
G36*
X190078549Y-68104763D02*
G01*
X190204194Y-68128909D01*
X190297562Y-68151908D01*
X190341814Y-68169479D01*
X190343291Y-68172056D01*
X190325180Y-68211898D01*
X190279414Y-68287106D01*
X190253120Y-68326760D01*
X190162950Y-68459458D01*
X190041110Y-68352481D01*
X189916480Y-68268937D01*
X189802256Y-68251648D01*
X189688245Y-68299692D01*
X189662967Y-68318317D01*
X189590865Y-68402572D01*
X189570400Y-68513849D01*
X189575922Y-68600512D01*
X189598373Y-68674369D01*
X189646586Y-68746450D01*
X189729392Y-68827782D01*
X189855622Y-68929395D01*
X189974411Y-69018395D01*
X190108857Y-69121155D01*
X190223770Y-69215433D01*
X190306108Y-69290111D01*
X190341501Y-69331231D01*
X190369718Y-69432741D01*
X190377091Y-69572522D01*
X190364710Y-69722098D01*
X190333668Y-69852989D01*
X190320235Y-69885722D01*
X190226109Y-70013470D01*
X190086966Y-70118324D01*
X189927848Y-70182677D01*
X189886583Y-70190562D01*
X189784671Y-70192957D01*
X189648857Y-70180925D01*
X189544218Y-70163814D01*
X189427017Y-70137605D01*
X189339378Y-70113279D01*
X189303074Y-70097772D01*
X189308199Y-70059903D01*
X189340100Y-69984832D01*
X189387861Y-69894652D01*
X189440564Y-69811456D01*
X189452613Y-69795141D01*
X189481911Y-69808976D01*
X189546618Y-69858998D01*
X189608666Y-69912897D01*
X189701898Y-69990055D01*
X189771879Y-70024716D01*
X189841966Y-70026966D01*
X189864297Y-70023256D01*
X189997829Y-69965088D01*
X190089744Y-69856404D01*
X190131084Y-69708901D01*
X190132503Y-69673081D01*
X190129048Y-69589585D01*
X190112595Y-69522108D01*
X190074006Y-69459105D01*
X190004147Y-69389030D01*
X189893880Y-69300338D01*
X189756601Y-69198042D01*
X189558386Y-69039819D01*
X189420945Y-68898316D01*
X189339382Y-68765267D01*
X189308800Y-68632412D01*
X189324303Y-68491485D01*
X189328476Y-68475623D01*
X189405817Y-68297591D01*
X189525459Y-68173688D01*
X189688931Y-68103160D01*
X189897763Y-68085250D01*
X190078549Y-68104763D01*
G37*
%TD.AperFunction*%
%TA.AperFunction,EtchedComponent*%
G36*
X197515221Y-68075174D02*
G01*
X197680663Y-68101193D01*
X197739579Y-68120751D01*
X197811019Y-68155175D01*
X197847117Y-68196010D01*
X197859897Y-68266329D01*
X197861410Y-68354550D01*
X197861410Y-68537445D01*
X197782364Y-68471533D01*
X197695380Y-68398328D01*
X197615490Y-68330328D01*
X197482620Y-68248976D01*
X197339786Y-68232200D01*
X197246851Y-68249921D01*
X197074556Y-68332123D01*
X196929781Y-68469001D01*
X196817155Y-68648801D01*
X196741307Y-68859770D01*
X196706866Y-69090155D01*
X196718461Y-69328202D01*
X196756809Y-69494254D01*
X196846702Y-69693702D01*
X196972018Y-69851044D01*
X197122666Y-69961123D01*
X197288551Y-70018787D01*
X197459579Y-70018880D01*
X197625659Y-69956250D01*
X197641839Y-69946188D01*
X197679384Y-69916116D01*
X197702740Y-69874634D01*
X197715224Y-69806077D01*
X197720152Y-69694778D01*
X197720884Y-69572827D01*
X197719451Y-69418190D01*
X197712465Y-69315854D01*
X197695901Y-69247871D01*
X197665732Y-69196298D01*
X197626483Y-69152060D01*
X197532082Y-69053526D01*
X197825830Y-69053526D01*
X198119578Y-69053526D01*
X198044373Y-69133578D01*
X198011830Y-69175210D01*
X197989553Y-69227614D01*
X197975138Y-69304924D01*
X197966180Y-69421277D01*
X197960274Y-69590808D01*
X197959204Y-69634200D01*
X197949239Y-70054771D01*
X197826279Y-70114161D01*
X197697236Y-70156808D01*
X197531385Y-70185683D01*
X197359651Y-70197568D01*
X197212960Y-70189245D01*
X197176348Y-70181786D01*
X196944489Y-70086140D01*
X196741273Y-69931359D01*
X196576948Y-69726123D01*
X196522610Y-69628216D01*
X196480862Y-69531759D01*
X196455423Y-69435310D01*
X196442586Y-69316607D01*
X196438642Y-69153385D01*
X196438588Y-69123789D01*
X196441522Y-68951999D01*
X196452794Y-68828056D01*
X196476112Y-68729696D01*
X196515187Y-68634655D01*
X196522610Y-68619362D01*
X196654664Y-68413372D01*
X196824176Y-68244266D01*
X196997138Y-68136822D01*
X197144068Y-68093625D01*
X197326559Y-68072864D01*
X197515221Y-68075174D01*
G37*
%TD.AperFunction*%
%TA.AperFunction,EtchedComponent*%
G36*
X194613624Y-68076370D02*
G01*
X194698396Y-68098607D01*
X194741080Y-68131327D01*
X194774969Y-68179092D01*
X194839131Y-68276696D01*
X194927126Y-68414066D01*
X195032514Y-68581132D01*
X195148858Y-68767822D01*
X195173478Y-68807606D01*
X195290832Y-68996281D01*
X195398169Y-69166628D01*
X195489158Y-69308776D01*
X195557469Y-69412858D01*
X195596772Y-69469003D01*
X195600811Y-69473848D01*
X195618011Y-69483107D01*
X195630591Y-69462633D01*
X195639220Y-69404410D01*
X195644572Y-69300422D01*
X195647319Y-69142654D01*
X195648130Y-68923089D01*
X195648132Y-68909087D01*
X195647866Y-68687415D01*
X195646145Y-68525008D01*
X195641588Y-68410868D01*
X195632812Y-68333996D01*
X195618435Y-68283394D01*
X195597074Y-68248065D01*
X195567346Y-68217011D01*
X195560304Y-68210373D01*
X195500880Y-68146852D01*
X195472809Y-68101702D01*
X195472475Y-68098854D01*
X195504735Y-68084989D01*
X195590070Y-68074732D01*
X195711313Y-68069974D01*
X195735961Y-68069847D01*
X195861903Y-68073398D01*
X195955070Y-68082793D01*
X195998294Y-68096141D01*
X195999446Y-68098854D01*
X195976148Y-68140368D01*
X195919287Y-68203057D01*
X195911618Y-68210373D01*
X195823789Y-68292883D01*
X195823789Y-69237883D01*
X195823351Y-69523404D01*
X195821769Y-69745982D01*
X195818636Y-69912930D01*
X195813549Y-70031564D01*
X195806102Y-70109198D01*
X195795891Y-70153148D01*
X195782511Y-70170727D01*
X195772128Y-70171524D01*
X195740715Y-70139848D01*
X195677677Y-70056040D01*
X195588243Y-69927789D01*
X195477642Y-69762783D01*
X195351103Y-69568711D01*
X195213858Y-69353263D01*
X195192460Y-69319242D01*
X194664453Y-68478319D01*
X194664453Y-69229491D01*
X194664453Y-69980663D01*
X194758854Y-70079197D01*
X194853255Y-70177731D01*
X194559059Y-70177731D01*
X194264862Y-70177731D01*
X194359263Y-70079197D01*
X194453665Y-69980663D01*
X194453665Y-69123789D01*
X194453665Y-68266914D01*
X194359263Y-68168381D01*
X194264862Y-68069847D01*
X194476778Y-68069847D01*
X194613624Y-68076370D01*
G37*
%TD.AperFunction*%
%TA.AperFunction,EtchedComponent*%
G36*
X198288546Y-57392448D02*
G01*
X198474846Y-57397309D01*
X198652365Y-57405106D01*
X198807948Y-57415661D01*
X198928441Y-57428793D01*
X198969949Y-57435960D01*
X199210048Y-57511253D01*
X199416031Y-57625523D01*
X199573366Y-57770058D01*
X199609984Y-57819638D01*
X199664859Y-57915135D01*
X199694065Y-58009075D01*
X199704940Y-58130673D01*
X199705808Y-58201115D01*
X199685582Y-58404733D01*
X199619854Y-58569630D01*
X199501051Y-58707053D01*
X199321600Y-58828250D01*
X199262737Y-58859164D01*
X199136728Y-58917736D01*
X199024298Y-58955456D01*
X198899434Y-58978563D01*
X198736122Y-58993296D01*
X198691852Y-58996069D01*
X198353250Y-59016270D01*
X198353250Y-59461244D01*
X198353250Y-59906217D01*
X198458644Y-60007191D01*
X198524469Y-60076552D01*
X198561247Y-60127527D01*
X198564038Y-60136724D01*
X198531127Y-60147543D01*
X198441262Y-60156481D01*
X198307744Y-60162674D01*
X198143874Y-60165256D01*
X198124896Y-60165283D01*
X197958540Y-60163142D01*
X197821099Y-60157298D01*
X197725872Y-60148615D01*
X197686161Y-60137958D01*
X197685753Y-60136724D01*
X197708989Y-60096626D01*
X197767077Y-60031008D01*
X197791147Y-60007191D01*
X197896541Y-59906217D01*
X197896541Y-58777592D01*
X197896541Y-58760027D01*
X198353250Y-58760027D01*
X198537689Y-58759831D01*
X198674303Y-58752507D01*
X198805665Y-58734232D01*
X198850982Y-58723846D01*
X199003255Y-58647536D01*
X199120463Y-58521436D01*
X199195123Y-58360378D01*
X199219750Y-58179196D01*
X199199383Y-58033334D01*
X199121271Y-57868907D01*
X198989043Y-57746275D01*
X198806827Y-57667931D01*
X198578749Y-57636368D01*
X198541230Y-57635822D01*
X198353250Y-57635822D01*
X198353250Y-58197924D01*
X198353250Y-58760027D01*
X197896541Y-58760027D01*
X197896541Y-58197924D01*
X197896541Y-57648968D01*
X197791147Y-57547994D01*
X197725322Y-57478633D01*
X197688545Y-57427658D01*
X197685753Y-57418461D01*
X197718635Y-57405952D01*
X197808510Y-57397275D01*
X197942223Y-57392252D01*
X198106620Y-57390702D01*
X198288546Y-57392448D01*
G37*
%TD.AperFunction*%
%TA.AperFunction,EtchedComponent*%
G36*
X202591374Y-68076667D02*
G01*
X202675667Y-68099824D01*
X202715907Y-68131327D01*
X202749797Y-68179092D01*
X202813958Y-68276696D01*
X202901953Y-68414066D01*
X203007341Y-68581132D01*
X203123685Y-68767822D01*
X203148306Y-68807606D01*
X203265659Y-68996281D01*
X203372996Y-69166628D01*
X203463985Y-69308776D01*
X203532296Y-69412858D01*
X203571599Y-69469003D01*
X203575638Y-69473848D01*
X203592839Y-69483107D01*
X203605418Y-69462633D01*
X203614047Y-69404410D01*
X203619400Y-69300422D01*
X203622146Y-69142654D01*
X203622957Y-68923089D01*
X203622959Y-68909087D01*
X203622693Y-68687415D01*
X203620973Y-68525008D01*
X203616416Y-68410868D01*
X203607640Y-68333996D01*
X203593262Y-68283394D01*
X203571901Y-68248065D01*
X203542173Y-68217011D01*
X203535131Y-68210373D01*
X203475707Y-68146852D01*
X203447637Y-68101702D01*
X203447302Y-68098854D01*
X203479562Y-68084989D01*
X203564897Y-68074732D01*
X203686140Y-68069974D01*
X203710788Y-68069847D01*
X203836731Y-68073398D01*
X203929897Y-68082793D01*
X203973121Y-68096141D01*
X203974273Y-68098854D01*
X203950975Y-68140368D01*
X203894115Y-68203057D01*
X203886445Y-68210373D01*
X203798616Y-68292883D01*
X203798616Y-69235307D01*
X203798124Y-69522081D01*
X203796389Y-69745896D01*
X203793020Y-69914053D01*
X203787626Y-70033851D01*
X203779817Y-70112590D01*
X203769203Y-70157568D01*
X203755393Y-70176085D01*
X203748207Y-70177731D01*
X203717162Y-70149022D01*
X203654682Y-70067961D01*
X203565974Y-69942147D01*
X203456246Y-69779180D01*
X203330706Y-69586660D01*
X203194561Y-69372185D01*
X203177322Y-69344636D01*
X202656846Y-68511541D01*
X202647332Y-69245339D01*
X202637817Y-69979137D01*
X202732950Y-70078434D01*
X202828083Y-70177731D01*
X202533886Y-70177731D01*
X202239689Y-70177731D01*
X202334090Y-70079197D01*
X202428492Y-69980663D01*
X202428492Y-69133345D01*
X202428492Y-68286026D01*
X202337540Y-68177937D01*
X202246589Y-68069847D01*
X202455055Y-68069847D01*
X202591374Y-68076667D01*
G37*
%TD.AperFunction*%
%TA.AperFunction,EtchedComponent*%
G36*
X174071553Y-68085988D02*
G01*
X174178720Y-68100890D01*
X174315618Y-68121805D01*
X174423040Y-68140332D01*
X174484279Y-68153501D01*
X174492118Y-68156618D01*
X174481704Y-68189370D01*
X174443675Y-68257017D01*
X174392094Y-68337888D01*
X174341023Y-68410310D01*
X174304526Y-68452611D01*
X174297669Y-68456292D01*
X174265898Y-68433031D01*
X174205540Y-68374601D01*
X174178663Y-68346417D01*
X174103515Y-68276394D01*
X174036415Y-68250961D01*
X173944997Y-68257521D01*
X173808820Y-68306119D01*
X173725124Y-68395633D01*
X173699850Y-68518697D01*
X173703770Y-68556449D01*
X173722248Y-68633017D01*
X173756820Y-68702011D01*
X173817020Y-68773946D01*
X173912378Y-68859336D01*
X174052427Y-68968694D01*
X174130151Y-69026735D01*
X174258669Y-69128504D01*
X174370631Y-69229012D01*
X174449692Y-69313038D01*
X174472683Y-69345715D01*
X174528602Y-69514444D01*
X174525249Y-69695438D01*
X174466483Y-69870124D01*
X174356165Y-70019929D01*
X174327060Y-70046278D01*
X174199270Y-70129584D01*
X174056944Y-70185255D01*
X173924330Y-70205761D01*
X173849100Y-70194748D01*
X173797572Y-70181532D01*
X173700711Y-70160373D01*
X173610788Y-70142090D01*
X173407607Y-70101999D01*
X173484668Y-69972991D01*
X173551649Y-69865846D01*
X173599738Y-69815494D01*
X173645021Y-69817791D01*
X173703583Y-69868591D01*
X173739584Y-69907296D01*
X173832584Y-69995931D01*
X173913832Y-70031171D01*
X174009116Y-70019015D01*
X174090096Y-69988829D01*
X174204437Y-69906380D01*
X174268496Y-69782997D01*
X174276274Y-69632299D01*
X174267373Y-69586343D01*
X174243371Y-69520293D01*
X174199083Y-69456081D01*
X174123619Y-69382273D01*
X174006087Y-69287433D01*
X173922747Y-69224533D01*
X173717186Y-69058188D01*
X173572792Y-68909072D01*
X173484608Y-68770662D01*
X173447677Y-68636432D01*
X173445847Y-68596818D01*
X173477818Y-68437162D01*
X173562535Y-68284296D01*
X173684704Y-68162556D01*
X173740339Y-68128178D01*
X173812371Y-68094341D01*
X173877822Y-68076887D01*
X173957334Y-68074531D01*
X174071553Y-68085988D01*
G37*
%TD.AperFunction*%
%TA.AperFunction,EtchedComponent*%
G36*
X180718848Y-57404086D02*
G01*
X180768578Y-57449578D01*
X180769317Y-57451382D01*
X180785947Y-57497990D01*
X180822380Y-57603198D01*
X180875897Y-57759050D01*
X180943778Y-57957592D01*
X181023302Y-58190868D01*
X181111749Y-58450923D01*
X181198780Y-58707330D01*
X181307527Y-59026794D01*
X181397174Y-59286620D01*
X181470566Y-59493917D01*
X181530551Y-59655794D01*
X181579974Y-59779359D01*
X181621682Y-59871723D01*
X181658522Y-59939994D01*
X181693339Y-59991281D01*
X181728981Y-60032692D01*
X181729790Y-60033540D01*
X181855753Y-60165283D01*
X181366152Y-60165283D01*
X180876551Y-60165283D01*
X181003839Y-60037995D01*
X181131127Y-59910706D01*
X181043993Y-59651549D01*
X180956859Y-59392392D01*
X180509511Y-59392392D01*
X180062162Y-59392392D01*
X179979356Y-59656428D01*
X179896550Y-59920464D01*
X180015194Y-60042873D01*
X180133838Y-60165283D01*
X179758067Y-60165283D01*
X179605115Y-60162823D01*
X179482154Y-60156164D01*
X179403562Y-60146387D01*
X179382295Y-60137043D01*
X179405497Y-60097839D01*
X179464309Y-60030706D01*
X179501090Y-59993663D01*
X179534504Y-59956917D01*
X179568069Y-59908566D01*
X179604534Y-59841840D01*
X179646645Y-59749968D01*
X179697150Y-59626178D01*
X179758797Y-59463701D01*
X179834333Y-59255765D01*
X179873054Y-59146472D01*
X180160188Y-59146472D01*
X180509001Y-59146472D01*
X180655904Y-59144528D01*
X180772269Y-59139288D01*
X180843171Y-59131640D01*
X180857814Y-59125695D01*
X180847635Y-59079920D01*
X180820124Y-58985254D01*
X180779821Y-58855431D01*
X180731264Y-58704183D01*
X180678993Y-58545244D01*
X180627547Y-58392349D01*
X180581464Y-58259231D01*
X180545284Y-58159623D01*
X180523546Y-58107259D01*
X180519716Y-58102735D01*
X180503998Y-58139504D01*
X180470396Y-58231171D01*
X180423086Y-58365922D01*
X180366246Y-58531948D01*
X180332533Y-58632023D01*
X180160188Y-59146472D01*
X179873054Y-59146472D01*
X179926507Y-58995600D01*
X180038065Y-58676434D01*
X180052758Y-58634213D01*
X180485632Y-57389902D01*
X180615267Y-57389902D01*
X180718848Y-57404086D01*
G37*
%TD.AperFunction*%
%TA.AperFunction,EtchedComponent*%
G36*
X179459909Y-68076323D02*
G01*
X179540127Y-68095551D01*
X179552162Y-68127227D01*
X179495484Y-68171050D01*
X179491881Y-68172998D01*
X179452883Y-68214496D01*
X179387536Y-68306488D01*
X179303131Y-68437783D01*
X179206957Y-68597187D01*
X179140567Y-68712371D01*
X178855324Y-69216384D01*
X178855324Y-69598524D01*
X178856220Y-69768002D01*
X178860961Y-69882911D01*
X178872628Y-69958944D01*
X178894304Y-70011790D01*
X178929070Y-70057139D01*
X178949726Y-70079197D01*
X179044127Y-70177731D01*
X178756503Y-70177731D01*
X178624315Y-70174388D01*
X178524168Y-70165492D01*
X178472494Y-70152737D01*
X178468879Y-70148044D01*
X178492370Y-70104679D01*
X178539142Y-70054771D01*
X178569996Y-70019648D01*
X178590316Y-69971590D01*
X178602234Y-69896560D01*
X178607884Y-69780521D01*
X178609398Y-69609437D01*
X178609405Y-69592444D01*
X178609405Y-69193704D01*
X178359757Y-68745952D01*
X178263834Y-68578061D01*
X178172454Y-68425557D01*
X178094296Y-68302418D01*
X178038041Y-68222625D01*
X178026009Y-68208450D01*
X177969662Y-68141986D01*
X177942381Y-68097368D01*
X177941908Y-68094273D01*
X177974262Y-68082930D01*
X178060241Y-68074388D01*
X178183222Y-68070092D01*
X178222959Y-68069847D01*
X178353474Y-68073264D01*
X178451758Y-68082345D01*
X178501187Y-68095334D01*
X178504010Y-68099533D01*
X178480549Y-68143153D01*
X178436020Y-68190750D01*
X178407489Y-68220125D01*
X178395612Y-68252246D01*
X178403943Y-68299960D01*
X178436037Y-68376115D01*
X178495448Y-68493557D01*
X178546864Y-68591423D01*
X178621997Y-68732202D01*
X178686672Y-68850240D01*
X178733026Y-68931378D01*
X178751588Y-68960148D01*
X178775855Y-68941913D01*
X178824861Y-68875748D01*
X178890258Y-68775708D01*
X178963695Y-68655845D01*
X179036824Y-68530215D01*
X179101294Y-68412871D01*
X179148757Y-68317867D01*
X179170862Y-68259256D01*
X179171507Y-68253330D01*
X179147320Y-68204402D01*
X179118810Y-68175241D01*
X179073761Y-68126224D01*
X179082664Y-68094153D01*
X179150501Y-68076309D01*
X179282258Y-68069975D01*
X179312032Y-68069847D01*
X179459909Y-68076323D01*
G37*
%TD.AperFunction*%
%TA.AperFunction,EtchedComponent*%
G36*
X193021789Y-57405208D02*
G01*
X193242011Y-57510867D01*
X193442128Y-57672094D01*
X193613997Y-57889408D01*
X193699149Y-58044761D01*
X193795365Y-58298944D01*
X193844097Y-58563855D01*
X193849246Y-58861992D01*
X193847246Y-58898996D01*
X193800360Y-59215698D01*
X193702686Y-59501680D01*
X193559048Y-59749616D01*
X193374274Y-59952180D01*
X193153188Y-60102045D01*
X193016818Y-60159711D01*
X192890829Y-60185291D01*
X192726434Y-60196037D01*
X192552836Y-60192198D01*
X192399240Y-60174020D01*
X192321749Y-60153827D01*
X192100157Y-60036605D01*
X191898326Y-59860078D01*
X191725818Y-59634461D01*
X191595452Y-59378131D01*
X191548498Y-59205903D01*
X191522053Y-58989311D01*
X191516679Y-58777592D01*
X192048909Y-58777592D01*
X192050073Y-58990338D01*
X192054661Y-59148025D01*
X192064318Y-59265836D01*
X192080687Y-59358951D01*
X192105412Y-59442552D01*
X192127129Y-59499948D01*
X192236944Y-59709291D01*
X192372012Y-59858817D01*
X192527187Y-59946206D01*
X192697323Y-59969140D01*
X192877273Y-59925302D01*
X192967669Y-59878624D01*
X193066809Y-59786182D01*
X193160732Y-59639722D01*
X193240886Y-59455408D01*
X193297556Y-59254976D01*
X193314642Y-59125024D01*
X193323669Y-58946819D01*
X193323781Y-58742001D01*
X193321150Y-58657742D01*
X193299417Y-58373165D01*
X193257524Y-58145690D01*
X193191745Y-57964105D01*
X193098354Y-57817200D01*
X193011674Y-57726381D01*
X192852643Y-57624007D01*
X192683329Y-57588887D01*
X192513791Y-57621021D01*
X192354090Y-57720407D01*
X192347384Y-57726381D01*
X192225889Y-57869551D01*
X192130664Y-58046197D01*
X192128585Y-58051347D01*
X192096924Y-58138020D01*
X192074853Y-58223068D01*
X192060698Y-58321758D01*
X192052784Y-58449357D01*
X192049434Y-58621134D01*
X192048909Y-58777592D01*
X191516679Y-58777592D01*
X191516008Y-58751164D01*
X191530258Y-58514267D01*
X191564693Y-58301429D01*
X191601094Y-58178068D01*
X191734115Y-57909230D01*
X191904016Y-57692339D01*
X192102656Y-57527914D01*
X192321894Y-57416471D01*
X192553590Y-57358527D01*
X192789602Y-57354601D01*
X193021789Y-57405208D01*
G37*
%TD.AperFunction*%
%TA.AperFunction,EtchedComponent*%
G36*
X173901797Y-57395517D02*
G01*
X174131091Y-57400124D01*
X174302680Y-57405289D01*
X174429110Y-57412729D01*
X174522930Y-57424157D01*
X174596687Y-57441290D01*
X174662929Y-57465843D01*
X174734203Y-57499529D01*
X174760990Y-57512955D01*
X174961280Y-57638294D01*
X175097416Y-57783009D01*
X175174276Y-57953383D01*
X175193981Y-58070682D01*
X175195218Y-58206514D01*
X175180527Y-58336322D01*
X175168100Y-58386382D01*
X175121878Y-58472365D01*
X175042829Y-58572336D01*
X174947613Y-58669825D01*
X174852887Y-58748362D01*
X174775310Y-58791479D01*
X174754643Y-58795158D01*
X174733821Y-58794403D01*
X174720667Y-58797678D01*
X174718860Y-58813289D01*
X174732078Y-58849546D01*
X174763999Y-58914756D01*
X174818301Y-59017228D01*
X174898662Y-59165269D01*
X175004153Y-59358730D01*
X175108746Y-59543630D01*
X175214617Y-59718483D01*
X175312281Y-59868448D01*
X175392253Y-59978687D01*
X175424262Y-60015974D01*
X175567602Y-60165283D01*
X175252888Y-60165076D01*
X174938174Y-60164869D01*
X174610603Y-59532711D01*
X174283033Y-58900552D01*
X174109981Y-58900552D01*
X173936929Y-58900552D01*
X173936929Y-59403385D01*
X173936929Y-59906217D01*
X174042323Y-60007191D01*
X174108148Y-60076552D01*
X174144926Y-60127527D01*
X174147717Y-60136724D01*
X174114788Y-60147462D01*
X174024799Y-60156357D01*
X173890942Y-60162564D01*
X173726414Y-60165238D01*
X173701445Y-60165283D01*
X173255173Y-60165283D01*
X173385262Y-60032059D01*
X173515352Y-59898835D01*
X173515352Y-58777592D01*
X173515352Y-58654633D01*
X173936929Y-58654633D01*
X174156500Y-58654501D01*
X174328895Y-58642496D01*
X174455378Y-58603867D01*
X174488543Y-58585792D01*
X174610379Y-58474098D01*
X174684176Y-58328052D01*
X174710433Y-58164110D01*
X174689647Y-57998722D01*
X174622317Y-57848344D01*
X174508940Y-57729428D01*
X174461733Y-57700016D01*
X174315683Y-57651653D01*
X174139482Y-57635822D01*
X173936929Y-57635822D01*
X173936929Y-58145227D01*
X173936929Y-58654633D01*
X173515352Y-58654633D01*
X173515352Y-58145227D01*
X173515352Y-57656350D01*
X173383609Y-57519866D01*
X173251866Y-57383382D01*
X173901797Y-57395517D01*
G37*
%TD.AperFunction*%
%TA.AperFunction,EtchedComponent*%
G36*
X200709631Y-57392010D02*
G01*
X200848624Y-57397768D01*
X200945614Y-57406334D01*
X200987409Y-57416863D01*
X200988104Y-57418461D01*
X200964854Y-57458433D01*
X200906604Y-57524259D01*
X200880730Y-57549891D01*
X200773355Y-57652762D01*
X200784119Y-58625476D01*
X200787563Y-58913508D01*
X200791216Y-59139787D01*
X200795740Y-59312823D01*
X200801797Y-59441125D01*
X200810049Y-59533202D01*
X200821157Y-59597563D01*
X200835784Y-59642716D01*
X200854591Y-59677171D01*
X200867315Y-59695125D01*
X200988396Y-59828938D01*
X201117760Y-59905196D01*
X201277530Y-59935229D01*
X201339418Y-59936929D01*
X201519282Y-59918235D01*
X201655288Y-59855456D01*
X201763653Y-59738545D01*
X201822475Y-59637594D01*
X201846499Y-59587753D01*
X201865092Y-59537543D01*
X201878949Y-59477583D01*
X201888763Y-59398494D01*
X201895230Y-59290895D01*
X201899042Y-59145407D01*
X201900896Y-58952650D01*
X201901484Y-58703244D01*
X201901521Y-58569624D01*
X201901521Y-57656350D01*
X201771431Y-57523126D01*
X201641341Y-57389902D01*
X202017351Y-57389902D01*
X202170354Y-57392388D01*
X202293372Y-57399118D01*
X202372031Y-57409001D01*
X202393360Y-57418461D01*
X202370139Y-57458688D01*
X202312218Y-57524088D01*
X202289943Y-57546099D01*
X202186526Y-57645179D01*
X202175766Y-58635821D01*
X202165006Y-59626462D01*
X202058683Y-59798332D01*
X201923400Y-59963844D01*
X201780481Y-60076525D01*
X201684503Y-60130718D01*
X201595852Y-60164002D01*
X201490291Y-60182341D01*
X201343581Y-60191703D01*
X201307136Y-60193024D01*
X201146719Y-60195369D01*
X201031502Y-60186915D01*
X200936763Y-60163798D01*
X200837783Y-60122152D01*
X200830013Y-60118422D01*
X200709591Y-60049836D01*
X200600712Y-59970667D01*
X200559608Y-59932589D01*
X200502415Y-59868164D01*
X200457025Y-59804587D01*
X200422080Y-59733074D01*
X200396223Y-59644839D01*
X200378096Y-59531098D01*
X200366342Y-59383066D01*
X200359604Y-59191958D01*
X200356523Y-58948990D01*
X200355743Y-58645376D01*
X200355739Y-58613328D01*
X200355739Y-57656350D01*
X200225650Y-57523126D01*
X200095560Y-57389902D01*
X200541832Y-57389902D01*
X200709631Y-57392010D01*
G37*
%TD.AperFunction*%
%TA.AperFunction,EtchedComponent*%
G36*
X168579391Y-62014884D02*
G01*
X168813449Y-62027303D01*
X168996118Y-62060679D01*
X169071230Y-62085165D01*
X169246887Y-62152203D01*
X169257091Y-62441039D01*
X169258545Y-62573450D01*
X169253511Y-62673911D01*
X169243040Y-62726057D01*
X169238510Y-62729875D01*
X169202629Y-62706450D01*
X169130611Y-62643699D01*
X169035062Y-62552902D01*
X168983566Y-62501686D01*
X168835086Y-62364165D01*
X168709111Y-62280225D01*
X168590556Y-62244088D01*
X168464335Y-62249973D01*
X168380595Y-62270686D01*
X168201306Y-62359419D01*
X168043725Y-62505258D01*
X167912930Y-62697039D01*
X167814003Y-62923600D01*
X167752023Y-63173779D01*
X167732069Y-63436414D01*
X167750840Y-63654509D01*
X167816687Y-63934210D01*
X167915340Y-64161163D01*
X168052068Y-64347263D01*
X168062936Y-64358790D01*
X168238213Y-64499807D01*
X168429305Y-64578184D01*
X168626906Y-64591778D01*
X168821705Y-64538446D01*
X168828784Y-64535139D01*
X168948270Y-64478439D01*
X168948270Y-64018432D01*
X168948270Y-63558425D01*
X168818181Y-63425201D01*
X168688091Y-63291977D01*
X169134363Y-63291977D01*
X169302162Y-63294084D01*
X169441155Y-63299843D01*
X169538145Y-63308409D01*
X169579940Y-63318938D01*
X169580636Y-63320536D01*
X169557400Y-63360634D01*
X169499311Y-63426251D01*
X169475241Y-63450068D01*
X169369847Y-63551042D01*
X169369847Y-64088196D01*
X169369551Y-64292936D01*
X169367516Y-64438919D01*
X169362018Y-64537651D01*
X169351334Y-64600637D01*
X169333742Y-64639383D01*
X169307518Y-64665394D01*
X169280666Y-64683784D01*
X169138242Y-64749024D01*
X168948809Y-64796948D01*
X168733951Y-64825478D01*
X168515251Y-64832536D01*
X168314290Y-64816044D01*
X168192945Y-64788499D01*
X167940590Y-64684623D01*
X167728831Y-64540690D01*
X167601172Y-64418385D01*
X167413824Y-64171128D01*
X167287030Y-63901874D01*
X167219124Y-63619641D01*
X167208440Y-63333446D01*
X167253311Y-63052307D01*
X167352073Y-62785240D01*
X167503058Y-62541264D01*
X167704602Y-62329397D01*
X167955037Y-62158655D01*
X168025184Y-62123408D01*
X168149996Y-62068230D01*
X168252690Y-62035169D01*
X168359959Y-62018998D01*
X168498495Y-62014489D01*
X168579391Y-62014884D01*
G37*
%TD.AperFunction*%
%TA.AperFunction,EtchedComponent*%
G36*
X171908091Y-68075820D02*
G01*
X172098332Y-68083833D01*
X172234768Y-68094784D01*
X172333859Y-68111474D01*
X172412063Y-68136706D01*
X172485837Y-68173279D01*
X172488072Y-68174535D01*
X172652792Y-68299830D01*
X172755454Y-68449213D01*
X172794972Y-68613033D01*
X172770260Y-68781634D01*
X172680231Y-68945362D01*
X172585992Y-69044759D01*
X172430964Y-69181220D01*
X172656760Y-69597936D01*
X172746948Y-69760002D01*
X172832430Y-69905787D01*
X172904374Y-70020738D01*
X172953947Y-70090303D01*
X172959158Y-70096192D01*
X173035760Y-70177731D01*
X172856332Y-70177731D01*
X172676905Y-70177731D01*
X172419849Y-69686245D01*
X172162793Y-69194759D01*
X172013485Y-69194405D01*
X171864176Y-69194052D01*
X171864176Y-69587358D01*
X171865002Y-69759537D01*
X171869445Y-69876810D01*
X171880452Y-69954528D01*
X171900968Y-70008044D01*
X171933941Y-70052711D01*
X171958578Y-70079197D01*
X172052979Y-70177731D01*
X171765355Y-70177731D01*
X171633167Y-70174388D01*
X171533020Y-70165492D01*
X171481346Y-70152737D01*
X171477731Y-70148044D01*
X171501222Y-70104679D01*
X171547994Y-70054771D01*
X171569826Y-70031627D01*
X171586605Y-70000835D01*
X171598993Y-69953617D01*
X171607653Y-69881199D01*
X171613247Y-69774803D01*
X171616436Y-69625655D01*
X171617884Y-69424978D01*
X171618253Y-69163995D01*
X171618257Y-69123789D01*
X171618150Y-69018395D01*
X171864176Y-69018395D01*
X172059709Y-69018395D01*
X172181806Y-69012054D01*
X172283089Y-68995798D01*
X172322830Y-68982222D01*
X172400429Y-68909547D01*
X172463212Y-68797200D01*
X172495214Y-68675764D01*
X172496541Y-68649515D01*
X172464920Y-68495519D01*
X172375892Y-68372388D01*
X172238210Y-68287329D01*
X172060626Y-68247548D01*
X172005830Y-68245504D01*
X171864176Y-68245504D01*
X171864176Y-68631949D01*
X171864176Y-69018395D01*
X171618150Y-69018395D01*
X171617982Y-68854020D01*
X171616718Y-68645738D01*
X171616459Y-68631949D01*
X171613801Y-68490165D01*
X171608570Y-68378527D01*
X171600361Y-68302046D01*
X171588514Y-68251948D01*
X171572364Y-68219456D01*
X171551250Y-68195794D01*
X171547994Y-68192807D01*
X171498011Y-68141292D01*
X171485480Y-68105584D01*
X171517133Y-68083496D01*
X171599705Y-68072841D01*
X171739930Y-68071431D01*
X171908091Y-68075820D01*
G37*
%TD.AperFunction*%
%TA.AperFunction,EtchedComponent*%
G36*
X179020726Y-62030785D02*
G01*
X179162724Y-62033525D01*
X179390209Y-62039630D01*
X179560420Y-62046538D01*
X179686339Y-62055923D01*
X179780951Y-62069458D01*
X179857236Y-62088820D01*
X179928180Y-62115681D01*
X179979529Y-62138866D01*
X180186021Y-62257201D01*
X180329082Y-62393392D01*
X180414964Y-62556288D01*
X180449921Y-62754738D01*
X180451418Y-62806727D01*
X180444666Y-62941508D01*
X180415097Y-63043858D01*
X180351715Y-63150609D01*
X180346538Y-63158041D01*
X180256713Y-63263011D01*
X180152618Y-63352784D01*
X180110082Y-63379805D01*
X180029546Y-63428562D01*
X179983667Y-63466701D01*
X179979624Y-63475004D01*
X179997060Y-63524970D01*
X180044892Y-63622484D01*
X180116151Y-63755591D01*
X180203866Y-63912337D01*
X180301070Y-64080764D01*
X180400791Y-64248919D01*
X180496062Y-64404845D01*
X180579913Y-64536588D01*
X180645374Y-64632192D01*
X180677624Y-64672377D01*
X180804727Y-64805613D01*
X180491826Y-64795337D01*
X180178925Y-64785061D01*
X179858630Y-64170262D01*
X179538336Y-63555462D01*
X179354921Y-63544844D01*
X179171507Y-63534225D01*
X179171507Y-64035202D01*
X179171507Y-64536179D01*
X179301597Y-64669403D01*
X179431686Y-64802627D01*
X178985414Y-64802627D01*
X178817615Y-64800520D01*
X178678623Y-64794761D01*
X178581632Y-64786195D01*
X178539837Y-64775666D01*
X178539142Y-64774068D01*
X178562378Y-64733970D01*
X178620466Y-64668353D01*
X178644536Y-64644536D01*
X178749930Y-64543562D01*
X178749930Y-63414937D01*
X178749930Y-63291977D01*
X179169578Y-63291977D01*
X179400641Y-63291977D01*
X179559197Y-63282483D01*
X179688372Y-63256823D01*
X179734759Y-63238685D01*
X179848539Y-63143469D01*
X179921674Y-63007759D01*
X179953926Y-62848541D01*
X179945054Y-62682805D01*
X179894819Y-62527538D01*
X179802982Y-62399728D01*
X179747210Y-62355166D01*
X179630006Y-62311835D01*
X179448659Y-62293823D01*
X179422975Y-62293355D01*
X179189073Y-62290732D01*
X179179325Y-62791355D01*
X179169578Y-63291977D01*
X178749930Y-63291977D01*
X178749930Y-62286312D01*
X178644536Y-62185338D01*
X178578587Y-62114867D01*
X178541859Y-62061468D01*
X178539142Y-62051447D01*
X178572981Y-62040388D01*
X178669512Y-62033114D01*
X178821254Y-62029842D01*
X179020726Y-62030785D01*
G37*
%TD.AperFunction*%
%TA.AperFunction,EtchedComponent*%
G36*
X192510445Y-68168381D02*
G01*
X192416044Y-68266914D01*
X192416044Y-69123789D01*
X192416044Y-69980663D01*
X192510445Y-70079197D01*
X192604846Y-70177731D01*
X192317222Y-70177731D01*
X192185034Y-70174388D01*
X192084887Y-70165492D01*
X192033213Y-70152737D01*
X192029598Y-70148044D01*
X192053089Y-70104679D01*
X192099861Y-70054771D01*
X192129573Y-70021311D01*
X192149563Y-69975772D01*
X192161712Y-69904850D01*
X192167899Y-69795243D01*
X192170003Y-69633647D01*
X192170124Y-69557486D01*
X192170124Y-69123789D01*
X191748547Y-69123789D01*
X191326970Y-69123789D01*
X191326970Y-69552226D01*
X191327618Y-69732757D01*
X191331284Y-69857437D01*
X191340548Y-69940675D01*
X191357992Y-69996881D01*
X191386197Y-70040465D01*
X191421371Y-70079197D01*
X191515773Y-70177731D01*
X191228149Y-70177731D01*
X191095961Y-70174388D01*
X190995814Y-70165492D01*
X190944140Y-70152737D01*
X190940525Y-70148044D01*
X190964016Y-70104679D01*
X191010788Y-70054771D01*
X191032620Y-70031627D01*
X191049399Y-70000835D01*
X191061787Y-69953617D01*
X191070447Y-69881199D01*
X191076041Y-69774803D01*
X191079230Y-69625655D01*
X191080678Y-69424978D01*
X191081047Y-69163995D01*
X191081050Y-69123789D01*
X191080776Y-68854020D01*
X191079512Y-68645738D01*
X191076595Y-68490165D01*
X191071364Y-68378527D01*
X191063155Y-68302046D01*
X191051308Y-68251948D01*
X191035158Y-68219456D01*
X191014044Y-68195794D01*
X191010788Y-68192807D01*
X190958466Y-68135532D01*
X190940525Y-68099533D01*
X190972784Y-68085344D01*
X191058118Y-68074847D01*
X191179360Y-68069977D01*
X191204010Y-68069847D01*
X191329952Y-68073482D01*
X191423119Y-68083096D01*
X191466344Y-68096756D01*
X191467496Y-68099533D01*
X191444005Y-68142898D01*
X191397233Y-68192807D01*
X191364313Y-68231072D01*
X191343485Y-68284010D01*
X191332109Y-68367016D01*
X191327542Y-68495488D01*
X191326970Y-68602263D01*
X191326970Y-68948132D01*
X191748547Y-68948132D01*
X192170124Y-68948132D01*
X192170124Y-68602263D01*
X192168403Y-68438654D01*
X192161477Y-68329864D01*
X192146706Y-68260497D01*
X192121447Y-68215155D01*
X192099861Y-68192807D01*
X192047540Y-68135532D01*
X192029598Y-68099533D01*
X192061982Y-68085890D01*
X192148178Y-68075554D01*
X192271756Y-68070220D01*
X192317222Y-68069847D01*
X192604846Y-68069847D01*
X192510445Y-68168381D01*
G37*
%TD.AperFunction*%
%TA.AperFunction,EtchedComponent*%
G36*
X163716674Y-68073482D02*
G01*
X163809841Y-68083096D01*
X163853066Y-68096756D01*
X163854218Y-68099533D01*
X163830759Y-68143170D01*
X163786379Y-68190614D01*
X163763923Y-68215737D01*
X163746760Y-68251388D01*
X163733988Y-68306953D01*
X163724710Y-68391819D01*
X163718025Y-68515372D01*
X163713034Y-68686998D01*
X163708838Y-68916083D01*
X163707333Y-69015548D01*
X163703401Y-69266381D01*
X163699193Y-69457184D01*
X163693576Y-69598185D01*
X163685415Y-69699612D01*
X163673576Y-69771691D01*
X163656925Y-69824650D01*
X163634329Y-69868718D01*
X163608298Y-69908746D01*
X163470353Y-70053287D01*
X163292620Y-70152416D01*
X163092345Y-70201759D01*
X162886772Y-70196941D01*
X162702720Y-70138433D01*
X162545892Y-70022590D01*
X162465583Y-69915803D01*
X162436633Y-69864099D01*
X162414952Y-69814247D01*
X162399489Y-69755547D01*
X162389194Y-69677295D01*
X162383018Y-69568792D01*
X162379911Y-69419334D01*
X162378822Y-69218221D01*
X162378699Y-69030215D01*
X162378699Y-68292883D01*
X162290871Y-68210373D01*
X162231447Y-68146852D01*
X162203377Y-68101702D01*
X162203042Y-68098854D01*
X162235478Y-68085746D01*
X162322032Y-68075721D01*
X162446580Y-68070345D01*
X162501659Y-68069847D01*
X162636602Y-68072998D01*
X162739807Y-68081406D01*
X162795149Y-68093504D01*
X162800276Y-68098854D01*
X162776978Y-68140368D01*
X162720117Y-68203057D01*
X162712447Y-68210373D01*
X162682210Y-68240320D01*
X162659857Y-68272090D01*
X162644196Y-68316023D01*
X162634038Y-68382456D01*
X162628190Y-68481729D01*
X162625464Y-68624182D01*
X162624666Y-68820152D01*
X162624619Y-68972950D01*
X162626284Y-69245220D01*
X162632464Y-69456662D01*
X162644938Y-69616656D01*
X162665485Y-69734581D01*
X162695883Y-69819820D01*
X162737911Y-69881752D01*
X162793348Y-69929759D01*
X162807912Y-69939640D01*
X162966749Y-70008104D01*
X163127828Y-70015825D01*
X163275958Y-69966362D01*
X163395949Y-69863273D01*
X163441369Y-69791285D01*
X163463156Y-69738305D01*
X163479234Y-69671931D01*
X163490420Y-69581405D01*
X163497530Y-69455971D01*
X163501379Y-69284871D01*
X163502783Y-69057348D01*
X163502849Y-68980604D01*
X163502904Y-68292883D01*
X163415075Y-68210373D01*
X163355652Y-68146852D01*
X163327581Y-68101702D01*
X163327247Y-68098854D01*
X163359507Y-68084989D01*
X163444841Y-68074732D01*
X163566084Y-68069974D01*
X163590732Y-68069847D01*
X163716674Y-68073482D01*
G37*
%TD.AperFunction*%
%TA.AperFunction,EtchedComponent*%
G36*
X207820519Y-57394065D02*
G01*
X207988035Y-57397000D01*
X208247000Y-57404594D01*
X208448100Y-57415700D01*
X208603727Y-57433028D01*
X208726276Y-57459286D01*
X208828139Y-57497187D01*
X208921710Y-57549439D01*
X209019381Y-57618752D01*
X209026344Y-57624048D01*
X209149095Y-57756184D01*
X209237377Y-57927287D01*
X209277353Y-58109156D01*
X209278343Y-58137573D01*
X209249392Y-58327435D01*
X209168247Y-58506762D01*
X209046757Y-58656646D01*
X208896769Y-58758182D01*
X208886710Y-58762495D01*
X208812051Y-58810553D01*
X208803518Y-58857079D01*
X208844535Y-58946071D01*
X208913332Y-59076656D01*
X209001762Y-59235093D01*
X209101680Y-59407642D01*
X209204939Y-59580560D01*
X209303393Y-59740108D01*
X209388896Y-59872543D01*
X209453301Y-59964125D01*
X209475814Y-59991107D01*
X209545204Y-60068031D01*
X209588307Y-60124775D01*
X209595297Y-60140415D01*
X209562872Y-60151699D01*
X209476397Y-60160309D01*
X209352075Y-60164885D01*
X209299364Y-60165283D01*
X209003432Y-60165283D01*
X208677038Y-59532918D01*
X208350645Y-58900552D01*
X208182514Y-58900552D01*
X208014384Y-58900552D01*
X208014384Y-59403385D01*
X208014384Y-59906217D01*
X208119778Y-60007191D01*
X208185603Y-60076552D01*
X208222381Y-60127527D01*
X208225172Y-60136724D01*
X208192261Y-60147543D01*
X208102396Y-60156481D01*
X207968878Y-60162674D01*
X207805008Y-60165256D01*
X207786030Y-60165283D01*
X207619675Y-60163142D01*
X207482233Y-60157298D01*
X207387006Y-60148615D01*
X207347295Y-60137958D01*
X207346887Y-60136724D01*
X207370123Y-60096626D01*
X207428211Y-60031008D01*
X207452281Y-60007191D01*
X207557676Y-59906217D01*
X207557676Y-58777592D01*
X207557676Y-58654633D01*
X208014384Y-58654633D01*
X208233955Y-58654501D01*
X208402256Y-58643243D01*
X208527024Y-58606374D01*
X208569817Y-58583469D01*
X208690621Y-58472568D01*
X208761645Y-58328037D01*
X208783334Y-58165384D01*
X208756133Y-58000115D01*
X208680487Y-57847737D01*
X208556838Y-57723757D01*
X208544942Y-57715568D01*
X208440034Y-57662707D01*
X208314632Y-57639057D01*
X208219977Y-57635822D01*
X208014384Y-57635822D01*
X208014384Y-58145227D01*
X208014384Y-58654633D01*
X207557676Y-58654633D01*
X207557676Y-58145227D01*
X207557676Y-57648968D01*
X207452281Y-57547994D01*
X207386347Y-57477651D01*
X207349613Y-57424535D01*
X207346887Y-57414609D01*
X207380609Y-57404113D01*
X207476281Y-57397039D01*
X207625664Y-57393614D01*
X207820519Y-57394065D01*
G37*
%TD.AperFunction*%
%TA.AperFunction,EtchedComponent*%
G36*
X186589784Y-57391693D02*
G01*
X186768671Y-57439025D01*
X186935546Y-57504842D01*
X186935546Y-57769319D01*
X186935546Y-58033795D01*
X186693042Y-57799677D01*
X186543283Y-57665794D01*
X186423189Y-57587097D01*
X186322219Y-57561151D01*
X186229835Y-57585517D01*
X186135498Y-57657758D01*
X186124821Y-57668251D01*
X186044355Y-57796094D01*
X186019670Y-57955073D01*
X186051352Y-58132841D01*
X186097469Y-58243008D01*
X186138507Y-58309999D01*
X186211341Y-58416073D01*
X186307338Y-58549804D01*
X186417868Y-58699768D01*
X186534301Y-58854538D01*
X186648006Y-59002689D01*
X186750353Y-59132795D01*
X186832709Y-59233432D01*
X186886446Y-59293173D01*
X186898439Y-59303343D01*
X186921289Y-59284338D01*
X186943339Y-59215548D01*
X186948241Y-59189689D01*
X186968481Y-59027616D01*
X186962979Y-58911674D01*
X186927637Y-58821146D01*
X186858391Y-58735351D01*
X186746105Y-58619501D01*
X187093637Y-58619501D01*
X187441168Y-58619501D01*
X187328883Y-58735351D01*
X187250783Y-58834113D01*
X187219190Y-58933705D01*
X187216077Y-58990053D01*
X187207403Y-59100386D01*
X187185479Y-59243002D01*
X187162482Y-59354076D01*
X187135189Y-59476201D01*
X187126697Y-59554211D01*
X187139420Y-59612316D01*
X187175771Y-59674726D01*
X187197628Y-59706550D01*
X187276712Y-59807989D01*
X187377408Y-59921111D01*
X187426881Y-59971567D01*
X187504211Y-60051694D01*
X187555436Y-60113618D01*
X187567911Y-60137281D01*
X187535564Y-60150307D01*
X187449625Y-60160105D01*
X187326750Y-60165012D01*
X187287911Y-60165283D01*
X187146929Y-60163800D01*
X187057688Y-60155818D01*
X187001676Y-60136037D01*
X186960381Y-60099156D01*
X186932719Y-60063579D01*
X186857526Y-59961875D01*
X186734282Y-60045511D01*
X186619864Y-60110137D01*
X186499729Y-60159706D01*
X186483457Y-60164585D01*
X186327895Y-60190716D01*
X186143012Y-60197131D01*
X185960425Y-60184495D01*
X185811754Y-60153470D01*
X185802487Y-60150290D01*
X185593573Y-60042260D01*
X185434084Y-59888697D01*
X185329539Y-59697245D01*
X185285457Y-59475548D01*
X185284370Y-59432869D01*
X185285139Y-59427349D01*
X185742574Y-59427349D01*
X185770651Y-59611945D01*
X185835353Y-59769746D01*
X185908112Y-59859912D01*
X186048246Y-59940788D01*
X186218911Y-59972882D01*
X186399215Y-59955296D01*
X186566487Y-59888197D01*
X186636413Y-59831929D01*
X186667837Y-59777247D01*
X186667946Y-59771616D01*
X186645901Y-59726557D01*
X186587705Y-59637150D01*
X186500840Y-59514120D01*
X186392787Y-59368192D01*
X186320598Y-59273717D01*
X186183300Y-59097662D01*
X186080785Y-58974270D01*
X186005284Y-58900289D01*
X185949028Y-58872470D01*
X185904248Y-58887562D01*
X185863175Y-58942314D01*
X185818040Y-59033477D01*
X185806545Y-59058644D01*
X185753684Y-59236176D01*
X185742574Y-59427349D01*
X185285139Y-59427349D01*
X185316749Y-59200597D01*
X185409685Y-58994508D01*
X185556882Y-58825118D01*
X185709439Y-58723114D01*
X185844619Y-58654150D01*
X185742321Y-58492843D01*
X185632280Y-58270075D01*
X185586567Y-58055685D01*
X185604106Y-57856150D01*
X185683818Y-57677942D01*
X185824627Y-57527537D01*
X185912936Y-57467508D01*
X186012993Y-57415518D01*
X186108546Y-57386557D01*
X186227204Y-57374477D01*
X186338312Y-57372772D01*
X186589784Y-57391693D01*
G37*
%TD.AperFunction*%
%TA.AperFunction,EtchedComponent*%
G36*
X154667357Y-60232111D02*
G01*
X154774092Y-60667724D01*
X154876416Y-61082358D01*
X154973080Y-61471126D01*
X155062836Y-61829143D01*
X155144435Y-62151520D01*
X155216626Y-62433372D01*
X155278162Y-62669811D01*
X155327793Y-62855951D01*
X155364270Y-62986905D01*
X155386345Y-63057785D01*
X155392501Y-63069159D01*
X155405348Y-63028695D01*
X155434486Y-62926350D01*
X155478273Y-62768183D01*
X155535068Y-62560248D01*
X155603230Y-62308604D01*
X155681119Y-62019305D01*
X155767094Y-61698409D01*
X155859513Y-61351973D01*
X155950801Y-61008436D01*
X156047781Y-60642816D01*
X156139668Y-60296447D01*
X156224831Y-59975463D01*
X156301644Y-59686001D01*
X156368476Y-59434197D01*
X156423701Y-59226187D01*
X156465688Y-59068107D01*
X156492810Y-58966092D01*
X156503268Y-58926901D01*
X156504638Y-58903308D01*
X156487228Y-58886637D01*
X156441107Y-58875701D01*
X156356343Y-58869314D01*
X156223003Y-58866287D01*
X156031157Y-58865435D01*
X155988882Y-58865421D01*
X155457814Y-58865421D01*
X155457814Y-58110096D01*
X155457814Y-57354771D01*
X157073858Y-57354771D01*
X158689902Y-57354771D01*
X158689902Y-58110096D01*
X158689902Y-58865421D01*
X158238913Y-58865421D01*
X157787923Y-58865421D01*
X156912703Y-62194121D01*
X156037482Y-65522821D01*
X154860580Y-65522821D01*
X153683678Y-65522821D01*
X153170450Y-63500079D01*
X153077627Y-63134481D01*
X152989749Y-62788811D01*
X152908366Y-62469142D01*
X152835030Y-62181544D01*
X152771291Y-61932092D01*
X152718703Y-61726856D01*
X152678816Y-61571910D01*
X152653181Y-61473326D01*
X152643479Y-61437510D01*
X152632328Y-61463299D01*
X152604925Y-61551362D01*
X152562846Y-61696008D01*
X152507667Y-61891546D01*
X152440963Y-62132288D01*
X152364310Y-62412542D01*
X152279284Y-62726618D01*
X152187461Y-63068827D01*
X152090416Y-63433478D01*
X152083321Y-63460252D01*
X151536905Y-65522821D01*
X150360346Y-65532062D01*
X149183786Y-65541303D01*
X148357690Y-62212145D01*
X147531594Y-58882987D01*
X147050582Y-58873212D01*
X146569571Y-58863438D01*
X146569571Y-58109105D01*
X146569571Y-57354771D01*
X148747717Y-57354771D01*
X150925864Y-57354771D01*
X150925864Y-58110096D01*
X150925864Y-58865421D01*
X150363761Y-58865421D01*
X150173974Y-58867131D01*
X150011558Y-58871857D01*
X149888269Y-58878994D01*
X149815865Y-58887934D01*
X149801659Y-58894401D01*
X149810200Y-58932664D01*
X149834828Y-59033070D01*
X149874046Y-59189738D01*
X149926360Y-59396785D01*
X149990273Y-59648325D01*
X150064291Y-59938478D01*
X150146919Y-60261359D01*
X150236661Y-60611086D01*
X150332021Y-60981775D01*
X150346196Y-61036799D01*
X150442275Y-61409976D01*
X150533022Y-61762987D01*
X150616935Y-62089954D01*
X150692512Y-62385000D01*
X150758253Y-62642251D01*
X150812655Y-62855828D01*
X150854217Y-63019856D01*
X150881439Y-63128459D01*
X150892818Y-63175759D01*
X150893063Y-63177182D01*
X150902255Y-63148172D01*
X150928242Y-63056115D01*
X150969712Y-62905855D01*
X151025356Y-62702234D01*
X151093861Y-62450095D01*
X151173917Y-62154282D01*
X151264212Y-61819638D01*
X151363435Y-61451006D01*
X151470275Y-61053228D01*
X151583422Y-60631148D01*
X151675191Y-60288243D01*
X152454987Y-57372337D01*
X153209858Y-57363366D01*
X153964730Y-57354396D01*
X154667357Y-60232111D01*
G37*
%TD.AperFunction*%
%TA.AperFunction,EtchedComponent*%
G36*
X187103429Y-68166458D02*
G01*
X187068588Y-68215679D01*
X187027316Y-68298869D01*
X186977274Y-68422324D01*
X186916124Y-68592340D01*
X186841527Y-68815211D01*
X186751144Y-69097235D01*
X186715180Y-69211617D01*
X186625908Y-69494637D01*
X186554031Y-69717069D01*
X186496959Y-69885687D01*
X186452105Y-70007265D01*
X186416881Y-70088576D01*
X186388700Y-70136395D01*
X186364975Y-70157495D01*
X186352816Y-70160165D01*
X186327276Y-70150169D01*
X186299583Y-70114926D01*
X186266563Y-70046556D01*
X186225046Y-69937180D01*
X186171858Y-69778918D01*
X186103829Y-69563888D01*
X186073980Y-69467449D01*
X186008995Y-69258495D01*
X185950243Y-69073081D01*
X185901062Y-68921460D01*
X185864790Y-68813887D01*
X185844767Y-68760617D01*
X185842635Y-68756927D01*
X185827443Y-68783503D01*
X185794940Y-68867862D01*
X185748385Y-69000604D01*
X185691036Y-69172328D01*
X185626154Y-69373634D01*
X185599420Y-69458426D01*
X185520494Y-69706608D01*
X185457878Y-69894154D01*
X185408802Y-70028051D01*
X185370498Y-70115285D01*
X185340197Y-70162845D01*
X185315130Y-70177716D01*
X185314349Y-70177731D01*
X185259689Y-70145199D01*
X185218345Y-70063554D01*
X185198118Y-69998508D01*
X185160803Y-69877059D01*
X185109710Y-69710042D01*
X185048151Y-69508291D01*
X184979436Y-69282640D01*
X184931137Y-69123789D01*
X184839226Y-68827155D01*
X184762765Y-68593721D01*
X184699953Y-68418575D01*
X184648992Y-68296803D01*
X184608083Y-68223494D01*
X184595876Y-68208450D01*
X184539370Y-68142038D01*
X184511966Y-68097413D01*
X184511479Y-68094273D01*
X184543833Y-68082930D01*
X184629813Y-68074388D01*
X184752793Y-68070092D01*
X184792530Y-68069847D01*
X184923051Y-68072620D01*
X185021336Y-68079987D01*
X185070761Y-68090526D01*
X185073582Y-68093931D01*
X185052426Y-68135099D01*
X185008202Y-68190543D01*
X184986570Y-68217366D01*
X184973738Y-68247861D01*
X184971512Y-68291692D01*
X184981700Y-68358528D01*
X185006107Y-68458033D01*
X185046540Y-68599874D01*
X185104806Y-68793718D01*
X185146501Y-68930566D01*
X185208978Y-69135496D01*
X185264128Y-69316734D01*
X185308780Y-69463833D01*
X185339764Y-69566344D01*
X185353907Y-69613817D01*
X185354401Y-69615628D01*
X185365571Y-69591522D01*
X185392930Y-69512406D01*
X185432671Y-69390629D01*
X185480984Y-69238538D01*
X185534060Y-69068482D01*
X185588090Y-68892808D01*
X185639265Y-68723864D01*
X185683777Y-68573998D01*
X185717816Y-68455556D01*
X185737574Y-68380888D01*
X185740990Y-68362376D01*
X185719998Y-68310662D01*
X185667949Y-68234831D01*
X185653250Y-68216779D01*
X185596934Y-68144870D01*
X185566936Y-68096858D01*
X185565421Y-68091124D01*
X185597777Y-68081243D01*
X185683759Y-68073802D01*
X185806744Y-68070060D01*
X185846472Y-68069847D01*
X185976993Y-68072620D01*
X186075278Y-68079987D01*
X186124703Y-68090526D01*
X186127523Y-68093931D01*
X186105878Y-68134455D01*
X186058587Y-68191395D01*
X186035650Y-68217859D01*
X186021343Y-68246852D01*
X186017344Y-68288023D01*
X186025328Y-68351018D01*
X186046972Y-68445487D01*
X186083950Y-68581075D01*
X186137940Y-68767432D01*
X186188482Y-68939122D01*
X186249464Y-69143085D01*
X186304250Y-69320908D01*
X186349674Y-69462757D01*
X186382571Y-69558796D01*
X186399776Y-69599189D01*
X186401080Y-69599703D01*
X186415205Y-69563426D01*
X186446506Y-69470378D01*
X186491617Y-69330976D01*
X186547171Y-69155643D01*
X186609802Y-68954798D01*
X186619171Y-68924503D01*
X186688819Y-68698223D01*
X186739442Y-68529345D01*
X186772857Y-68408170D01*
X186790878Y-68324997D01*
X186795321Y-68270128D01*
X186788003Y-68233863D01*
X186770738Y-68206502D01*
X186756561Y-68190543D01*
X186707584Y-68129763D01*
X186689626Y-68093931D01*
X186721826Y-68082198D01*
X186806735Y-68073627D01*
X186926814Y-68069891D01*
X186942118Y-68069847D01*
X187194611Y-68069847D01*
X187103429Y-68166458D01*
G37*
%TD.AperFunction*%
%TA.AperFunction,EtchedComponent*%
G36*
X186992236Y-66295717D02*
G01*
X188455754Y-66295737D01*
X189852152Y-66295775D01*
X191183001Y-66295836D01*
X192449874Y-66295924D01*
X193654341Y-66296042D01*
X194797974Y-66296195D01*
X195882344Y-66296388D01*
X196909023Y-66296624D01*
X197879583Y-66296907D01*
X198795594Y-66297242D01*
X199658628Y-66297632D01*
X200470257Y-66298083D01*
X201232053Y-66298597D01*
X201945585Y-66299180D01*
X202612427Y-66299836D01*
X203234150Y-66300567D01*
X203812324Y-66301380D01*
X204348522Y-66302277D01*
X204844314Y-66303263D01*
X205301273Y-66304343D01*
X205720970Y-66305520D01*
X206104976Y-66306798D01*
X206454862Y-66308182D01*
X206772201Y-66309676D01*
X207058563Y-66311283D01*
X207315521Y-66313009D01*
X207544644Y-66314857D01*
X207747506Y-66316831D01*
X207925677Y-66318936D01*
X208080729Y-66321176D01*
X208214234Y-66323555D01*
X208327762Y-66326076D01*
X208422886Y-66328745D01*
X208501176Y-66331565D01*
X208564204Y-66334541D01*
X208613542Y-66337676D01*
X208650761Y-66340975D01*
X208677432Y-66344442D01*
X208695128Y-66348081D01*
X208705418Y-66351897D01*
X208709876Y-66355892D01*
X208710324Y-66357191D01*
X208708958Y-66361243D01*
X208702220Y-66365113D01*
X208688541Y-66368805D01*
X208666350Y-66372324D01*
X208634080Y-66375674D01*
X208590161Y-66378860D01*
X208533024Y-66381884D01*
X208461101Y-66384752D01*
X208372821Y-66387467D01*
X208266616Y-66390034D01*
X208140918Y-66392457D01*
X207994156Y-66394739D01*
X207824762Y-66396886D01*
X207631167Y-66398901D01*
X207411801Y-66400788D01*
X207165097Y-66402552D01*
X206889484Y-66404197D01*
X206583394Y-66405726D01*
X206245258Y-66407144D01*
X205873506Y-66408456D01*
X205466569Y-66409665D01*
X205022879Y-66410775D01*
X204540867Y-66411791D01*
X204018963Y-66412716D01*
X203455598Y-66413556D01*
X202849204Y-66414313D01*
X202198211Y-66414993D01*
X201501050Y-66415599D01*
X200756152Y-66416135D01*
X199961949Y-66416606D01*
X199116871Y-66417016D01*
X198219348Y-66417369D01*
X197267813Y-66417669D01*
X196260696Y-66417920D01*
X195196428Y-66418127D01*
X194073439Y-66418293D01*
X192890162Y-66418422D01*
X191645026Y-66418520D01*
X190336463Y-66418589D01*
X188962904Y-66418635D01*
X187522779Y-66418660D01*
X186014520Y-66418671D01*
X185460027Y-66418671D01*
X183927098Y-66418666D01*
X182462862Y-66418646D01*
X181065751Y-66418608D01*
X179734196Y-66418547D01*
X178466627Y-66418460D01*
X177261476Y-66418343D01*
X176117173Y-66418190D01*
X175032150Y-66417999D01*
X174004838Y-66417764D01*
X173033667Y-66417482D01*
X172117068Y-66417148D01*
X171253472Y-66416759D01*
X170441311Y-66416311D01*
X169679015Y-66415798D01*
X168965015Y-66415217D01*
X168297743Y-66414564D01*
X167675628Y-66413835D01*
X167097103Y-66413025D01*
X166560597Y-66412131D01*
X166064543Y-66411148D01*
X165607370Y-66410072D01*
X165187511Y-66408898D01*
X164803395Y-66407624D01*
X164453454Y-66406244D01*
X164136119Y-66404755D01*
X163849820Y-66403152D01*
X163592989Y-66401431D01*
X163364057Y-66399588D01*
X163161454Y-66397619D01*
X162983612Y-66395520D01*
X162828962Y-66393286D01*
X162695934Y-66390914D01*
X162582959Y-66388399D01*
X162488469Y-66385737D01*
X162410894Y-66382924D01*
X162348665Y-66379956D01*
X162300214Y-66376829D01*
X162263971Y-66373538D01*
X162238367Y-66370079D01*
X162221833Y-66366449D01*
X162212800Y-66362643D01*
X162209699Y-66358657D01*
X162209730Y-66357191D01*
X162212673Y-66353138D01*
X162220954Y-66349266D01*
X162236143Y-66345572D01*
X162259812Y-66342051D01*
X162293533Y-66338699D01*
X162338877Y-66335513D01*
X162397416Y-66332487D01*
X162470720Y-66329618D01*
X162560362Y-66326902D01*
X162667913Y-66324335D01*
X162794944Y-66321911D01*
X162943027Y-66319628D01*
X163113733Y-66317481D01*
X163308634Y-66315466D01*
X163529301Y-66313579D01*
X163777306Y-66311815D01*
X164054220Y-66310170D01*
X164361614Y-66308641D01*
X164701061Y-66307223D01*
X165074130Y-66305912D01*
X165482395Y-66304704D01*
X165927426Y-66303594D01*
X166410795Y-66302578D01*
X166934073Y-66301654D01*
X167498832Y-66300815D01*
X168106643Y-66300058D01*
X168759077Y-66299379D01*
X169457707Y-66298774D01*
X170204103Y-66298238D01*
X170999837Y-66297768D01*
X171846481Y-66297359D01*
X172745605Y-66297007D01*
X173698782Y-66296708D01*
X174707583Y-66296457D01*
X175773579Y-66296252D01*
X176898342Y-66296086D01*
X178083443Y-66295958D01*
X179330453Y-66295861D01*
X180640945Y-66295792D01*
X182016489Y-66295747D01*
X183458658Y-66295722D01*
X184969021Y-66295712D01*
X185460027Y-66295711D01*
X186992236Y-66295717D01*
G37*
%TD.AperFunction*%
%TD*%
D11*
%TO.P,R11,1*%
%TO.N,/A11*%
X152500000Y-114920000D03*
%TO.P,R11,2*%
%TO.N,GND*%
X152500000Y-117920000D03*
%TD*%
D12*
%TO.P,D3,1,K*%
%TO.N,GND*%
X145500000Y-115145000D03*
D13*
%TO.P,D3,2,A*%
%TO.N,Net-(D1-A)*%
X145500000Y-117685000D03*
%TD*%
D14*
%TO.P,H1,1,1*%
%TO.N,GND*%
X101500000Y-78000000D03*
%TD*%
D11*
%TO.P,A9,1*%
%TO.N,VCC*%
X125500000Y-96840000D03*
%TO.P,A9,2*%
%TO.N,/A9*%
X125500000Y-107000000D03*
%TD*%
D12*
%TO.P,D5,1,K*%
%TO.N,GND*%
X173000000Y-115145000D03*
D13*
%TO.P,D5,2,A*%
%TO.N,Net-(D1-A)*%
X173000000Y-117685000D03*
%TD*%
D11*
%TO.P,R15,1*%
%TO.N,VCC*%
X111500000Y-96840000D03*
%TO.P,R15,2*%
%TO.N,Net-(D1-A)*%
X111500000Y-107000000D03*
%TD*%
%TO.P,R4,1*%
%TO.N,VCC*%
X152500000Y-96840000D03*
%TO.P,R4,2*%
%TO.N,/A11*%
X152500000Y-107000000D03*
%TD*%
D12*
%TO.P,GND,1,K*%
%TO.N,GND*%
X118500000Y-115380000D03*
D13*
%TO.P,GND,2,A*%
%TO.N,Net-(D1-A)*%
X118500000Y-117920000D03*
%TD*%
D11*
%TO.P,R9,1*%
%TO.N,/A9*%
X125500000Y-114920000D03*
%TO.P,R9,2*%
%TO.N,GND*%
X125500000Y-117920000D03*
%TD*%
%TO.P,R14,1*%
%TO.N,/A14*%
X193000000Y-114920000D03*
%TO.P,R14,2*%
%TO.N,GND*%
X193000000Y-117920000D03*
%TD*%
D12*
%TO.P,D6,1,K*%
%TO.N,GND*%
X186500000Y-115145000D03*
D13*
%TO.P,D6,2,A*%
%TO.N,Net-(D1-A)*%
X186500000Y-117685000D03*
%TD*%
D11*
%TO.P,1K,1*%
%TO.N,VCC*%
X118500000Y-96840000D03*
%TO.P,1K,2*%
%TO.N,/A8*%
X118500000Y-107000000D03*
%TD*%
D14*
%TO.P,H4,1,1*%
%TO.N,GND*%
X101500000Y-127500000D03*
%TD*%
D11*
%TO.P,R5,1*%
%TO.N,VCC*%
X166000000Y-96840000D03*
%TO.P,R5,2*%
%TO.N,/A12*%
X166000000Y-107000000D03*
%TD*%
D14*
%TO.P,H3,1,1*%
%TO.N,GND*%
X201500000Y-127500000D03*
%TD*%
D11*
%TO.P,R8,1*%
%TO.N,/A8*%
X112000000Y-114920000D03*
%TO.P,R8,2*%
%TO.N,GND*%
X112000000Y-117920000D03*
%TD*%
D15*
%TO.P,J1,1,Pin_1*%
%TO.N,/A8*%
X148500000Y-84920000D03*
D16*
%TO.P,J1,2,Pin_2*%
%TO.N,/A9*%
X151040000Y-84920000D03*
%TO.P,J1,3,Pin_3*%
%TO.N,/A10*%
X153580000Y-84920000D03*
%TO.P,J1,4,Pin_4*%
%TO.N,/A11*%
X156120000Y-84920000D03*
%TO.P,J1,5,Pin_5*%
%TO.N,/A12*%
X158660000Y-84920000D03*
%TO.P,J1,6,Pin_6*%
%TO.N,/A13*%
X161200000Y-84920000D03*
%TO.P,J1,7,Pin_7*%
%TO.N,/A14*%
X163740000Y-84920000D03*
%TD*%
D11*
%TO.P,R7,1*%
%TO.N,VCC*%
X193000000Y-96840000D03*
%TO.P,R7,2*%
%TO.N,/A14*%
X193000000Y-107000000D03*
%TD*%
%TO.P,R6,1*%
%TO.N,VCC*%
X179500000Y-96840000D03*
%TO.P,R6,2*%
%TO.N,/A13*%
X179500000Y-107000000D03*
%TD*%
D14*
%TO.P,H2,1,1*%
%TO.N,GND*%
X201500000Y-78000000D03*
%TD*%
D12*
%TO.P,D2,1,K*%
%TO.N,GND*%
X132000000Y-115145000D03*
D13*
%TO.P,D2,2,A*%
%TO.N,Net-(D1-A)*%
X132000000Y-117685000D03*
%TD*%
D11*
%TO.P,R10,1*%
%TO.N,/A10*%
X139000000Y-114920000D03*
%TO.P,R10,2*%
%TO.N,GND*%
X139000000Y-117920000D03*
%TD*%
%TO.P,R12,1*%
%TO.N,/A12*%
X166000000Y-114920000D03*
%TO.P,R12,2*%
%TO.N,GND*%
X166000000Y-117920000D03*
%TD*%
D15*
%TO.P,VCC,1,Pin_1*%
%TO.N,VCC*%
X158500000Y-101645000D03*
D16*
%TO.P,VCC,2,Pin_2*%
%TO.N,GND*%
X158500000Y-104185000D03*
%TD*%
D12*
%TO.P,D4,1,K*%
%TO.N,GND*%
X159500000Y-115145000D03*
D13*
%TO.P,D4,2,A*%
%TO.N,Net-(D1-A)*%
X159500000Y-117685000D03*
%TD*%
D11*
%TO.P,R13,1*%
%TO.N,/A13*%
X179500000Y-114920000D03*
%TO.P,R13,2*%
%TO.N,GND*%
X179500000Y-117920000D03*
%TD*%
%TO.P,R3,1*%
%TO.N,VCC*%
X139000000Y-96840000D03*
%TO.P,R3,2*%
%TO.N,/A10*%
X139000000Y-107000000D03*
%TD*%
%TO.N,Net-(D1-A)*%
D17*
X163235000Y-121420000D02*
X169265000Y-121420000D01*
X106500000Y-112000000D02*
X106500000Y-121420000D01*
X173000000Y-117685000D02*
X169265000Y-121420000D01*
X128265000Y-121420000D02*
X135500000Y-121420000D01*
X111500000Y-107000000D02*
X106500000Y-112000000D01*
X141765000Y-121420000D02*
X149000000Y-121420000D01*
X155765000Y-121420000D02*
X163235000Y-121420000D01*
X176735000Y-121420000D02*
X182765000Y-121420000D01*
X118500000Y-117920000D02*
X122000000Y-121420000D01*
X145500000Y-117685000D02*
X145500000Y-117920000D01*
X159500000Y-117685000D02*
X163235000Y-121420000D01*
X132000000Y-117920000D02*
X135500000Y-121420000D01*
X118500000Y-117920000D02*
X115000000Y-121420000D01*
X145500000Y-117920000D02*
X149000000Y-121420000D01*
X159500000Y-117685000D02*
X155765000Y-121420000D01*
X115000000Y-121420000D02*
X122000000Y-121420000D01*
X169265000Y-121420000D02*
X176735000Y-121420000D01*
X132000000Y-117685000D02*
X128265000Y-121420000D01*
X173000000Y-117685000D02*
X176735000Y-121420000D01*
X182765000Y-121420000D02*
X186500000Y-117685000D01*
X145500000Y-117685000D02*
X141765000Y-121420000D01*
X122000000Y-121420000D02*
X128265000Y-121420000D01*
X106500000Y-121420000D02*
X115000000Y-121420000D01*
X149000000Y-121420000D02*
X155765000Y-121420000D01*
X132000000Y-117685000D02*
X132000000Y-117920000D01*
X135500000Y-121420000D02*
X141765000Y-121420000D01*
%TO.N,/A12*%
X163000000Y-95920000D02*
X163000000Y-105420000D01*
X158660000Y-91580000D02*
X163000000Y-95920000D01*
X164580000Y-107000000D02*
X166000000Y-107000000D01*
X166000000Y-114920000D02*
X166000000Y-107000000D01*
X158660000Y-84920000D02*
X158660000Y-91580000D01*
X163000000Y-105420000D02*
X164580000Y-107000000D01*
%TO.N,/A8*%
X118920000Y-107000000D02*
X118500000Y-107000000D01*
X148500000Y-84920000D02*
X130000000Y-84920000D01*
X121500000Y-93420000D02*
X121500000Y-104420000D01*
X118500000Y-107000000D02*
X112000000Y-113500000D01*
X112000000Y-113500000D02*
X112000000Y-114920000D01*
X121500000Y-104420000D02*
X118920000Y-107000000D01*
X130000000Y-84920000D02*
X121500000Y-93420000D01*
%TO.N,/A11*%
X156120000Y-84920000D02*
X156120000Y-86800000D01*
X152500000Y-114920000D02*
X152500000Y-107000000D01*
X156120000Y-86800000D02*
X148000000Y-94920000D01*
X148000000Y-104920000D02*
X150080000Y-107000000D01*
X150080000Y-107000000D02*
X152500000Y-107000000D01*
X148000000Y-94920000D02*
X148000000Y-104920000D01*
%TO.N,/A9*%
X125500000Y-107000000D02*
X125500000Y-114920000D01*
X151040000Y-86122081D02*
X149242081Y-87920000D01*
X151040000Y-84920000D02*
X151040000Y-86122081D01*
X127420000Y-107000000D02*
X125500000Y-107000000D01*
X149242081Y-87920000D02*
X141500000Y-87920000D01*
X132000000Y-102420000D02*
X127420000Y-107000000D01*
X141500000Y-87920000D02*
X132000000Y-97420000D01*
X132000000Y-97420000D02*
X132000000Y-102420000D01*
%TO.N,/A10*%
X143000000Y-103000000D02*
X139000000Y-107000000D01*
X153580000Y-86122081D02*
X143000000Y-96702081D01*
X143000000Y-96702081D02*
X143000000Y-103000000D01*
X139000000Y-107000000D02*
X139000000Y-114920000D01*
X153580000Y-84920000D02*
X153580000Y-86122081D01*
%TO.N,/A13*%
X161200000Y-84920000D02*
X172500000Y-96220000D01*
X172500000Y-96220000D02*
X172500000Y-102420000D01*
X177080000Y-107000000D02*
X179500000Y-107000000D01*
X172500000Y-102420000D02*
X177080000Y-107000000D01*
X179500000Y-107000000D02*
X179500000Y-114920000D01*
%TO.N,/A14*%
X193000000Y-114920000D02*
X193000000Y-107000000D01*
X190080000Y-107000000D02*
X193000000Y-107000000D01*
X186000000Y-97420000D02*
X186000000Y-102920000D01*
X186000000Y-102920000D02*
X190080000Y-107000000D01*
X166740000Y-87920000D02*
X176500000Y-87920000D01*
X163740000Y-84920000D02*
X166740000Y-87920000D01*
X176500000Y-87920000D02*
X186000000Y-97420000D01*
%TD*%
M02*
