%TF.GenerationSoftware,KiCad,Pcbnew,10.0.0*%
%TF.CreationDate,2026-04-25T23:15:49-07:00*%
%TF.ProjectId,EE_201_FINAL_final_sensor,45455f32-3031-45f4-9649-4e414c5f6669,rev?*%
%TF.SameCoordinates,Original*%
%TF.FileFunction,Soldermask,Bot*%
%TF.FilePolarity,Negative*%
%FSLAX46Y46*%
G04 Gerber Fmt 4.6, Leading zero omitted, Abs format (unit mm)*
G04 Created by KiCad (PCBNEW 10.0.0) date 2026-04-25 23:15:49*
%MOMM*%
%LPD*%
G01*
G04 APERTURE LIST*
%ADD10C,1.600000*%
%ADD11R,1.800000X1.800000*%
%ADD12C,1.800000*%
%ADD13C,6.400000*%
%ADD14R,1.700000X1.700000*%
%ADD15C,1.700000*%
G04 APERTURE END LIST*
D10*
%TO.C,R11*%
X152500000Y-114920000D03*
X152500000Y-117920000D03*
%TD*%
D11*
%TO.C,D3*%
X145500000Y-115145000D03*
D12*
X145500000Y-117685000D03*
%TD*%
D13*
%TO.C,H1*%
X101500000Y-78000000D03*
%TD*%
D10*
%TO.C,A9*%
X125500000Y-96840000D03*
X125500000Y-107000000D03*
%TD*%
D11*
%TO.C,D5*%
X173000000Y-115145000D03*
D12*
X173000000Y-117685000D03*
%TD*%
D10*
%TO.C,R15*%
X111500000Y-96840000D03*
X111500000Y-107000000D03*
%TD*%
%TO.C,R4*%
X152500000Y-96840000D03*
X152500000Y-107000000D03*
%TD*%
D11*
%TO.C,GND*%
X118500000Y-115380000D03*
D12*
X118500000Y-117920000D03*
%TD*%
D10*
%TO.C,R9*%
X125500000Y-114920000D03*
X125500000Y-117920000D03*
%TD*%
%TO.C,R14*%
X193000000Y-114920000D03*
X193000000Y-117920000D03*
%TD*%
D11*
%TO.C,D6*%
X186500000Y-115145000D03*
D12*
X186500000Y-117685000D03*
%TD*%
D10*
%TO.C,1K*%
X118500000Y-96840000D03*
X118500000Y-107000000D03*
%TD*%
D13*
%TO.C,H4*%
X101500000Y-127500000D03*
%TD*%
D10*
%TO.C,R5*%
X166000000Y-96840000D03*
X166000000Y-107000000D03*
%TD*%
D13*
%TO.C,H3*%
X201500000Y-127500000D03*
%TD*%
D10*
%TO.C,R8*%
X112000000Y-114920000D03*
X112000000Y-117920000D03*
%TD*%
D14*
%TO.C,J1*%
X148500000Y-84920000D03*
D15*
X151040000Y-84920000D03*
X153580000Y-84920000D03*
X156120000Y-84920000D03*
X158660000Y-84920000D03*
X161200000Y-84920000D03*
X163740000Y-84920000D03*
%TD*%
D10*
%TO.C,R7*%
X193000000Y-96840000D03*
X193000000Y-107000000D03*
%TD*%
%TO.C,R6*%
X179500000Y-96840000D03*
X179500000Y-107000000D03*
%TD*%
D13*
%TO.C,H2*%
X201500000Y-78000000D03*
%TD*%
D11*
%TO.C,D2*%
X132000000Y-115145000D03*
D12*
X132000000Y-117685000D03*
%TD*%
D10*
%TO.C,R10*%
X139000000Y-114920000D03*
X139000000Y-117920000D03*
%TD*%
%TO.C,R12*%
X166000000Y-114920000D03*
X166000000Y-117920000D03*
%TD*%
D14*
%TO.C,VCC*%
X158500000Y-101645000D03*
D15*
X158500000Y-104185000D03*
%TD*%
D11*
%TO.C,D4*%
X159500000Y-115145000D03*
D12*
X159500000Y-117685000D03*
%TD*%
D10*
%TO.C,R13*%
X179500000Y-114920000D03*
X179500000Y-117920000D03*
%TD*%
%TO.C,R3*%
X139000000Y-96840000D03*
X139000000Y-107000000D03*
%TD*%
M02*
